<?xml version="1.0" encoding="UTF-8" standalone="no"?>
<!DOCTYPE svg PUBLIC "-//W3C//DTD SVG 1.1//EN" "http://www.w3.org/Graphics/SVG/1.1/DTD/svg11.dtd">
<svg width="5369" height="1650" viewBox="0 0 5369 1650" version="1.1" xmlns="http://www.w3.org/2000/svg" xmlns:xlink="http://www.w3.org/1999/xlink" xml:space="preserve" xmlns:serif="http://www.serif.com/" style="fill-rule:evenodd;clip-rule:evenodd;stroke-linejoin:round;stroke-miterlimit:2;">
    <g transform="matrix(5.981523,0,0,5.84215,-363.728647,-1127.789148)">
        <path d="M83.355,292.249C73.876,298.194 73.951,298.157 65.514,305.527C60.482,309.922 69.686,284.891 72.967,277.694C123.479,166.914 272.607,163.926 323.985,274.273C330.224,287.672 335.167,307.513 333.329,309.349C332.422,310.256 310.209,322.248 284.497,322.094C223.075,321.725 182.849,263.866 110.423,281.188C96.347,284.555 85.368,291.057 83.355,292.249Z" style="fill:rgb(234,197,175);"/>
    </g>
    <g transform="matrix(5.961439,0,0,5.969615,-354.025782,-1168.609451)">
        <path d="M335.903,327.497C335.857,329.843 335.358,355.489 331.5,356.502C330.871,356.667 330.219,356.736 329.585,356.88C324.036,358.141 323.591,361.73 320.438,359.581C301.977,346.996 289.633,376.297 255.676,394.869C252.814,396.435 250.634,398.132 251.086,394.465C254.166,369.443 223.795,376.91 215.492,376.81C172.753,376.295 153.801,352.079 109.488,367.469C87.512,375.101 73.601,391.448 71.364,390.694C70.343,390.35 58.173,361.141 59.485,332.499C60.006,321.122 60.884,319.293 62.634,317.644C132.408,251.892 205.038,311.805 240.457,324.63C296.807,345.035 333.165,316.176 335.13,318.749C335.548,319.297 335.369,319.272 335.903,327.497Z" style="fill:rgb(141,187,190);"/>
    </g>
    <g transform="matrix(5.978507,0,0,5.90118,-354.470103,-1144.381456)">
        <path d="M202.463,410.038C198.986,410.153 189.705,408.077 165.775,419.984C159.837,422.939 160.277,423.891 160.694,424.218C163.509,426.426 169.948,414.318 193.438,417.994C238.963,425.119 248.584,422.236 289.648,401.774C319.727,386.786 326.764,404.303 319.445,410.437C308.017,420.015 307.722,419.592 297.188,430.192C221.254,506.597 112.886,472.202 75.794,400.346C73.115,395.155 97.791,380.783 101.693,378.944C147.049,357.574 173.787,384.736 211.497,383.395C226.713,382.854 248.181,376.036 245.029,395.409C242.943,408.233 217.935,408.818 202.463,410.038Z" style="fill:rgb(3,79,94);"/>
    </g>
    <g transform="matrix(6.013634,0,0,6.013634,-365.785046,-1186.069948)">
        <path d="M323.439,399.636C313.381,386.357 296.486,399.131 301.891,392.735C314.503,377.807 326.152,357.25 339.603,363.278C340.447,363.656 346.255,367.174 341.151,375.299C332.664,388.808 325.739,398.213 324.316,400.147L323.439,399.636Z" style="fill:rgb(3,79,94);"/>
    </g>
    <g transform="matrix(6.013634,0,0,6.013634,-365.785046,-1186.069948)">
        <path d="M311.5,364.053C319.069,364.768 319.089,367.827 317.527,369.524C307.774,380.127 298.715,395.035 294.307,397.056C265.941,410.058 266.144,410.545 263.513,411.197C258.236,412.505 263.949,409.54 268.249,406.223C293.96,386.392 295.153,365.439 311.5,364.053Z" style="fill:rgb(3,79,94);"/>
    </g>
    <g transform="matrix(6.013634,0,0,6.013634,-365.785046,-1186.069948)">
        <path d="M266.674,397.739C270.624,394.666 275.306,391.63 285.589,381.594C302.947,364.653 281.458,394.519 257.196,412.087C254.238,414.229 228.075,418.489 232.816,414.937C235.711,412.768 239.354,417.224 266.674,397.739Z" style="fill:rgb(3,79,94);"/>
    </g>
    <g transform="matrix(6.591337,0,0,6.591337,1895,843.736352)">
        <g>
            <g transform="matrix(1,0,0,1,0.684175,67.820893)">
                <g>
                    <path d="M29.297,1.375C25.547,1.375 22.035,0.77 18.766,-0.438C15.504,-1.656 12.66,-3.422 10.234,-5.734C7.859,-7.984 5.984,-10.77 4.609,-14.094C3.242,-17.426 2.562,-21.086 2.562,-25.078C2.562,-29.035 3.25,-32.703 4.625,-36.078C6.008,-39.453 7.953,-42.379 10.453,-44.859C12.898,-47.273 15.836,-49.148 19.266,-50.484C22.703,-51.816 26.379,-52.484 30.297,-52.484C33.129,-52.484 35.707,-52.141 38.031,-51.453C40.363,-50.773 42.336,-50.004 43.953,-49.141L46.188,-51.125L49.312,-51.125L49.641,-32.453L46.469,-32.453C44.664,-38.148 42.504,-42.332 39.984,-45C37.461,-47.664 34.391,-49 30.766,-49C26.254,-49 22.82,-47.008 20.469,-43.031C18.113,-39.062 16.938,-33.484 16.938,-26.297C16.938,-22.234 17.336,-18.766 18.141,-15.891C18.941,-13.023 19.992,-10.719 21.297,-8.969C22.68,-7.145 24.32,-5.805 26.219,-4.953C28.125,-4.098 30.227,-3.672 32.531,-3.672C35.895,-3.672 38.891,-4.582 41.516,-6.406C44.148,-8.238 46.547,-11.004 48.703,-14.703L51.812,-12.828C50.77,-10.711 49.586,-8.816 48.266,-7.141C46.953,-5.473 45.43,-4.039 43.703,-2.844C41.805,-1.52 39.707,-0.488 37.406,0.25C35.113,1 32.41,1.375 29.297,1.375Z" style="fill:rgb(36,51,47);fill-rule:nonzero;"/>
                </g>
            </g>
        </g>
        <g>
            <g transform="matrix(1,0,0,1,53.458074,67.820893)">
                <g>
                    <path d="M43.266,-0.75C42.211,-0.301 40.961,0.113 39.516,0.5C38.078,0.883 36.551,1.078 34.938,1.078C31.988,1.078 29.816,0.641 28.422,-0.234C27.023,-1.109 26.078,-2.363 25.578,-4L25.359,-4C24.547,-3.188 23.758,-2.488 23,-1.906C22.25,-1.332 21.441,-0.844 20.578,-0.438C19.441,0.094 18.352,0.484 17.312,0.734C16.27,0.984 14.812,1.109 12.938,1.109C10.145,1.109 7.766,0.289 5.797,-1.344C3.828,-2.988 2.844,-5.172 2.844,-7.891C2.844,-9.453 3.055,-10.781 3.484,-11.875C3.922,-12.969 4.535,-13.93 5.328,-14.766C6.047,-15.535 6.879,-16.172 7.828,-16.672C8.785,-17.18 9.828,-17.648 10.953,-18.078C13.109,-18.879 15.695,-19.703 18.719,-20.547C21.75,-21.398 23.961,-22.164 25.359,-22.844L25.359,-26.297C25.359,-26.898 25.312,-27.691 25.219,-28.672C25.125,-29.66 24.922,-30.488 24.609,-31.156C24.266,-31.926 23.734,-32.578 23.016,-33.109C22.297,-33.641 21.348,-33.906 20.172,-33.906C19.117,-33.906 18.238,-33.754 17.531,-33.453C16.82,-33.148 16.25,-32.844 15.812,-32.531C15.883,-32.051 16.086,-31.316 16.422,-30.328C16.766,-29.348 16.938,-28.398 16.938,-27.484C16.938,-27.078 16.828,-26.566 16.609,-25.953C16.391,-25.336 16.078,-24.852 15.672,-24.5C15.117,-24.02 14.5,-23.645 13.812,-23.375C13.133,-23.113 12.082,-22.984 10.656,-22.984C8.645,-22.984 7.125,-23.469 6.094,-24.438C5.062,-25.414 4.547,-26.688 4.547,-28.25C4.547,-29.594 5.078,-30.797 6.141,-31.859C7.211,-32.93 8.516,-33.816 10.047,-34.516C11.566,-35.234 13.312,-35.789 15.281,-36.188C17.25,-36.582 19.07,-36.781 20.75,-36.781C23.082,-36.781 25.219,-36.641 27.156,-36.359C29.102,-36.086 30.859,-35.52 32.422,-34.656C33.91,-33.812 35.094,-32.594 35.969,-31C36.844,-29.406 37.281,-27.32 37.281,-24.75C37.281,-22.031 37.227,-18.812 37.125,-15.094C37.02,-11.375 36.969,-8.926 36.969,-7.75C36.969,-6.664 37.129,-5.812 37.453,-5.188C37.773,-4.562 38.27,-4.094 38.938,-3.781C39.352,-3.594 40,-3.477 40.875,-3.438C41.75,-3.406 42.547,-3.391 43.266,-3.391L43.266,-0.75ZM25.359,-19.531C24.016,-19.07 22.68,-18.547 21.359,-17.953C20.035,-17.367 18.957,-16.754 18.125,-16.109C17.227,-15.43 16.531,-14.566 16.031,-13.516C15.531,-12.473 15.281,-11.242 15.281,-9.828C15.281,-7.961 15.703,-6.609 16.547,-5.766C17.398,-4.922 18.453,-4.5 19.703,-4.5C21.023,-4.5 22.113,-4.77 22.969,-5.312C23.82,-5.852 24.57,-6.52 25.219,-7.312L25.359,-19.531Z" style="fill:rgb(36,51,47);fill-rule:nonzero;"/>
                </g>
            </g>
        </g>
        <g>
            <g transform="matrix(1,0,0,1,97.406304,67.820893)">
                <g>
                    <path d="M49.641,0L27.953,0L27.953,-2.625C28.41,-2.676 28.961,-2.738 29.609,-2.812C30.266,-2.883 30.758,-3.004 31.094,-3.172C31.594,-3.43 31.953,-3.812 32.172,-4.312C32.391,-4.82 32.5,-5.57 32.5,-6.562L32.5,-23.422C32.5,-25.867 32.047,-27.707 31.141,-28.938C30.242,-30.176 28.914,-30.797 27.156,-30.797C26.195,-30.797 25.301,-30.648 24.469,-30.359C23.645,-30.078 22.836,-29.66 22.047,-29.109C21.348,-28.629 20.789,-28.133 20.375,-27.625C19.957,-27.125 19.602,-26.68 19.312,-26.297L19.312,-6.953C19.312,-6.109 19.43,-5.406 19.672,-4.844C19.91,-4.281 20.305,-3.852 20.859,-3.562C21.242,-3.352 21.723,-3.16 22.297,-2.984C22.879,-2.816 23.445,-2.695 24,-2.625L24,0L2.094,0L2.094,-2.625C2.688,-2.676 3.289,-2.742 3.906,-2.828C4.52,-2.91 5.039,-3.023 5.469,-3.172C6.238,-3.43 6.77,-3.836 7.062,-4.391C7.352,-4.941 7.5,-5.664 7.5,-6.562L7.5,-27.531C7.5,-28.27 7.305,-29 6.922,-29.719C6.535,-30.438 6.031,-31.023 5.406,-31.484C4.969,-31.773 4.422,-32.016 3.766,-32.203C3.109,-32.398 2.379,-32.535 1.578,-32.609L1.578,-35.234L18.766,-36.172L19.312,-35.625L19.312,-30.406L19.453,-30.406C20.129,-31.008 20.945,-31.727 21.906,-32.562C22.863,-33.406 23.75,-34.094 24.562,-34.625C25.457,-35.195 26.625,-35.688 28.062,-36.094C29.5,-36.5 31.035,-36.703 32.672,-36.703C36.586,-36.703 39.523,-35.594 41.484,-33.375C43.441,-31.156 44.422,-28.207 44.422,-24.531L44.422,-6.875C44.422,-5.988 44.551,-5.281 44.812,-4.75C45.082,-4.227 45.578,-3.812 46.297,-3.5C46.68,-3.332 47.156,-3.16 47.719,-2.984C48.281,-2.816 48.922,-2.695 49.641,-2.625L49.641,0Z" style="fill:rgb(36,51,47);fill-rule:nonzero;"/>
                </g>
            </g>
        </g>
        <g>
            <g transform="matrix(1,0,0,1,148.307,67.820893)">
                <g>
                    <path d="M22.656,1.156C19.32,1.156 16.375,0.672 13.812,-0.297C11.258,-1.273 9.156,-2.602 7.5,-4.281C5.832,-5.988 4.594,-8.004 3.781,-10.328C2.969,-12.66 2.562,-15.195 2.562,-17.938C2.562,-20.438 3.055,-22.812 4.047,-25.062C5.047,-27.32 6.398,-29.305 8.109,-31.016C9.859,-32.766 12.035,-34.16 14.641,-35.203C17.242,-36.254 20.117,-36.781 23.266,-36.781C27.691,-36.781 31.188,-35.945 33.75,-34.281C36.32,-32.613 37.609,-30.363 37.609,-27.531C37.609,-25.801 37.148,-24.406 36.234,-23.344C35.328,-22.289 33.754,-21.766 31.516,-21.766C29.723,-21.766 28.219,-22.195 27,-23.062C25.789,-23.926 25.188,-25.051 25.188,-26.438C25.188,-27.613 25.375,-28.781 25.75,-29.938C26.133,-31.094 26.363,-31.969 26.438,-32.562C26.176,-33 25.844,-33.332 25.438,-33.562C25.031,-33.789 24.395,-33.906 23.531,-33.906C22.445,-33.906 21.457,-33.648 20.562,-33.141C19.676,-32.641 18.848,-31.754 18.078,-30.484C17.336,-29.273 16.742,-27.66 16.297,-25.641C15.859,-23.629 15.641,-21.207 15.641,-18.375C15.641,-14.094 16.641,-10.645 18.641,-8.031C20.648,-5.414 23.047,-4.109 25.828,-4.109C28.492,-4.109 30.613,-4.703 32.188,-5.891C33.758,-7.078 35.16,-8.766 36.391,-10.953L39.094,-9.078C38.344,-7.609 37.453,-6.27 36.422,-5.062C35.391,-3.852 34.156,-2.781 32.719,-1.844C31.195,-0.852 29.656,-0.109 28.094,0.391C26.539,0.898 24.727,1.156 22.656,1.156Z" style="fill:rgb(36,51,47);fill-rule:nonzero;"/>
                </g>
            </g>
        </g>
        <g>
            <g transform="matrix(1,0,0,1,187.500176,67.820893)">
                <g>
                    <path d="M40.812,-8.609C39.977,-7.242 38.961,-5.953 37.766,-4.734C36.578,-3.523 35.227,-2.488 33.719,-1.625C32.113,-0.707 30.488,-0.016 28.844,0.453C27.195,0.922 25.305,1.156 23.172,1.156C19.609,1.156 16.535,0.648 13.953,-0.359C11.379,-1.367 9.25,-2.727 7.562,-4.438C5.883,-6.133 4.629,-8.141 3.797,-10.453C2.973,-12.773 2.562,-15.297 2.562,-18.016C2.562,-20.461 3.008,-22.805 3.906,-25.047C4.812,-27.297 6.094,-29.297 7.75,-31.047C9.383,-32.754 11.441,-34.133 13.922,-35.188C16.41,-36.25 19.191,-36.781 22.266,-36.781C25.629,-36.781 28.391,-36.367 30.547,-35.547C32.711,-34.734 34.504,-33.609 35.922,-32.172C37.285,-30.805 38.281,-29.191 38.906,-27.328C39.531,-25.461 39.844,-23.508 39.844,-21.469L39.844,-19.125L15.484,-19.125C15.484,-14.207 16.43,-10.461 18.328,-7.891C20.234,-5.316 23.25,-4.031 27.375,-4.031C29.633,-4.031 31.664,-4.648 33.469,-5.891C35.27,-7.129 36.805,-8.695 38.078,-10.594L40.812,-8.609ZM27.062,-22.297C27.062,-23.742 26.988,-25.223 26.844,-26.734C26.695,-28.242 26.441,-29.477 26.078,-30.438C25.672,-31.57 25.113,-32.426 24.406,-33C23.695,-33.57 22.801,-33.859 21.719,-33.859C19.875,-33.859 18.398,-32.922 17.297,-31.047C16.191,-29.18 15.586,-26.219 15.484,-22.156L27.062,-22.297Z" style="fill:rgb(36,51,47);fill-rule:nonzero;"/>
                </g>
            </g>
        </g>
        <g>
            <g transform="matrix(1,0,0,1,229.683259,67.820893)">
                <g>
                    <path d="M37.969,-29.141C37.969,-27.316 37.398,-25.711 36.266,-24.328C35.141,-22.953 33.656,-22.266 31.812,-22.266C30.062,-22.266 28.578,-22.707 27.359,-23.594C26.148,-24.488 25.547,-25.801 25.547,-27.531C25.547,-28.363 25.602,-29.016 25.719,-29.484C25.844,-29.953 25.953,-30.391 26.047,-30.797C24.941,-30.754 23.773,-30.367 22.547,-29.641C21.328,-28.922 20.25,-27.961 19.312,-26.766L19.312,-6.984C19.312,-6.148 19.441,-5.457 19.703,-4.906C19.973,-4.352 20.422,-3.922 21.047,-3.609C21.566,-3.336 22.422,-3.113 23.609,-2.938C24.797,-2.758 25.656,-2.656 26.188,-2.625L26.188,0L2.094,0L2.094,-2.625C2.688,-2.676 3.289,-2.742 3.906,-2.828C4.52,-2.91 5.039,-3.023 5.469,-3.172C6.238,-3.43 6.77,-3.836 7.062,-4.391C7.352,-4.941 7.5,-5.664 7.5,-6.562L7.5,-27.531C7.5,-28.395 7.289,-29.164 6.875,-29.844C6.469,-30.531 5.977,-31.078 5.406,-31.484C4.969,-31.773 4.422,-32.016 3.766,-32.203C3.109,-32.398 2.379,-32.535 1.578,-32.609L1.578,-35.234L18.766,-36.172L19.312,-35.625L19.312,-30.406L19.453,-30.406C21.109,-32.32 22.867,-33.828 24.734,-34.922C26.598,-36.016 28.535,-36.562 30.547,-36.562C32.785,-36.562 34.582,-35.867 35.938,-34.484C37.289,-33.109 37.969,-31.328 37.969,-29.141Z" style="fill:rgb(36,51,47);fill-rule:nonzero;"/>
                </g>
            </g>
        </g>
        <g>
            <g transform="matrix(1,0,0,1,286.779948,67.820893)">
                <g>
                    <path d="M61.172,0L41.578,0C38.191,-5.188 35.375,-9.316 33.125,-12.391C30.875,-15.461 28.082,-19.02 24.75,-23.062L22.766,-23.062L22.766,-7.531C22.766,-6.664 22.926,-5.93 23.25,-5.328C23.57,-4.734 24.191,-4.227 25.109,-3.812C25.566,-3.625 26.281,-3.426 27.25,-3.219C28.227,-3.02 29.062,-2.883 29.75,-2.812L29.75,0L2.484,0L2.484,-2.812C3.18,-2.883 4.098,-2.984 5.234,-3.109C6.379,-3.242 7.191,-3.41 7.672,-3.609C8.586,-3.984 9.203,-4.461 9.516,-5.047C9.828,-5.641 9.984,-6.395 9.984,-7.312L9.984,-43.375C9.984,-44.238 9.848,-44.957 9.578,-45.531C9.316,-46.113 8.68,-46.617 7.672,-47.047C6.898,-47.359 5.992,-47.625 4.953,-47.844C3.91,-48.062 3.086,-48.219 2.484,-48.312L2.484,-51.125L31.156,-51.125C37.57,-51.125 42.441,-50.117 45.766,-48.109C49.098,-46.109 50.766,-43.078 50.766,-39.016C50.766,-35.43 49.734,-32.551 47.672,-30.375C45.617,-28.207 42.492,-26.516 38.297,-25.297C39.93,-23.18 41.832,-20.727 44,-17.938C46.176,-15.156 48.441,-12.312 50.797,-9.406C51.535,-8.469 52.547,-7.316 53.828,-5.953C55.117,-4.598 56.258,-3.766 57.25,-3.453C57.801,-3.285 58.5,-3.141 59.344,-3.016C60.195,-2.898 60.805,-2.832 61.172,-2.812L61.172,0ZM36.641,-38C36.641,-41.414 35.68,-43.91 33.766,-45.484C31.859,-47.055 29.141,-47.844 25.609,-47.844L22.766,-47.844L22.766,-26.438L25.5,-26.438C29.031,-26.438 31.77,-27.359 33.719,-29.203C35.664,-31.055 36.641,-33.988 36.641,-38Z" style="fill:rgb(36,51,47);fill-rule:nonzero;"/>
                </g>
            </g>
        </g>
        <g>
            <g transform="matrix(1,0,0,1,345.605748,67.820893)">
                <g>
                    <path d="M40.812,-8.609C39.977,-7.242 38.961,-5.953 37.766,-4.734C36.578,-3.523 35.227,-2.488 33.719,-1.625C32.113,-0.707 30.488,-0.016 28.844,0.453C27.195,0.922 25.305,1.156 23.172,1.156C19.609,1.156 16.535,0.648 13.953,-0.359C11.379,-1.367 9.25,-2.727 7.562,-4.438C5.883,-6.133 4.629,-8.141 3.797,-10.453C2.973,-12.773 2.562,-15.297 2.562,-18.016C2.562,-20.461 3.008,-22.805 3.906,-25.047C4.812,-27.297 6.094,-29.297 7.75,-31.047C9.383,-32.754 11.441,-34.133 13.922,-35.188C16.41,-36.25 19.191,-36.781 22.266,-36.781C25.629,-36.781 28.391,-36.367 30.547,-35.547C32.711,-34.734 34.504,-33.609 35.922,-32.172C37.285,-30.805 38.281,-29.191 38.906,-27.328C39.531,-25.461 39.844,-23.508 39.844,-21.469L39.844,-19.125L15.484,-19.125C15.484,-14.207 16.43,-10.461 18.328,-7.891C20.234,-5.316 23.25,-4.031 27.375,-4.031C29.633,-4.031 31.664,-4.648 33.469,-5.891C35.27,-7.129 36.805,-8.695 38.078,-10.594L40.812,-8.609ZM27.062,-22.297C27.062,-23.742 26.988,-25.223 26.844,-26.734C26.695,-28.242 26.441,-29.477 26.078,-30.438C25.672,-31.57 25.113,-32.426 24.406,-33C23.695,-33.57 22.801,-33.859 21.719,-33.859C19.875,-33.859 18.398,-32.922 17.297,-31.047C16.191,-29.18 15.586,-26.219 15.484,-22.156L27.062,-22.297Z" style="fill:rgb(36,51,47);fill-rule:nonzero;"/>
                </g>
            </g>
        </g>
        <g>
            <g transform="matrix(1,0,0,1,387.788831,67.820893)">
                <g>
                    <path d="M48.922,0L27.234,0L27.234,-2.625C27.711,-2.676 28.273,-2.738 28.922,-2.812C29.578,-2.883 30.062,-3.004 30.375,-3.172C30.875,-3.43 31.223,-3.812 31.422,-4.312C31.629,-4.82 31.734,-5.57 31.734,-6.562L31.734,-23.422C31.734,-25.891 31.27,-27.734 30.344,-28.953C29.426,-30.18 28.113,-30.797 26.406,-30.797C25.445,-30.797 24.551,-30.648 23.719,-30.359C22.895,-30.078 22.086,-29.66 21.297,-29.109C20.598,-28.629 20.035,-28.133 19.609,-27.625C19.191,-27.125 18.836,-26.68 18.547,-26.297L18.547,-6.953C18.547,-6.066 18.656,-5.363 18.875,-4.844C19.094,-4.332 19.504,-3.906 20.109,-3.562C20.461,-3.352 20.93,-3.16 21.516,-2.984C22.109,-2.816 22.68,-2.695 23.234,-2.625L23.234,0L1.328,0L1.328,-2.625C1.953,-2.676 2.555,-2.738 3.141,-2.812C3.734,-2.883 4.258,-3.004 4.719,-3.172C5.488,-3.461 6.008,-3.875 6.281,-4.406C6.562,-4.945 6.703,-5.664 6.703,-6.562L6.703,-46.719C6.703,-47.488 6.52,-48.305 6.156,-49.172C5.801,-50.035 5.297,-50.688 4.641,-51.125C4.16,-51.438 3.461,-51.68 2.547,-51.859C1.641,-52.035 0.828,-52.148 0.109,-52.203L0.109,-54.828L18.016,-55.766L18.547,-55.188L18.547,-30.406L18.703,-30.406C19.609,-31.219 20.426,-31.953 21.156,-32.609C21.895,-33.273 22.789,-33.945 23.844,-34.625C24.738,-35.195 25.898,-35.688 27.328,-36.094C28.754,-36.5 30.297,-36.703 31.953,-36.703C35.848,-36.703 38.77,-35.586 40.719,-33.359C42.676,-31.129 43.656,-28.188 43.656,-24.531L43.656,-6.875C43.656,-5.988 43.785,-5.281 44.047,-4.75C44.316,-4.227 44.812,-3.812 45.531,-3.5C45.969,-3.301 46.445,-3.129 46.969,-2.984C47.5,-2.848 48.148,-2.727 48.922,-2.625L48.922,0Z" style="fill:rgb(36,51,47);fill-rule:nonzero;"/>
                </g>
            </g>
        </g>
        <g>
            <g transform="matrix(1,0,0,1,437.933015,67.820893)">
                <g>
                    <path d="M43.266,-0.75C42.211,-0.301 40.961,0.113 39.516,0.5C38.078,0.883 36.551,1.078 34.938,1.078C31.988,1.078 29.816,0.641 28.422,-0.234C27.023,-1.109 26.078,-2.363 25.578,-4L25.359,-4C24.547,-3.188 23.758,-2.488 23,-1.906C22.25,-1.332 21.441,-0.844 20.578,-0.438C19.441,0.094 18.352,0.484 17.312,0.734C16.27,0.984 14.812,1.109 12.938,1.109C10.145,1.109 7.766,0.289 5.797,-1.344C3.828,-2.988 2.844,-5.172 2.844,-7.891C2.844,-9.453 3.055,-10.781 3.484,-11.875C3.922,-12.969 4.535,-13.93 5.328,-14.766C6.047,-15.535 6.879,-16.172 7.828,-16.672C8.785,-17.18 9.828,-17.648 10.953,-18.078C13.109,-18.879 15.695,-19.703 18.719,-20.547C21.75,-21.398 23.961,-22.164 25.359,-22.844L25.359,-26.297C25.359,-26.898 25.312,-27.691 25.219,-28.672C25.125,-29.66 24.922,-30.488 24.609,-31.156C24.266,-31.926 23.734,-32.578 23.016,-33.109C22.297,-33.641 21.348,-33.906 20.172,-33.906C19.117,-33.906 18.238,-33.754 17.531,-33.453C16.82,-33.148 16.25,-32.844 15.812,-32.531C15.883,-32.051 16.086,-31.316 16.422,-30.328C16.766,-29.348 16.938,-28.398 16.938,-27.484C16.938,-27.078 16.828,-26.566 16.609,-25.953C16.391,-25.336 16.078,-24.852 15.672,-24.5C15.117,-24.02 14.5,-23.645 13.812,-23.375C13.133,-23.113 12.082,-22.984 10.656,-22.984C8.645,-22.984 7.125,-23.469 6.094,-24.438C5.062,-25.414 4.547,-26.688 4.547,-28.25C4.547,-29.594 5.078,-30.797 6.141,-31.859C7.211,-32.93 8.516,-33.816 10.047,-34.516C11.566,-35.234 13.312,-35.789 15.281,-36.188C17.25,-36.582 19.07,-36.781 20.75,-36.781C23.082,-36.781 25.219,-36.641 27.156,-36.359C29.102,-36.086 30.859,-35.52 32.422,-34.656C33.91,-33.812 35.094,-32.594 35.969,-31C36.844,-29.406 37.281,-27.32 37.281,-24.75C37.281,-22.031 37.227,-18.812 37.125,-15.094C37.02,-11.375 36.969,-8.926 36.969,-7.75C36.969,-6.664 37.129,-5.812 37.453,-5.188C37.773,-4.562 38.27,-4.094 38.938,-3.781C39.352,-3.594 40,-3.477 40.875,-3.438C41.75,-3.406 42.547,-3.391 43.266,-3.391L43.266,-0.75ZM25.359,-19.531C24.016,-19.07 22.68,-18.547 21.359,-17.953C20.035,-17.367 18.957,-16.754 18.125,-16.109C17.227,-15.43 16.531,-14.566 16.031,-13.516C15.531,-12.473 15.281,-11.242 15.281,-9.828C15.281,-7.961 15.703,-6.609 16.547,-5.766C17.398,-4.922 18.453,-4.5 19.703,-4.5C21.023,-4.5 22.113,-4.77 22.969,-5.312C23.82,-5.852 24.57,-6.52 25.219,-7.312L25.359,-19.531Z" style="fill:rgb(36,51,47);fill-rule:nonzero;"/>
                </g>
            </g>
        </g>
        <g>
            <g transform="matrix(1,0,0,1,481.881298,67.820893)">
                <g>
                    <path d="M45.062,-17.609C45.062,-12.211 43.281,-7.734 39.719,-4.172C36.156,-0.617 31.633,1.156 26.156,1.156C24.039,1.156 22.219,1.004 20.688,0.703C19.164,0.398 17.879,0.035 16.828,-0.391C15.723,-0.848 14.836,-1.297 14.172,-1.734C13.516,-2.18 12.992,-2.551 12.609,-2.844L7.453,1.844L5.328,1.016C5.453,-0.742 5.555,-2.648 5.641,-4.703C5.723,-6.754 5.766,-9.52 5.766,-13L5.766,-46.719C5.766,-47.633 5.578,-48.484 5.203,-49.266C4.828,-50.047 4.328,-50.641 3.703,-51.047C3.254,-51.336 2.586,-51.586 1.703,-51.797C0.828,-52.016 0.02,-52.148 -0.719,-52.203L-0.719,-54.828L17.078,-55.766L17.609,-55.188L17.609,-31.781L17.828,-31.781C19.586,-33.477 21.391,-34.723 23.234,-35.516C25.086,-36.305 26.938,-36.703 28.781,-36.703C33.82,-36.703 37.797,-34.984 40.703,-31.547C43.609,-28.117 45.062,-23.473 45.062,-17.609ZM32.141,-17.188C32.141,-19.008 32,-20.766 31.719,-22.453C31.445,-24.148 30.984,-25.648 30.328,-26.953C29.68,-28.242 28.828,-29.281 27.766,-30.062C26.711,-30.844 25.406,-31.234 23.844,-31.234C22.383,-31.234 21.172,-30.992 20.203,-30.516C19.242,-30.035 18.379,-29.328 17.609,-28.391L17.609,-7.422C17.754,-6.941 18.023,-6.312 18.422,-5.531C18.816,-4.75 19.223,-4.141 19.641,-3.703C20.211,-3.086 20.82,-2.613 21.469,-2.281C22.113,-1.957 23.023,-1.797 24.203,-1.797C26.66,-1.797 28.598,-3.133 30.016,-5.812C31.43,-8.488 32.141,-12.281 32.141,-17.188Z" style="fill:rgb(36,51,47);fill-rule:nonzero;"/>
                </g>
            </g>
        </g>
    </g>
    <g transform="matrix(6.591337,0,0,6.591337,1901.591337,237.333339)">
        <g>
            <g transform="matrix(1,0,0,1,0.322692,73.256324)">
                <g>
                    <path d="M65.906,-52.031C65.188,-51.945 64.156,-51.801 62.812,-51.594C61.469,-51.383 60.25,-50.879 59.156,-50.078C58.207,-49.379 57.531,-48.18 57.125,-46.484C56.727,-44.797 56.531,-42.312 56.531,-39.031L56.531,0.312L49.625,0.312L15.328,-42.25L15.328,-16.406C15.328,-13.195 15.539,-10.758 15.969,-9.094C16.395,-7.426 17.086,-6.207 18.047,-5.438C18.742,-4.863 19.852,-4.359 21.375,-3.922C22.906,-3.484 24.117,-3.188 25.016,-3.031L25.016,0L1.359,0L1.359,-3.031C2.367,-3.102 3.523,-3.285 4.828,-3.578C6.141,-3.879 7.234,-4.344 8.109,-4.969C9.117,-5.719 9.812,-6.848 10.188,-8.359C10.562,-9.867 10.75,-12.41 10.75,-15.984L10.75,-42.047C10.75,-43.348 10.547,-44.57 10.141,-45.719C9.742,-46.875 9.117,-47.863 8.266,-48.688C7.359,-49.562 6.316,-50.25 5.141,-50.75C3.961,-51.258 2.625,-51.66 1.125,-51.953L1.125,-55.047L21.844,-55.047L51.953,-17.812L51.953,-38.641C51.953,-41.953 51.727,-44.414 51.281,-46.031C50.844,-47.645 50.145,-48.844 49.188,-49.625C48.438,-50.219 47.32,-50.727 45.844,-51.156C44.375,-51.582 43.188,-51.875 42.281,-52.031L42.281,-55.047L65.906,-55.047L65.906,-52.031Z" style="fill:rgb(63,102,92);fill-rule:nonzero;"/>
                </g>
            </g>
        </g>
        <g>
            <g transform="matrix(1,0,0,1,67.014138,73.256324)">
                <g>
                    <path d="M43.953,-9.266C43.047,-7.797 41.953,-6.406 40.672,-5.094C39.391,-3.789 37.938,-2.676 36.312,-1.75C34.582,-0.758 32.828,-0.016 31.047,0.484C29.273,0.984 27.242,1.234 24.953,1.234C21.117,1.234 17.812,0.691 15.031,-0.391C12.25,-1.473 9.953,-2.93 8.141,-4.766C6.336,-6.609 4.988,-8.773 4.094,-11.266C3.195,-13.766 2.75,-16.473 2.75,-19.391C2.75,-22.035 3.234,-24.566 4.203,-26.984C5.18,-29.398 6.562,-31.551 8.344,-33.438C10.102,-35.281 12.32,-36.77 15,-37.906C17.676,-39.039 20.664,-39.609 23.969,-39.609C27.594,-39.609 30.566,-39.164 32.891,-38.281C35.223,-37.406 37.148,-36.191 38.672,-34.641C40.148,-33.172 41.223,-31.43 41.891,-29.422C42.566,-27.422 42.906,-25.32 42.906,-23.125L42.906,-20.594L16.688,-20.594C16.688,-15.289 17.707,-11.254 19.75,-8.484C21.789,-5.723 25.035,-4.344 29.484,-4.344C31.91,-4.344 34.094,-5.008 36.031,-6.344C37.977,-7.676 39.633,-9.363 41,-11.406L43.953,-9.266ZM29.141,-24.016C29.141,-25.566 29.062,-27.156 28.906,-28.781C28.75,-30.414 28.477,-31.75 28.094,-32.781C27.645,-34 27.039,-34.914 26.281,-35.531C25.52,-36.156 24.555,-36.469 23.391,-36.469C21.398,-36.469 19.812,-35.457 18.625,-33.438C17.438,-31.426 16.789,-28.234 16.688,-23.859L29.141,-24.016Z" style="fill:rgb(63,102,92);fill-rule:nonzero;"/>
                </g>
            </g>
        </g>
        <g>
            <g transform="matrix(1,0,0,1,112.445019,73.256324)">
                <g>
                    <path d="M46.484,0L22.234,0L22.234,-2.828C23.492,-2.91 24.551,-3.02 25.406,-3.156C26.258,-3.301 26.688,-3.594 26.688,-4.031C26.688,-4.238 26.578,-4.562 26.359,-5C26.141,-5.445 25.863,-5.941 25.531,-6.484C25.039,-7.285 24.191,-8.551 22.984,-10.281C21.785,-12.008 20.656,-13.613 19.594,-15.094C18.094,-13.352 16.836,-11.863 15.828,-10.625C14.816,-9.383 13.754,-8.055 12.641,-6.641C12.254,-6.172 11.984,-5.738 11.828,-5.344C11.672,-4.957 11.594,-4.727 11.594,-4.656C11.594,-4.062 12.016,-3.609 12.859,-3.297C13.703,-2.984 14.707,-2.828 15.875,-2.828L15.875,0L0.109,0L0.109,-2.828C2.211,-3.266 3.891,-3.961 5.141,-4.922C6.391,-5.879 7.238,-6.617 7.688,-7.141C9.57,-9.16 11.164,-10.832 12.469,-12.156C13.781,-13.488 15.535,-15.359 17.734,-17.766C16.254,-19.805 14.469,-22.301 12.375,-25.25C10.281,-28.195 8.535,-30.617 7.141,-32.516C6.441,-33.441 5.586,-34.156 4.578,-34.656C3.566,-35.164 2.258,-35.5 0.656,-35.656L0.656,-38.484L24.359,-38.484L24.359,-35.656C23.504,-35.656 22.66,-35.602 21.828,-35.5C21.004,-35.395 20.594,-35.211 20.594,-34.953C20.594,-34.742 20.656,-34.484 20.781,-34.172C20.914,-33.867 21.086,-33.547 21.297,-33.203C21.785,-32.379 22.562,-31.164 23.625,-29.562C24.688,-27.957 25.828,-26.273 27.047,-24.516C28.203,-25.941 29.176,-27.109 29.969,-28.016C30.758,-28.922 31.773,-30.195 33.016,-31.844C33.484,-32.469 33.773,-32.938 33.891,-33.25C34.004,-33.562 34.062,-33.754 34.062,-33.828C34.062,-34.266 33.781,-34.656 33.219,-35C32.664,-35.352 31.578,-35.57 29.953,-35.656L29.953,-38.484L45.391,-38.484L45.391,-35.656C44.117,-35.445 42.891,-35.02 41.703,-34.375C40.516,-33.727 39.273,-32.719 37.984,-31.344C35.961,-29.25 34.492,-27.719 33.578,-26.75C32.66,-25.781 31.141,-24.172 29.016,-21.922C30.203,-20.234 31.922,-17.785 34.172,-14.578C36.422,-11.379 38.363,-8.68 40,-6.484C40.695,-5.492 41.477,-4.688 42.344,-4.062C43.207,-3.445 44.586,-3.035 46.484,-2.828L46.484,0Z" style="fill:rgb(63,102,92);fill-rule:nonzero;"/>
                </g>
            </g>
        </g>
        <g>
            <g transform="matrix(1,0,0,1,159.156184,73.256324)">
                <g>
                    <path d="M31.109,-1.781C29.453,-1.062 27.68,-0.41 25.797,0.172C23.91,0.754 21.609,1.047 18.891,1.047C14.859,1.047 11.863,0.066 9.906,-1.891C7.957,-3.859 6.984,-6.664 6.984,-10.312L6.984,-34.141L0,-34.141L0,-38.328L7.141,-38.328L7.141,-50.078L19.75,-50.078L19.75,-38.328L30.609,-38.328L30.609,-34.141L19.828,-34.141L19.828,-12.875C19.828,-9.852 20.242,-7.707 21.078,-6.438C21.922,-5.176 23.43,-4.547 25.609,-4.547C26.305,-4.547 27.273,-4.594 28.516,-4.688C29.754,-4.789 30.617,-4.91 31.109,-5.047L31.109,-1.781Z" style="fill:rgb(63,102,92);fill-rule:nonzero;"/>
                </g>
            </g>
        </g>
        <g>
            <g transform="matrix(1,0,0,1,210.910913,73.256324)">
                <g>
                    <path d="M90.969,-51.953C90.164,-51.867 89.363,-51.691 88.562,-51.422C87.77,-51.148 86.984,-50.805 86.203,-50.391C85.016,-49.723 84.164,-48.988 83.656,-48.188C83.156,-47.383 82.695,-46.414 82.281,-45.281C80.863,-41.344 78.672,-35.039 75.703,-26.375C72.742,-17.719 69.66,-8.719 66.453,0.625L58.656,0.625L44.109,-40.312L31,0.625L23.203,0.625C18.879,-11.945 15.566,-21.625 13.266,-28.406C10.961,-35.195 9.023,-40.895 7.453,-45.5C6.961,-46.906 6.406,-47.922 5.781,-48.547C5.156,-49.18 4.352,-49.82 3.375,-50.469C2.676,-50.938 1.93,-51.281 1.141,-51.5C0.359,-51.719 -0.551,-51.895 -1.594,-52.031L-1.594,-55.047L27.781,-55.047L27.781,-52.109C26.039,-51.898 24.742,-51.695 23.891,-51.5C23.047,-51.301 22.375,-51.102 21.875,-50.906C21.414,-50.695 21.133,-50.473 21.031,-50.234C20.926,-50.004 20.875,-49.801 20.875,-49.625C20.875,-49.258 20.914,-48.906 21,-48.562C21.094,-48.227 21.191,-47.844 21.297,-47.406C21.922,-45.383 23.176,-41.555 25.062,-35.922C26.945,-30.285 29.273,-23.289 32.047,-14.938L44.578,-55.047L52.797,-55.047L67.344,-13.688C69.488,-20.344 71.203,-25.773 72.484,-29.984C73.766,-34.203 74.848,-37.812 75.734,-40.812C76.242,-42.645 76.656,-44.18 76.969,-45.422C77.281,-46.672 77.438,-47.75 77.438,-48.656C77.438,-49.195 77.18,-49.66 76.672,-50.047C76.172,-50.43 75.492,-50.77 74.641,-51.062C73.922,-51.289 72.984,-51.473 71.828,-51.609C70.68,-51.754 69.68,-51.867 68.828,-51.953L68.828,-55.047L90.969,-55.047L90.969,-51.953Z" style="fill:rgb(63,102,92);fill-rule:nonzero;"/>
                </g>
            </g>
        </g>
        <g>
            <g transform="matrix(1,0,0,1,300.414801,73.256324)">
                <g>
                    <path d="M46.594,-0.812C45.457,-0.32 44.113,0.125 42.562,0.531C41.008,0.945 39.363,1.156 37.625,1.156C34.445,1.156 32.109,0.688 30.609,-0.25C29.109,-1.195 28.086,-2.551 27.547,-4.312L27.312,-4.312C26.438,-3.426 25.586,-2.672 24.766,-2.047C23.953,-1.43 23.082,-0.906 22.156,-0.469C20.938,0.102 19.766,0.523 18.641,0.797C17.516,1.066 15.941,1.203 13.922,1.203C10.922,1.203 8.359,0.316 6.234,-1.453C4.117,-3.223 3.062,-5.57 3.062,-8.5C3.062,-10.176 3.297,-11.602 3.766,-12.781C4.234,-13.957 4.891,-15 5.734,-15.906C6.516,-16.727 7.414,-17.41 8.438,-17.953C9.457,-18.504 10.578,-19.008 11.797,-19.469C14.117,-20.32 16.91,-21.207 20.172,-22.125C23.43,-23.051 25.812,-23.875 27.312,-24.594L27.312,-28.328C27.312,-28.973 27.258,-29.82 27.156,-30.875C27.051,-31.938 26.832,-32.832 26.5,-33.562C26.133,-34.383 25.562,-35.078 24.781,-35.641C24.008,-36.211 22.988,-36.5 21.719,-36.5C20.582,-36.5 19.633,-36.336 18.875,-36.016C18.113,-35.691 17.5,-35.363 17.031,-35.031C17.102,-34.508 17.32,-33.719 17.688,-32.656C18.051,-31.602 18.234,-30.582 18.234,-29.594C18.234,-29.156 18.113,-28.609 17.875,-27.953C17.645,-27.297 17.312,-26.77 16.875,-26.375C16.281,-25.863 15.613,-25.461 14.875,-25.172C14.133,-24.891 13.004,-24.75 11.484,-24.75C9.305,-24.75 7.66,-25.27 6.547,-26.312C5.441,-27.363 4.891,-28.734 4.891,-30.422C4.891,-31.867 5.461,-33.164 6.609,-34.312C7.766,-35.469 9.172,-36.422 10.828,-37.172C12.453,-37.941 14.32,-38.539 16.438,-38.969C18.562,-39.395 20.531,-39.609 22.344,-39.609C24.852,-39.609 27.156,-39.457 29.25,-39.156C31.344,-38.863 33.234,-38.254 34.922,-37.328C36.523,-36.422 37.797,-35.102 38.734,-33.375C39.68,-31.656 40.156,-29.414 40.156,-26.656C40.156,-23.727 40.094,-20.258 39.969,-16.25C39.852,-12.238 39.797,-9.602 39.797,-8.344C39.797,-7.176 39.973,-6.254 40.328,-5.578C40.68,-4.91 41.219,-4.41 41.938,-4.078C42.375,-3.867 43.062,-3.742 44,-3.703C44.945,-3.66 45.812,-3.641 46.594,-3.641L46.594,-0.812ZM27.312,-21.031C25.863,-20.539 24.426,-19.977 23,-19.344C21.582,-18.707 20.422,-18.039 19.516,-17.344C18.555,-16.613 17.805,-15.688 17.266,-14.562C16.723,-13.438 16.453,-12.113 16.453,-10.594C16.453,-8.57 16.91,-7.109 17.828,-6.203C18.742,-5.297 19.875,-4.844 21.219,-4.844C22.645,-4.844 23.816,-5.133 24.734,-5.719C25.648,-6.301 26.457,-7.02 27.156,-7.875L27.312,-21.031Z" style="fill:rgb(63,102,92);fill-rule:nonzero;"/>
                </g>
            </g>
        </g>
        <g>
            <g transform="matrix(1,0,0,1,347.746686,73.256324)">
                <g>
                    <path d="M46.484,-35.656C45.316,-35.469 44.18,-35.023 43.078,-34.328C41.984,-33.629 41.07,-32.547 40.344,-31.078C38.531,-27.297 36.75,-23.484 35,-19.641C33.258,-15.805 31.551,-12.094 29.875,-8.5C29.352,-7.406 28.766,-6.004 28.109,-4.297C27.453,-2.598 26.898,-1.051 26.453,0.344L19.312,0.344C16.344,-6.562 13.801,-12.289 11.688,-16.844C9.582,-21.395 7.352,-26.281 5,-31.5C4.457,-32.719 3.609,-33.676 2.453,-34.375C1.305,-35.07 0.141,-35.5 -1.047,-35.656L-1.047,-38.484L22.844,-38.484L22.844,-35.656C21.969,-35.625 20.938,-35.426 19.75,-35.062C18.562,-34.707 17.969,-34.242 17.969,-33.672C17.969,-33.516 18.016,-33.281 18.109,-32.969C18.211,-32.664 18.344,-32.316 18.5,-31.922C19.332,-29.961 20.582,-27.133 22.25,-23.438C23.914,-19.738 25.68,-15.844 27.547,-11.75C28.836,-14.57 30.07,-17.332 31.25,-20.031C32.426,-22.738 33.879,-26.188 35.609,-30.375C35.848,-31 35.984,-31.504 36.016,-31.891C36.055,-32.273 36.078,-32.535 36.078,-32.672C36.078,-33.129 35.848,-33.531 35.391,-33.875C34.941,-34.227 34.41,-34.535 33.797,-34.797C33.148,-35.055 32.523,-35.25 31.922,-35.375C31.328,-35.508 30.836,-35.602 30.453,-35.656L30.453,-38.484L46.484,-38.484L46.484,-35.656Z" style="fill:rgb(63,102,92);fill-rule:nonzero;"/>
                </g>
            </g>
        </g>
        <g>
            <g transform="matrix(1,0,0,1,392.789615,73.256324)">
                <g>
                    <path d="M43.953,-9.266C43.047,-7.797 41.953,-6.406 40.672,-5.094C39.391,-3.789 37.938,-2.676 36.312,-1.75C34.582,-0.758 32.828,-0.016 31.047,0.484C29.273,0.984 27.242,1.234 24.953,1.234C21.117,1.234 17.812,0.691 15.031,-0.391C12.25,-1.473 9.953,-2.93 8.141,-4.766C6.336,-6.609 4.988,-8.773 4.094,-11.266C3.195,-13.766 2.75,-16.473 2.75,-19.391C2.75,-22.035 3.234,-24.566 4.203,-26.984C5.18,-29.398 6.562,-31.551 8.344,-33.438C10.102,-35.281 12.32,-36.77 15,-37.906C17.676,-39.039 20.664,-39.609 23.969,-39.609C27.594,-39.609 30.566,-39.164 32.891,-38.281C35.223,-37.406 37.148,-36.191 38.672,-34.641C40.148,-33.172 41.223,-31.43 41.891,-29.422C42.566,-27.422 42.906,-25.32 42.906,-23.125L42.906,-20.594L16.688,-20.594C16.688,-15.289 17.707,-11.254 19.75,-8.484C21.789,-5.723 25.035,-4.344 29.484,-4.344C31.91,-4.344 34.094,-5.008 36.031,-6.344C37.977,-7.676 39.633,-9.363 41,-11.406L43.953,-9.266ZM29.141,-24.016C29.141,-25.566 29.062,-27.156 28.906,-28.781C28.75,-30.414 28.477,-31.75 28.094,-32.781C27.645,-34 27.039,-34.914 26.281,-35.531C25.52,-36.156 24.555,-36.469 23.391,-36.469C21.398,-36.469 19.812,-35.457 18.625,-33.438C17.438,-31.426 16.789,-28.234 16.688,-23.859L29.141,-24.016Z" style="fill:rgb(63,102,92);fill-rule:nonzero;"/>
                </g>
            </g>
        </g>
    </g>
</svg>
