<?xml version="1.0" encoding="UTF-8" standalone="no"?>
<!DOCTYPE svg PUBLIC "-//W3C//DTD SVG 1.1//EN" "http://www.w3.org/Graphics/SVG/1.1/DTD/svg11.dtd">
<svg width="100%" height="100%" viewBox="0 0 7418 1650" version="1.1" xmlns="http://www.w3.org/2000/svg" xmlns:xlink="http://www.w3.org/1999/xlink" xml:space="preserve" xmlns:serif="http://www.serif.com/" style="fill-rule:evenodd;clip-rule:evenodd;stroke-linejoin:round;stroke-miterlimit:2;">
    <g transform="matrix(12.225776,0,0,12.225776,1790.558338,750.070817)">
        <g>
            <path d="M57.938,-45.734C57.301,-45.66 56.391,-45.531 55.203,-45.344C54.023,-45.164 52.957,-44.727 52,-44.031C51.164,-43.414 50.57,-42.363 50.219,-40.875C49.863,-39.383 49.688,-37.195 49.688,-34.312L49.688,0.266L43.625,0.266L13.469,-37.141L13.469,-14.422C13.469,-11.609 13.656,-9.469 14.031,-8C14.406,-6.531 15.016,-5.457 15.859,-4.781C16.473,-4.281 17.445,-3.832 18.781,-3.438C20.125,-3.051 21.195,-2.789 22,-2.656L22,0L1.188,0L1.188,-2.656C2.082,-2.727 3.102,-2.895 4.25,-3.156C5.395,-3.414 6.352,-3.816 7.125,-4.359C8.008,-5.023 8.617,-6.02 8.953,-7.344C9.285,-8.676 9.453,-10.91 9.453,-14.047L9.453,-36.969C9.453,-38.102 9.273,-39.176 8.922,-40.188C8.566,-41.195 8.016,-42.066 7.266,-42.797C6.473,-43.566 5.555,-44.176 4.516,-44.625C3.484,-45.07 2.305,-45.422 0.984,-45.672L0.984,-48.391L19.203,-48.391L45.672,-15.656L45.672,-33.969C45.672,-36.875 45.473,-39.035 45.078,-40.453C44.691,-41.879 44.082,-42.938 43.25,-43.625C42.582,-44.145 41.598,-44.594 40.297,-44.969C39.004,-45.344 37.961,-45.598 37.172,-45.734L37.172,-48.391L57.938,-48.391L57.938,-45.734Z" style="fill:rgb(63,102,92);fill-rule:nonzero;"/>
        </g>
    </g>
    <g transform="matrix(12.225776,0,0,12.225776,2507.23898,750.070817)">
        <g>
            <path d="M38.641,-8.156C37.848,-6.852 36.883,-5.629 35.75,-4.484C34.625,-3.336 33.348,-2.352 31.922,-1.531C30.398,-0.664 28.859,-0.012 27.297,0.422C25.742,0.867 23.953,1.094 21.922,1.094C18.555,1.094 15.648,0.617 13.203,-0.328C10.766,-1.285 8.75,-2.57 7.156,-4.188C5.57,-5.801 4.383,-7.707 3.594,-9.906C2.812,-12.102 2.422,-14.484 2.422,-17.047C2.422,-19.367 2.848,-21.594 3.703,-23.719C4.555,-25.844 5.766,-27.734 7.328,-29.391C8.879,-31.004 10.828,-32.312 13.172,-33.312C15.523,-34.312 18.16,-34.812 21.078,-34.812C24.254,-34.812 26.863,-34.426 28.906,-33.656C30.957,-32.883 32.656,-31.816 34,-30.453C35.289,-29.16 36.234,-27.629 36.828,-25.859C37.422,-24.098 37.719,-22.254 37.719,-20.328L37.719,-18.109L14.672,-18.109C14.672,-13.453 15.566,-9.906 17.359,-7.469C19.148,-5.031 22.004,-3.812 25.922,-3.812C28.055,-3.812 29.973,-4.395 31.672,-5.562C33.379,-6.738 34.836,-8.227 36.047,-10.031L38.641,-8.156ZM25.609,-21.109C25.609,-22.473 25.539,-23.867 25.406,-25.297C25.27,-26.734 25.031,-27.906 24.688,-28.812C24.301,-29.883 23.77,-30.691 23.094,-31.234C22.426,-31.785 21.582,-32.062 20.562,-32.062C18.812,-32.062 17.41,-31.172 16.359,-29.391C15.316,-27.617 14.754,-24.812 14.672,-20.969L25.609,-21.109Z" style="fill:rgb(63,102,92);fill-rule:nonzero;"/>
        </g>
    </g>
    <g transform="matrix(12.225776,0,0,12.225776,2995.449022,750.070817)">
        <g>
            <path d="M40.859,0L19.547,0L19.547,-2.484C20.66,-2.555 21.594,-2.656 22.344,-2.781C23.094,-2.906 23.469,-3.16 23.469,-3.547C23.469,-3.723 23.367,-4.004 23.172,-4.391C22.984,-4.785 22.738,-5.219 22.438,-5.688C22.008,-6.395 21.266,-7.508 20.203,-9.031C19.148,-10.562 18.156,-11.973 17.219,-13.266C15.906,-11.742 14.801,-10.438 13.906,-9.344C13.02,-8.25 12.094,-7.078 11.125,-5.828C10.781,-5.422 10.539,-5.047 10.406,-4.703C10.27,-4.359 10.203,-4.156 10.203,-4.094C10.203,-3.57 10.566,-3.172 11.297,-2.891C12.035,-2.617 12.922,-2.484 13.953,-2.484L13.953,0L0.109,0L0.109,-2.484C1.941,-2.867 3.41,-3.484 4.516,-4.328C5.617,-5.172 6.363,-5.82 6.75,-6.281C8.406,-8.051 9.805,-9.52 10.953,-10.688C12.109,-11.863 13.648,-13.508 15.578,-15.625C14.285,-17.414 12.719,-19.609 10.875,-22.203C9.031,-24.797 7.5,-26.922 6.281,-28.578C5.664,-29.398 4.91,-30.031 4.016,-30.469C3.129,-30.914 1.984,-31.207 0.578,-31.344L0.578,-33.828L21.422,-33.828L21.422,-31.344C20.672,-31.344 19.93,-31.297 19.203,-31.203C18.473,-31.109 18.109,-30.953 18.109,-30.734C18.109,-30.547 18.164,-30.316 18.281,-30.047C18.395,-29.773 18.539,-29.488 18.719,-29.188C19.156,-28.457 19.836,-27.391 20.766,-25.984C21.703,-24.578 22.703,-23.098 23.766,-21.547C24.797,-22.797 25.656,-23.816 26.344,-24.609C27.039,-25.41 27.93,-26.539 29.016,-28C29.43,-28.539 29.688,-28.945 29.781,-29.219C29.883,-29.5 29.938,-29.672 29.938,-29.734C29.938,-30.117 29.691,-30.461 29.203,-30.766C28.711,-31.078 27.754,-31.27 26.328,-31.344L26.328,-33.828L39.906,-33.828L39.906,-31.344C38.789,-31.156 37.707,-30.773 36.656,-30.203C35.613,-29.641 34.523,-28.758 33.391,-27.562C31.617,-25.719 30.328,-24.367 29.516,-23.516C28.711,-22.66 27.379,-21.242 25.516,-19.266C26.555,-17.785 28.066,-15.633 30.047,-12.812C32.023,-10 33.727,-7.625 35.156,-5.688C35.77,-4.832 36.457,-4.129 37.219,-3.578C37.977,-3.035 39.191,-2.672 40.859,-2.484L40.859,0Z" style="fill:rgb(63,102,92);fill-rule:nonzero;"/>
        </g>
    </g>
    <g transform="matrix(12.225776,0,0,12.225776,3497.417267,750.070817)">
        <g>
            <path d="M27.344,-1.562C25.895,-0.926 24.336,-0.352 22.672,0.156C21.016,0.664 18.992,0.922 16.609,0.922C13.055,0.922 10.422,0.055 8.703,-1.672C6.992,-3.398 6.141,-5.867 6.141,-9.078L6.141,-30.016L0,-30.016L0,-33.688L6.281,-33.688L6.281,-44.031L17.359,-44.031L17.359,-33.688L26.906,-33.688L26.906,-30.016L17.422,-30.016L17.422,-11.328C17.422,-8.66 17.789,-6.77 18.531,-5.656C19.27,-4.539 20.598,-3.984 22.516,-3.984C23.117,-3.984 23.969,-4.031 25.062,-4.125C26.156,-4.219 26.914,-4.32 27.344,-4.438L27.344,-1.562Z" style="fill:rgb(63,102,92);fill-rule:nonzero;"/>
        </g>
    </g>
    <g transform="matrix(12.225776,0,0,12.225776,4053.584735,750.070817)">
        <g>
            <path d="M79.969,-45.672C79.27,-45.598 78.566,-45.441 77.859,-45.203C77.148,-44.961 76.457,-44.66 75.781,-44.297C74.727,-43.703 73.977,-43.051 73.531,-42.344C73.094,-41.645 72.691,-40.797 72.328,-39.797C71.078,-36.336 69.148,-30.801 66.547,-23.188C63.941,-15.57 61.234,-7.66 58.422,0.547L51.562,0.547L38.781,-35.438L27.25,0.547L20.391,0.547C16.598,-10.504 13.688,-19.016 11.656,-24.984C9.633,-30.953 7.93,-35.957 6.547,-40C6.117,-41.227 5.629,-42.117 5.078,-42.672C4.535,-43.234 3.832,-43.801 2.969,-44.375C2.352,-44.781 1.695,-45.078 1,-45.266C0.312,-45.461 -0.484,-45.617 -1.391,-45.734L-1.391,-48.391L24.422,-48.391L24.422,-45.797C22.898,-45.617 21.758,-45.441 21,-45.266C20.25,-45.098 19.66,-44.926 19.234,-44.75C18.828,-44.562 18.578,-44.363 18.484,-44.156C18.391,-43.957 18.344,-43.781 18.344,-43.625C18.344,-43.301 18.383,-42.988 18.469,-42.688C18.551,-42.395 18.633,-42.055 18.719,-41.672C19.27,-39.898 20.375,-36.535 22.031,-31.578C23.688,-26.617 25.734,-20.469 28.172,-13.125L39.188,-48.391L46.422,-48.391L59.203,-12.031C61.086,-17.875 62.594,-22.648 63.719,-26.359C64.844,-30.066 65.789,-33.238 66.562,-35.875C67.02,-37.488 67.383,-38.844 67.656,-39.938C67.938,-41.031 68.078,-41.973 68.078,-42.766C68.078,-43.242 67.852,-43.648 67.406,-43.984C66.957,-44.328 66.359,-44.625 65.609,-44.875C64.973,-45.082 64.148,-45.25 63.141,-45.375C62.129,-45.5 61.25,-45.598 60.5,-45.672L60.5,-48.391L79.969,-48.391L79.969,-45.672Z" style="fill:rgb(63,102,92);fill-rule:nonzero;"/>
        </g>
    </g>
    <g transform="matrix(12.225776,0,0,12.225776,5015.412792,750.070817)">
        <g>
            <path d="M40.953,-0.719C39.953,-0.281 38.77,0.113 37.406,0.469C36.039,0.832 34.598,1.016 33.078,1.016C30.285,1.016 28.227,0.602 26.906,-0.219C25.582,-1.051 24.688,-2.238 24.219,-3.781L24.016,-3.781C23.234,-3.008 22.484,-2.348 21.766,-1.797C21.055,-1.254 20.289,-0.789 19.469,-0.406C18.406,0.09 17.379,0.461 16.391,0.703C15.398,0.941 14.02,1.062 12.25,1.062C9.602,1.062 7.348,0.285 5.484,-1.266C3.617,-2.828 2.688,-4.895 2.688,-7.469C2.688,-8.945 2.891,-10.203 3.297,-11.234C3.711,-12.266 4.297,-13.18 5.047,-13.984C5.734,-14.711 6.523,-15.312 7.422,-15.781C8.316,-16.258 9.301,-16.707 10.375,-17.125C12.414,-17.875 14.867,-18.648 17.734,-19.453C20.598,-20.266 22.691,-20.988 24.016,-21.625L24.016,-24.891C24.016,-25.461 23.969,-26.211 23.875,-27.141C23.781,-28.078 23.586,-28.863 23.297,-29.5C22.973,-30.227 22.469,-30.844 21.781,-31.344C21.102,-31.844 20.207,-32.094 19.094,-32.094C18.094,-32.094 17.254,-31.945 16.578,-31.656C15.91,-31.375 15.375,-31.086 14.969,-30.797C15.039,-30.336 15.234,-29.641 15.547,-28.703C15.867,-27.773 16.031,-26.879 16.031,-26.016C16.031,-25.629 15.926,-25.145 15.719,-24.562C15.52,-23.988 15.223,-23.531 14.828,-23.188C14.305,-22.738 13.723,-22.391 13.078,-22.141C12.43,-21.891 11.438,-21.766 10.094,-21.766C8.188,-21.766 6.742,-22.223 5.766,-23.141C4.785,-24.055 4.297,-25.254 4.297,-26.734C4.297,-28.004 4.801,-29.145 5.812,-30.156C6.82,-31.176 8.055,-32.016 9.516,-32.672C10.941,-33.348 12.586,-33.875 14.453,-34.25C16.316,-34.625 18.047,-34.812 19.641,-34.812C21.848,-34.812 23.867,-34.68 25.703,-34.422C27.547,-34.16 29.207,-33.625 30.688,-32.812C32.102,-32.008 33.223,-30.852 34.047,-29.344C34.879,-27.832 35.297,-25.859 35.297,-23.422C35.297,-20.859 35.242,-17.812 35.141,-14.281C35.035,-10.758 34.984,-8.441 34.984,-7.328C34.984,-6.305 35.133,-5.5 35.438,-4.906C35.75,-4.32 36.223,-3.879 36.859,-3.578C37.254,-3.398 37.863,-3.289 38.688,-3.25C39.52,-3.219 40.273,-3.203 40.953,-3.203L40.953,-0.719ZM24.016,-18.484C22.734,-18.055 21.469,-17.562 20.219,-17C18.969,-16.445 17.945,-15.863 17.156,-15.25C16.312,-14.613 15.648,-13.801 15.172,-12.812C14.691,-11.82 14.453,-10.656 14.453,-9.312C14.453,-7.539 14.852,-6.254 15.656,-5.453C16.469,-4.66 17.469,-4.266 18.656,-4.266C19.906,-4.266 20.93,-4.52 21.734,-5.031C22.547,-5.539 23.258,-6.172 23.875,-6.922L24.016,-18.484Z" style="fill:rgb(63,102,92);fill-rule:nonzero;"/>
        </g>
    </g>
    <g transform="matrix(12.225776,0,0,12.225776,5524.051433,750.070817)">
        <g>
            <path d="M40.859,-31.344C39.836,-31.188 38.844,-30.801 37.875,-30.188C36.906,-29.57 36.102,-28.613 35.469,-27.312C33.875,-24 32.305,-20.648 30.766,-17.266C29.234,-13.891 27.734,-10.625 26.266,-7.469C25.805,-6.508 25.285,-5.281 24.703,-3.781C24.129,-2.281 23.648,-0.914 23.266,0.312L16.984,0.312C14.367,-5.758 12.133,-10.797 10.281,-14.797C8.426,-18.797 6.469,-23.094 4.406,-27.688C3.926,-28.758 3.176,-29.602 2.156,-30.219C1.145,-30.832 0.117,-31.207 -0.922,-31.344L-0.922,-33.828L20.094,-33.828L20.094,-31.344C19.312,-31.32 18.398,-31.148 17.359,-30.828C16.316,-30.516 15.797,-30.109 15.797,-29.609C15.797,-29.461 15.836,-29.254 15.922,-28.984C16.016,-28.711 16.129,-28.406 16.266,-28.062C16.992,-26.332 18.094,-23.844 19.562,-20.594C21.031,-17.344 22.582,-13.922 24.219,-10.328C25.352,-12.805 26.438,-15.234 27.469,-17.609C28.5,-19.984 29.781,-23.016 31.312,-26.703C31.508,-27.242 31.625,-27.688 31.656,-28.031C31.695,-28.375 31.719,-28.602 31.719,-28.719C31.719,-29.125 31.516,-29.477 31.109,-29.781C30.711,-30.094 30.242,-30.363 29.703,-30.594C29.129,-30.82 28.582,-30.988 28.062,-31.094C27.539,-31.207 27.109,-31.289 26.766,-31.344L26.766,-33.828L40.859,-33.828L40.859,-31.344Z" style="fill:rgb(63,102,92);fill-rule:nonzero;"/>
        </g>
    </g>
    <g transform="matrix(12.225776,0,0,12.225776,6008.092448,750.070817)">
        <g>
            <path d="M38.641,-8.156C37.848,-6.852 36.883,-5.629 35.75,-4.484C34.625,-3.336 33.348,-2.352 31.922,-1.531C30.398,-0.664 28.859,-0.012 27.297,0.422C25.742,0.867 23.953,1.094 21.922,1.094C18.555,1.094 15.648,0.617 13.203,-0.328C10.766,-1.285 8.75,-2.57 7.156,-4.188C5.57,-5.801 4.383,-7.707 3.594,-9.906C2.812,-12.102 2.422,-14.484 2.422,-17.047C2.422,-19.367 2.848,-21.594 3.703,-23.719C4.555,-25.844 5.766,-27.734 7.328,-29.391C8.879,-31.004 10.828,-32.312 13.172,-33.312C15.523,-34.312 18.16,-34.812 21.078,-34.812C24.254,-34.812 26.863,-34.426 28.906,-33.656C30.957,-32.883 32.656,-31.816 34,-30.453C35.289,-29.16 36.234,-27.629 36.828,-25.859C37.422,-24.098 37.719,-22.254 37.719,-20.328L37.719,-18.109L14.672,-18.109C14.672,-13.453 15.566,-9.906 17.359,-7.469C19.148,-5.031 22.004,-3.812 25.922,-3.812C28.055,-3.812 29.973,-4.395 31.672,-5.562C33.379,-6.738 34.836,-8.227 36.047,-10.031L38.641,-8.156ZM25.609,-21.109C25.609,-22.473 25.539,-23.867 25.406,-25.297C25.27,-26.734 25.031,-27.906 24.688,-28.812C24.301,-29.883 23.77,-30.691 23.094,-31.234C22.426,-31.785 21.582,-32.062 20.562,-32.062C18.812,-32.062 17.41,-31.172 16.359,-29.391C15.316,-27.617 14.754,-24.812 14.672,-20.969L25.609,-21.109Z" style="fill:rgb(63,102,92);fill-rule:nonzero;"/>
        </g>
    </g>
    <g transform="matrix(12.191017,0,0,12.191017,1777.841459,1479.83786)">
        <g>
            <path d="M25.734,1.203C22.441,1.203 19.359,0.668 16.484,-0.391C13.617,-1.461 11.117,-3.008 8.984,-5.031C6.898,-7.02 5.254,-9.473 4.047,-12.391C2.848,-15.316 2.25,-18.531 2.25,-22.031C2.25,-25.52 2.852,-28.742 4.062,-31.703C5.281,-34.672 6.988,-37.242 9.188,-39.422C11.332,-41.547 13.914,-43.191 16.938,-44.359C19.957,-45.535 23.188,-46.125 26.625,-46.125C29.113,-46.125 31.379,-45.82 33.422,-45.219C35.473,-44.625 37.207,-43.945 38.625,-43.188L40.594,-44.922L43.344,-44.922L43.625,-28.531L40.844,-28.531C39.258,-33.531 37.359,-37.203 35.141,-39.547C32.922,-41.891 30.223,-43.062 27.047,-43.062C23.078,-43.062 20.055,-41.312 17.984,-37.812C15.91,-34.32 14.875,-29.422 14.875,-23.109C14.875,-19.547 15.227,-16.5 15.938,-13.969C16.645,-11.445 17.57,-9.422 18.719,-7.891C19.938,-6.285 21.379,-5.109 23.047,-4.359C24.711,-3.609 26.562,-3.234 28.594,-3.234C31.551,-3.234 34.18,-4.035 36.484,-5.641C38.797,-7.242 40.906,-9.672 42.812,-12.922L45.531,-11.266C44.625,-9.41 43.586,-7.75 42.422,-6.281C41.266,-4.812 39.926,-3.551 38.406,-2.5C36.738,-1.344 34.895,-0.434 32.875,0.219C30.863,0.875 28.484,1.203 25.734,1.203Z" style="fill:rgb(36,51,47);fill-rule:nonzero;"/>
        </g>
    </g>
    <g transform="matrix(12.191017,0,0,12.191017,2343.348803,1479.83786)">
        <g>
            <path d="M38.031,-0.672C37.102,-0.266 36.004,0.102 34.734,0.438C33.461,0.781 32.125,0.953 30.719,0.953C28.113,0.953 26.195,0.566 24.969,-0.203C23.75,-0.973 22.922,-2.078 22.484,-3.516L22.297,-3.516C21.578,-2.797 20.883,-2.18 20.219,-1.672C19.551,-1.172 18.836,-0.738 18.078,-0.375C17.086,0.082 16.133,0.422 15.219,0.641C14.301,0.867 13.016,0.984 11.359,0.984C8.91,0.984 6.82,0.258 5.094,-1.188C3.363,-2.633 2.5,-4.551 2.5,-6.938C2.5,-8.301 2.688,-9.461 3.062,-10.422C3.445,-11.391 3.988,-12.242 4.688,-12.984C5.32,-13.66 6.055,-14.219 6.891,-14.656C7.723,-15.102 8.633,-15.516 9.625,-15.891C11.52,-16.586 13.797,-17.312 16.453,-18.062C19.117,-18.812 21.066,-19.484 22.297,-20.078L22.297,-23.109C22.297,-23.641 22.25,-24.336 22.156,-25.203C22.07,-26.066 21.895,-26.797 21.625,-27.391C21.332,-28.066 20.867,-28.633 20.234,-29.094C19.598,-29.562 18.766,-29.797 17.734,-29.797C16.805,-29.797 16.031,-29.66 15.406,-29.391C14.781,-29.129 14.281,-28.863 13.906,-28.594C13.969,-28.164 14.145,-27.52 14.438,-26.656C14.727,-25.789 14.875,-24.957 14.875,-24.156C14.875,-23.801 14.781,-23.352 14.594,-22.812C14.406,-22.27 14.129,-21.844 13.766,-21.531C13.285,-21.102 12.742,-20.773 12.141,-20.547C11.535,-20.316 10.613,-20.203 9.375,-20.203C7.602,-20.203 6.258,-20.629 5.344,-21.484C4.438,-22.336 3.984,-23.453 3.984,-24.828C3.984,-26.004 4.453,-27.062 5.391,-28C6.336,-28.938 7.484,-29.711 8.828,-30.328C10.16,-30.961 11.691,-31.453 13.422,-31.797C15.148,-32.148 16.754,-32.328 18.234,-32.328C20.285,-32.328 22.164,-32.203 23.875,-31.953C25.582,-31.711 27.125,-31.211 28.5,-30.453C29.801,-29.711 30.836,-28.641 31.609,-27.234C32.379,-25.836 32.766,-24.008 32.766,-21.75C32.766,-19.363 32.719,-16.535 32.625,-13.266C32.531,-9.992 32.484,-7.844 32.484,-6.812C32.484,-5.852 32.625,-5.098 32.906,-4.547C33.195,-4.004 33.641,-3.598 34.234,-3.328C34.586,-3.16 35.148,-3.055 35.922,-3.016C36.691,-2.984 37.395,-2.969 38.031,-2.969L38.031,-0.672ZM22.297,-17.156C21.109,-16.758 19.93,-16.301 18.766,-15.781C17.609,-15.258 16.66,-14.719 15.922,-14.156C15.141,-13.562 14.523,-12.805 14.078,-11.891C13.641,-10.973 13.422,-9.891 13.422,-8.641C13.422,-6.992 13.797,-5.801 14.547,-5.062C15.297,-4.32 16.219,-3.953 17.312,-3.953C18.477,-3.953 19.438,-4.188 20.188,-4.656C20.938,-5.133 21.594,-5.723 22.156,-6.422L22.297,-17.156Z" style="fill:rgb(36,51,47);fill-rule:nonzero;"/>
        </g>
    </g>
    <g transform="matrix(12.191017,0,0,12.191017,2814.283257,1479.83786)">
        <g>
            <path d="M43.625,0L24.562,0L24.562,-2.312C24.969,-2.352 25.453,-2.406 26.016,-2.469C26.586,-2.531 27.023,-2.633 27.328,-2.781C27.766,-3.02 28.078,-3.359 28.266,-3.797C28.461,-4.242 28.562,-4.898 28.562,-5.766L28.562,-20.578C28.562,-22.734 28.164,-24.352 27.375,-25.438C26.582,-26.531 25.414,-27.078 23.875,-27.078C23.031,-27.078 22.242,-26.945 21.516,-26.688C20.785,-26.438 20.07,-26.066 19.375,-25.578C18.758,-25.16 18.266,-24.727 17.891,-24.281C17.523,-23.844 17.219,-23.453 16.969,-23.109L16.969,-6.109C16.969,-5.367 17.07,-4.75 17.281,-4.25C17.5,-3.758 17.848,-3.391 18.328,-3.141C18.672,-2.941 19.094,-2.77 19.594,-2.625C20.102,-2.477 20.602,-2.375 21.094,-2.312L21.094,0L1.844,0L1.844,-2.312C2.363,-2.352 2.895,-2.41 3.438,-2.484C3.977,-2.555 4.438,-2.656 4.812,-2.781C5.488,-3.02 5.953,-3.379 6.203,-3.859C6.453,-4.348 6.578,-4.984 6.578,-5.766L6.578,-24.188C6.578,-24.844 6.41,-25.488 6.078,-26.125C5.742,-26.758 5.301,-27.273 4.75,-27.672C4.363,-27.922 3.879,-28.129 3.297,-28.297C2.723,-28.473 2.086,-28.594 1.391,-28.656L1.391,-30.969L16.5,-31.781L16.969,-31.312L16.969,-26.719L17.094,-26.719C17.688,-27.25 18.406,-27.883 19.25,-28.625C20.094,-29.363 20.875,-29.961 21.594,-30.422C22.375,-30.93 23.395,-31.363 24.656,-31.719C25.926,-32.082 27.281,-32.266 28.719,-32.266C32.156,-32.266 34.734,-31.285 36.453,-29.328C38.18,-27.379 39.047,-24.789 39.047,-21.562L39.047,-6.047C39.047,-5.266 39.16,-4.641 39.391,-4.172C39.617,-3.711 40.051,-3.348 40.688,-3.078C41.02,-2.922 41.438,-2.77 41.938,-2.625C42.438,-2.477 43,-2.375 43.625,-2.312L43.625,0Z" style="fill:rgb(36,51,47);fill-rule:nonzero;"/>
        </g>
    </g>
    <g transform="matrix(12.191017,0,0,12.191017,3359.717993,1479.83786)">
        <g>
            <path d="M19.922,1.016C16.984,1.016 14.391,0.586 12.141,-0.266C9.891,-1.117 8.035,-2.285 6.578,-3.766C5.129,-5.266 4.047,-7.035 3.328,-9.078C2.609,-11.129 2.25,-13.359 2.25,-15.766C2.25,-17.961 2.688,-20.051 3.562,-22.031C4.438,-24.02 5.625,-25.766 7.125,-27.266C8.664,-28.805 10.582,-30.035 12.875,-30.953C15.164,-31.867 17.691,-32.328 20.453,-32.328C24.336,-32.328 27.41,-31.594 29.672,-30.125C31.93,-28.656 33.062,-26.676 33.062,-24.188C33.062,-22.664 32.66,-21.441 31.859,-20.516C31.055,-19.586 29.672,-19.125 27.703,-19.125C26.117,-19.125 24.789,-19.504 23.719,-20.266C22.656,-21.023 22.125,-22.016 22.125,-23.234C22.125,-24.273 22.289,-25.301 22.625,-26.312C22.969,-27.32 23.172,-28.094 23.234,-28.625C23.004,-29 22.707,-29.285 22.344,-29.484C21.988,-29.691 21.43,-29.797 20.672,-29.797C19.723,-29.797 18.859,-29.57 18.078,-29.125C17.297,-28.688 16.566,-27.906 15.891,-26.781C15.234,-25.727 14.707,-24.316 14.312,-22.547C13.926,-20.773 13.734,-18.641 13.734,-16.141C13.734,-12.391 14.613,-9.363 16.375,-7.062C18.145,-4.758 20.254,-3.609 22.703,-3.609C25.047,-3.609 26.906,-4.129 28.281,-5.172C29.664,-6.223 30.898,-7.707 31.984,-9.625L34.359,-7.984C33.703,-6.691 32.922,-5.508 32.016,-4.438C31.109,-3.375 30.02,-2.43 28.75,-1.609C27.414,-0.742 26.062,-0.09 24.688,0.344C23.32,0.789 21.734,1.016 19.922,1.016Z" style="fill:rgb(36,51,47);fill-rule:nonzero;"/>
        </g>
    </g>
    <g transform="matrix(12.191017,0,0,12.191017,3779.698883,1479.83786)">
        <g>
            <path d="M35.875,-7.562C35.133,-6.363 34.238,-5.227 33.188,-4.156C32.145,-3.094 30.961,-2.18 29.641,-1.422C28.223,-0.617 26.789,-0.012 25.344,0.391C23.895,0.805 22.234,1.016 20.359,1.016C17.234,1.016 14.535,0.57 12.266,-0.312C9.992,-1.195 8.125,-2.391 6.656,-3.891C5.176,-5.391 4.07,-7.156 3.344,-9.188C2.613,-11.227 2.25,-13.441 2.25,-15.828C2.25,-17.984 2.645,-20.047 3.438,-22.016C4.227,-23.992 5.352,-25.754 6.812,-27.297C8.238,-28.797 10.047,-30.008 12.234,-30.938C14.422,-31.863 16.863,-32.328 19.562,-32.328C22.52,-32.328 24.945,-31.969 26.844,-31.25C28.75,-30.531 30.32,-29.539 31.562,-28.281C32.77,-27.07 33.645,-25.648 34.188,-24.016C34.738,-22.379 35.016,-20.664 35.016,-18.875L35.016,-16.812L13.609,-16.812C13.609,-12.488 14.441,-9.195 16.109,-6.938C17.785,-4.676 20.438,-3.547 24.062,-3.547C26.051,-3.547 27.832,-4.086 29.406,-5.172C30.988,-6.266 32.344,-7.645 33.469,-9.312L35.875,-7.562ZM23.781,-19.594C23.781,-20.863 23.711,-22.16 23.578,-23.484C23.453,-24.816 23.234,-25.906 22.922,-26.75C22.566,-27.75 22.078,-28.5 21.453,-29C20.828,-29.508 20.039,-29.766 19.094,-29.766C17.469,-29.766 16.164,-28.941 15.188,-27.297C14.219,-25.648 13.691,-23.039 13.609,-19.469L23.781,-19.594Z" style="fill:rgb(36,51,47);fill-rule:nonzero;"/>
        </g>
    </g>
    <g transform="matrix(12.191017,0,0,12.191017,4231.71862,1479.83786)">
        <g>
            <path d="M33.375,-25.609C33.375,-24.004 32.875,-22.594 31.875,-21.375C30.883,-20.164 29.578,-19.562 27.953,-19.562C26.41,-19.562 25.109,-19.953 24.047,-20.734C22.984,-21.516 22.453,-22.664 22.453,-24.188C22.453,-24.926 22.504,-25.5 22.609,-25.906C22.711,-26.32 22.805,-26.711 22.891,-27.078C21.922,-27.023 20.895,-26.68 19.812,-26.047C18.738,-25.422 17.789,-24.582 16.969,-23.531L16.969,-6.141C16.969,-5.398 17.082,-4.785 17.312,-4.297C17.551,-3.816 17.941,-3.441 18.484,-3.172C18.953,-2.93 19.707,-2.734 20.75,-2.578C21.801,-2.422 22.555,-2.332 23.016,-2.312L23.016,0L1.844,0L1.844,-2.312C2.363,-2.352 2.895,-2.41 3.438,-2.484C3.977,-2.555 4.438,-2.656 4.812,-2.781C5.488,-3.02 5.953,-3.379 6.203,-3.859C6.453,-4.348 6.578,-4.984 6.578,-5.766L6.578,-24.188C6.578,-24.945 6.398,-25.629 6.047,-26.234C5.691,-26.836 5.258,-27.316 4.75,-27.672C4.363,-27.922 3.879,-28.129 3.297,-28.297C2.723,-28.473 2.086,-28.594 1.391,-28.656L1.391,-30.969L16.5,-31.781L16.969,-31.312L16.969,-26.719L17.094,-26.719C18.551,-28.406 20.098,-29.727 21.734,-30.688C23.367,-31.656 25.07,-32.141 26.844,-32.141C28.812,-32.141 30.391,-31.531 31.578,-30.312C32.773,-29.102 33.375,-27.535 33.375,-25.609Z" style="fill:rgb(36,51,47);fill-rule:nonzero;"/>
        </g>
    </g>
    <g transform="matrix(12.191017,0,0,12.191017,4843.547527,1479.83786)">
        <g>
            <path d="M53.766,0L36.531,0C33.562,-4.562 31.086,-8.191 29.109,-10.891C27.141,-13.586 24.688,-16.711 21.75,-20.266L20.016,-20.266L20.016,-6.625C20.016,-5.863 20.156,-5.219 20.438,-4.688C20.719,-4.156 21.258,-3.711 22.062,-3.359C22.469,-3.191 23.098,-3.016 23.953,-2.828C24.805,-2.648 25.539,-2.531 26.156,-2.469L26.156,0L2.188,0L2.188,-2.469C2.801,-2.531 3.609,-2.617 4.609,-2.734C5.609,-2.848 6.32,-2.992 6.75,-3.172C7.551,-3.504 8.086,-3.926 8.359,-4.438C8.629,-4.957 8.766,-5.617 8.766,-6.422L8.766,-38.125C8.766,-38.883 8.648,-39.516 8.422,-40.016C8.191,-40.523 7.633,-40.969 6.75,-41.344C6.07,-41.625 5.27,-41.859 4.344,-42.047C3.426,-42.234 2.707,-42.367 2.188,-42.453L2.188,-44.922L27.391,-44.922C33.023,-44.922 37.301,-44.039 40.219,-42.281C43.145,-40.52 44.609,-37.859 44.609,-34.297C44.609,-31.148 43.707,-28.617 41.906,-26.703C40.102,-24.797 37.352,-23.305 33.656,-22.234C35.094,-20.367 36.766,-18.211 38.672,-15.766C40.586,-13.316 42.578,-10.816 44.641,-8.266C45.297,-7.441 46.188,-6.43 47.312,-5.234C48.445,-4.047 49.445,-3.316 50.312,-3.047C50.801,-2.891 51.414,-2.758 52.156,-2.656C52.906,-2.551 53.441,-2.488 53.766,-2.469L53.766,0ZM32.203,-33.406C32.203,-36.406 31.363,-38.594 29.688,-39.969C28.008,-41.352 25.617,-42.047 22.516,-42.047L20.016,-42.047L20.016,-23.234L22.422,-23.234C25.523,-23.234 27.93,-24.047 29.641,-25.672C31.348,-27.297 32.203,-29.875 32.203,-33.406Z" style="fill:rgb(36,51,47);fill-rule:nonzero;"/>
        </g>
    </g>
    <g transform="matrix(12.191017,0,0,12.191017,5473.905012,1479.83786)">
        <g>
            <path d="M35.875,-7.562C35.133,-6.363 34.238,-5.227 33.188,-4.156C32.145,-3.094 30.961,-2.18 29.641,-1.422C28.223,-0.617 26.789,-0.012 25.344,0.391C23.895,0.805 22.234,1.016 20.359,1.016C17.234,1.016 14.535,0.57 12.266,-0.312C9.992,-1.195 8.125,-2.391 6.656,-3.891C5.176,-5.391 4.07,-7.156 3.344,-9.188C2.613,-11.227 2.25,-13.441 2.25,-15.828C2.25,-17.984 2.645,-20.047 3.438,-22.016C4.227,-23.992 5.352,-25.754 6.812,-27.297C8.238,-28.797 10.047,-30.008 12.234,-30.938C14.422,-31.863 16.863,-32.328 19.562,-32.328C22.52,-32.328 24.945,-31.969 26.844,-31.25C28.75,-30.531 30.32,-29.539 31.562,-28.281C32.77,-27.07 33.645,-25.648 34.188,-24.016C34.738,-22.379 35.016,-20.664 35.016,-18.875L35.016,-16.812L13.609,-16.812C13.609,-12.488 14.441,-9.195 16.109,-6.938C17.785,-4.676 20.438,-3.547 24.062,-3.547C26.051,-3.547 27.832,-4.086 29.406,-5.172C30.988,-6.266 32.344,-7.645 33.469,-9.312L35.875,-7.562ZM23.781,-19.594C23.781,-20.863 23.711,-22.16 23.578,-23.484C23.453,-24.816 23.234,-25.906 22.922,-26.75C22.566,-27.75 22.078,-28.5 21.453,-29C20.828,-29.508 20.039,-29.766 19.094,-29.766C17.469,-29.766 16.164,-28.941 15.188,-27.297C14.219,-25.648 13.691,-23.039 13.609,-19.469L23.781,-19.594Z" style="fill:rgb(36,51,47);fill-rule:nonzero;"/>
        </g>
    </g>
    <g transform="matrix(12.191017,0,0,12.191017,5925.924737,1479.83786)">
        <g>
            <path d="M43,0L23.938,0L23.938,-2.312C24.352,-2.352 24.848,-2.406 25.422,-2.469C25.992,-2.531 26.414,-2.633 26.688,-2.781C27.133,-3.02 27.445,-3.359 27.625,-3.797C27.801,-4.242 27.891,-4.898 27.891,-5.766L27.891,-20.578C27.891,-22.754 27.484,-24.379 26.672,-25.453C25.859,-26.535 24.703,-27.078 23.203,-27.078C22.359,-27.078 21.57,-26.945 20.844,-26.688C20.113,-26.438 19.406,-26.066 18.719,-25.578C18.102,-25.16 17.609,-24.727 17.234,-24.281C16.867,-23.844 16.562,-23.453 16.312,-23.109L16.312,-6.109C16.312,-5.328 16.406,-4.707 16.594,-4.25C16.781,-3.801 17.141,-3.43 17.672,-3.141C17.984,-2.941 18.395,-2.77 18.906,-2.625C19.426,-2.477 19.93,-2.375 20.422,-2.312L20.422,0L1.172,0L1.172,-2.312C1.723,-2.352 2.254,-2.406 2.766,-2.469C3.285,-2.531 3.742,-2.633 4.141,-2.781C4.816,-3.039 5.273,-3.406 5.516,-3.875C5.766,-4.352 5.891,-4.984 5.891,-5.766L5.891,-41.062C5.891,-41.738 5.727,-42.457 5.406,-43.219C5.094,-43.977 4.648,-44.547 4.078,-44.922C3.66,-45.203 3.051,-45.422 2.25,-45.578C1.445,-45.734 0.727,-45.832 0.094,-45.875L0.094,-48.188L15.828,-49.016L16.312,-48.5L16.312,-26.719L16.438,-26.719C17.238,-27.438 17.957,-28.086 18.594,-28.672C19.238,-29.254 20.023,-29.836 20.953,-30.422C21.734,-30.93 22.754,-31.363 24.016,-31.719C25.273,-32.082 26.629,-32.266 28.078,-32.266C31.504,-32.266 34.078,-31.281 35.797,-29.312C37.516,-27.352 38.375,-24.77 38.375,-21.562L38.375,-6.047C38.375,-5.266 38.488,-4.641 38.719,-4.172C38.957,-3.711 39.391,-3.348 40.016,-3.078C40.398,-2.898 40.82,-2.75 41.281,-2.625C41.75,-2.5 42.32,-2.395 43,-2.312L43,0Z" style="fill:rgb(36,51,47);fill-rule:nonzero;"/>
        </g>
    </g>
    <g transform="matrix(12.191017,0,0,12.191017,6463.252947,1479.83786)">
        <g>
            <path d="M38.031,-0.672C37.102,-0.266 36.004,0.102 34.734,0.438C33.461,0.781 32.125,0.953 30.719,0.953C28.113,0.953 26.195,0.566 24.969,-0.203C23.75,-0.973 22.922,-2.078 22.484,-3.516L22.297,-3.516C21.578,-2.797 20.883,-2.18 20.219,-1.672C19.551,-1.172 18.836,-0.738 18.078,-0.375C17.086,0.082 16.133,0.422 15.219,0.641C14.301,0.867 13.016,0.984 11.359,0.984C8.91,0.984 6.82,0.258 5.094,-1.188C3.363,-2.633 2.5,-4.551 2.5,-6.938C2.5,-8.301 2.688,-9.461 3.062,-10.422C3.445,-11.391 3.988,-12.242 4.688,-12.984C5.32,-13.66 6.055,-14.219 6.891,-14.656C7.723,-15.102 8.633,-15.516 9.625,-15.891C11.52,-16.586 13.797,-17.312 16.453,-18.062C19.117,-18.812 21.066,-19.484 22.297,-20.078L22.297,-23.109C22.297,-23.641 22.25,-24.336 22.156,-25.203C22.07,-26.066 21.895,-26.797 21.625,-27.391C21.332,-28.066 20.867,-28.633 20.234,-29.094C19.598,-29.562 18.766,-29.797 17.734,-29.797C16.805,-29.797 16.031,-29.66 15.406,-29.391C14.781,-29.129 14.281,-28.863 13.906,-28.594C13.969,-28.164 14.145,-27.52 14.438,-26.656C14.727,-25.789 14.875,-24.957 14.875,-24.156C14.875,-23.801 14.781,-23.352 14.594,-22.812C14.406,-22.27 14.129,-21.844 13.766,-21.531C13.285,-21.102 12.742,-20.773 12.141,-20.547C11.535,-20.316 10.613,-20.203 9.375,-20.203C7.602,-20.203 6.258,-20.629 5.344,-21.484C4.438,-22.336 3.984,-23.453 3.984,-24.828C3.984,-26.004 4.453,-27.062 5.391,-28C6.336,-28.938 7.484,-29.711 8.828,-30.328C10.16,-30.961 11.691,-31.453 13.422,-31.797C15.148,-32.148 16.754,-32.328 18.234,-32.328C20.285,-32.328 22.164,-32.203 23.875,-31.953C25.582,-31.711 27.125,-31.211 28.5,-30.453C29.801,-29.711 30.836,-28.641 31.609,-27.234C32.379,-25.836 32.766,-24.008 32.766,-21.75C32.766,-19.363 32.719,-16.535 32.625,-13.266C32.531,-9.992 32.484,-7.844 32.484,-6.812C32.484,-5.852 32.625,-5.098 32.906,-4.547C33.195,-4.004 33.641,-3.598 34.234,-3.328C34.586,-3.16 35.148,-3.055 35.922,-3.016C36.691,-2.984 37.395,-2.969 38.031,-2.969L38.031,-0.672ZM22.297,-17.156C21.109,-16.758 19.93,-16.301 18.766,-15.781C17.609,-15.258 16.66,-14.719 15.922,-14.156C15.141,-13.562 14.523,-12.805 14.078,-11.891C13.641,-10.973 13.422,-9.891 13.422,-8.641C13.422,-6.992 13.797,-5.801 14.547,-5.062C15.297,-4.32 16.219,-3.953 17.312,-3.953C18.477,-3.953 19.438,-4.188 20.188,-4.656C20.938,-5.133 21.594,-5.723 22.156,-6.422L22.297,-17.156Z" style="fill:rgb(36,51,47);fill-rule:nonzero;"/>
        </g>
    </g>
    <g transform="matrix(12.191017,0,0,12.191017,6934.187949,1479.83786)">
        <g>
            <path d="M39.609,-15.484C39.609,-10.734 38.039,-6.797 34.906,-3.672C31.77,-0.547 27.797,1.016 22.984,1.016C21.129,1.016 19.531,0.879 18.188,0.609C16.844,0.348 15.707,0.027 14.781,-0.344C13.812,-0.75 13.035,-1.145 12.453,-1.531C11.879,-1.926 11.422,-2.25 11.078,-2.5L6.547,1.609L4.688,0.891C4.789,-0.648 4.879,-2.32 4.953,-4.125C5.023,-5.938 5.062,-8.375 5.062,-11.438L5.062,-41.062C5.062,-41.863 4.895,-42.609 4.562,-43.297C4.238,-43.984 3.805,-44.504 3.266,-44.859C2.859,-45.117 2.27,-45.344 1.5,-45.531C0.727,-45.719 0.012,-45.832 -0.641,-45.875L-0.641,-48.188L15,-49.016L15.484,-48.5L15.484,-27.922L15.672,-27.922C17.211,-29.422 18.797,-30.52 20.422,-31.219C22.047,-31.914 23.672,-32.266 25.297,-32.266C29.734,-32.266 33.227,-30.754 35.781,-27.734C38.332,-24.711 39.609,-20.629 39.609,-15.484ZM28.25,-15.109C28.25,-16.711 28.125,-18.254 27.875,-19.734C27.633,-21.223 27.227,-22.539 26.656,-23.688C26.082,-24.82 25.332,-25.734 24.406,-26.422C23.477,-27.109 22.328,-27.453 20.953,-27.453C19.672,-27.453 18.609,-27.238 17.766,-26.812C16.922,-26.395 16.16,-25.773 15.484,-24.953L15.484,-6.516C15.609,-6.098 15.844,-5.547 16.188,-4.859C16.539,-4.172 16.895,-3.641 17.25,-3.266C17.758,-2.711 18.297,-2.289 18.859,-2C19.43,-1.719 20.238,-1.578 21.281,-1.578C23.426,-1.578 25.125,-2.754 26.375,-5.109C27.625,-7.461 28.25,-10.797 28.25,-15.109Z" style="fill:rgb(36,51,47);fill-rule:nonzero;"/>
        </g>
    </g>
    <g transform="matrix(5.981523,0,0,5.84215,-363.728647,-1127.789148)">
        <path d="M83.355,292.249C73.876,298.194 73.951,298.157 65.514,305.527C60.482,309.922 69.686,284.891 72.967,277.694C123.479,166.914 272.607,163.926 323.985,274.273C330.224,287.672 335.167,307.513 333.329,309.349C332.422,310.256 310.209,322.248 284.497,322.094C223.075,321.725 182.849,263.866 110.423,281.188C96.347,284.555 85.368,291.057 83.355,292.249Z" style="fill:rgb(234,197,175);"/>
    </g>
    <g transform="matrix(5.961439,0,0,5.969615,-354.025782,-1168.609451)">
        <path d="M335.903,327.497C335.857,329.843 335.358,355.489 331.5,356.502C330.871,356.667 330.219,356.736 329.585,356.88C324.036,358.141 323.591,361.73 320.438,359.581C301.977,346.996 289.633,376.297 255.676,394.869C252.814,396.435 250.634,398.132 251.086,394.465C254.166,369.443 223.795,376.91 215.492,376.81C172.753,376.295 153.801,352.079 109.488,367.469C87.512,375.101 73.601,391.448 71.364,390.694C70.343,390.35 58.173,361.141 59.485,332.499C60.006,321.122 60.884,319.293 62.634,317.644C132.408,251.892 205.038,311.805 240.457,324.63C296.807,345.035 333.165,316.176 335.13,318.749C335.548,319.297 335.369,319.272 335.903,327.497Z" style="fill:rgb(141,187,190);"/>
    </g>
    <g transform="matrix(5.978507,0,0,5.90118,-354.470103,-1144.381456)">
        <path d="M202.463,410.038C198.986,410.153 189.705,408.077 165.775,419.984C159.837,422.939 160.277,423.891 160.694,424.218C163.509,426.426 169.948,414.318 193.438,417.994C238.963,425.119 248.584,422.236 289.648,401.774C319.727,386.786 326.764,404.303 319.445,410.437C308.017,420.015 307.722,419.592 297.188,430.192C221.254,506.597 112.886,472.202 75.794,400.346C73.115,395.155 97.791,380.783 101.693,378.944C147.049,357.574 173.787,384.736 211.497,383.395C226.713,382.854 248.181,376.036 245.029,395.409C242.943,408.233 217.935,408.818 202.463,410.038Z" style="fill:rgb(3,79,94);"/>
    </g>
    <g transform="matrix(6.013634,0,0,6.013634,-365.785046,-1186.069948)">
        <path d="M323.439,399.636C313.381,386.357 296.486,399.131 301.891,392.735C314.503,377.807 326.152,357.25 339.603,363.278C340.447,363.656 346.255,367.174 341.151,375.299C332.664,388.808 325.739,398.213 324.316,400.147L323.439,399.636Z" style="fill:rgb(3,79,94);"/>
    </g>
    <g transform="matrix(6.013634,0,0,6.013634,-365.785046,-1186.069948)">
        <path d="M311.5,364.053C319.069,364.768 319.089,367.827 317.527,369.524C307.774,380.127 298.715,395.035 294.307,397.056C265.941,410.058 266.144,410.545 263.513,411.197C258.236,412.505 263.949,409.54 268.249,406.223C293.96,386.392 295.153,365.439 311.5,364.053Z" style="fill:rgb(3,79,94);"/>
    </g>
    <g transform="matrix(6.013634,0,0,6.013634,-365.785046,-1186.069948)">
        <path d="M266.674,397.739C270.624,394.666 275.306,391.63 285.589,381.594C302.947,364.653 281.458,394.519 257.196,412.087C254.238,414.229 228.075,418.489 232.816,414.937C235.711,412.768 239.354,417.224 266.674,397.739Z" style="fill:rgb(3,79,94);"/>
    </g>
</svg>
