<svg xmlns="http://www.w3.org/2000/svg" xmlns:xlink="http://www.w3.org/1999/xlink" width="673" zoomAndPan="magnify" viewBox="0 0 504.75 252.749989" height="337" preserveAspectRatio="xMidYMid meet" version="1.0"><defs><g/><clipPath id="4901eb848d"><path d="M 246.511719 186.972656 L 257.964844 186.972656 L 257.964844 198.421875 L 246.511719 198.421875 Z M 246.511719 186.972656 " clip-rule="nonzero"/></clipPath><clipPath id="1489f19cd3"><path d="M 252.238281 186.972656 C 249.074219 186.972656 246.511719 189.535156 246.511719 192.695312 C 246.511719 195.859375 249.074219 198.421875 252.238281 198.421875 C 255.398438 198.421875 257.964844 195.859375 257.964844 192.695312 C 257.964844 189.535156 255.398438 186.972656 252.238281 186.972656 Z M 252.238281 186.972656 " clip-rule="nonzero"/></clipPath><clipPath id="f526c0cc8f"><path d="M 0.511719 0.972656 L 11.964844 0.972656 L 11.964844 12.421875 L 0.511719 12.421875 Z M 0.511719 0.972656 " clip-rule="nonzero"/></clipPath><clipPath id="8f737ca1ba"><path d="M 6.238281 0.972656 C 3.074219 0.972656 0.511719 3.535156 0.511719 6.695312 C 0.511719 9.859375 3.074219 12.421875 6.238281 12.421875 C 9.398438 12.421875 11.964844 9.859375 11.964844 6.695312 C 11.964844 3.535156 9.398438 0.972656 6.238281 0.972656 Z M 6.238281 0.972656 " clip-rule="nonzero"/></clipPath><clipPath id="846c9c8a8b"><rect x="0" width="12" y="0" height="13"/></clipPath><clipPath id="283af3d5ae"><rect x="0" width="477" y="0" height="46"/></clipPath></defs><path stroke-linecap="butt" transform="matrix(0.749259, 0, 0, 0.749259, 266.552908, 191.198635)" fill="none" stroke-linejoin="miter" d="M 0.00237521 1.997544 L 278.955127 1.997544 " stroke="#0b4a59" stroke-width="4" stroke-opacity="1" stroke-miterlimit="4"/><g clip-path="url(#4901eb848d)"><g clip-path="url(#1489f19cd3)"><g transform="matrix(1, 0, 0, 1, 246, 186)"><g clip-path="url(#846c9c8a8b)"><g clip-path="url(#f526c0cc8f)"><g clip-path="url(#8f737ca1ba)"><path fill="#0b4a59" d="M 0.511719 0.972656 L 11.964844 0.972656 L 11.964844 12.421875 L 0.511719 12.421875 Z M 0.511719 0.972656 " fill-opacity="1" fill-rule="nonzero"/></g></g></g></g></g></g><path stroke-linecap="butt" transform="matrix(0.749259, 0, 0, 0.749259, 28.909822, 191.198635)" fill="none" stroke-linejoin="miter" d="M 0.000445497 1.997544 L 278.958411 1.997544 " stroke="#0b4a59" stroke-width="4" stroke-opacity="1" stroke-miterlimit="4"/><g fill="#24332f" fill-opacity="1"><g transform="translate(58.45949, 86.473049)"><g><path d="M 58 -45.78125 C 57.363281 -45.71875 56.453125 -45.59375 55.265625 -45.40625 C 54.085938 -45.226562 53.019531 -44.785156 52.0625 -44.078125 C 51.21875 -43.460938 50.617188 -42.410156 50.265625 -40.921875 C 49.921875 -39.429688 49.75 -37.238281 49.75 -34.34375 L 49.75 0.265625 L 43.671875 0.265625 L 13.484375 -37.1875 L 13.484375 -14.4375 C 13.484375 -11.613281 13.671875 -9.46875 14.046875 -8 C 14.421875 -6.53125 15.03125 -5.457031 15.875 -4.78125 C 16.488281 -4.28125 17.46875 -3.835938 18.8125 -3.453125 C 20.15625 -3.066406 21.222656 -2.800781 22.015625 -2.65625 L 22.015625 0 L 1.1875 0 L 1.1875 -2.65625 C 2.082031 -2.726562 3.101562 -2.894531 4.25 -3.15625 C 5.394531 -3.414062 6.359375 -3.820312 7.140625 -4.375 C 8.023438 -5.03125 8.628906 -6.023438 8.953125 -7.359375 C 9.285156 -8.691406 9.453125 -10.925781 9.453125 -14.0625 L 9.453125 -37.015625 C 9.453125 -38.148438 9.273438 -39.222656 8.921875 -40.234375 C 8.578125 -41.242188 8.023438 -42.113281 7.265625 -42.84375 C 6.472656 -43.625 5.554688 -44.234375 4.515625 -44.671875 C 3.484375 -45.117188 2.304688 -45.46875 0.984375 -45.71875 L 0.984375 -48.453125 L 19.21875 -48.453125 L 45.71875 -15.671875 L 45.71875 -34 C 45.71875 -36.914062 45.523438 -39.082031 45.140625 -40.5 C 44.753906 -41.925781 44.140625 -42.984375 43.296875 -43.671875 C 42.628906 -44.191406 41.644531 -44.640625 40.34375 -45.015625 C 39.050781 -45.390625 38.007812 -45.644531 37.21875 -45.78125 L 37.21875 -48.453125 L 58 -48.453125 Z M 58 -45.78125 "/></g></g></g><g fill="#24332f" fill-opacity="1"><g transform="translate(117.15304, 86.473049)"><g><path d="M 38.6875 -8.15625 C 37.882812 -6.863281 36.921875 -5.640625 35.796875 -4.484375 C 34.671875 -3.335938 33.390625 -2.351562 31.953125 -1.53125 C 30.429688 -0.664062 28.890625 -0.015625 27.328125 0.421875 C 25.765625 0.867188 23.972656 1.09375 21.953125 1.09375 C 18.585938 1.09375 15.679688 0.613281 13.234375 -0.34375 C 10.785156 -1.300781 8.765625 -2.585938 7.171875 -4.203125 C 5.578125 -5.816406 4.382812 -7.722656 3.59375 -9.921875 C 2.8125 -12.117188 2.421875 -14.503906 2.421875 -17.078125 C 2.421875 -19.390625 2.847656 -21.609375 3.703125 -23.734375 C 4.554688 -25.867188 5.769531 -27.769531 7.34375 -29.4375 C 8.882812 -31.050781 10.832031 -32.359375 13.1875 -33.359375 C 15.550781 -34.359375 18.1875 -34.859375 21.09375 -34.859375 C 24.28125 -34.859375 26.898438 -34.46875 28.953125 -33.6875 C 31.003906 -32.914062 32.703125 -31.847656 34.046875 -30.484375 C 35.335938 -29.191406 36.28125 -27.660156 36.875 -25.890625 C 37.46875 -24.128906 37.765625 -22.28125 37.765625 -20.34375 L 37.765625 -18.125 L 14.6875 -18.125 C 14.6875 -13.457031 15.582031 -9.90625 17.375 -7.46875 C 19.175781 -5.039062 22.035156 -3.828125 25.953125 -3.828125 C 28.085938 -3.828125 30.007812 -4.410156 31.71875 -5.578125 C 33.425781 -6.753906 34.882812 -8.238281 36.09375 -10.03125 Z M 25.640625 -21.140625 C 25.640625 -22.503906 25.570312 -23.898438 25.4375 -25.328125 C 25.300781 -26.765625 25.0625 -27.9375 24.71875 -28.84375 C 24.332031 -29.914062 23.800781 -30.722656 23.125 -31.265625 C 22.457031 -31.816406 21.613281 -32.09375 20.59375 -32.09375 C 18.832031 -32.09375 17.425781 -31.203125 16.375 -29.421875 C 15.332031 -27.648438 14.769531 -24.84375 14.6875 -21 Z M 25.640625 -21.140625 "/></g></g></g><g fill="#24332f" fill-opacity="1"><g transform="translate(157.135675, 86.473049)"><g><path d="M 40.90625 0 L 19.5625 0 L 19.5625 -2.5 C 20.675781 -2.5625 21.609375 -2.65625 22.359375 -2.78125 C 23.109375 -2.90625 23.484375 -3.160156 23.484375 -3.546875 C 23.484375 -3.734375 23.382812 -4.019531 23.1875 -4.40625 C 23 -4.789062 22.757812 -5.222656 22.46875 -5.703125 C 22.03125 -6.410156 21.28125 -7.523438 20.21875 -9.046875 C 19.164062 -10.566406 18.171875 -11.976562 17.234375 -13.28125 C 15.921875 -11.757812 14.816406 -10.453125 13.921875 -9.359375 C 13.035156 -8.265625 12.101562 -7.09375 11.125 -5.84375 C 10.789062 -5.425781 10.550781 -5.046875 10.40625 -4.703125 C 10.269531 -4.367188 10.203125 -4.164062 10.203125 -4.09375 C 10.203125 -3.570312 10.570312 -3.175781 11.3125 -2.90625 C 12.050781 -2.632812 12.9375 -2.5 13.96875 -2.5 L 13.96875 0 L 0.109375 0 L 0.109375 -2.5 C 1.953125 -2.882812 3.421875 -3.492188 4.515625 -4.328125 C 5.617188 -5.171875 6.367188 -5.820312 6.765625 -6.28125 C 8.421875 -8.050781 9.820312 -9.523438 10.96875 -10.703125 C 12.125 -11.878906 13.671875 -13.523438 15.609375 -15.640625 C 14.304688 -17.429688 12.734375 -19.625 10.890625 -22.21875 C 9.046875 -24.820312 7.507812 -26.953125 6.28125 -28.609375 C 5.664062 -29.429688 4.914062 -30.0625 4.03125 -30.5 C 3.144531 -30.945312 1.992188 -31.238281 0.578125 -31.375 L 0.578125 -33.875 L 21.4375 -33.875 L 21.4375 -31.375 C 20.6875 -31.375 19.945312 -31.328125 19.21875 -31.234375 C 18.488281 -31.148438 18.125 -30.992188 18.125 -30.765625 C 18.125 -30.578125 18.179688 -30.347656 18.296875 -30.078125 C 18.410156 -29.804688 18.5625 -29.519531 18.75 -29.21875 C 19.175781 -28.488281 19.851562 -27.421875 20.78125 -26.015625 C 21.71875 -24.609375 22.722656 -23.128906 23.796875 -21.578125 C 24.816406 -22.828125 25.675781 -23.847656 26.375 -24.640625 C 27.070312 -25.441406 27.960938 -26.570312 29.046875 -28.03125 C 29.460938 -28.570312 29.71875 -28.976562 29.8125 -29.25 C 29.914062 -29.53125 29.96875 -29.703125 29.96875 -29.765625 C 29.96875 -30.160156 29.722656 -30.507812 29.234375 -30.8125 C 28.753906 -31.125 27.796875 -31.3125 26.359375 -31.375 L 26.359375 -33.875 L 39.953125 -33.875 L 39.953125 -31.375 C 38.828125 -31.195312 37.738281 -30.820312 36.6875 -30.25 C 35.644531 -29.675781 34.554688 -28.789062 33.421875 -27.59375 C 31.648438 -25.75 30.359375 -24.398438 29.546875 -23.546875 C 28.742188 -22.691406 27.40625 -21.273438 25.53125 -19.296875 C 26.582031 -17.816406 28.097656 -15.664062 30.078125 -12.84375 C 32.054688 -10.019531 33.765625 -7.640625 35.203125 -5.703125 C 35.816406 -4.835938 36.503906 -4.128906 37.265625 -3.578125 C 38.023438 -3.035156 39.238281 -2.675781 40.90625 -2.5 Z M 40.90625 0 "/></g></g></g><g fill="#24332f" fill-opacity="1"><g transform="translate(198.245057, 86.473049)"><g><path d="M 27.375 -1.578125 C 25.925781 -0.929688 24.367188 -0.351562 22.703125 0.15625 C 21.046875 0.664062 19.019531 0.921875 16.625 0.921875 C 13.070312 0.921875 10.4375 0.0546875 8.71875 -1.671875 C 7 -3.398438 6.140625 -5.867188 6.140625 -9.078125 L 6.140625 -30.046875 L 0 -30.046875 L 0 -33.734375 L 6.28125 -33.734375 L 6.28125 -44.078125 L 17.375 -44.078125 L 17.375 -33.734375 L 26.9375 -33.734375 L 26.9375 -30.046875 L 17.453125 -30.046875 L 17.453125 -11.328125 C 17.453125 -8.671875 17.820312 -6.785156 18.5625 -5.671875 C 19.300781 -4.554688 20.625 -4 22.53125 -4 C 23.144531 -4 24 -4.039062 25.09375 -4.125 C 26.1875 -4.21875 26.945312 -4.320312 27.375 -4.4375 Z M 27.375 -1.578125 "/></g></g></g><g fill="#24332f" fill-opacity="1"><g transform="translate(226.038277, 86.473049)"><g/></g></g><g fill="#24332f" fill-opacity="1"><g transform="translate(243.793159, 86.473049)"><g><path d="M 80.0625 -45.71875 C 79.351562 -45.644531 78.644531 -45.488281 77.9375 -45.25 C 77.238281 -45.007812 76.546875 -44.707031 75.859375 -44.34375 C 74.816406 -43.757812 74.070312 -43.113281 73.625 -42.40625 C 73.175781 -41.695312 72.773438 -40.84375 72.421875 -39.84375 C 71.160156 -36.382812 69.226562 -30.84375 66.625 -23.21875 C 64.019531 -15.59375 61.304688 -7.671875 58.484375 0.546875 L 51.625 0.546875 L 38.8125 -35.46875 L 27.28125 0.546875 L 20.421875 0.546875 C 16.617188 -10.515625 13.703125 -19.03125 11.671875 -25 C 9.648438 -30.976562 7.945312 -35.992188 6.5625 -40.046875 C 6.125 -41.273438 5.628906 -42.164062 5.078125 -42.71875 C 4.535156 -43.28125 3.832031 -43.847656 2.96875 -44.421875 C 2.351562 -44.828125 1.695312 -45.125 1 -45.3125 C 0.3125 -45.507812 -0.488281 -45.664062 -1.40625 -45.78125 L -1.40625 -48.453125 L 24.453125 -48.453125 L 24.453125 -45.859375 C 22.921875 -45.671875 21.78125 -45.488281 21.03125 -45.3125 C 20.28125 -45.144531 19.6875 -44.972656 19.25 -44.796875 C 18.84375 -44.609375 18.59375 -44.410156 18.5 -44.203125 C 18.414062 -44.003906 18.375 -43.828125 18.375 -43.671875 C 18.375 -43.347656 18.410156 -43.035156 18.484375 -42.734375 C 18.566406 -42.441406 18.65625 -42.101562 18.75 -41.71875 C 19.289062 -39.945312 20.390625 -36.578125 22.046875 -31.609375 C 23.710938 -26.648438 25.765625 -20.492188 28.203125 -13.140625 L 39.234375 -48.453125 L 46.46875 -48.453125 L 59.265625 -12.046875 C 61.160156 -17.898438 62.671875 -22.679688 63.796875 -26.390625 C 64.921875 -30.097656 65.867188 -33.273438 66.640625 -35.921875 C 67.097656 -37.535156 67.460938 -38.890625 67.734375 -39.984375 C 68.003906 -41.078125 68.140625 -42.019531 68.140625 -42.8125 C 68.140625 -43.289062 67.914062 -43.703125 67.46875 -44.046875 C 67.03125 -44.390625 66.4375 -44.6875 65.6875 -44.9375 C 65.050781 -45.132812 64.222656 -45.296875 63.203125 -45.421875 C 62.191406 -45.546875 61.3125 -45.644531 60.5625 -45.71875 L 60.5625 -48.453125 L 80.0625 -48.453125 Z M 80.0625 -45.71875 "/></g></g></g><g fill="#24332f" fill-opacity="1"><g transform="translate(322.563396, 86.473049)"><g><path d="M 41 -0.71875 C 40 -0.28125 38.816406 0.117188 37.453125 0.484375 C 36.085938 0.847656 34.644531 1.03125 33.125 1.03125 C 30.320312 1.03125 28.257812 0.613281 26.9375 -0.21875 C 25.613281 -1.050781 24.710938 -2.242188 24.234375 -3.796875 L 24.03125 -3.796875 C 23.257812 -3.015625 22.515625 -2.347656 21.796875 -1.796875 C 21.078125 -1.253906 20.3125 -0.789062 19.5 -0.40625 C 18.425781 0.09375 17.394531 0.460938 16.40625 0.703125 C 15.414062 0.941406 14.03125 1.0625 12.25 1.0625 C 9.613281 1.0625 7.363281 0.28125 5.5 -1.28125 C 3.632812 -2.84375 2.703125 -4.910156 2.703125 -7.484375 C 2.703125 -8.960938 2.90625 -10.21875 3.3125 -11.25 C 3.71875 -12.28125 4.296875 -13.195312 5.046875 -14 C 5.734375 -14.726562 6.523438 -15.332031 7.421875 -15.8125 C 8.328125 -16.289062 9.3125 -16.734375 10.375 -17.140625 C 12.425781 -17.890625 14.882812 -18.664062 17.75 -19.46875 C 20.625 -20.28125 22.71875 -21.003906 24.03125 -21.640625 L 24.03125 -24.921875 C 24.03125 -25.492188 23.984375 -26.242188 23.890625 -27.171875 C 23.804688 -28.109375 23.613281 -28.894531 23.3125 -29.53125 C 23 -30.257812 22.5 -30.875 21.8125 -31.375 C 21.132812 -31.875 20.238281 -32.125 19.125 -32.125 C 18.113281 -32.125 17.273438 -31.984375 16.609375 -31.703125 C 15.941406 -31.421875 15.398438 -31.128906 14.984375 -30.828125 C 15.054688 -30.367188 15.25 -29.671875 15.5625 -28.734375 C 15.882812 -27.804688 16.046875 -26.910156 16.046875 -26.046875 C 16.046875 -25.660156 15.941406 -25.175781 15.734375 -24.59375 C 15.535156 -24.019531 15.242188 -23.5625 14.859375 -23.21875 C 14.328125 -22.757812 13.738281 -22.40625 13.09375 -22.15625 C 12.445312 -21.90625 11.453125 -21.78125 10.109375 -21.78125 C 8.191406 -21.78125 6.742188 -22.238281 5.765625 -23.15625 C 4.785156 -24.082031 4.296875 -25.285156 4.296875 -26.765625 C 4.296875 -28.035156 4.800781 -29.175781 5.8125 -30.1875 C 6.832031 -31.207031 8.070312 -32.046875 9.53125 -32.703125 C 10.957031 -33.390625 12.601562 -33.921875 14.46875 -34.296875 C 16.34375 -34.671875 18.078125 -34.859375 19.671875 -34.859375 C 21.878906 -34.859375 23.90625 -34.726562 25.75 -34.46875 C 27.59375 -34.207031 29.253906 -33.664062 30.734375 -32.84375 C 32.140625 -32.050781 33.257812 -30.894531 34.09375 -29.375 C 34.925781 -27.863281 35.34375 -25.890625 35.34375 -23.453125 C 35.34375 -20.878906 35.289062 -17.828125 35.1875 -14.296875 C 35.082031 -10.773438 35.03125 -8.457031 35.03125 -7.34375 C 35.03125 -6.3125 35.179688 -5.5 35.484375 -4.90625 C 35.796875 -4.320312 36.269531 -3.878906 36.90625 -3.578125 C 37.289062 -3.398438 37.898438 -3.289062 38.734375 -3.25 C 39.566406 -3.21875 40.320312 -3.203125 41 -3.203125 Z M 24.03125 -18.5 C 22.757812 -18.070312 21.5 -17.578125 20.25 -17.015625 C 19 -16.460938 17.972656 -15.878906 17.171875 -15.265625 C 16.328125 -14.628906 15.664062 -13.8125 15.1875 -12.8125 C 14.707031 -11.820312 14.46875 -10.660156 14.46875 -9.328125 C 14.46875 -7.546875 14.875 -6.253906 15.6875 -5.453125 C 16.5 -4.660156 17.492188 -4.265625 18.671875 -4.265625 C 19.921875 -4.265625 20.953125 -4.519531 21.765625 -5.03125 C 22.578125 -5.539062 23.289062 -6.175781 23.90625 -6.9375 Z M 24.03125 -18.5 "/></g></g></g><g fill="#24332f" fill-opacity="1"><g transform="translate(364.219059, 86.473049)"><g><path d="M 40.90625 -31.375 C 39.875 -31.21875 38.875 -30.832031 37.90625 -30.21875 C 36.945312 -29.601562 36.144531 -28.644531 35.5 -27.34375 C 33.914062 -24.019531 32.351562 -20.664062 30.8125 -17.28125 C 29.28125 -13.90625 27.769531 -10.640625 26.28125 -7.484375 C 25.832031 -6.523438 25.316406 -5.289062 24.734375 -3.78125 C 24.148438 -2.28125 23.664062 -0.914062 23.28125 0.3125 L 17 0.3125 C 14.382812 -5.769531 12.148438 -10.8125 10.296875 -14.8125 C 8.441406 -18.820312 6.476562 -23.125 4.40625 -27.71875 C 3.925781 -28.789062 3.179688 -29.632812 2.171875 -30.25 C 1.160156 -30.863281 0.128906 -31.238281 -0.921875 -31.375 L -0.921875 -33.875 L 20.109375 -33.875 L 20.109375 -31.375 C 19.335938 -31.351562 18.425781 -31.179688 17.375 -30.859375 C 16.332031 -30.546875 15.8125 -30.140625 15.8125 -29.640625 C 15.8125 -29.503906 15.851562 -29.296875 15.9375 -29.015625 C 16.03125 -28.742188 16.144531 -28.4375 16.28125 -28.09375 C 17.007812 -26.363281 18.109375 -23.867188 19.578125 -20.609375 C 21.046875 -17.359375 22.597656 -13.9375 24.234375 -10.34375 C 25.378906 -12.820312 26.46875 -15.25 27.5 -17.625 C 28.53125 -20.007812 29.8125 -23.046875 31.34375 -26.734375 C 31.550781 -27.273438 31.671875 -27.71875 31.703125 -28.0625 C 31.734375 -28.40625 31.75 -28.632812 31.75 -28.75 C 31.75 -29.15625 31.550781 -29.507812 31.15625 -29.8125 C 30.757812 -30.125 30.285156 -30.394531 29.734375 -30.625 C 29.171875 -30.851562 28.625 -31.023438 28.09375 -31.140625 C 27.570312 -31.253906 27.140625 -31.332031 26.796875 -31.375 L 26.796875 -33.875 L 40.90625 -33.875 Z M 40.90625 -31.375 "/></g></g></g><g fill="#24332f" fill-opacity="1"><g transform="translate(403.860266, 86.473049)"><g><path d="M 38.6875 -8.15625 C 37.882812 -6.863281 36.921875 -5.640625 35.796875 -4.484375 C 34.671875 -3.335938 33.390625 -2.351562 31.953125 -1.53125 C 30.429688 -0.664062 28.890625 -0.015625 27.328125 0.421875 C 25.765625 0.867188 23.972656 1.09375 21.953125 1.09375 C 18.585938 1.09375 15.679688 0.613281 13.234375 -0.34375 C 10.785156 -1.300781 8.765625 -2.585938 7.171875 -4.203125 C 5.578125 -5.816406 4.382812 -7.722656 3.59375 -9.921875 C 2.8125 -12.117188 2.421875 -14.503906 2.421875 -17.078125 C 2.421875 -19.390625 2.847656 -21.609375 3.703125 -23.734375 C 4.554688 -25.867188 5.769531 -27.769531 7.34375 -29.4375 C 8.882812 -31.050781 10.832031 -32.359375 13.1875 -33.359375 C 15.550781 -34.359375 18.1875 -34.859375 21.09375 -34.859375 C 24.28125 -34.859375 26.898438 -34.46875 28.953125 -33.6875 C 31.003906 -32.914062 32.703125 -31.847656 34.046875 -30.484375 C 35.335938 -29.191406 36.28125 -27.660156 36.875 -25.890625 C 37.46875 -24.128906 37.765625 -22.28125 37.765625 -20.34375 L 37.765625 -18.125 L 14.6875 -18.125 C 14.6875 -13.457031 15.582031 -9.90625 17.375 -7.46875 C 19.175781 -5.039062 22.035156 -3.828125 25.953125 -3.828125 C 28.085938 -3.828125 30.007812 -4.410156 31.71875 -5.578125 C 33.425781 -6.753906 34.882812 -8.238281 36.09375 -10.03125 Z M 25.640625 -21.140625 C 25.640625 -22.503906 25.570312 -23.898438 25.4375 -25.328125 C 25.300781 -26.765625 25.0625 -27.9375 24.71875 -28.84375 C 24.332031 -29.914062 23.800781 -30.722656 23.125 -31.265625 C 22.457031 -31.816406 21.613281 -32.09375 20.59375 -32.09375 C 18.832031 -32.09375 17.425781 -31.203125 16.375 -29.421875 C 15.332031 -27.648438 14.769531 -24.84375 14.6875 -21 Z M 25.640625 -21.140625 "/></g></g></g><g fill="#24332f" fill-opacity="1"><g transform="translate(19.638425, 154.423379)"><g><path d="M 25.78125 1.203125 C 22.476562 1.203125 19.390625 0.671875 16.515625 -0.390625 C 13.640625 -1.460938 11.132812 -3.015625 9 -5.046875 C 6.90625 -7.023438 5.253906 -9.476562 4.046875 -12.40625 C 2.847656 -15.34375 2.25 -18.5625 2.25 -22.0625 C 2.25 -25.550781 2.851562 -28.78125 4.0625 -31.75 C 5.28125 -34.71875 6.988281 -37.289062 9.1875 -39.46875 C 11.34375 -41.601562 13.929688 -43.257812 16.953125 -44.4375 C 19.984375 -45.613281 23.222656 -46.203125 26.671875 -46.203125 C 29.160156 -46.203125 31.429688 -45.898438 33.484375 -45.296875 C 35.535156 -44.691406 37.269531 -44.007812 38.6875 -43.25 L 40.65625 -45 L 43.40625 -45 L 43.6875 -28.5625 L 40.90625 -28.5625 C 39.320312 -33.570312 37.414062 -37.25 35.1875 -39.59375 C 32.96875 -41.945312 30.265625 -43.125 27.078125 -43.125 C 23.109375 -43.125 20.085938 -41.375 18.015625 -37.875 C 15.941406 -34.375 14.90625 -29.460938 14.90625 -23.140625 C 14.90625 -19.566406 15.257812 -16.515625 15.96875 -13.984375 C 16.675781 -11.460938 17.597656 -9.429688 18.734375 -7.890625 C 19.960938 -6.285156 21.410156 -5.109375 23.078125 -4.359375 C 24.753906 -3.609375 26.601562 -3.234375 28.625 -3.234375 C 31.59375 -3.234375 34.234375 -4.035156 36.546875 -5.640625 C 38.859375 -7.242188 40.96875 -9.675781 42.875 -12.9375 L 45.59375 -11.28125 C 44.6875 -9.425781 43.648438 -7.765625 42.484375 -6.296875 C 41.328125 -4.828125 39.988281 -3.5625 38.46875 -2.5 C 36.789062 -1.34375 34.941406 -0.4375 32.921875 0.21875 C 30.910156 0.875 28.53125 1.203125 25.78125 1.203125 Z M 25.78125 1.203125 "/></g></g></g><g fill="#24332f" fill-opacity="1"><g transform="translate(66.083475, 154.423379)"><g><path d="M 38.078125 -0.671875 C 37.148438 -0.265625 36.050781 0.101562 34.78125 0.4375 C 33.507812 0.78125 32.164062 0.953125 30.75 0.953125 C 28.15625 0.953125 26.242188 0.566406 25.015625 -0.203125 C 23.785156 -0.972656 22.953125 -2.078125 22.515625 -3.515625 L 22.328125 -3.515625 C 21.609375 -2.796875 20.914062 -2.179688 20.25 -1.671875 C 19.582031 -1.171875 18.867188 -0.738281 18.109375 -0.375 C 17.109375 0.0820312 16.148438 0.421875 15.234375 0.640625 C 14.316406 0.867188 13.035156 0.984375 11.390625 0.984375 C 8.929688 0.984375 6.832031 0.257812 5.09375 -1.1875 C 3.363281 -2.632812 2.5 -4.550781 2.5 -6.9375 C 2.5 -8.3125 2.6875 -9.476562 3.0625 -10.4375 C 3.445312 -11.40625 3.988281 -12.257812 4.6875 -13 C 5.320312 -13.675781 6.054688 -14.234375 6.890625 -14.671875 C 7.734375 -15.117188 8.648438 -15.535156 9.640625 -15.921875 C 11.546875 -16.617188 13.828125 -17.34375 16.484375 -18.09375 C 19.148438 -18.84375 21.097656 -19.515625 22.328125 -20.109375 L 22.328125 -23.140625 C 22.328125 -23.671875 22.28125 -24.367188 22.1875 -25.234375 C 22.101562 -26.109375 21.925781 -26.835938 21.65625 -27.421875 C 21.363281 -28.097656 20.898438 -28.671875 20.265625 -29.140625 C 19.628906 -29.609375 18.789062 -29.84375 17.75 -29.84375 C 16.820312 -29.84375 16.046875 -29.707031 15.421875 -29.4375 C 14.796875 -29.175781 14.296875 -28.90625 13.921875 -28.625 C 13.984375 -28.207031 14.160156 -27.5625 14.453125 -26.6875 C 14.753906 -25.820312 14.90625 -24.988281 14.90625 -24.1875 C 14.90625 -23.832031 14.804688 -23.382812 14.609375 -22.84375 C 14.421875 -22.300781 14.148438 -21.875 13.796875 -21.5625 C 13.304688 -21.132812 12.757812 -20.804688 12.15625 -20.578125 C 11.550781 -20.347656 10.628906 -20.234375 9.390625 -20.234375 C 7.609375 -20.234375 6.265625 -20.660156 5.359375 -21.515625 C 4.453125 -22.367188 4 -23.484375 4 -24.859375 C 4 -26.046875 4.46875 -27.109375 5.40625 -28.046875 C 6.34375 -28.984375 7.488281 -29.757812 8.84375 -30.375 C 10.175781 -31.007812 11.707031 -31.5 13.4375 -31.84375 C 15.175781 -32.195312 16.785156 -32.375 18.265625 -32.375 C 20.316406 -32.375 22.195312 -32.25 23.90625 -32 C 25.613281 -31.757812 27.15625 -31.257812 28.53125 -30.5 C 29.84375 -29.757812 30.882812 -28.6875 31.65625 -27.28125 C 32.425781 -25.875 32.8125 -24.039062 32.8125 -21.78125 C 32.8125 -19.394531 32.765625 -16.5625 32.671875 -13.28125 C 32.578125 -10.007812 32.53125 -7.851562 32.53125 -6.8125 C 32.53125 -5.863281 32.671875 -5.113281 32.953125 -4.5625 C 33.242188 -4.007812 33.6875 -3.597656 34.28125 -3.328125 C 34.632812 -3.160156 35.195312 -3.0625 35.96875 -3.03125 C 36.738281 -3 37.441406 -2.984375 38.078125 -2.984375 Z M 22.328125 -17.1875 C 21.140625 -16.78125 19.960938 -16.316406 18.796875 -15.796875 C 17.640625 -15.285156 16.691406 -14.742188 15.953125 -14.171875 C 15.171875 -13.578125 14.554688 -12.820312 14.109375 -11.90625 C 13.660156 -10.988281 13.4375 -9.90625 13.4375 -8.65625 C 13.4375 -7.007812 13.8125 -5.816406 14.5625 -5.078125 C 15.320312 -4.335938 16.25 -3.96875 17.34375 -3.96875 C 18.507812 -3.96875 19.46875 -4.203125 20.21875 -4.671875 C 20.96875 -5.148438 21.628906 -5.738281 22.203125 -6.4375 Z M 22.328125 -17.1875 "/></g></g></g><g fill="#24332f" fill-opacity="1"><g transform="translate(104.761264, 154.423379)"><g><path d="M 43.6875 0 L 24.609375 0 L 24.609375 -2.3125 C 25.003906 -2.351562 25.488281 -2.40625 26.0625 -2.46875 C 26.632812 -2.53125 27.066406 -2.640625 27.359375 -2.796875 C 27.804688 -3.023438 28.125 -3.359375 28.3125 -3.796875 C 28.5 -4.242188 28.59375 -4.898438 28.59375 -5.765625 L 28.59375 -20.609375 C 28.59375 -22.765625 28.195312 -24.382812 27.40625 -25.46875 C 26.613281 -26.5625 25.445312 -27.109375 23.90625 -27.109375 C 23.0625 -27.109375 22.273438 -26.976562 21.546875 -26.71875 C 20.816406 -26.46875 20.101562 -26.101562 19.40625 -25.625 C 18.789062 -25.195312 18.296875 -24.757812 17.921875 -24.3125 C 17.554688 -23.875 17.25 -23.484375 17 -23.140625 L 17 -6.125 C 17 -5.382812 17.101562 -4.765625 17.3125 -4.265625 C 17.519531 -3.765625 17.867188 -3.390625 18.359375 -3.140625 C 18.691406 -2.953125 19.113281 -2.78125 19.625 -2.625 C 20.132812 -2.476562 20.632812 -2.375 21.125 -2.3125 L 21.125 0 L 1.84375 0 L 1.84375 -2.3125 C 2.363281 -2.351562 2.894531 -2.410156 3.4375 -2.484375 C 3.976562 -2.554688 4.4375 -2.660156 4.8125 -2.796875 C 5.488281 -3.023438 5.953125 -3.378906 6.203125 -3.859375 C 6.460938 -4.347656 6.59375 -4.984375 6.59375 -5.765625 L 6.59375 -24.21875 C 6.59375 -24.875 6.421875 -25.519531 6.078125 -26.15625 C 5.742188 -26.789062 5.300781 -27.3125 4.75 -27.71875 C 4.375 -27.96875 3.894531 -28.175781 3.3125 -28.34375 C 2.726562 -28.507812 2.085938 -28.628906 1.390625 -28.703125 L 1.390625 -31.015625 L 16.515625 -31.828125 L 17 -31.359375 L 17 -26.765625 L 17.125 -26.765625 C 17.71875 -27.285156 18.4375 -27.914062 19.28125 -28.65625 C 20.125 -29.40625 20.90625 -30.007812 21.625 -30.46875 C 22.40625 -30.976562 23.429688 -31.410156 24.703125 -31.765625 C 25.972656 -32.128906 27.328125 -32.3125 28.765625 -32.3125 C 32.203125 -32.3125 34.78125 -31.332031 36.5 -29.375 C 38.226562 -27.414062 39.09375 -24.820312 39.09375 -21.59375 L 39.09375 -6.0625 C 39.09375 -5.28125 39.207031 -4.65625 39.4375 -4.1875 C 39.675781 -3.71875 40.113281 -3.347656 40.75 -3.078125 C 41.082031 -2.929688 41.492188 -2.78125 41.984375 -2.625 C 42.484375 -2.476562 43.050781 -2.375 43.6875 -2.3125 Z M 43.6875 0 "/></g></g></g><g fill="#24332f" fill-opacity="1"><g transform="translate(149.557752, 154.423379)"><g><path d="M 19.9375 1.015625 C 17 1.015625 14.40625 0.585938 12.15625 -0.265625 C 9.90625 -1.117188 8.050781 -2.285156 6.59375 -3.765625 C 5.132812 -5.273438 4.046875 -7.050781 3.328125 -9.09375 C 2.609375 -11.144531 2.25 -13.378906 2.25 -15.796875 C 2.25 -17.992188 2.6875 -20.082031 3.5625 -22.0625 C 4.445312 -24.050781 5.640625 -25.796875 7.140625 -27.296875 C 8.679688 -28.835938 10.597656 -30.066406 12.890625 -30.984375 C 15.179688 -31.910156 17.710938 -32.375 20.484375 -32.375 C 24.367188 -32.375 27.441406 -31.640625 29.703125 -30.171875 C 31.972656 -28.703125 33.109375 -26.71875 33.109375 -24.21875 C 33.109375 -22.695312 32.703125 -21.472656 31.890625 -20.546875 C 31.085938 -19.617188 29.707031 -19.15625 27.75 -19.15625 C 26.15625 -19.15625 24.820312 -19.535156 23.75 -20.296875 C 22.6875 -21.054688 22.15625 -22.050781 22.15625 -23.28125 C 22.15625 -24.3125 22.320312 -25.332031 22.65625 -26.34375 C 23 -27.363281 23.207031 -28.132812 23.28125 -28.65625 C 23.039062 -29.039062 22.738281 -29.332031 22.375 -29.53125 C 22.019531 -29.738281 21.460938 -29.84375 20.703125 -29.84375 C 19.753906 -29.84375 18.890625 -29.617188 18.109375 -29.171875 C 17.328125 -28.722656 16.597656 -27.941406 15.921875 -26.828125 C 15.265625 -25.765625 14.738281 -24.34375 14.34375 -22.5625 C 13.957031 -20.789062 13.765625 -18.660156 13.765625 -16.171875 C 13.765625 -12.410156 14.644531 -9.375 16.40625 -7.0625 C 18.175781 -4.757812 20.285156 -3.609375 22.734375 -3.609375 C 25.078125 -3.609375 26.941406 -4.128906 28.328125 -5.171875 C 29.710938 -6.222656 30.945312 -7.710938 32.03125 -9.640625 L 34.40625 -7.984375 C 33.75 -6.703125 32.960938 -5.523438 32.046875 -4.453125 C 31.140625 -3.390625 30.054688 -2.441406 28.796875 -1.609375 C 27.460938 -0.742188 26.109375 -0.09375 24.734375 0.34375 C 23.359375 0.789062 21.757812 1.015625 19.9375 1.015625 Z M 19.9375 1.015625 "/></g></g></g><g fill="#24332f" fill-opacity="1"><g transform="translate(184.050731, 154.423379)"><g><path d="M 35.921875 -7.578125 C 35.179688 -6.367188 34.285156 -5.226562 33.234375 -4.15625 C 32.191406 -3.09375 31.003906 -2.179688 29.671875 -1.421875 C 28.253906 -0.617188 26.820312 -0.015625 25.375 0.390625 C 23.925781 0.804688 22.265625 1.015625 20.390625 1.015625 C 17.265625 1.015625 14.5625 0.570312 12.28125 -0.3125 C 10.007812 -1.207031 8.132812 -2.40625 6.65625 -3.90625 C 5.175781 -5.40625 4.070312 -7.171875 3.34375 -9.203125 C 2.613281 -11.242188 2.25 -13.460938 2.25 -15.859375 C 2.25 -18.015625 2.644531 -20.078125 3.4375 -22.046875 C 4.226562 -24.023438 5.351562 -25.785156 6.8125 -27.328125 C 8.25 -28.828125 10.0625 -30.039062 12.25 -30.96875 C 14.4375 -31.90625 16.882812 -32.375 19.59375 -32.375 C 22.550781 -32.375 24.976562 -32.015625 26.875 -31.296875 C 28.78125 -30.578125 30.359375 -29.582031 31.609375 -28.3125 C 32.816406 -27.101562 33.691406 -25.679688 34.234375 -24.046875 C 34.785156 -22.410156 35.0625 -20.691406 35.0625 -18.890625 L 35.0625 -16.84375 L 13.640625 -16.84375 C 13.640625 -12.507812 14.472656 -9.207031 16.140625 -6.9375 C 17.804688 -4.675781 20.457031 -3.546875 24.09375 -3.546875 C 26.082031 -3.546875 27.867188 -4.085938 29.453125 -5.171875 C 31.035156 -6.265625 32.390625 -7.648438 33.515625 -9.328125 Z M 23.8125 -19.625 C 23.8125 -20.894531 23.75 -22.195312 23.625 -23.53125 C 23.5 -24.863281 23.273438 -25.953125 22.953125 -26.796875 C 22.597656 -27.785156 22.109375 -28.535156 21.484375 -29.046875 C 20.859375 -29.554688 20.070312 -29.8125 19.125 -29.8125 C 17.488281 -29.8125 16.1875 -28.984375 15.21875 -27.328125 C 14.25 -25.679688 13.722656 -23.070312 13.640625 -19.5 Z M 23.8125 -19.625 "/></g></g></g><g fill="#24332f" fill-opacity="1"><g transform="translate(221.175057, 154.423379)"><g><path d="M 33.421875 -25.65625 C 33.421875 -24.039062 32.921875 -22.625 31.921875 -21.40625 C 30.929688 -20.195312 29.625 -19.59375 28 -19.59375 C 26.457031 -19.59375 25.148438 -19.984375 24.078125 -20.765625 C 23.015625 -21.546875 22.484375 -22.695312 22.484375 -24.21875 C 22.484375 -24.957031 22.535156 -25.535156 22.640625 -25.953125 C 22.742188 -26.367188 22.835938 -26.753906 22.921875 -27.109375 C 21.953125 -27.066406 20.925781 -26.726562 19.84375 -26.09375 C 18.769531 -25.457031 17.820312 -24.613281 17 -23.5625 L 17 -6.15625 C 17 -5.414062 17.113281 -4.800781 17.34375 -4.3125 C 17.570312 -3.820312 17.960938 -3.441406 18.515625 -3.171875 C 18.984375 -2.941406 19.738281 -2.742188 20.78125 -2.578125 C 21.832031 -2.421875 22.585938 -2.332031 23.046875 -2.3125 L 23.046875 0 L 1.84375 0 L 1.84375 -2.3125 C 2.363281 -2.351562 2.894531 -2.410156 3.4375 -2.484375 C 3.976562 -2.554688 4.4375 -2.660156 4.8125 -2.796875 C 5.488281 -3.023438 5.953125 -3.378906 6.203125 -3.859375 C 6.460938 -4.347656 6.59375 -4.984375 6.59375 -5.765625 L 6.59375 -24.21875 C 6.59375 -24.976562 6.410156 -25.660156 6.046875 -26.265625 C 5.691406 -26.867188 5.257812 -27.351562 4.75 -27.71875 C 4.375 -27.96875 3.894531 -28.175781 3.3125 -28.34375 C 2.726562 -28.507812 2.085938 -28.628906 1.390625 -28.703125 L 1.390625 -31.015625 L 16.515625 -31.828125 L 17 -31.359375 L 17 -26.765625 L 17.125 -26.765625 C 18.582031 -28.453125 20.128906 -29.773438 21.765625 -30.734375 C 23.398438 -31.703125 25.109375 -32.1875 26.890625 -32.1875 C 28.859375 -32.1875 30.4375 -31.578125 31.625 -30.359375 C 32.820312 -29.140625 33.421875 -27.570312 33.421875 -25.65625 Z M 33.421875 -25.65625 "/></g></g></g><g fill="#24332f" fill-opacity="1"><g transform="translate(254.938876, 154.423379)"><g/></g></g><g fill="#24332f" fill-opacity="1"><g transform="translate(271.42449, 154.423379)"><g><path d="M 53.84375 0 L 36.59375 0 C 33.613281 -4.5625 31.132812 -8.195312 29.15625 -10.90625 C 27.175781 -13.613281 24.71875 -16.742188 21.78125 -20.296875 L 20.046875 -20.296875 L 20.046875 -6.625 C 20.046875 -5.863281 20.1875 -5.21875 20.46875 -4.6875 C 20.75 -4.164062 21.289062 -3.722656 22.09375 -3.359375 C 22.5 -3.191406 23.128906 -3.015625 23.984375 -2.828125 C 24.835938 -2.648438 25.570312 -2.53125 26.1875 -2.46875 L 26.1875 0 L 2.1875 0 L 2.1875 -2.46875 C 2.800781 -2.53125 3.609375 -2.617188 4.609375 -2.734375 C 5.617188 -2.859375 6.332031 -3.003906 6.75 -3.171875 C 7.550781 -3.503906 8.085938 -3.929688 8.359375 -4.453125 C 8.640625 -4.972656 8.78125 -5.632812 8.78125 -6.4375 L 8.78125 -38.171875 C 8.78125 -38.929688 8.660156 -39.566406 8.421875 -40.078125 C 8.191406 -40.585938 7.632812 -41.03125 6.75 -41.40625 C 6.070312 -41.6875 5.273438 -41.921875 4.359375 -42.109375 C 3.441406 -42.296875 2.71875 -42.429688 2.1875 -42.515625 L 2.1875 -45 L 27.421875 -45 C 33.066406 -45 37.351562 -44.113281 40.28125 -42.34375 C 43.207031 -40.582031 44.671875 -37.914062 44.671875 -34.34375 C 44.671875 -31.1875 43.765625 -28.648438 41.953125 -26.734375 C 40.148438 -24.828125 37.398438 -23.335938 33.703125 -22.265625 C 35.140625 -20.398438 36.8125 -18.238281 38.71875 -15.78125 C 40.632812 -13.332031 42.628906 -10.832031 44.703125 -8.28125 C 45.359375 -7.457031 46.25 -6.445312 47.375 -5.25 C 48.507812 -4.050781 49.515625 -3.316406 50.390625 -3.046875 C 50.867188 -2.898438 51.484375 -2.769531 52.234375 -2.65625 C 52.984375 -2.550781 53.519531 -2.488281 53.84375 -2.46875 Z M 32.25 -33.453125 C 32.25 -36.453125 31.40625 -38.644531 29.71875 -40.03125 C 28.039062 -41.414062 25.648438 -42.109375 22.546875 -42.109375 L 20.046875 -42.109375 L 20.046875 -23.28125 L 22.453125 -23.28125 C 25.554688 -23.28125 27.960938 -24.09375 29.671875 -25.71875 C 31.390625 -27.34375 32.25 -29.921875 32.25 -33.453125 Z M 32.25 -33.453125 "/></g></g></g><g fill="#24332f" fill-opacity="1"><g transform="translate(323.195673, 154.423379)"><g><path d="M 35.921875 -7.578125 C 35.179688 -6.367188 34.285156 -5.226562 33.234375 -4.15625 C 32.191406 -3.09375 31.003906 -2.179688 29.671875 -1.421875 C 28.253906 -0.617188 26.820312 -0.015625 25.375 0.390625 C 23.925781 0.804688 22.265625 1.015625 20.390625 1.015625 C 17.265625 1.015625 14.5625 0.570312 12.28125 -0.3125 C 10.007812 -1.207031 8.132812 -2.40625 6.65625 -3.90625 C 5.175781 -5.40625 4.070312 -7.171875 3.34375 -9.203125 C 2.613281 -11.242188 2.25 -13.460938 2.25 -15.859375 C 2.25 -18.015625 2.644531 -20.078125 3.4375 -22.046875 C 4.226562 -24.023438 5.351562 -25.785156 6.8125 -27.328125 C 8.25 -28.828125 10.0625 -30.039062 12.25 -30.96875 C 14.4375 -31.90625 16.882812 -32.375 19.59375 -32.375 C 22.550781 -32.375 24.976562 -32.015625 26.875 -31.296875 C 28.78125 -30.578125 30.359375 -29.582031 31.609375 -28.3125 C 32.816406 -27.101562 33.691406 -25.679688 34.234375 -24.046875 C 34.785156 -22.410156 35.0625 -20.691406 35.0625 -18.890625 L 35.0625 -16.84375 L 13.640625 -16.84375 C 13.640625 -12.507812 14.472656 -9.207031 16.140625 -6.9375 C 17.804688 -4.675781 20.457031 -3.546875 24.09375 -3.546875 C 26.082031 -3.546875 27.867188 -4.085938 29.453125 -5.171875 C 31.035156 -6.265625 32.390625 -7.648438 33.515625 -9.328125 Z M 23.8125 -19.625 C 23.8125 -20.894531 23.75 -22.195312 23.625 -23.53125 C 23.5 -24.863281 23.273438 -25.953125 22.953125 -26.796875 C 22.597656 -27.785156 22.109375 -28.535156 21.484375 -29.046875 C 20.859375 -29.554688 20.070312 -29.8125 19.125 -29.8125 C 17.488281 -29.8125 16.1875 -28.984375 15.21875 -27.328125 C 14.25 -25.679688 13.722656 -23.070312 13.640625 -19.5 Z M 23.8125 -19.625 "/></g></g></g><g fill="#24332f" fill-opacity="1"><g transform="translate(360.319999, 154.423379)"><g><path d="M 43.0625 0 L 23.96875 0 L 23.96875 -2.3125 C 24.394531 -2.351562 24.890625 -2.40625 25.453125 -2.46875 C 26.023438 -2.53125 26.453125 -2.640625 26.734375 -2.796875 C 27.171875 -3.023438 27.476562 -3.359375 27.65625 -3.796875 C 27.84375 -4.242188 27.9375 -4.898438 27.9375 -5.765625 L 27.9375 -20.609375 C 27.9375 -22.785156 27.53125 -24.410156 26.71875 -25.484375 C 25.90625 -26.566406 24.742188 -27.109375 23.234375 -27.109375 C 22.390625 -27.109375 21.601562 -26.976562 20.875 -26.71875 C 20.144531 -26.46875 19.429688 -26.101562 18.734375 -25.625 C 18.117188 -25.195312 17.625 -24.757812 17.25 -24.3125 C 16.882812 -23.875 16.578125 -23.484375 16.328125 -23.140625 L 16.328125 -6.125 C 16.328125 -5.34375 16.421875 -4.722656 16.609375 -4.265625 C 16.804688 -3.804688 17.164062 -3.429688 17.6875 -3.140625 C 18.007812 -2.953125 18.425781 -2.78125 18.9375 -2.625 C 19.457031 -2.476562 19.960938 -2.375 20.453125 -2.3125 L 20.453125 0 L 1.171875 0 L 1.171875 -2.3125 C 1.722656 -2.351562 2.253906 -2.40625 2.765625 -2.46875 C 3.285156 -2.53125 3.75 -2.640625 4.15625 -2.796875 C 4.832031 -3.046875 5.289062 -3.40625 5.53125 -3.875 C 5.769531 -4.351562 5.890625 -4.984375 5.890625 -5.765625 L 5.890625 -41.125 C 5.890625 -41.800781 5.734375 -42.519531 5.421875 -43.28125 C 5.109375 -44.039062 4.664062 -44.613281 4.09375 -45 C 3.664062 -45.269531 3.050781 -45.484375 2.25 -45.640625 C 1.445312 -45.796875 0.726562 -45.894531 0.09375 -45.9375 L 0.09375 -48.265625 L 15.859375 -49.078125 L 16.328125 -48.578125 L 16.328125 -26.765625 L 16.453125 -26.765625 C 17.253906 -27.484375 17.976562 -28.128906 18.625 -28.703125 C 19.269531 -29.285156 20.054688 -29.875 20.984375 -30.46875 C 21.765625 -30.976562 22.785156 -31.410156 24.046875 -31.765625 C 25.304688 -32.128906 26.664062 -32.3125 28.125 -32.3125 C 31.550781 -32.3125 34.125 -31.328125 35.84375 -29.359375 C 37.570312 -27.390625 38.4375 -24.800781 38.4375 -21.59375 L 38.4375 -6.0625 C 38.4375 -5.28125 38.550781 -4.65625 38.78125 -4.1875 C 39.007812 -3.71875 39.441406 -3.347656 40.078125 -3.078125 C 40.460938 -2.910156 40.882812 -2.757812 41.34375 -2.625 C 41.8125 -2.5 42.382812 -2.394531 43.0625 -2.3125 Z M 43.0625 0 "/></g></g></g><g fill="#24332f" fill-opacity="1"><g transform="translate(404.450699, 154.423379)"><g><path d="M 38.078125 -0.671875 C 37.148438 -0.265625 36.050781 0.101562 34.78125 0.4375 C 33.507812 0.78125 32.164062 0.953125 30.75 0.953125 C 28.15625 0.953125 26.242188 0.566406 25.015625 -0.203125 C 23.785156 -0.972656 22.953125 -2.078125 22.515625 -3.515625 L 22.328125 -3.515625 C 21.609375 -2.796875 20.914062 -2.179688 20.25 -1.671875 C 19.582031 -1.171875 18.867188 -0.738281 18.109375 -0.375 C 17.109375 0.0820312 16.148438 0.421875 15.234375 0.640625 C 14.316406 0.867188 13.035156 0.984375 11.390625 0.984375 C 8.929688 0.984375 6.832031 0.257812 5.09375 -1.1875 C 3.363281 -2.632812 2.5 -4.550781 2.5 -6.9375 C 2.5 -8.3125 2.6875 -9.476562 3.0625 -10.4375 C 3.445312 -11.40625 3.988281 -12.257812 4.6875 -13 C 5.320312 -13.675781 6.054688 -14.234375 6.890625 -14.671875 C 7.734375 -15.117188 8.648438 -15.535156 9.640625 -15.921875 C 11.546875 -16.617188 13.828125 -17.34375 16.484375 -18.09375 C 19.148438 -18.84375 21.097656 -19.515625 22.328125 -20.109375 L 22.328125 -23.140625 C 22.328125 -23.671875 22.28125 -24.367188 22.1875 -25.234375 C 22.101562 -26.109375 21.925781 -26.835938 21.65625 -27.421875 C 21.363281 -28.097656 20.898438 -28.671875 20.265625 -29.140625 C 19.628906 -29.609375 18.789062 -29.84375 17.75 -29.84375 C 16.820312 -29.84375 16.046875 -29.707031 15.421875 -29.4375 C 14.796875 -29.175781 14.296875 -28.90625 13.921875 -28.625 C 13.984375 -28.207031 14.160156 -27.5625 14.453125 -26.6875 C 14.753906 -25.820312 14.90625 -24.988281 14.90625 -24.1875 C 14.90625 -23.832031 14.804688 -23.382812 14.609375 -22.84375 C 14.421875 -22.300781 14.148438 -21.875 13.796875 -21.5625 C 13.304688 -21.132812 12.757812 -20.804688 12.15625 -20.578125 C 11.550781 -20.347656 10.628906 -20.234375 9.390625 -20.234375 C 7.609375 -20.234375 6.265625 -20.660156 5.359375 -21.515625 C 4.453125 -22.367188 4 -23.484375 4 -24.859375 C 4 -26.046875 4.46875 -27.109375 5.40625 -28.046875 C 6.34375 -28.984375 7.488281 -29.757812 8.84375 -30.375 C 10.175781 -31.007812 11.707031 -31.5 13.4375 -31.84375 C 15.175781 -32.195312 16.785156 -32.375 18.265625 -32.375 C 20.316406 -32.375 22.195312 -32.25 23.90625 -32 C 25.613281 -31.757812 27.15625 -31.257812 28.53125 -30.5 C 29.84375 -29.757812 30.882812 -28.6875 31.65625 -27.28125 C 32.425781 -25.875 32.8125 -24.039062 32.8125 -21.78125 C 32.8125 -19.394531 32.765625 -16.5625 32.671875 -13.28125 C 32.578125 -10.007812 32.53125 -7.851562 32.53125 -6.8125 C 32.53125 -5.863281 32.671875 -5.113281 32.953125 -4.5625 C 33.242188 -4.007812 33.6875 -3.597656 34.28125 -3.328125 C 34.632812 -3.160156 35.195312 -3.0625 35.96875 -3.03125 C 36.738281 -3 37.441406 -2.984375 38.078125 -2.984375 Z M 22.328125 -17.1875 C 21.140625 -16.78125 19.960938 -16.316406 18.796875 -15.796875 C 17.640625 -15.285156 16.691406 -14.742188 15.953125 -14.171875 C 15.171875 -13.578125 14.554688 -12.820312 14.109375 -11.90625 C 13.660156 -10.988281 13.4375 -9.90625 13.4375 -8.65625 C 13.4375 -7.007812 13.8125 -5.816406 14.5625 -5.078125 C 15.320312 -4.335938 16.25 -3.96875 17.34375 -3.96875 C 18.507812 -3.96875 19.46875 -4.203125 20.21875 -4.671875 C 20.96875 -5.148438 21.628906 -5.738281 22.203125 -6.4375 Z M 22.328125 -17.1875 "/></g></g></g><g fill="#24332f" fill-opacity="1"><g transform="translate(443.128534, 154.423379)"><g><path d="M 39.671875 -15.5 C 39.671875 -10.75 38.097656 -6.804688 34.953125 -3.671875 C 31.816406 -0.546875 27.835938 1.015625 23.015625 1.015625 C 21.160156 1.015625 19.5625 0.878906 18.21875 0.609375 C 16.875 0.347656 15.738281 0.03125 14.8125 -0.34375 C 13.832031 -0.75 13.050781 -1.144531 12.46875 -1.53125 C 11.894531 -1.925781 11.4375 -2.25 11.09375 -2.5 L 6.5625 1.609375 L 4.6875 0.890625 C 4.789062 -0.648438 4.878906 -2.320312 4.953125 -4.125 C 5.035156 -5.9375 5.078125 -8.378906 5.078125 -11.453125 L 5.078125 -41.125 C 5.078125 -41.925781 4.910156 -42.671875 4.578125 -43.359375 C 4.253906 -44.046875 3.816406 -44.570312 3.265625 -44.9375 C 2.859375 -45.1875 2.269531 -45.40625 1.5 -45.59375 C 0.726562 -45.78125 0.015625 -45.894531 -0.640625 -45.9375 L -0.640625 -48.265625 L 15.03125 -49.078125 L 15.5 -48.578125 L 15.5 -27.96875 L 15.703125 -27.96875 C 17.242188 -29.46875 18.828125 -30.566406 20.453125 -31.265625 C 22.078125 -31.960938 23.703125 -32.3125 25.328125 -32.3125 C 29.773438 -32.3125 33.273438 -30.796875 35.828125 -27.765625 C 38.390625 -24.742188 39.671875 -20.65625 39.671875 -15.5 Z M 28.28125 -15.125 C 28.28125 -16.726562 28.15625 -18.273438 27.90625 -19.765625 C 27.664062 -21.253906 27.265625 -22.570312 26.703125 -23.71875 C 26.128906 -24.851562 25.375 -25.765625 24.4375 -26.453125 C 23.507812 -27.140625 22.359375 -27.484375 20.984375 -27.484375 C 19.703125 -27.484375 18.632812 -27.269531 17.78125 -26.84375 C 16.9375 -26.425781 16.175781 -25.804688 15.5 -24.984375 L 15.5 -6.53125 C 15.632812 -6.101562 15.875 -5.546875 16.21875 -4.859375 C 16.5625 -4.179688 16.914062 -3.648438 17.28125 -3.265625 C 17.789062 -2.710938 18.328125 -2.289062 18.890625 -2 C 19.460938 -1.71875 20.269531 -1.578125 21.3125 -1.578125 C 23.46875 -1.578125 25.164062 -2.753906 26.40625 -5.109375 C 27.65625 -7.472656 28.28125 -10.8125 28.28125 -15.125 Z M 28.28125 -15.125 "/></g></g></g><g transform="matrix(1, 0, 0, 1, 14, 203)"><g clip-path="url(#283af3d5ae)"><g fill="#24332f" fill-opacity="1"><g transform="translate(0.291334, 32.453831)"><g><path d="M 10.625 0.359375 C 8.851562 0.359375 7.289062 -0.0507812 5.9375 -0.875 C 4.582031 -1.695312 3.519531 -2.878906 2.75 -4.421875 C 1.976562 -5.972656 1.59375 -7.835938 1.59375 -10.015625 C 1.59375 -11.617188 1.820312 -13.0625 2.28125 -14.34375 C 2.738281 -15.625 3.378906 -16.71875 4.203125 -17.625 C 5.023438 -18.53125 5.992188 -19.21875 7.109375 -19.6875 C 8.234375 -20.15625 9.457031 -20.390625 10.78125 -20.390625 C 12.164062 -20.390625 13.328125 -20.132812 14.265625 -19.625 C 15.210938 -19.125 15.972656 -18.554688 16.546875 -17.921875 L 15.140625 -16.328125 C 14.648438 -16.859375 14.0625 -17.296875 13.375 -17.640625 C 12.695312 -17.992188 11.851562 -18.171875 10.84375 -18.171875 C 9.5 -18.171875 8.328125 -17.835938 7.328125 -17.171875 C 6.328125 -16.515625 5.554688 -15.582031 5.015625 -14.375 C 4.484375 -13.175781 4.21875 -11.742188 4.21875 -10.078125 C 4.21875 -8.390625 4.472656 -6.929688 4.984375 -5.703125 C 5.503906 -4.484375 6.257812 -3.535156 7.25 -2.859375 C 8.238281 -2.191406 9.445312 -1.859375 10.875 -1.859375 C 11.582031 -1.859375 12.257812 -1.960938 12.90625 -2.171875 C 13.5625 -2.390625 14.082031 -2.679688 14.46875 -3.046875 L 14.46875 -8.28125 L 10.234375 -8.28125 L 10.234375 -10.375 L 16.796875 -10.375 L 16.796875 -1.953125 C 16.160156 -1.285156 15.304688 -0.734375 14.234375 -0.296875 C 13.171875 0.140625 11.96875 0.359375 10.625 0.359375 Z M 10.625 0.359375 "/></g></g></g><g fill="#24332f" fill-opacity="1"><g transform="translate(19.130276, 32.453831)"><g><path d="M 6.84375 0.359375 C 5.269531 0.359375 4.125 -0.128906 3.40625 -1.109375 C 2.6875 -2.097656 2.328125 -3.539062 2.328125 -5.4375 L 2.328125 -14.84375 L 4.828125 -14.84375 L 4.828125 -5.765625 C 4.828125 -4.378906 5.046875 -3.375 5.484375 -2.75 C 5.921875 -2.132812 6.628906 -1.828125 7.609375 -1.828125 C 8.359375 -1.828125 9.03125 -2.023438 9.625 -2.421875 C 10.226562 -2.816406 10.890625 -3.445312 11.609375 -4.3125 L 11.609375 -14.84375 L 14.109375 -14.84375 L 14.109375 0 L 12.03125 0 L 11.8125 -2.328125 L 11.71875 -2.328125 C 11.050781 -1.503906 10.320312 -0.847656 9.53125 -0.359375 C 8.75 0.117188 7.851562 0.359375 6.84375 0.359375 Z M 6.84375 0.359375 "/></g></g></g><g fill="#24332f" fill-opacity="1"><g transform="translate(35.740317, 32.453831)"><g><path d="M 2.5 0 L 2.5 -14.84375 L 5 -14.84375 L 5 0 Z M 3.75 -17.890625 C 3.257812 -17.890625 2.859375 -18.039062 2.546875 -18.34375 C 2.234375 -18.65625 2.078125 -19.054688 2.078125 -19.546875 C 2.078125 -20.023438 2.234375 -20.414062 2.546875 -20.71875 C 2.859375 -21.03125 3.257812 -21.1875 3.75 -21.1875 C 4.238281 -21.1875 4.640625 -21.03125 4.953125 -20.71875 C 5.265625 -20.414062 5.421875 -20.023438 5.421875 -19.546875 C 5.421875 -19.054688 5.265625 -18.65625 4.953125 -18.34375 C 4.640625 -18.039062 4.238281 -17.890625 3.75 -17.890625 Z M 3.75 -17.890625 "/></g></g></g><g fill="#24332f" fill-opacity="1"><g transform="translate(43.251463, 32.453831)"><g><path d="M 7.578125 0.359375 C 5.703125 0.359375 4.207031 -0.3125 3.09375 -1.65625 C 1.988281 -3.007812 1.4375 -4.921875 1.4375 -7.390625 C 1.4375 -8.992188 1.734375 -10.378906 2.328125 -11.546875 C 2.929688 -12.722656 3.722656 -13.625 4.703125 -14.25 C 5.679688 -14.882812 6.738281 -15.203125 7.875 -15.203125 C 8.75 -15.203125 9.492188 -15.050781 10.109375 -14.75 C 10.734375 -14.457031 11.375 -14.039062 12.03125 -13.5 L 11.90625 -16.03125 L 11.90625 -21.734375 L 14.4375 -21.734375 L 14.4375 0 L 12.359375 0 L 12.15625 -1.734375 L 12.0625 -1.734375 C 11.488281 -1.171875 10.816406 -0.679688 10.046875 -0.265625 C 9.273438 0.148438 8.453125 0.359375 7.578125 0.359375 Z M 8.125 -1.734375 C 8.8125 -1.734375 9.457031 -1.90625 10.0625 -2.25 C 10.675781 -2.601562 11.289062 -3.113281 11.90625 -3.78125 L 11.90625 -11.546875 C 11.289062 -12.109375 10.6875 -12.503906 10.09375 -12.734375 C 9.507812 -12.972656 8.910156 -13.09375 8.296875 -13.09375 C 7.503906 -13.09375 6.785156 -12.851562 6.140625 -12.375 C 5.503906 -11.894531 4.992188 -11.234375 4.609375 -10.390625 C 4.222656 -9.546875 4.03125 -8.554688 4.03125 -7.421875 C 4.03125 -5.648438 4.382812 -4.257812 5.09375 -3.25 C 5.8125 -2.238281 6.820312 -1.734375 8.125 -1.734375 Z M 8.125 -1.734375 "/></g></g></g><g fill="#24332f" fill-opacity="1"><g transform="translate(60.19736, 32.453831)"><g><path d="M 8.515625 0.359375 C 7.191406 0.359375 5.984375 0.0507812 4.890625 -0.5625 C 3.804688 -1.1875 2.945312 -2.070312 2.3125 -3.21875 C 1.6875 -4.375 1.375 -5.773438 1.375 -7.421875 C 1.375 -9.023438 1.695312 -10.40625 2.34375 -11.5625 C 3 -12.726562 3.832031 -13.625 4.84375 -14.25 C 5.863281 -14.882812 6.945312 -15.203125 8.09375 -15.203125 C 9.351562 -15.203125 10.425781 -14.910156 11.3125 -14.328125 C 12.195312 -13.753906 12.863281 -12.945312 13.3125 -11.90625 C 13.757812 -10.863281 13.984375 -9.644531 13.984375 -8.25 C 13.984375 -7.976562 13.976562 -7.71875 13.96875 -7.46875 C 13.957031 -7.226562 13.921875 -6.988281 13.859375 -6.75 L 3.171875 -6.75 L 3.171875 -8.734375 L 11.71875 -8.734375 C 11.71875 -10.160156 11.40625 -11.253906 10.78125 -12.015625 C 10.164062 -12.773438 9.28125 -13.15625 8.125 -13.15625 C 7.445312 -13.15625 6.78125 -12.96875 6.125 -12.59375 C 5.476562 -12.21875 4.945312 -11.613281 4.53125 -10.78125 C 4.113281 -9.945312 3.90625 -8.835938 3.90625 -7.453125 C 3.90625 -6.191406 4.125 -5.128906 4.5625 -4.265625 C 5 -3.410156 5.59375 -2.765625 6.34375 -2.328125 C 7.101562 -1.890625 7.929688 -1.671875 8.828125 -1.671875 C 9.535156 -1.671875 10.195312 -1.773438 10.8125 -1.984375 C 11.4375 -2.191406 12.003906 -2.46875 12.515625 -2.8125 L 13.4375 -1.15625 C 12.78125 -0.707031 12.050781 -0.34375 11.25 -0.0625 C 10.445312 0.21875 9.535156 0.359375 8.515625 0.359375 Z M 8.515625 0.359375 "/></g></g></g><g fill="#24332f" fill-opacity="1"><g transform="translate(75.341805, 32.453831)"><g><path d="M 7.578125 0.359375 C 5.703125 0.359375 4.207031 -0.3125 3.09375 -1.65625 C 1.988281 -3.007812 1.4375 -4.921875 1.4375 -7.390625 C 1.4375 -8.992188 1.734375 -10.378906 2.328125 -11.546875 C 2.929688 -12.722656 3.722656 -13.625 4.703125 -14.25 C 5.679688 -14.882812 6.738281 -15.203125 7.875 -15.203125 C 8.75 -15.203125 9.492188 -15.050781 10.109375 -14.75 C 10.734375 -14.457031 11.375 -14.039062 12.03125 -13.5 L 11.90625 -16.03125 L 11.90625 -21.734375 L 14.4375 -21.734375 L 14.4375 0 L 12.359375 0 L 12.15625 -1.734375 L 12.0625 -1.734375 C 11.488281 -1.171875 10.816406 -0.679688 10.046875 -0.265625 C 9.273438 0.148438 8.453125 0.359375 7.578125 0.359375 Z M 8.125 -1.734375 C 8.8125 -1.734375 9.457031 -1.90625 10.0625 -2.25 C 10.675781 -2.601562 11.289062 -3.113281 11.90625 -3.78125 L 11.90625 -11.546875 C 11.289062 -12.109375 10.6875 -12.503906 10.09375 -12.734375 C 9.507812 -12.972656 8.910156 -13.09375 8.296875 -13.09375 C 7.503906 -13.09375 6.785156 -12.851562 6.140625 -12.375 C 5.503906 -11.894531 4.992188 -11.234375 4.609375 -10.390625 C 4.222656 -9.546875 4.03125 -8.554688 4.03125 -7.421875 C 4.03125 -5.648438 4.382812 -4.257812 5.09375 -3.25 C 5.8125 -2.238281 6.820312 -1.734375 8.125 -1.734375 Z M 8.125 -1.734375 "/></g></g></g><g fill="#24332f" fill-opacity="1"><g transform="translate(92.287702, 32.453831)"><g/></g></g><g fill="#24332f" fill-opacity="1"><g transform="translate(98.394328, 32.453831)"><g><path d="M 9.0625 0.359375 C 8.375 0.359375 7.660156 0.191406 6.921875 -0.140625 C 6.191406 -0.472656 5.492188 -0.9375 4.828125 -1.53125 L 4.734375 -1.53125 L 4.515625 0 L 2.5 0 L 2.5 -21.734375 L 5 -21.734375 L 5 -15.8125 L 4.953125 -13.125 C 5.617188 -13.71875 6.351562 -14.210938 7.15625 -14.609375 C 7.957031 -15.003906 8.769531 -15.203125 9.59375 -15.203125 C 10.875 -15.203125 11.953125 -14.890625 12.828125 -14.265625 C 13.703125 -13.648438 14.363281 -12.773438 14.8125 -11.640625 C 15.257812 -10.515625 15.484375 -9.1875 15.484375 -7.65625 C 15.484375 -5.96875 15.179688 -4.523438 14.578125 -3.328125 C 13.972656 -2.128906 13.179688 -1.210938 12.203125 -0.578125 C 11.234375 0.046875 10.1875 0.359375 9.0625 0.359375 Z M 8.640625 -1.734375 C 9.453125 -1.734375 10.175781 -1.96875 10.8125 -2.4375 C 11.457031 -2.90625 11.960938 -3.582031 12.328125 -4.46875 C 12.703125 -5.351562 12.890625 -6.40625 12.890625 -7.625 C 12.890625 -8.707031 12.753906 -9.660156 12.484375 -10.484375 C 12.222656 -11.304688 11.804688 -11.945312 11.234375 -12.40625 C 10.660156 -12.863281 9.90625 -13.09375 8.96875 -13.09375 C 8.363281 -13.09375 7.726562 -12.925781 7.0625 -12.59375 C 6.40625 -12.257812 5.71875 -11.753906 5 -11.078125 L 5 -3.296875 C 5.65625 -2.722656 6.300781 -2.316406 6.9375 -2.078125 C 7.582031 -1.847656 8.148438 -1.734375 8.640625 -1.734375 Z M 8.640625 -1.734375 "/></g></g></g><g fill="#24332f" fill-opacity="1"><g transform="translate(115.156996, 32.453831)"><g><path d="M 2.75 6.375 C 2.425781 6.375 2.113281 6.34375 1.8125 6.28125 C 1.519531 6.226562 1.25 6.160156 1 6.078125 L 1.5625 4.125 C 1.738281 4.1875 1.914062 4.234375 2.09375 4.265625 C 2.28125 4.296875 2.457031 4.3125 2.625 4.3125 C 3.476562 4.3125 4.175781 4.007812 4.71875 3.40625 C 5.257812 2.800781 5.679688 2.039062 5.984375 1.125 L 6.3125 0.03125 L 0.359375 -14.84375 L 2.96875 -14.84375 L 5.984375 -6.625 C 6.222656 -5.988281 6.460938 -5.304688 6.703125 -4.578125 C 6.953125 -3.847656 7.191406 -3.132812 7.421875 -2.4375 L 7.546875 -2.4375 C 7.765625 -3.132812 7.976562 -3.84375 8.1875 -4.5625 C 8.40625 -5.28125 8.609375 -5.96875 8.796875 -6.625 L 11.453125 -14.84375 L 13.890625 -14.84375 L 8.296875 1.21875 C 7.953125 2.195312 7.535156 3.078125 7.046875 3.859375 C 6.554688 4.640625 5.96875 5.253906 5.28125 5.703125 C 4.59375 6.148438 3.75 6.375 2.75 6.375 Z M 2.75 6.375 "/></g></g></g><g fill="#24332f" fill-opacity="1"><g transform="translate(129.415984, 32.453831)"><g/></g></g><g fill="#24332f" fill-opacity="1"><g transform="translate(135.52261, 32.453831)"><g><path d="M 8.515625 0.359375 C 7.191406 0.359375 5.984375 0.0507812 4.890625 -0.5625 C 3.804688 -1.1875 2.945312 -2.070312 2.3125 -3.21875 C 1.6875 -4.375 1.375 -5.773438 1.375 -7.421875 C 1.375 -9.023438 1.695312 -10.40625 2.34375 -11.5625 C 3 -12.726562 3.832031 -13.625 4.84375 -14.25 C 5.863281 -14.882812 6.945312 -15.203125 8.09375 -15.203125 C 9.351562 -15.203125 10.425781 -14.910156 11.3125 -14.328125 C 12.195312 -13.753906 12.863281 -12.945312 13.3125 -11.90625 C 13.757812 -10.863281 13.984375 -9.644531 13.984375 -8.25 C 13.984375 -7.976562 13.976562 -7.71875 13.96875 -7.46875 C 13.957031 -7.226562 13.921875 -6.988281 13.859375 -6.75 L 3.171875 -6.75 L 3.171875 -8.734375 L 11.71875 -8.734375 C 11.71875 -10.160156 11.40625 -11.253906 10.78125 -12.015625 C 10.164062 -12.773438 9.28125 -13.15625 8.125 -13.15625 C 7.445312 -13.15625 6.78125 -12.96875 6.125 -12.59375 C 5.476562 -12.21875 4.945312 -11.613281 4.53125 -10.78125 C 4.113281 -9.945312 3.90625 -8.835938 3.90625 -7.453125 C 3.90625 -6.191406 4.125 -5.128906 4.5625 -4.265625 C 5 -3.410156 5.59375 -2.765625 6.34375 -2.328125 C 7.101562 -1.890625 7.929688 -1.671875 8.828125 -1.671875 C 9.535156 -1.671875 10.195312 -1.773438 10.8125 -1.984375 C 11.4375 -2.191406 12.003906 -2.46875 12.515625 -2.8125 L 13.4375 -1.15625 C 12.78125 -0.707031 12.050781 -0.34375 11.25 -0.0625 C 10.445312 0.21875 9.535156 0.359375 8.515625 0.359375 Z M 8.515625 0.359375 "/></g></g></g><g fill="#24332f" fill-opacity="1"><g transform="translate(150.453309, 32.453831)"><g><path d="M 0.421875 0 L 5.28125 -7.75 L 0.796875 -14.84375 L 3.515625 -14.84375 L 5.5 -11.578125 C 5.71875 -11.179688 5.953125 -10.773438 6.203125 -10.359375 C 6.460938 -9.941406 6.71875 -9.519531 6.96875 -9.09375 L 7.078125 -9.09375 C 7.304688 -9.519531 7.53125 -9.941406 7.75 -10.359375 C 7.976562 -10.773438 8.203125 -11.179688 8.421875 -11.578125 L 10.234375 -14.84375 L 12.859375 -14.84375 L 8.359375 -7.484375 L 13.1875 0 L 10.46875 0 L 8.296875 -3.453125 C 8.035156 -3.898438 7.765625 -4.347656 7.484375 -4.796875 C 7.210938 -5.242188 6.945312 -5.679688 6.6875 -6.109375 L 6.5625 -6.109375 C 6.300781 -5.679688 6.046875 -5.25 5.796875 -4.8125 C 5.554688 -4.375 5.3125 -3.921875 5.0625 -3.453125 L 3.046875 0 Z M 0.421875 0 "/></g></g></g><g fill="#24332f" fill-opacity="1"><g transform="translate(164.071082, 32.453831)"><g><path d="M 2.5 6.265625 L 2.5 -14.84375 L 4.578125 -14.84375 L 4.796875 -13.125 L 4.890625 -13.125 C 5.554688 -13.695312 6.296875 -14.1875 7.109375 -14.59375 C 7.921875 -15 8.757812 -15.203125 9.625 -15.203125 C 10.882812 -15.203125 11.953125 -14.890625 12.828125 -14.265625 C 13.703125 -13.648438 14.363281 -12.773438 14.8125 -11.640625 C 15.257812 -10.515625 15.484375 -9.175781 15.484375 -7.625 C 15.484375 -5.957031 15.179688 -4.523438 14.578125 -3.328125 C 13.972656 -2.128906 13.179688 -1.210938 12.203125 -0.578125 C 11.234375 0.046875 10.1875 0.359375 9.0625 0.359375 C 8.394531 0.359375 7.710938 0.207031 7.015625 -0.09375 C 6.328125 -0.394531 5.640625 -0.8125 4.953125 -1.34375 L 5 1.25 L 5 6.265625 Z M 8.640625 -1.734375 C 9.453125 -1.734375 10.175781 -1.96875 10.8125 -2.4375 C 11.457031 -2.90625 11.960938 -3.582031 12.328125 -4.46875 C 12.703125 -5.351562 12.890625 -6.40625 12.890625 -7.625 C 12.890625 -8.707031 12.753906 -9.660156 12.484375 -10.484375 C 12.222656 -11.304688 11.804688 -11.945312 11.234375 -12.40625 C 10.660156 -12.863281 9.90625 -13.09375 8.96875 -13.09375 C 8.363281 -13.09375 7.734375 -12.925781 7.078125 -12.59375 C 6.429688 -12.257812 5.738281 -11.753906 5 -11.078125 L 5 -3.296875 C 5.695312 -2.722656 6.351562 -2.316406 6.96875 -2.078125 C 7.59375 -1.847656 8.148438 -1.734375 8.640625 -1.734375 Z M 8.640625 -1.734375 "/></g></g></g><g fill="#24332f" fill-opacity="1"><g transform="translate(181.016978, 32.453831)"><g><path d="M 8.515625 0.359375 C 7.191406 0.359375 5.984375 0.0507812 4.890625 -0.5625 C 3.804688 -1.1875 2.945312 -2.070312 2.3125 -3.21875 C 1.6875 -4.375 1.375 -5.773438 1.375 -7.421875 C 1.375 -9.023438 1.695312 -10.40625 2.34375 -11.5625 C 3 -12.726562 3.832031 -13.625 4.84375 -14.25 C 5.863281 -14.882812 6.945312 -15.203125 8.09375 -15.203125 C 9.351562 -15.203125 10.425781 -14.910156 11.3125 -14.328125 C 12.195312 -13.753906 12.863281 -12.945312 13.3125 -11.90625 C 13.757812 -10.863281 13.984375 -9.644531 13.984375 -8.25 C 13.984375 -7.976562 13.976562 -7.71875 13.96875 -7.46875 C 13.957031 -7.226562 13.921875 -6.988281 13.859375 -6.75 L 3.171875 -6.75 L 3.171875 -8.734375 L 11.71875 -8.734375 C 11.71875 -10.160156 11.40625 -11.253906 10.78125 -12.015625 C 10.164062 -12.773438 9.28125 -13.15625 8.125 -13.15625 C 7.445312 -13.15625 6.78125 -12.96875 6.125 -12.59375 C 5.476562 -12.21875 4.945312 -11.613281 4.53125 -10.78125 C 4.113281 -9.945312 3.90625 -8.835938 3.90625 -7.453125 C 3.90625 -6.191406 4.125 -5.128906 4.5625 -4.265625 C 5 -3.410156 5.59375 -2.765625 6.34375 -2.328125 C 7.101562 -1.890625 7.929688 -1.671875 8.828125 -1.671875 C 9.535156 -1.671875 10.195312 -1.773438 10.8125 -1.984375 C 11.4375 -2.191406 12.003906 -2.46875 12.515625 -2.8125 L 13.4375 -1.15625 C 12.78125 -0.707031 12.050781 -0.34375 11.25 -0.0625 C 10.445312 0.21875 9.535156 0.359375 8.515625 0.359375 Z M 8.515625 0.359375 "/></g></g></g><g fill="#24332f" fill-opacity="1"><g transform="translate(196.161424, 32.453831)"><g><path d="M 2.5 0 L 2.5 -14.84375 L 4.578125 -14.84375 L 4.796875 -12.15625 L 4.890625 -12.15625 C 5.378906 -13.09375 5.988281 -13.832031 6.71875 -14.375 C 7.445312 -14.925781 8.238281 -15.203125 9.09375 -15.203125 C 9.425781 -15.203125 9.710938 -15.179688 9.953125 -15.140625 C 10.191406 -15.097656 10.4375 -15.019531 10.6875 -14.90625 L 10.140625 -12.765625 C 9.910156 -12.828125 9.695312 -12.867188 9.5 -12.890625 C 9.3125 -12.921875 9.066406 -12.9375 8.765625 -12.9375 C 8.128906 -12.9375 7.46875 -12.679688 6.78125 -12.171875 C 6.101562 -11.671875 5.507812 -10.789062 5 -9.53125 L 5 0 Z M 2.5 0 "/></g></g></g><g fill="#24332f" fill-opacity="1"><g transform="translate(206.756432, 32.453831)"><g><path d="M 2.5 0 L 2.5 -14.84375 L 5 -14.84375 L 5 0 Z M 3.75 -17.890625 C 3.257812 -17.890625 2.859375 -18.039062 2.546875 -18.34375 C 2.234375 -18.65625 2.078125 -19.054688 2.078125 -19.546875 C 2.078125 -20.023438 2.234375 -20.414062 2.546875 -20.71875 C 2.859375 -21.03125 3.257812 -21.1875 3.75 -21.1875 C 4.238281 -21.1875 4.640625 -21.03125 4.953125 -20.71875 C 5.265625 -20.414062 5.421875 -20.023438 5.421875 -19.546875 C 5.421875 -19.054688 5.265625 -18.65625 4.953125 -18.34375 C 4.640625 -18.039062 4.238281 -17.890625 3.75 -17.890625 Z M 3.75 -17.890625 "/></g></g></g><g fill="#24332f" fill-opacity="1"><g transform="translate(214.267578, 32.453831)"><g><path d="M 8.515625 0.359375 C 7.191406 0.359375 5.984375 0.0507812 4.890625 -0.5625 C 3.804688 -1.1875 2.945312 -2.070312 2.3125 -3.21875 C 1.6875 -4.375 1.375 -5.773438 1.375 -7.421875 C 1.375 -9.023438 1.695312 -10.40625 2.34375 -11.5625 C 3 -12.726562 3.832031 -13.625 4.84375 -14.25 C 5.863281 -14.882812 6.945312 -15.203125 8.09375 -15.203125 C 9.351562 -15.203125 10.425781 -14.910156 11.3125 -14.328125 C 12.195312 -13.753906 12.863281 -12.945312 13.3125 -11.90625 C 13.757812 -10.863281 13.984375 -9.644531 13.984375 -8.25 C 13.984375 -7.976562 13.976562 -7.71875 13.96875 -7.46875 C 13.957031 -7.226562 13.921875 -6.988281 13.859375 -6.75 L 3.171875 -6.75 L 3.171875 -8.734375 L 11.71875 -8.734375 C 11.71875 -10.160156 11.40625 -11.253906 10.78125 -12.015625 C 10.164062 -12.773438 9.28125 -13.15625 8.125 -13.15625 C 7.445312 -13.15625 6.78125 -12.96875 6.125 -12.59375 C 5.476562 -12.21875 4.945312 -11.613281 4.53125 -10.78125 C 4.113281 -9.945312 3.90625 -8.835938 3.90625 -7.453125 C 3.90625 -6.191406 4.125 -5.128906 4.5625 -4.265625 C 5 -3.410156 5.59375 -2.765625 6.34375 -2.328125 C 7.101562 -1.890625 7.929688 -1.671875 8.828125 -1.671875 C 9.535156 -1.671875 10.195312 -1.773438 10.8125 -1.984375 C 11.4375 -2.191406 12.003906 -2.46875 12.515625 -2.8125 L 13.4375 -1.15625 C 12.78125 -0.707031 12.050781 -0.34375 11.25 -0.0625 C 10.445312 0.21875 9.535156 0.359375 8.515625 0.359375 Z M 8.515625 0.359375 "/></g></g></g><g fill="#24332f" fill-opacity="1"><g transform="translate(229.412023, 32.453831)"><g><path d="M 2.5 0 L 2.5 -14.84375 L 4.578125 -14.84375 L 4.796875 -12.703125 L 4.890625 -12.703125 C 5.597656 -13.410156 6.347656 -14.003906 7.140625 -14.484375 C 7.929688 -14.960938 8.835938 -15.203125 9.859375 -15.203125 C 11.429688 -15.203125 12.578125 -14.707031 13.296875 -13.71875 C 14.015625 -12.738281 14.375 -11.300781 14.375 -9.40625 L 14.375 0 L 11.875 0 L 11.875 -9.0625 C 11.875 -10.46875 11.65625 -11.476562 11.21875 -12.09375 C 10.78125 -12.71875 10.0625 -13.03125 9.0625 -13.03125 C 8.3125 -13.03125 7.632812 -12.835938 7.03125 -12.453125 C 6.4375 -12.066406 5.757812 -11.5 5 -10.75 L 5 0 Z M 2.5 0 "/></g></g></g><g fill="#24332f" fill-opacity="1"><g transform="translate(246.113657, 32.453831)"><g><path d="M 8.390625 0.359375 C 7.066406 0.359375 5.875 0.0546875 4.8125 -0.546875 C 3.757812 -1.160156 2.925781 -2.046875 2.3125 -3.203125 C 1.707031 -4.367188 1.40625 -5.765625 1.40625 -7.390625 C 1.40625 -9.054688 1.734375 -10.46875 2.390625 -11.625 C 3.054688 -12.789062 3.929688 -13.675781 5.015625 -14.28125 C 6.109375 -14.894531 7.285156 -15.203125 8.546875 -15.203125 C 9.523438 -15.203125 10.363281 -15.039062 11.0625 -14.71875 C 11.769531 -14.394531 12.378906 -13.976562 12.890625 -13.46875 L 11.625 -11.90625 C 11.257812 -12.269531 10.828125 -12.554688 10.328125 -12.765625 C 9.835938 -12.984375 9.273438 -13.09375 8.640625 -13.09375 C 7.765625 -13.09375 6.972656 -12.851562 6.265625 -12.375 C 5.566406 -11.894531 5.015625 -11.226562 4.609375 -10.375 C 4.203125 -9.519531 4 -8.523438 4 -7.390625 C 4 -6.265625 4.191406 -5.273438 4.578125 -4.421875 C 4.960938 -3.566406 5.5 -2.898438 6.1875 -2.421875 C 6.882812 -1.941406 7.691406 -1.703125 8.609375 -1.703125 C 9.296875 -1.703125 9.9375 -1.832031 10.53125 -2.09375 C 11.125 -2.363281 11.632812 -2.703125 12.0625 -3.109375 L 13.15625 -1.59375 C 12.53125 -1 11.816406 -0.523438 11.015625 -0.171875 C 10.222656 0.179688 9.347656 0.359375 8.390625 0.359375 Z M 8.390625 0.359375 "/></g></g></g><g fill="#24332f" fill-opacity="1"><g transform="translate(259.395509, 32.453831)"><g><path d="M 8.515625 0.359375 C 7.191406 0.359375 5.984375 0.0507812 4.890625 -0.5625 C 3.804688 -1.1875 2.945312 -2.070312 2.3125 -3.21875 C 1.6875 -4.375 1.375 -5.773438 1.375 -7.421875 C 1.375 -9.023438 1.695312 -10.40625 2.34375 -11.5625 C 3 -12.726562 3.832031 -13.625 4.84375 -14.25 C 5.863281 -14.882812 6.945312 -15.203125 8.09375 -15.203125 C 9.351562 -15.203125 10.425781 -14.910156 11.3125 -14.328125 C 12.195312 -13.753906 12.863281 -12.945312 13.3125 -11.90625 C 13.757812 -10.863281 13.984375 -9.644531 13.984375 -8.25 C 13.984375 -7.976562 13.976562 -7.71875 13.96875 -7.46875 C 13.957031 -7.226562 13.921875 -6.988281 13.859375 -6.75 L 3.171875 -6.75 L 3.171875 -8.734375 L 11.71875 -8.734375 C 11.71875 -10.160156 11.40625 -11.253906 10.78125 -12.015625 C 10.164062 -12.773438 9.28125 -13.15625 8.125 -13.15625 C 7.445312 -13.15625 6.78125 -12.96875 6.125 -12.59375 C 5.476562 -12.21875 4.945312 -11.613281 4.53125 -10.78125 C 4.113281 -9.945312 3.90625 -8.835938 3.90625 -7.453125 C 3.90625 -6.191406 4.125 -5.128906 4.5625 -4.265625 C 5 -3.410156 5.59375 -2.765625 6.34375 -2.328125 C 7.101562 -1.890625 7.929688 -1.671875 8.828125 -1.671875 C 9.535156 -1.671875 10.195312 -1.773438 10.8125 -1.984375 C 11.4375 -2.191406 12.003906 -2.46875 12.515625 -2.8125 L 13.4375 -1.15625 C 12.78125 -0.707031 12.050781 -0.34375 11.25 -0.0625 C 10.445312 0.21875 9.535156 0.359375 8.515625 0.359375 Z M 8.515625 0.359375 "/></g></g></g><g fill="#24332f" fill-opacity="1"><g transform="translate(274.539954, 32.453831)"><g><path d="M 3.8125 0.359375 C 3.320312 0.359375 2.894531 0.179688 2.53125 -0.171875 C 2.164062 -0.523438 1.984375 -0.976562 1.984375 -1.53125 C 1.984375 -2.113281 2.164062 -2.582031 2.53125 -2.9375 C 2.894531 -3.300781 3.320312 -3.484375 3.8125 -3.484375 C 4.320312 -3.484375 4.75 -3.300781 5.09375 -2.9375 C 5.445312 -2.582031 5.625 -2.113281 5.625 -1.53125 C 5.625 -0.976562 5.445312 -0.523438 5.09375 -0.171875 C 4.75 0.179688 4.320312 0.359375 3.8125 0.359375 Z M 3.8125 0.359375 "/></g></g></g><g fill="#24332f" fill-opacity="1"><g transform="translate(282.142715, 32.453831)"><g/></g></g><g fill="#24332f" fill-opacity="1"><g transform="translate(288.249341, 32.453831)"><g><path d="M 2.75 0 L 2.75 -20.03125 L 7.75 -20.03125 C 9.8125 -20.03125 11.539062 -19.640625 12.9375 -18.859375 C 14.34375 -18.085938 15.40625 -16.960938 16.125 -15.484375 C 16.851562 -14.015625 17.21875 -12.222656 17.21875 -10.109375 C 17.21875 -7.992188 16.851562 -6.175781 16.125 -4.65625 C 15.40625 -3.132812 14.351562 -1.976562 12.96875 -1.1875 C 11.59375 -0.394531 9.894531 0 7.875 0 Z M 5.28125 -2.078125 L 7.578125 -2.078125 C 9.140625 -2.078125 10.4375 -2.394531 11.46875 -3.03125 C 12.507812 -3.675781 13.285156 -4.585938 13.796875 -5.765625 C 14.304688 -6.953125 14.5625 -8.398438 14.5625 -10.109375 C 14.5625 -11.773438 14.304688 -13.195312 13.796875 -14.375 C 13.285156 -15.5625 12.507812 -16.453125 11.46875 -17.046875 C 10.4375 -17.648438 9.140625 -17.953125 7.578125 -17.953125 L 5.28125 -17.953125 Z M 5.28125 -2.078125 "/></g></g></g><g fill="#24332f" fill-opacity="1"><g transform="translate(307.027228, 32.453831)"><g><path d="M 2.5 0 L 2.5 -14.84375 L 4.578125 -14.84375 L 4.796875 -12.15625 L 4.890625 -12.15625 C 5.378906 -13.09375 5.988281 -13.832031 6.71875 -14.375 C 7.445312 -14.925781 8.238281 -15.203125 9.09375 -15.203125 C 9.425781 -15.203125 9.710938 -15.179688 9.953125 -15.140625 C 10.191406 -15.097656 10.4375 -15.019531 10.6875 -14.90625 L 10.140625 -12.765625 C 9.910156 -12.828125 9.695312 -12.867188 9.5 -12.890625 C 9.3125 -12.921875 9.066406 -12.9375 8.765625 -12.9375 C 8.128906 -12.9375 7.46875 -12.679688 6.78125 -12.171875 C 6.101562 -11.671875 5.507812 -10.789062 5 -9.53125 L 5 0 Z M 2.5 0 "/></g></g></g><g fill="#24332f" fill-opacity="1"><g transform="translate(317.622236, 32.453831)"><g><path d="M 2.5 0 L 2.5 -14.84375 L 5 -14.84375 L 5 0 Z M 3.75 -17.890625 C 3.257812 -17.890625 2.859375 -18.039062 2.546875 -18.34375 C 2.234375 -18.65625 2.078125 -19.054688 2.078125 -19.546875 C 2.078125 -20.023438 2.234375 -20.414062 2.546875 -20.71875 C 2.859375 -21.03125 3.257812 -21.1875 3.75 -21.1875 C 4.238281 -21.1875 4.640625 -21.03125 4.953125 -20.71875 C 5.265625 -20.414062 5.421875 -20.023438 5.421875 -19.546875 C 5.421875 -19.054688 5.265625 -18.65625 4.953125 -18.34375 C 4.640625 -18.039062 4.238281 -17.890625 3.75 -17.890625 Z M 3.75 -17.890625 "/></g></g></g><g fill="#24332f" fill-opacity="1"><g transform="translate(325.133382, 32.453831)"><g><path d="M 5.703125 0 L 0.359375 -14.84375 L 2.96875 -14.84375 L 5.765625 -6.40625 C 5.992188 -5.695312 6.222656 -4.96875 6.453125 -4.21875 C 6.691406 -3.476562 6.921875 -2.753906 7.140625 -2.046875 L 7.265625 -2.046875 C 7.472656 -2.753906 7.695312 -3.476562 7.9375 -4.21875 C 8.175781 -4.96875 8.398438 -5.695312 8.609375 -6.40625 L 11.421875 -14.84375 L 13.890625 -14.84375 L 8.640625 0 Z M 5.703125 0 "/></g></g></g><g fill="#24332f" fill-opacity="1"><g transform="translate(339.270218, 32.453831)"><g><path d="M 8.515625 0.359375 C 7.191406 0.359375 5.984375 0.0507812 4.890625 -0.5625 C 3.804688 -1.1875 2.945312 -2.070312 2.3125 -3.21875 C 1.6875 -4.375 1.375 -5.773438 1.375 -7.421875 C 1.375 -9.023438 1.695312 -10.40625 2.34375 -11.5625 C 3 -12.726562 3.832031 -13.625 4.84375 -14.25 C 5.863281 -14.882812 6.945312 -15.203125 8.09375 -15.203125 C 9.351562 -15.203125 10.425781 -14.910156 11.3125 -14.328125 C 12.195312 -13.753906 12.863281 -12.945312 13.3125 -11.90625 C 13.757812 -10.863281 13.984375 -9.644531 13.984375 -8.25 C 13.984375 -7.976562 13.976562 -7.71875 13.96875 -7.46875 C 13.957031 -7.226562 13.921875 -6.988281 13.859375 -6.75 L 3.171875 -6.75 L 3.171875 -8.734375 L 11.71875 -8.734375 C 11.71875 -10.160156 11.40625 -11.253906 10.78125 -12.015625 C 10.164062 -12.773438 9.28125 -13.15625 8.125 -13.15625 C 7.445312 -13.15625 6.78125 -12.96875 6.125 -12.59375 C 5.476562 -12.21875 4.945312 -11.613281 4.53125 -10.78125 C 4.113281 -9.945312 3.90625 -8.835938 3.90625 -7.453125 C 3.90625 -6.191406 4.125 -5.128906 4.5625 -4.265625 C 5 -3.410156 5.59375 -2.765625 6.34375 -2.328125 C 7.101562 -1.890625 7.929688 -1.671875 8.828125 -1.671875 C 9.535156 -1.671875 10.195312 -1.773438 10.8125 -1.984375 C 11.4375 -2.191406 12.003906 -2.46875 12.515625 -2.8125 L 13.4375 -1.15625 C 12.78125 -0.707031 12.050781 -0.34375 11.25 -0.0625 C 10.445312 0.21875 9.535156 0.359375 8.515625 0.359375 Z M 8.515625 0.359375 "/></g></g></g><g fill="#24332f" fill-opacity="1"><g transform="translate(354.414663, 32.453831)"><g><path d="M 2.5 0 L 2.5 -14.84375 L 4.578125 -14.84375 L 4.796875 -12.703125 L 4.890625 -12.703125 C 5.597656 -13.410156 6.347656 -14.003906 7.140625 -14.484375 C 7.929688 -14.960938 8.835938 -15.203125 9.859375 -15.203125 C 11.429688 -15.203125 12.578125 -14.707031 13.296875 -13.71875 C 14.015625 -12.738281 14.375 -11.300781 14.375 -9.40625 L 14.375 0 L 11.875 0 L 11.875 -9.0625 C 11.875 -10.46875 11.65625 -11.476562 11.21875 -12.09375 C 10.78125 -12.71875 10.0625 -13.03125 9.0625 -13.03125 C 8.3125 -13.03125 7.632812 -12.835938 7.03125 -12.453125 C 6.4375 -12.066406 5.757812 -11.5 5 -10.75 L 5 0 Z M 2.5 0 "/></g></g></g><g fill="#24332f" fill-opacity="1"><g transform="translate(371.116297, 32.453831)"><g/></g></g><g fill="#24332f" fill-opacity="1"><g transform="translate(377.222901, 32.453831)"><g><path d="M 9.0625 0.359375 C 8.375 0.359375 7.660156 0.191406 6.921875 -0.140625 C 6.191406 -0.472656 5.492188 -0.9375 4.828125 -1.53125 L 4.734375 -1.53125 L 4.515625 0 L 2.5 0 L 2.5 -21.734375 L 5 -21.734375 L 5 -15.8125 L 4.953125 -13.125 C 5.617188 -13.71875 6.351562 -14.210938 7.15625 -14.609375 C 7.957031 -15.003906 8.769531 -15.203125 9.59375 -15.203125 C 10.875 -15.203125 11.953125 -14.890625 12.828125 -14.265625 C 13.703125 -13.648438 14.363281 -12.773438 14.8125 -11.640625 C 15.257812 -10.515625 15.484375 -9.1875 15.484375 -7.65625 C 15.484375 -5.96875 15.179688 -4.523438 14.578125 -3.328125 C 13.972656 -2.128906 13.179688 -1.210938 12.203125 -0.578125 C 11.234375 0.046875 10.1875 0.359375 9.0625 0.359375 Z M 8.640625 -1.734375 C 9.453125 -1.734375 10.175781 -1.96875 10.8125 -2.4375 C 11.457031 -2.90625 11.960938 -3.582031 12.328125 -4.46875 C 12.703125 -5.351562 12.890625 -6.40625 12.890625 -7.625 C 12.890625 -8.707031 12.753906 -9.660156 12.484375 -10.484375 C 12.222656 -11.304688 11.804688 -11.945312 11.234375 -12.40625 C 10.660156 -12.863281 9.90625 -13.09375 8.96875 -13.09375 C 8.363281 -13.09375 7.726562 -12.925781 7.0625 -12.59375 C 6.40625 -12.257812 5.71875 -11.753906 5 -11.078125 L 5 -3.296875 C 5.65625 -2.722656 6.300781 -2.316406 6.9375 -2.078125 C 7.582031 -1.847656 8.148438 -1.734375 8.640625 -1.734375 Z M 8.640625 -1.734375 "/></g></g></g><g fill="#24332f" fill-opacity="1"><g transform="translate(393.985569, 32.453831)"><g><path d="M 2.75 6.375 C 2.425781 6.375 2.113281 6.34375 1.8125 6.28125 C 1.519531 6.226562 1.25 6.160156 1 6.078125 L 1.5625 4.125 C 1.738281 4.1875 1.914062 4.234375 2.09375 4.265625 C 2.28125 4.296875 2.457031 4.3125 2.625 4.3125 C 3.476562 4.3125 4.175781 4.007812 4.71875 3.40625 C 5.257812 2.800781 5.679688 2.039062 5.984375 1.125 L 6.3125 0.03125 L 0.359375 -14.84375 L 2.96875 -14.84375 L 5.984375 -6.625 C 6.222656 -5.988281 6.460938 -5.304688 6.703125 -4.578125 C 6.953125 -3.847656 7.191406 -3.132812 7.421875 -2.4375 L 7.546875 -2.4375 C 7.765625 -3.132812 7.976562 -3.84375 8.1875 -4.5625 C 8.40625 -5.28125 8.609375 -5.96875 8.796875 -6.625 L 11.453125 -14.84375 L 13.890625 -14.84375 L 8.296875 1.21875 C 7.953125 2.195312 7.535156 3.078125 7.046875 3.859375 C 6.554688 4.640625 5.96875 5.253906 5.28125 5.703125 C 4.59375 6.148438 3.75 6.375 2.75 6.375 Z M 2.75 6.375 "/></g></g></g><g fill="#24332f" fill-opacity="1"><g transform="translate(408.244579, 32.453831)"><g/></g></g><g fill="#24332f" fill-opacity="1"><g transform="translate(414.351227, 32.453831)"><g><path d="M 8.390625 0.359375 C 7.066406 0.359375 5.875 0.0546875 4.8125 -0.546875 C 3.757812 -1.160156 2.925781 -2.046875 2.3125 -3.203125 C 1.707031 -4.367188 1.40625 -5.765625 1.40625 -7.390625 C 1.40625 -9.054688 1.734375 -10.46875 2.390625 -11.625 C 3.054688 -12.789062 3.929688 -13.675781 5.015625 -14.28125 C 6.109375 -14.894531 7.285156 -15.203125 8.546875 -15.203125 C 9.523438 -15.203125 10.363281 -15.039062 11.0625 -14.71875 C 11.769531 -14.394531 12.378906 -13.976562 12.890625 -13.46875 L 11.625 -11.90625 C 11.257812 -12.269531 10.828125 -12.554688 10.328125 -12.765625 C 9.835938 -12.984375 9.273438 -13.09375 8.640625 -13.09375 C 7.765625 -13.09375 6.972656 -12.851562 6.265625 -12.375 C 5.566406 -11.894531 5.015625 -11.226562 4.609375 -10.375 C 4.203125 -9.519531 4 -8.523438 4 -7.390625 C 4 -6.265625 4.191406 -5.273438 4.578125 -4.421875 C 4.960938 -3.566406 5.5 -2.898438 6.1875 -2.421875 C 6.882812 -1.941406 7.691406 -1.703125 8.609375 -1.703125 C 9.296875 -1.703125 9.9375 -1.832031 10.53125 -2.09375 C 11.125 -2.363281 11.632812 -2.703125 12.0625 -3.109375 L 13.15625 -1.59375 C 12.53125 -1 11.816406 -0.523438 11.015625 -0.171875 C 10.222656 0.179688 9.347656 0.359375 8.390625 0.359375 Z M 8.390625 0.359375 "/></g></g></g><g fill="#24332f" fill-opacity="1"><g transform="translate(427.968934, 32.453831)"><g><path d="M 5.921875 0.359375 C 5.109375 0.359375 4.367188 0.191406 3.703125 -0.140625 C 3.046875 -0.472656 2.523438 -0.945312 2.140625 -1.5625 C 1.753906 -2.1875 1.5625 -2.945312 1.5625 -3.84375 C 1.5625 -5.507812 2.289062 -6.769531 3.75 -7.625 C 5.21875 -8.488281 7.539062 -9.09375 10.71875 -9.4375 C 10.695312 -10.039062 10.597656 -10.628906 10.421875 -11.203125 C 10.253906 -11.773438 9.945312 -12.234375 9.5 -12.578125 C 9.050781 -12.921875 8.425781 -13.09375 7.625 -13.09375 C 6.769531 -13.09375 5.96875 -12.9375 5.21875 -12.625 C 4.46875 -12.3125 3.796875 -11.960938 3.203125 -11.578125 L 2.234375 -13.28125 C 2.679688 -13.582031 3.207031 -13.878906 3.8125 -14.171875 C 4.425781 -14.472656 5.085938 -14.71875 5.796875 -14.90625 C 6.515625 -15.101562 7.269531 -15.203125 8.0625 -15.203125 C 9.257812 -15.203125 10.238281 -14.953125 11 -14.453125 C 11.769531 -13.953125 12.332031 -13.242188 12.6875 -12.328125 C 13.039062 -11.410156 13.21875 -10.332031 13.21875 -9.09375 L 13.21875 0 L 11.140625 0 L 10.9375 -1.765625 L 10.84375 -1.765625 C 10.125 -1.179688 9.359375 -0.679688 8.546875 -0.265625 C 7.734375 0.148438 6.859375 0.359375 5.921875 0.359375 Z M 6.625 -1.703125 C 7.351562 -1.703125 8.035156 -1.863281 8.671875 -2.1875 C 9.316406 -2.519531 10 -3.003906 10.71875 -3.640625 L 10.71875 -7.625 C 9.050781 -7.425781 7.734375 -7.164062 6.765625 -6.84375 C 5.796875 -6.53125 5.097656 -6.140625 4.671875 -5.671875 C 4.242188 -5.210938 4.03125 -4.65625 4.03125 -4 C 4.03125 -3.1875 4.285156 -2.597656 4.796875 -2.234375 C 5.304688 -1.878906 5.914062 -1.703125 6.625 -1.703125 Z M 6.625 -1.703125 "/></g></g></g><g fill="#24332f" fill-opacity="1"><g transform="translate(443.357685, 32.453831)"><g><path d="M 2.5 0 L 2.5 -14.84375 L 4.578125 -14.84375 L 4.796875 -12.15625 L 4.890625 -12.15625 C 5.378906 -13.09375 5.988281 -13.832031 6.71875 -14.375 C 7.445312 -14.925781 8.238281 -15.203125 9.09375 -15.203125 C 9.425781 -15.203125 9.710938 -15.179688 9.953125 -15.140625 C 10.191406 -15.097656 10.4375 -15.019531 10.6875 -14.90625 L 10.140625 -12.765625 C 9.910156 -12.828125 9.695312 -12.867188 9.5 -12.890625 C 9.3125 -12.921875 9.066406 -12.9375 8.765625 -12.9375 C 8.128906 -12.9375 7.46875 -12.679688 6.78125 -12.171875 C 6.101562 -11.671875 5.507812 -10.789062 5 -9.53125 L 5 0 Z M 2.5 0 "/></g></g></g><g fill="#24332f" fill-opacity="1"><g transform="translate(453.647289, 32.453831)"><g><path d="M 8.515625 0.359375 C 7.191406 0.359375 5.984375 0.0507812 4.890625 -0.5625 C 3.804688 -1.1875 2.945312 -2.070312 2.3125 -3.21875 C 1.6875 -4.375 1.375 -5.773438 1.375 -7.421875 C 1.375 -9.023438 1.695312 -10.40625 2.34375 -11.5625 C 3 -12.726562 3.832031 -13.625 4.84375 -14.25 C 5.863281 -14.882812 6.945312 -15.203125 8.09375 -15.203125 C 9.351562 -15.203125 10.425781 -14.910156 11.3125 -14.328125 C 12.195312 -13.753906 12.863281 -12.945312 13.3125 -11.90625 C 13.757812 -10.863281 13.984375 -9.644531 13.984375 -8.25 C 13.984375 -7.976562 13.976562 -7.71875 13.96875 -7.46875 C 13.957031 -7.226562 13.921875 -6.988281 13.859375 -6.75 L 3.171875 -6.75 L 3.171875 -8.734375 L 11.71875 -8.734375 C 11.71875 -10.160156 11.40625 -11.253906 10.78125 -12.015625 C 10.164062 -12.773438 9.28125 -13.15625 8.125 -13.15625 C 7.445312 -13.15625 6.78125 -12.96875 6.125 -12.59375 C 5.476562 -12.21875 4.945312 -11.613281 4.53125 -10.78125 C 4.113281 -9.945312 3.90625 -8.835938 3.90625 -7.453125 C 3.90625 -6.191406 4.125 -5.128906 4.5625 -4.265625 C 5 -3.410156 5.59375 -2.765625 6.34375 -2.328125 C 7.101562 -1.890625 7.929688 -1.671875 8.828125 -1.671875 C 9.535156 -1.671875 10.195312 -1.773438 10.8125 -1.984375 C 11.4375 -2.191406 12.003906 -2.46875 12.515625 -2.8125 L 13.4375 -1.15625 C 12.78125 -0.707031 12.050781 -0.34375 11.25 -0.0625 C 10.445312 0.21875 9.535156 0.359375 8.515625 0.359375 Z M 8.515625 0.359375 "/></g></g></g><g fill="#24332f" fill-opacity="1"><g transform="translate(468.791734, 32.453831)"><g><path d="M 3.8125 0.359375 C 3.320312 0.359375 2.894531 0.179688 2.53125 -0.171875 C 2.164062 -0.523438 1.984375 -0.976562 1.984375 -1.53125 C 1.984375 -2.113281 2.164062 -2.582031 2.53125 -2.9375 C 2.894531 -3.300781 3.320312 -3.484375 3.8125 -3.484375 C 4.320312 -3.484375 4.75 -3.300781 5.09375 -2.9375 C 5.445312 -2.582031 5.625 -2.113281 5.625 -1.53125 C 5.625 -0.976562 5.445312 -0.523438 5.09375 -0.171875 C 4.75 0.179688 4.320312 0.359375 3.8125 0.359375 Z M 3.8125 0.359375 "/></g></g></g></g></g></svg>