<?xml version="1.0" encoding="UTF-8" standalone="no"?>
<!DOCTYPE svg PUBLIC "-//W3C//DTD SVG 1.1//EN" "http://www.w3.org/Graphics/SVG/1.1/DTD/svg11.dtd">
<svg width="630" height="272" viewBox="0 0 630 272" version="1.1" xmlns="http://www.w3.org/2000/svg" xmlns:xlink="http://www.w3.org/1999/xlink" xml:space="preserve" xmlns:serif="http://www.serif.com/" style="fill-rule:evenodd;clip-rule:evenodd;">
    <g transform="matrix(1,0,0,1,-21.505552,-50.642593)">
        <g transform="matrix(0.998032,0,0,0.998032,355.385327,254.681351)">
            <path d="M0,2L278.955,2" style="fill:none;fill-rule:nonzero;stroke:rgb(201,167,156);stroke-width:4px;"/>
        </g>
        <g transform="matrix(1.333333,0,0,1.333333,0,0.000002)">
            <clipPath id="_clip1">
                <path d="M252.238,186.789C249.078,186.789 246.516,189.348 246.516,192.508C246.516,195.668 249.078,198.23 252.238,198.23C255.398,198.23 257.957,195.668 257.957,192.508C257.957,189.348 255.398,186.789 252.238,186.789Z"/>
            </clipPath>
            <g clip-path="url(#_clip1)">
                <g transform="matrix(1,0,0,1,246,186)">
                    <g>
                        <g>
                            <g>
                                <clipPath id="_clip2">
                                    <path d="M6.238,0.789C3.078,0.789 0.516,3.348 0.516,6.508C0.516,9.668 3.078,12.23 6.238,12.23C9.398,12.23 11.957,9.668 11.957,6.508C11.957,3.348 9.398,0.789 6.238,0.789Z"/>
                                </clipPath>
                                <g clip-path="url(#_clip2)">
                                    <rect x="0.516" y="0.789" width="11.441" height="11.441" style="fill:rgb(201,167,156);fill-rule:nonzero;"/>
                                </g>
                            </g>
                        </g>
                    </g>
                </g>
            </g>
        </g>
        <g transform="matrix(0.998032,0,0,0.998032,38.838812,254.681351)">
            <path d="M-0,2L278.955,2" style="fill:none;fill-rule:nonzero;stroke:rgb(201,167,156);stroke-width:4px;"/>
        </g>
        <g transform="matrix(1.333333,0,0,1.333333,0,0.000002)">
            <g transform="matrix(1,0,0,1,58.649781,86.388193)">
                <g>
                    <path d="M57.953,-45.75C57.316,-45.676 56.406,-45.547 55.219,-45.359C54.039,-45.18 52.973,-44.738 52.016,-44.031C51.172,-43.414 50.57,-42.363 50.219,-40.875C49.875,-39.383 49.703,-37.195 49.703,-34.312L49.703,0.266L43.625,0.266L13.469,-37.141L13.469,-14.422C13.469,-11.609 13.656,-9.469 14.031,-8C14.406,-6.531 15.016,-5.457 15.859,-4.781C16.473,-4.281 17.453,-3.832 18.797,-3.438C20.141,-3.051 21.207,-2.789 22,-2.656L22,0L1.188,0L1.188,-2.656C2.082,-2.727 3.102,-2.895 4.25,-3.156C5.395,-3.414 6.352,-3.816 7.125,-4.359C8.008,-5.023 8.617,-6.02 8.953,-7.344C9.285,-8.676 9.453,-10.91 9.453,-14.047L9.453,-36.969C9.453,-38.113 9.273,-39.191 8.922,-40.203C8.566,-41.211 8.016,-42.082 7.266,-42.812C6.473,-43.582 5.555,-44.188 4.516,-44.625C3.484,-45.07 2.305,-45.422 0.984,-45.672L0.984,-48.406L19.203,-48.406L45.672,-15.656L45.672,-33.969C45.672,-36.883 45.477,-39.051 45.094,-40.469C44.707,-41.895 44.094,-42.945 43.25,-43.625C42.594,-44.145 41.613,-44.594 40.312,-44.969C39.02,-45.344 37.977,-45.602 37.188,-45.75L37.188,-48.406L57.953,-48.406L57.953,-45.75Z" style="fill:rgb(247,244,239);fill-rule:nonzero;"/>
                </g>
            </g>
        </g>
        <g transform="matrix(1.333333,0,0,1.333333,0,0.000002)">
            <g transform="matrix(1,0,0,1,117.285736,86.388193)">
                <g>
                    <path d="M38.641,-8.156C37.848,-6.852 36.891,-5.629 35.766,-4.484C34.641,-3.336 33.359,-2.352 31.922,-1.531C30.398,-0.664 28.859,-0.016 27.297,0.422C25.742,0.867 23.957,1.094 21.938,1.094C18.57,1.094 15.664,0.613 13.219,-0.344C10.77,-1.301 8.75,-2.586 7.156,-4.203C5.57,-5.816 4.383,-7.719 3.594,-9.906C2.812,-12.102 2.422,-14.488 2.422,-17.062C2.422,-19.375 2.848,-21.594 3.703,-23.719C4.555,-25.844 5.766,-27.738 7.328,-29.406C8.879,-31.02 10.832,-32.328 13.188,-33.328C15.539,-34.328 18.172,-34.828 21.078,-34.828C24.266,-34.828 26.879,-34.438 28.922,-33.656C30.973,-32.883 32.672,-31.82 34.016,-30.469C35.305,-29.164 36.25,-27.633 36.844,-25.875C37.438,-24.113 37.734,-22.266 37.734,-20.328L37.734,-18.109L14.672,-18.109C14.672,-13.453 15.566,-9.906 17.359,-7.469C19.16,-5.039 22.016,-3.828 25.922,-3.828C28.055,-3.828 29.977,-4.41 31.688,-5.578C33.395,-6.742 34.852,-8.227 36.062,-10.031L38.641,-8.156ZM25.625,-21.109C25.625,-22.473 25.551,-23.867 25.406,-25.297C25.27,-26.734 25.035,-27.91 24.703,-28.828C24.305,-29.891 23.773,-30.691 23.109,-31.234C22.441,-31.785 21.594,-32.062 20.562,-32.062C18.812,-32.062 17.41,-31.176 16.359,-29.406C15.316,-27.633 14.754,-24.828 14.672,-20.984L25.625,-21.109Z" style="fill:rgb(247,244,239);fill-rule:nonzero;"/>
                </g>
            </g>
        </g>
        <g transform="matrix(1.333333,0,0,1.333333,0,0.000002)">
            <g transform="matrix(1,0,0,1,157.229136,86.388193)">
                <g>
                    <path d="M40.859,0L19.547,0L19.547,-2.484C20.66,-2.555 21.594,-2.656 22.344,-2.781C23.094,-2.906 23.469,-3.16 23.469,-3.547C23.469,-3.734 23.367,-4.02 23.172,-4.406C22.984,-4.789 22.738,-5.223 22.438,-5.703C22.008,-6.398 21.266,-7.508 20.203,-9.031C19.148,-10.562 18.156,-11.973 17.219,-13.266C15.906,-11.742 14.805,-10.438 13.922,-9.344C13.035,-8.25 12.102,-7.078 11.125,-5.828C10.781,-5.422 10.539,-5.047 10.406,-4.703C10.27,-4.367 10.203,-4.164 10.203,-4.094C10.203,-3.57 10.57,-3.172 11.312,-2.891C12.051,-2.617 12.93,-2.484 13.953,-2.484L13.953,0L0.109,0L0.109,-2.484C1.941,-2.867 3.41,-3.484 4.516,-4.328C5.617,-5.172 6.363,-5.82 6.75,-6.281C8.414,-8.051 9.82,-9.52 10.969,-10.688C12.113,-11.863 13.656,-13.508 15.594,-15.625C14.289,-17.414 12.719,-19.609 10.875,-22.203C9.039,-24.797 7.508,-26.922 6.281,-28.578C5.664,-29.398 4.91,-30.031 4.016,-30.469C3.129,-30.914 1.984,-31.207 0.578,-31.344L0.578,-33.844L21.422,-33.844L21.422,-31.344C20.672,-31.344 19.93,-31.297 19.203,-31.203C18.473,-31.117 18.109,-30.961 18.109,-30.734C18.109,-30.555 18.164,-30.328 18.281,-30.047C18.395,-29.773 18.547,-29.492 18.734,-29.203C19.16,-28.473 19.836,-27.398 20.766,-25.984C21.703,-24.578 22.707,-23.102 23.781,-21.562C24.801,-22.812 25.656,-23.832 26.344,-24.625C27.039,-25.426 27.938,-26.551 29.031,-28C29.438,-28.551 29.691,-28.961 29.797,-29.234C29.898,-29.504 29.953,-29.676 29.953,-29.75C29.953,-30.133 29.707,-30.477 29.219,-30.781C28.727,-31.094 27.766,-31.281 26.328,-31.344L26.328,-33.844L39.906,-33.844L39.906,-31.344C38.789,-31.164 37.707,-30.789 36.656,-30.219C35.613,-29.656 34.523,-28.77 33.391,-27.562C31.617,-25.719 30.328,-24.367 29.516,-23.516C28.711,-22.66 27.379,-21.242 25.516,-19.266C26.555,-17.797 28.066,-15.648 30.047,-12.828C32.023,-10.004 33.734,-7.629 35.172,-5.703C35.785,-4.836 36.473,-4.129 37.234,-3.578C37.992,-3.035 39.203,-2.672 40.859,-2.484L40.859,0Z" style="fill:rgb(247,244,239);fill-rule:nonzero;"/>
                </g>
            </g>
        </g>
        <g transform="matrix(1.333333,0,0,1.333333,0,0.000002)">
            <g transform="matrix(1,0,0,1,198.298177,86.388193)">
                <g>
                    <path d="M27.359,-1.562C25.898,-0.926 24.336,-0.352 22.672,0.156C21.016,0.664 18.992,0.922 16.609,0.922C13.066,0.922 10.438,0.055 8.719,-1.672C7,-3.398 6.141,-5.867 6.141,-9.078L6.141,-30.016L0,-30.016L0,-33.703L6.281,-33.703L6.281,-44.031L17.359,-44.031L17.359,-33.703L26.906,-33.703L26.906,-30.016L17.438,-30.016L17.438,-11.328C17.438,-8.66 17.801,-6.77 18.531,-5.656C19.27,-4.539 20.598,-3.984 22.516,-3.984C23.129,-3.984 23.977,-4.031 25.062,-4.125C26.156,-4.219 26.922,-4.32 27.359,-4.438L27.359,-1.562Z" style="fill:rgb(247,244,239);fill-rule:nonzero;"/>
                </g>
            </g>
        </g>
        <g transform="matrix(1.333333,0,0,1.333333,0,0.000002)">
            <g transform="matrix(1,0,0,1,243.801583,86.388193)">
                <g>
                    <path d="M79.984,-45.672C79.285,-45.609 78.582,-45.457 77.875,-45.219C77.164,-44.977 76.473,-44.676 75.797,-44.312C74.742,-43.719 73.992,-43.066 73.547,-42.359C73.109,-41.66 72.707,-40.812 72.344,-39.812C71.094,-36.352 69.164,-30.812 66.562,-23.188C63.957,-15.57 61.25,-7.66 58.438,0.547L51.578,0.547L38.781,-35.438L27.25,0.547L20.391,0.547C16.598,-10.504 13.688,-19.016 11.656,-24.984C9.633,-30.953 7.93,-35.961 6.547,-40.016C6.117,-41.242 5.629,-42.133 5.078,-42.688C4.535,-43.25 3.832,-43.812 2.969,-44.375C2.352,-44.789 1.695,-45.094 1,-45.281C0.312,-45.477 -0.488,-45.633 -1.406,-45.75L-1.406,-48.406L24.422,-48.406L24.422,-45.812C22.898,-45.625 21.766,-45.445 21.016,-45.281C20.266,-45.113 19.672,-44.938 19.234,-44.75C18.828,-44.57 18.578,-44.379 18.484,-44.172C18.398,-43.961 18.359,-43.781 18.359,-43.625C18.359,-43.312 18.395,-43.004 18.469,-42.703C18.551,-42.41 18.641,-42.07 18.734,-41.688C19.273,-39.906 20.375,-36.535 22.031,-31.578C23.695,-26.629 25.742,-20.477 28.172,-13.125L39.188,-48.406L46.422,-48.406L59.219,-12.047C61.102,-17.891 62.609,-22.66 63.734,-26.359C64.859,-30.066 65.805,-33.242 66.578,-35.891C67.035,-37.504 67.398,-38.852 67.672,-39.938C67.941,-41.031 68.078,-41.977 68.078,-42.781C68.078,-43.25 67.852,-43.656 67.406,-44C66.969,-44.344 66.375,-44.641 65.625,-44.891C64.988,-45.098 64.164,-45.266 63.156,-45.391C62.145,-45.516 61.266,-45.609 60.516,-45.672L60.516,-48.406L79.984,-48.406L79.984,-45.672Z" style="fill:rgb(247,244,239);fill-rule:nonzero;"/>
                </g>
            </g>
        </g>
        <g transform="matrix(1.333333,0,0,1.333333,0,0.000002)">
            <g transform="matrix(1,0,0,1,322.494522,86.388193)">
                <g>
                    <path d="M40.969,-0.719C39.969,-0.281 38.785,0.113 37.422,0.469C36.055,0.832 34.613,1.016 33.094,1.016C30.289,1.016 28.227,0.602 26.906,-0.219C25.594,-1.051 24.695,-2.238 24.219,-3.781L24.016,-3.781C23.242,-3.008 22.5,-2.348 21.781,-1.797C21.062,-1.254 20.297,-0.789 19.484,-0.406C18.41,0.094 17.379,0.461 16.391,0.703C15.398,0.941 14.02,1.062 12.25,1.062C9.602,1.062 7.348,0.285 5.484,-1.266C3.617,-2.828 2.688,-4.895 2.688,-7.469C2.688,-8.945 2.891,-10.203 3.297,-11.234C3.711,-12.273 4.297,-13.191 5.047,-13.984C5.734,-14.711 6.523,-15.316 7.422,-15.797C8.316,-16.273 9.301,-16.719 10.375,-17.125C12.414,-17.875 14.867,-18.648 17.734,-19.453C20.598,-20.266 22.691,-20.988 24.016,-21.625L24.016,-24.906C24.016,-25.469 23.969,-26.211 23.875,-27.141C23.781,-28.078 23.586,-28.863 23.297,-29.5C22.973,-30.227 22.473,-30.844 21.797,-31.344C21.117,-31.844 20.223,-32.094 19.109,-32.094C18.098,-32.094 17.258,-31.953 16.594,-31.672C15.926,-31.391 15.383,-31.098 14.969,-30.797C15.039,-30.348 15.234,-29.656 15.547,-28.719C15.867,-27.789 16.031,-26.895 16.031,-26.031C16.031,-25.645 15.926,-25.16 15.719,-24.578C15.52,-23.992 15.227,-23.535 14.844,-23.203C14.312,-22.742 13.723,-22.391 13.078,-22.141C12.43,-21.891 11.438,-21.766 10.094,-21.766C8.188,-21.766 6.742,-22.223 5.766,-23.141C4.785,-24.066 4.297,-25.27 4.297,-26.75C4.297,-28.02 4.801,-29.16 5.812,-30.172C6.82,-31.18 8.055,-32.016 9.516,-32.672C10.953,-33.359 12.602,-33.891 14.469,-34.266C16.332,-34.641 18.055,-34.828 19.641,-34.828C21.848,-34.828 23.875,-34.695 25.719,-34.438C27.562,-34.176 29.223,-33.633 30.703,-32.812C32.109,-32.02 33.227,-30.863 34.062,-29.344C34.895,-27.832 35.312,-25.863 35.312,-23.438C35.312,-20.863 35.258,-17.812 35.156,-14.281C35.051,-10.758 35,-8.441 35,-7.328C35,-6.305 35.148,-5.5 35.453,-4.906C35.766,-4.32 36.238,-3.879 36.875,-3.578C37.258,-3.398 37.863,-3.289 38.688,-3.25C39.52,-3.219 40.281,-3.203 40.969,-3.203L40.969,-0.719ZM24.016,-18.484C22.742,-18.055 21.484,-17.562 20.234,-17C18.984,-16.445 17.957,-15.863 17.156,-15.25C16.312,-14.613 15.648,-13.801 15.172,-12.812C14.703,-11.82 14.469,-10.656 14.469,-9.312C14.469,-7.539 14.867,-6.254 15.672,-5.453C16.484,-4.66 17.477,-4.266 18.656,-4.266C19.906,-4.266 20.93,-4.52 21.734,-5.031C22.547,-5.539 23.258,-6.172 23.875,-6.922L24.016,-18.484Z" style="fill:rgb(247,244,239);fill-rule:nonzero;"/>
                </g>
            </g>
        </g>
        <g transform="matrix(1.333333,0,0,1.333333,0,0.000002)">
            <g transform="matrix(1,0,0,1,364.109308,86.388193)">
                <g>
                    <path d="M40.859,-31.344C39.836,-31.188 38.844,-30.801 37.875,-30.188C36.914,-29.57 36.113,-28.617 35.469,-27.328C33.883,-24.004 32.32,-20.656 30.781,-17.281C29.25,-13.906 27.742,-10.633 26.266,-7.469C25.805,-6.508 25.285,-5.281 24.703,-3.781C24.129,-2.281 23.648,-0.914 23.266,0.312L16.984,0.312C14.367,-5.758 12.133,-10.797 10.281,-14.797C8.426,-18.805 6.469,-23.109 4.406,-27.703C3.926,-28.766 3.176,-29.602 2.156,-30.219C1.145,-30.832 0.117,-31.207 -0.922,-31.344L-0.922,-33.844L20.094,-33.844L20.094,-31.344C19.32,-31.32 18.41,-31.148 17.359,-30.828C16.316,-30.516 15.797,-30.109 15.797,-29.609C15.797,-29.473 15.836,-29.266 15.922,-28.984C16.016,-28.711 16.129,-28.41 16.266,-28.078C16.992,-26.348 18.094,-23.852 19.562,-20.594C21.031,-17.344 22.582,-13.922 24.219,-10.328C25.352,-12.805 26.438,-15.234 27.469,-17.609C28.508,-19.992 29.789,-23.023 31.312,-26.703C31.52,-27.254 31.641,-27.695 31.672,-28.031C31.703,-28.375 31.719,-28.602 31.719,-28.719C31.719,-29.125 31.52,-29.477 31.125,-29.781C30.727,-30.094 30.254,-30.363 29.703,-30.594C29.141,-30.82 28.594,-30.992 28.062,-31.109C27.539,-31.223 27.113,-31.301 26.781,-31.344L26.781,-33.844L40.859,-33.844L40.859,-31.344Z" style="fill:rgb(247,244,239);fill-rule:nonzero;"/>
                </g>
            </g>
        </g>
        <g transform="matrix(1.333333,0,0,1.333333,0,0.000002)">
            <g transform="matrix(1,0,0,1,403.711615,86.388193)">
                <g>
                    <path d="M38.641,-8.156C37.848,-6.852 36.891,-5.629 35.766,-4.484C34.641,-3.336 33.359,-2.352 31.922,-1.531C30.398,-0.664 28.859,-0.016 27.297,0.422C25.742,0.867 23.957,1.094 21.938,1.094C18.57,1.094 15.664,0.613 13.219,-0.344C10.77,-1.301 8.75,-2.586 7.156,-4.203C5.57,-5.816 4.383,-7.719 3.594,-9.906C2.812,-12.102 2.422,-14.488 2.422,-17.062C2.422,-19.375 2.848,-21.594 3.703,-23.719C4.555,-25.844 5.766,-27.738 7.328,-29.406C8.879,-31.02 10.832,-32.328 13.188,-33.328C15.539,-34.328 18.172,-34.828 21.078,-34.828C24.266,-34.828 26.879,-34.438 28.922,-33.656C30.973,-32.883 32.672,-31.82 34.016,-30.469C35.305,-29.164 36.25,-27.633 36.844,-25.875C37.438,-24.113 37.734,-22.266 37.734,-20.328L37.734,-18.109L14.672,-18.109C14.672,-13.453 15.566,-9.906 17.359,-7.469C19.16,-5.039 22.016,-3.828 25.922,-3.828C28.055,-3.828 29.977,-4.41 31.688,-5.578C33.395,-6.742 34.852,-8.227 36.062,-10.031L38.641,-8.156ZM25.625,-21.109C25.625,-22.473 25.551,-23.867 25.406,-25.297C25.27,-26.734 25.035,-27.91 24.703,-28.828C24.305,-29.891 23.773,-30.691 23.109,-31.234C22.441,-31.785 21.594,-32.062 20.562,-32.062C18.812,-32.062 17.41,-31.176 16.359,-29.406C15.316,-27.633 14.754,-24.828 14.672,-20.984L25.625,-21.109Z" style="fill:rgb(247,244,239);fill-rule:nonzero;"/>
                </g>
            </g>
        </g>
        <g transform="matrix(1.333333,0,0,1.333333,0,0.000002)">
            <g transform="matrix(1,0,0,1,19.866809,154.271843)">
                <g>
                    <path d="M25.75,1.203C22.457,1.203 19.375,0.672 16.5,-0.391C13.625,-1.461 11.125,-3.008 9,-5.031C6.906,-7.02 5.254,-9.473 4.047,-12.391C2.848,-15.316 2.25,-18.535 2.25,-22.047C2.25,-25.523 2.852,-28.75 4.062,-31.719C5.281,-34.688 6.988,-37.254 9.188,-39.422C11.344,-41.555 13.926,-43.207 16.938,-44.375C19.957,-45.551 23.191,-46.141 26.641,-46.141C29.129,-46.141 31.395,-45.836 33.438,-45.234C35.488,-44.641 37.223,-43.961 38.641,-43.203L40.594,-44.938L43.359,-44.938L43.641,-28.531L40.859,-28.531C39.273,-33.539 37.375,-37.219 35.156,-39.562C32.938,-41.906 30.234,-43.078 27.047,-43.078C23.078,-43.078 20.055,-41.328 17.984,-37.828C15.922,-34.336 14.891,-29.438 14.891,-23.125C14.891,-19.551 15.238,-16.504 15.938,-13.984C16.645,-11.461 17.57,-9.43 18.719,-7.891C19.938,-6.285 21.379,-5.109 23.047,-4.359C24.723,-3.609 26.57,-3.234 28.594,-3.234C31.551,-3.234 34.188,-4.035 36.5,-5.641C38.812,-7.242 40.914,-9.672 42.812,-12.922L45.547,-11.281C44.629,-9.414 43.594,-7.75 42.438,-6.281C41.281,-4.812 39.941,-3.551 38.422,-2.5C36.742,-1.344 34.895,-0.438 32.875,0.219C30.863,0.875 28.488,1.203 25.75,1.203Z" style="fill:rgb(247,244,239);fill-rule:nonzero;"/>
                </g>
            </g>
        </g>
        <g transform="matrix(1.333333,0,0,1.333333,0,0.000002)">
            <g transform="matrix(1,0,0,1,66.266283,154.271843)">
                <g>
                    <path d="M38.031,-0.672C37.102,-0.266 36.004,0.102 34.734,0.438C33.473,0.781 32.133,0.953 30.719,0.953C28.125,0.953 26.211,0.566 24.984,-0.203C23.766,-0.973 22.93,-2.078 22.484,-3.516L22.297,-3.516C21.578,-2.797 20.883,-2.18 20.219,-1.672C19.551,-1.172 18.836,-0.738 18.078,-0.375C17.086,0.082 16.133,0.422 15.219,0.641C14.301,0.867 13.02,0.984 11.375,0.984C8.926,0.984 6.832,0.258 5.094,-1.188C3.363,-2.633 2.5,-4.551 2.5,-6.938C2.5,-8.312 2.688,-9.477 3.062,-10.438C3.445,-11.395 3.988,-12.242 4.688,-12.984C5.32,-13.66 6.055,-14.219 6.891,-14.656C7.723,-15.102 8.633,-15.516 9.625,-15.891C11.531,-16.586 13.812,-17.312 16.469,-18.062C19.125,-18.812 21.066,-19.484 22.297,-20.078L22.297,-23.125C22.297,-23.645 22.254,-24.336 22.172,-25.203C22.086,-26.066 21.906,-26.797 21.625,-27.391C21.332,-28.066 20.867,-28.633 20.234,-29.094C19.598,-29.562 18.766,-29.797 17.734,-29.797C16.805,-29.797 16.031,-29.664 15.406,-29.406C14.781,-29.145 14.281,-28.875 13.906,-28.594C13.969,-28.176 14.145,-27.535 14.438,-26.672C14.738,-25.805 14.891,-24.969 14.891,-24.156C14.891,-23.801 14.789,-23.352 14.594,-22.812C14.406,-22.281 14.133,-21.852 13.781,-21.531C13.289,-21.113 12.742,-20.785 12.141,-20.547C11.547,-20.316 10.625,-20.203 9.375,-20.203C7.602,-20.203 6.258,-20.629 5.344,-21.484C4.438,-22.336 3.984,-23.453 3.984,-24.828C3.984,-26.016 4.453,-27.078 5.391,-28.016C6.336,-28.953 7.484,-29.727 8.828,-30.344C10.16,-30.977 11.691,-31.469 13.422,-31.812C15.16,-32.156 16.766,-32.328 18.234,-32.328C20.285,-32.328 22.164,-32.207 23.875,-31.969C25.582,-31.727 27.125,-31.227 28.5,-30.469C29.812,-29.727 30.852,-28.656 31.625,-27.25C32.395,-25.844 32.781,-24.008 32.781,-21.75C32.781,-19.363 32.734,-16.535 32.641,-13.266C32.547,-9.992 32.5,-7.844 32.5,-6.812C32.5,-5.863 32.641,-5.113 32.922,-4.562C33.203,-4.008 33.641,-3.598 34.234,-3.328C34.586,-3.16 35.148,-3.062 35.922,-3.031C36.691,-3 37.395,-2.984 38.031,-2.984L38.031,-0.672ZM22.297,-17.172C21.109,-16.766 19.93,-16.301 18.766,-15.781C17.609,-15.27 16.664,-14.727 15.938,-14.156C15.156,-13.562 14.539,-12.805 14.094,-11.891C13.645,-10.973 13.422,-9.891 13.422,-8.641C13.422,-6.992 13.797,-5.801 14.547,-5.062C15.297,-4.32 16.223,-3.953 17.328,-3.953C18.484,-3.953 19.438,-4.191 20.188,-4.672C20.938,-5.148 21.598,-5.734 22.172,-6.422L22.297,-17.172Z" style="fill:rgb(247,244,239);fill-rule:nonzero;"/>
                </g>
            </g>
        </g>
        <g transform="matrix(1.333333,0,0,1.333333,0,0.000002)">
            <g transform="matrix(1,0,0,1,104.906117,154.271843)">
                <g>
                    <path d="M43.641,0L24.578,0L24.578,-2.312C24.973,-2.352 25.457,-2.406 26.031,-2.469C26.602,-2.531 27.035,-2.633 27.328,-2.781C27.773,-3.02 28.094,-3.359 28.281,-3.797C28.469,-4.242 28.562,-4.898 28.562,-5.766L28.562,-20.578C28.562,-22.734 28.164,-24.352 27.375,-25.438C26.582,-26.531 25.414,-27.078 23.875,-27.078C23.031,-27.078 22.242,-26.945 21.516,-26.688C20.785,-26.438 20.07,-26.07 19.375,-25.594C18.77,-25.164 18.281,-24.727 17.906,-24.281C17.539,-23.844 17.227,-23.457 16.969,-23.125L16.969,-6.109C16.969,-5.367 17.07,-4.75 17.281,-4.25C17.5,-3.758 17.852,-3.391 18.344,-3.141C18.676,-2.941 19.094,-2.77 19.594,-2.625C20.102,-2.477 20.602,-2.375 21.094,-2.312L21.094,0L1.844,0L1.844,-2.312C2.363,-2.352 2.895,-2.41 3.438,-2.484C3.977,-2.555 4.438,-2.656 4.812,-2.781C5.488,-3.02 5.953,-3.379 6.203,-3.859C6.461,-4.348 6.594,-4.984 6.594,-5.766L6.594,-24.203C6.594,-24.848 6.422,-25.488 6.078,-26.125C5.742,-26.758 5.301,-27.273 4.75,-27.672C4.375,-27.93 3.895,-28.145 3.312,-28.312C2.727,-28.477 2.086,-28.594 1.391,-28.656L1.391,-30.969L16.5,-31.797L16.969,-31.328L16.969,-26.734L17.109,-26.734C17.691,-27.254 18.406,-27.883 19.25,-28.625C20.094,-29.363 20.875,-29.969 21.594,-30.438C22.375,-30.938 23.398,-31.363 24.672,-31.719C25.941,-32.082 27.289,-32.266 28.719,-32.266C32.164,-32.266 34.75,-31.285 36.469,-29.328C38.188,-27.379 39.047,-24.789 39.047,-21.562L39.047,-6.047C39.047,-5.266 39.16,-4.641 39.391,-4.172C39.629,-3.711 40.066,-3.348 40.703,-3.078C41.035,-2.922 41.445,-2.77 41.938,-2.625C42.438,-2.477 43.004,-2.375 43.641,-2.312L43.641,0Z" style="fill:rgb(247,244,239);fill-rule:nonzero;"/>
                </g>
            </g>
        </g>
        <g transform="matrix(1.333333,0,0,1.333333,0,0.000002)">
            <g transform="matrix(1,0,0,1,149.658647,154.271843)">
                <g>
                    <path d="M19.922,1.016C16.984,1.016 14.391,0.586 12.141,-0.266C9.891,-1.117 8.039,-2.285 6.594,-3.766C5.133,-5.266 4.047,-7.035 3.328,-9.078C2.609,-11.129 2.25,-13.359 2.25,-15.766C2.25,-17.961 2.688,-20.051 3.562,-22.031C4.438,-24.02 5.625,-25.766 7.125,-27.266C8.664,-28.805 10.582,-30.035 12.875,-30.953C15.164,-31.867 17.691,-32.328 20.453,-32.328C24.336,-32.328 27.41,-31.594 29.672,-30.125C31.93,-28.664 33.062,-26.691 33.062,-24.203C33.062,-22.68 32.66,-21.453 31.859,-20.516C31.055,-19.586 29.672,-19.125 27.703,-19.125C26.117,-19.125 24.797,-19.504 23.734,-20.266C22.672,-21.023 22.141,-22.02 22.141,-23.25C22.141,-24.281 22.305,-25.301 22.641,-26.312C22.984,-27.332 23.188,-28.102 23.25,-28.625C23.008,-29.008 22.711,-29.301 22.359,-29.5C22.004,-29.695 21.445,-29.797 20.688,-29.797C19.727,-29.797 18.859,-29.57 18.078,-29.125C17.297,-28.688 16.566,-27.91 15.891,-26.797C15.242,-25.734 14.723,-24.316 14.328,-22.547C13.941,-20.773 13.75,-18.645 13.75,-16.156C13.75,-12.395 14.629,-9.363 16.391,-7.062C18.148,-4.758 20.254,-3.609 22.703,-3.609C25.047,-3.609 26.91,-4.129 28.297,-5.172C29.68,-6.223 30.91,-7.707 31.984,-9.625L34.359,-7.984C33.703,-6.691 32.922,-5.508 32.016,-4.438C31.109,-3.375 30.02,-2.43 28.75,-1.609C27.426,-0.742 26.078,-0.094 24.703,0.344C23.328,0.789 21.734,1.016 19.922,1.016Z" style="fill:rgb(247,244,239);fill-rule:nonzero;"/>
                </g>
            </g>
        </g>
        <g transform="matrix(1.333333,0,0,1.333333,0,0.000002)">
            <g transform="matrix(1,0,0,1,184.117778,154.271843)">
                <g>
                    <path d="M35.875,-7.562C35.133,-6.363 34.242,-5.227 33.203,-4.156C32.16,-3.094 30.973,-2.18 29.641,-1.422C28.223,-0.617 26.789,-0.016 25.344,0.391C23.906,0.805 22.242,1.016 20.359,1.016C17.234,1.016 14.535,0.57 12.266,-0.312C10.004,-1.195 8.133,-2.391 6.656,-3.891C5.176,-5.391 4.07,-7.156 3.344,-9.188C2.613,-11.227 2.25,-13.441 2.25,-15.828C2.25,-17.984 2.645,-20.047 3.438,-22.016C4.227,-23.992 5.352,-25.754 6.812,-27.297C8.25,-28.797 10.055,-30.008 12.234,-30.938C14.422,-31.863 16.867,-32.328 19.578,-32.328C22.523,-32.328 24.945,-31.969 26.844,-31.25C28.75,-30.539 30.328,-29.551 31.578,-28.281C32.773,-27.07 33.648,-25.648 34.203,-24.016C34.754,-22.379 35.031,-20.664 35.031,-18.875L35.031,-16.812L13.625,-16.812C13.625,-12.488 14.457,-9.195 16.125,-6.938C17.789,-4.676 20.438,-3.547 24.062,-3.547C26.051,-3.547 27.836,-4.086 29.422,-5.172C31.004,-6.266 32.352,-7.645 33.469,-9.312L35.875,-7.562ZM23.781,-19.609C23.781,-20.867 23.719,-22.164 23.594,-23.5C23.469,-24.832 23.242,-25.922 22.922,-26.766C22.566,-27.754 22.078,-28.5 21.453,-29C20.828,-29.508 20.039,-29.766 19.094,-29.766C17.469,-29.766 16.172,-28.941 15.203,-27.297C14.234,-25.648 13.707,-23.047 13.625,-19.484L23.781,-19.609Z" style="fill:rgb(247,244,239);fill-rule:nonzero;"/>
                </g>
            </g>
        </g>
        <g transform="matrix(1.333333,0,0,1.333333,0,0.000002)">
            <g transform="matrix(1,0,0,1,221.205673,154.271843)">
                <g>
                    <path d="M33.375,-25.625C33.375,-24.02 32.879,-22.609 31.891,-21.391C30.898,-20.18 29.594,-19.578 27.969,-19.578C26.426,-19.578 25.117,-19.969 24.047,-20.75C22.984,-21.531 22.453,-22.68 22.453,-24.203C22.453,-24.93 22.504,-25.504 22.609,-25.922C22.711,-26.336 22.805,-26.723 22.891,-27.078C21.922,-27.035 20.895,-26.695 19.812,-26.062C18.738,-25.426 17.789,-24.582 16.969,-23.531L16.969,-6.141C16.969,-5.398 17.082,-4.785 17.312,-4.297C17.551,-3.816 17.945,-3.441 18.5,-3.172C18.957,-2.93 19.707,-2.734 20.75,-2.578C21.801,-2.422 22.562,-2.332 23.031,-2.312L23.031,0L1.844,0L1.844,-2.312C2.363,-2.352 2.895,-2.41 3.438,-2.484C3.977,-2.555 4.438,-2.656 4.812,-2.781C5.488,-3.02 5.953,-3.379 6.203,-3.859C6.461,-4.348 6.594,-4.984 6.594,-5.766L6.594,-24.203C6.594,-24.953 6.41,-25.629 6.047,-26.234C5.691,-26.836 5.258,-27.316 4.75,-27.672C4.375,-27.93 3.895,-28.145 3.312,-28.312C2.727,-28.477 2.086,-28.594 1.391,-28.656L1.391,-30.969L16.5,-31.797L16.969,-31.328L16.969,-26.734L17.109,-26.734C18.555,-28.422 20.098,-29.742 21.734,-30.703C23.379,-31.66 25.086,-32.141 26.859,-32.141C28.816,-32.141 30.391,-31.531 31.578,-30.312C32.773,-29.102 33.375,-27.539 33.375,-25.625Z" style="fill:rgb(247,244,239);fill-rule:nonzero;"/>
                </g>
            </g>
        </g>
        <g transform="matrix(1.333333,0,0,1.333333,0,0.000002)">
            <g transform="matrix(1,0,0,1,271.405797,154.271843)">
                <g>
                    <path d="M53.781,0L36.547,0C33.566,-4.562 31.086,-8.191 29.109,-10.891C27.141,-13.598 24.688,-16.723 21.75,-20.266L20.016,-20.266L20.016,-6.625C20.016,-5.863 20.156,-5.219 20.438,-4.688C20.727,-4.156 21.273,-3.711 22.078,-3.359C22.473,-3.191 23.098,-3.016 23.953,-2.828C24.805,-2.648 25.539,-2.531 26.156,-2.469L26.156,0L2.188,0L2.188,-2.469C2.801,-2.531 3.609,-2.617 4.609,-2.734C5.609,-2.848 6.32,-2.992 6.75,-3.172C7.551,-3.504 8.086,-3.926 8.359,-4.438C8.629,-4.957 8.766,-5.617 8.766,-6.422L8.766,-38.125C8.766,-38.883 8.648,-39.52 8.422,-40.031C8.191,-40.539 7.633,-40.984 6.75,-41.359C6.07,-41.629 5.273,-41.859 4.359,-42.047C3.441,-42.242 2.719,-42.383 2.188,-42.469L2.188,-44.938L27.391,-44.938C33.023,-44.938 37.305,-44.055 40.234,-42.297C43.16,-40.535 44.625,-37.867 44.625,-34.297C44.625,-31.148 43.719,-28.617 41.906,-26.703C40.102,-24.797 37.359,-23.305 33.672,-22.234C35.098,-20.367 36.766,-18.211 38.672,-15.766C40.586,-13.316 42.582,-10.816 44.656,-8.266C45.312,-7.441 46.203,-6.43 47.328,-5.234C48.461,-4.047 49.461,-3.316 50.328,-3.047C50.805,-2.891 51.422,-2.758 52.172,-2.656C52.922,-2.551 53.457,-2.488 53.781,-2.469L53.781,0ZM32.203,-33.406C32.203,-36.406 31.363,-38.598 29.688,-39.984C28.008,-41.367 25.617,-42.062 22.516,-42.062L20.016,-42.062L20.016,-23.25L22.422,-23.25C25.523,-23.25 27.93,-24.062 29.641,-25.688C31.348,-27.312 32.203,-29.883 32.203,-33.406Z" style="fill:rgb(247,244,239);fill-rule:nonzero;"/>
                </g>
            </g>
        </g>
        <g transform="matrix(1.333333,0,0,1.333333,0,0.000002)">
            <g transform="matrix(1,0,0,1,323.126177,154.271843)">
                <g>
                    <path d="M35.875,-7.562C35.133,-6.363 34.242,-5.227 33.203,-4.156C32.16,-3.094 30.973,-2.18 29.641,-1.422C28.223,-0.617 26.789,-0.016 25.344,0.391C23.906,0.805 22.242,1.016 20.359,1.016C17.234,1.016 14.535,0.57 12.266,-0.312C10.004,-1.195 8.133,-2.391 6.656,-3.891C5.176,-5.391 4.07,-7.156 3.344,-9.188C2.613,-11.227 2.25,-13.441 2.25,-15.828C2.25,-17.984 2.645,-20.047 3.438,-22.016C4.227,-23.992 5.352,-25.754 6.812,-27.297C8.25,-28.797 10.055,-30.008 12.234,-30.938C14.422,-31.863 16.867,-32.328 19.578,-32.328C22.523,-32.328 24.945,-31.969 26.844,-31.25C28.75,-30.539 30.328,-29.551 31.578,-28.281C32.773,-27.07 33.648,-25.648 34.203,-24.016C34.754,-22.379 35.031,-20.664 35.031,-18.875L35.031,-16.812L13.625,-16.812C13.625,-12.488 14.457,-9.195 16.125,-6.938C17.789,-4.676 20.438,-3.547 24.062,-3.547C26.051,-3.547 27.836,-4.086 29.422,-5.172C31.004,-6.266 32.352,-7.645 33.469,-9.312L35.875,-7.562ZM23.781,-19.609C23.781,-20.867 23.719,-22.164 23.594,-23.5C23.469,-24.832 23.242,-25.922 22.922,-26.766C22.566,-27.754 22.078,-28.5 21.453,-29C20.828,-29.508 20.039,-29.766 19.094,-29.766C17.469,-29.766 16.172,-28.941 15.203,-27.297C14.234,-25.648 13.707,-23.047 13.625,-19.484L23.781,-19.609Z" style="fill:rgb(247,244,239);fill-rule:nonzero;"/>
                </g>
            </g>
        </g>
        <g transform="matrix(1.333333,0,0,1.333333,0,0.000002)">
            <g transform="matrix(1,0,0,1,360.214072,154.271843)">
                <g>
                    <path d="M43,0L23.938,0L23.938,-2.312C24.363,-2.352 24.859,-2.406 25.422,-2.469C25.992,-2.531 26.422,-2.633 26.703,-2.781C27.141,-3.02 27.445,-3.359 27.625,-3.797C27.812,-4.242 27.906,-4.898 27.906,-5.766L27.906,-20.578C27.906,-22.754 27.5,-24.379 26.688,-25.453C25.875,-26.535 24.719,-27.078 23.219,-27.078C22.375,-27.078 21.586,-26.945 20.859,-26.688C20.129,-26.438 19.414,-26.07 18.719,-25.594C18.102,-25.164 17.609,-24.727 17.234,-24.281C16.867,-23.844 16.562,-23.457 16.312,-23.125L16.312,-6.109C16.312,-5.328 16.406,-4.707 16.594,-4.25C16.781,-3.801 17.141,-3.43 17.672,-3.141C17.984,-2.941 18.398,-2.77 18.922,-2.625C19.441,-2.477 19.941,-2.375 20.422,-2.312L20.422,0L1.172,0L1.172,-2.312C1.723,-2.352 2.254,-2.406 2.766,-2.469C3.285,-2.531 3.75,-2.633 4.156,-2.781C4.82,-3.039 5.273,-3.406 5.516,-3.875C5.766,-4.352 5.891,-4.984 5.891,-5.766L5.891,-41.078C5.891,-41.754 5.727,-42.473 5.406,-43.234C5.094,-43.992 4.648,-44.562 4.078,-44.938C3.66,-45.207 3.051,-45.422 2.25,-45.578C1.445,-45.742 0.727,-45.848 0.094,-45.891L0.094,-48.203L15.828,-49.031L16.312,-48.516L16.312,-26.734L16.438,-26.734C17.238,-27.453 17.961,-28.098 18.609,-28.672C19.254,-29.254 20.039,-29.844 20.969,-30.438C21.75,-30.938 22.766,-31.363 24.016,-31.719C25.273,-32.082 26.633,-32.266 28.094,-32.266C31.508,-32.266 34.078,-31.281 35.797,-29.312C37.523,-27.352 38.391,-24.77 38.391,-21.562L38.391,-6.047C38.391,-5.266 38.504,-4.641 38.734,-4.172C38.961,-3.711 39.395,-3.348 40.031,-3.078C40.406,-2.898 40.828,-2.75 41.297,-2.625C41.766,-2.5 42.332,-2.395 43,-2.312L43,0Z" style="fill:rgb(247,244,239);fill-rule:nonzero;"/>
                </g>
            </g>
        </g>
        <g transform="matrix(1.333333,0,0,1.333333,0,0.000002)">
            <g transform="matrix(1,0,0,1,404.301467,154.271843)">
                <g>
                    <path d="M38.031,-0.672C37.102,-0.266 36.004,0.102 34.734,0.438C33.473,0.781 32.133,0.953 30.719,0.953C28.125,0.953 26.211,0.566 24.984,-0.203C23.766,-0.973 22.93,-2.078 22.484,-3.516L22.297,-3.516C21.578,-2.797 20.883,-2.18 20.219,-1.672C19.551,-1.172 18.836,-0.738 18.078,-0.375C17.086,0.082 16.133,0.422 15.219,0.641C14.301,0.867 13.02,0.984 11.375,0.984C8.926,0.984 6.832,0.258 5.094,-1.188C3.363,-2.633 2.5,-4.551 2.5,-6.938C2.5,-8.312 2.688,-9.477 3.062,-10.438C3.445,-11.395 3.988,-12.242 4.688,-12.984C5.32,-13.66 6.055,-14.219 6.891,-14.656C7.723,-15.102 8.633,-15.516 9.625,-15.891C11.531,-16.586 13.812,-17.312 16.469,-18.062C19.125,-18.812 21.066,-19.484 22.297,-20.078L22.297,-23.125C22.297,-23.645 22.254,-24.336 22.172,-25.203C22.086,-26.066 21.906,-26.797 21.625,-27.391C21.332,-28.066 20.867,-28.633 20.234,-29.094C19.598,-29.562 18.766,-29.797 17.734,-29.797C16.805,-29.797 16.031,-29.664 15.406,-29.406C14.781,-29.145 14.281,-28.875 13.906,-28.594C13.969,-28.176 14.145,-27.535 14.438,-26.672C14.738,-25.805 14.891,-24.969 14.891,-24.156C14.891,-23.801 14.789,-23.352 14.594,-22.812C14.406,-22.281 14.133,-21.852 13.781,-21.531C13.289,-21.113 12.742,-20.785 12.141,-20.547C11.547,-20.316 10.625,-20.203 9.375,-20.203C7.602,-20.203 6.258,-20.629 5.344,-21.484C4.438,-22.336 3.984,-23.453 3.984,-24.828C3.984,-26.016 4.453,-27.078 5.391,-28.016C6.336,-28.953 7.484,-29.727 8.828,-30.344C10.16,-30.977 11.691,-31.469 13.422,-31.812C15.16,-32.156 16.766,-32.328 18.234,-32.328C20.285,-32.328 22.164,-32.207 23.875,-31.969C25.582,-31.727 27.125,-31.227 28.5,-30.469C29.812,-29.727 30.852,-28.656 31.625,-27.25C32.395,-25.844 32.781,-24.008 32.781,-21.75C32.781,-19.363 32.734,-16.535 32.641,-13.266C32.547,-9.992 32.5,-7.844 32.5,-6.812C32.5,-5.863 32.641,-5.113 32.922,-4.562C33.203,-4.008 33.641,-3.598 34.234,-3.328C34.586,-3.16 35.148,-3.062 35.922,-3.031C36.691,-3 37.395,-2.984 38.031,-2.984L38.031,-0.672ZM22.297,-17.172C21.109,-16.766 19.93,-16.301 18.766,-15.781C17.609,-15.27 16.664,-14.727 15.938,-14.156C15.156,-13.562 14.539,-12.805 14.094,-11.891C13.645,-10.973 13.422,-9.891 13.422,-8.641C13.422,-6.992 13.797,-5.801 14.547,-5.062C15.297,-4.32 16.223,-3.953 17.328,-3.953C18.484,-3.953 19.438,-4.191 20.188,-4.672C20.938,-5.148 21.598,-5.734 22.172,-6.422L22.297,-17.172Z" style="fill:rgb(247,244,239);fill-rule:nonzero;"/>
                </g>
            </g>
        </g>
        <g transform="matrix(1.333333,0,0,1.333333,0,0.000002)">
            <g transform="matrix(1,0,0,1,442.941347,154.271843)">
                <g>
                    <path d="M39.625,-15.484C39.625,-10.734 38.055,-6.797 34.922,-3.672C31.785,-0.547 27.805,1.016 22.984,1.016C21.129,1.016 19.531,0.879 18.188,0.609C16.852,0.348 15.723,0.031 14.797,-0.344C13.816,-0.75 13.035,-1.145 12.453,-1.531C11.879,-1.926 11.422,-2.25 11.078,-2.5L6.562,1.609L4.688,0.891C4.789,-0.648 4.879,-2.32 4.953,-4.125C5.023,-5.938 5.062,-8.375 5.062,-11.438L5.062,-41.078C5.062,-41.879 4.895,-42.625 4.562,-43.312C4.238,-44 3.805,-44.52 3.266,-44.875C2.859,-45.125 2.27,-45.344 1.5,-45.531C0.727,-45.727 0.016,-45.848 -0.641,-45.891L-0.641,-48.203L15.016,-49.031L15.484,-48.516L15.484,-27.938L15.672,-27.938C17.211,-29.438 18.797,-30.531 20.422,-31.219C22.047,-31.914 23.672,-32.266 25.297,-32.266C29.734,-32.266 33.227,-30.754 35.781,-27.734C38.344,-24.723 39.625,-20.641 39.625,-15.484ZM28.25,-15.109C28.25,-16.711 28.125,-18.258 27.875,-19.75C27.633,-21.238 27.234,-22.551 26.672,-23.688C26.098,-24.832 25.348,-25.742 24.422,-26.422C23.492,-27.109 22.344,-27.453 20.969,-27.453C19.676,-27.453 18.609,-27.238 17.766,-26.812C16.922,-26.395 16.16,-25.773 15.484,-24.953L15.484,-6.531C15.609,-6.102 15.844,-5.547 16.188,-4.859C16.539,-4.172 16.898,-3.641 17.266,-3.266C17.766,-2.711 18.301,-2.289 18.875,-2C19.445,-1.719 20.25,-1.578 21.281,-1.578C23.438,-1.578 25.133,-2.754 26.375,-5.109C27.625,-7.461 28.25,-10.797 28.25,-15.109Z" style="fill:rgb(247,244,239);fill-rule:nonzero;"/>
                </g>
            </g>
        </g>
        <g transform="matrix(1.333333,0,0,1.333333,0,0.000002)">
            <g transform="matrix(1,0,0,1,14.535414,235.129941)">
                <g>
                    <path d="M10.625,0.359C8.852,0.359 7.289,-0.051 5.938,-0.875C4.582,-1.695 3.52,-2.879 2.75,-4.422C1.977,-5.973 1.594,-7.836 1.594,-10.016C1.594,-11.617 1.816,-13.062 2.266,-14.344C2.723,-15.625 3.363,-16.719 4.188,-17.625C5.02,-18.531 5.992,-19.219 7.109,-19.688C8.223,-20.156 9.441,-20.391 10.766,-20.391C12.148,-20.391 13.316,-20.133 14.266,-19.625C15.211,-19.113 15.973,-18.539 16.547,-17.906L15.141,-16.328C14.648,-16.859 14.062,-17.297 13.375,-17.641C12.695,-17.984 11.848,-18.156 10.828,-18.156C9.484,-18.156 8.312,-17.82 7.312,-17.156C6.32,-16.5 5.555,-15.57 5.016,-14.375C4.484,-13.176 4.219,-11.738 4.219,-10.062C4.219,-8.375 4.473,-6.922 4.984,-5.703C5.504,-4.484 6.258,-3.535 7.25,-2.859C8.238,-2.191 9.441,-1.859 10.859,-1.859C11.578,-1.859 12.258,-1.961 12.906,-2.172C13.562,-2.391 14.082,-2.68 14.469,-3.047L14.469,-8.266L10.219,-8.266L10.219,-10.375L16.781,-10.375L16.781,-1.953C16.156,-1.285 15.305,-0.734 14.234,-0.297C13.172,0.141 11.969,0.359 10.625,0.359Z" style="fill:rgb(247,244,239);fill-rule:nonzero;"/>
                </g>
            </g>
        </g>
        <g transform="matrix(1.333333,0,0,1.333333,0,0.000002)">
            <g transform="matrix(1,0,0,1,33.355363,235.129941)">
                <g>
                    <path d="M6.828,0.359C5.266,0.359 4.117,-0.129 3.391,-1.109C2.672,-2.098 2.312,-3.539 2.312,-5.438L2.312,-14.828L4.828,-14.828L4.828,-5.766C4.828,-4.379 5.047,-3.375 5.484,-2.75C5.922,-2.133 6.625,-1.828 7.594,-1.828C8.352,-1.828 9.031,-2.023 9.625,-2.422C10.227,-2.816 10.883,-3.441 11.594,-4.297L11.594,-14.828L14.094,-14.828L14.094,0L12.016,0L11.812,-2.312L11.719,-2.312C11.051,-1.5 10.32,-0.848 9.531,-0.359C8.75,0.117 7.848,0.359 6.828,0.359Z" style="fill:rgb(247,244,239);fill-rule:nonzero;"/>
                </g>
            </g>
        </g>
        <g transform="matrix(1.333333,0,0,1.333333,0,0.000002)">
            <g transform="matrix(1,0,0,1,49.948645,235.129941)">
                <g>
                    <path d="M2.5,0L2.5,-14.828L5,-14.828L5,0L2.5,0ZM3.75,-17.875C3.258,-17.875 2.859,-18.023 2.547,-18.328C2.234,-18.641 2.078,-19.039 2.078,-19.531C2.078,-20.02 2.234,-20.414 2.547,-20.719C2.859,-21.02 3.258,-21.172 3.75,-21.172C4.238,-21.172 4.641,-21.02 4.953,-20.719C5.266,-20.414 5.422,-20.02 5.422,-19.531C5.422,-19.039 5.266,-18.641 4.953,-18.328C4.641,-18.023 4.238,-17.875 3.75,-17.875Z" style="fill:rgb(247,244,239);fill-rule:nonzero;"/>
                </g>
            </g>
        </g>
        <g transform="matrix(1.333333,0,0,1.333333,0,0.000002)">
            <g transform="matrix(1,0,0,1,57.452224,235.129941)">
                <g>
                    <path d="M7.562,0.359C5.695,0.359 4.207,-0.312 3.094,-1.656C1.988,-3.008 1.438,-4.922 1.438,-7.391C1.438,-8.992 1.734,-10.379 2.328,-11.547C2.93,-12.723 3.723,-13.625 4.703,-14.25C5.68,-14.883 6.738,-15.203 7.875,-15.203C8.75,-15.203 9.492,-15.051 10.109,-14.75C10.734,-14.457 11.367,-14.035 12.016,-13.484L11.906,-16.016L11.906,-21.734L14.438,-21.734L14.438,0L12.359,0L12.141,-1.734L12.047,-1.734C11.484,-1.172 10.812,-0.68 10.031,-0.266C9.258,0.148 8.438,0.359 7.562,0.359ZM8.109,-1.734C8.805,-1.734 9.457,-1.906 10.062,-2.25C10.676,-2.602 11.289,-3.113 11.906,-3.781L11.906,-11.531C11.289,-12.102 10.688,-12.504 10.094,-12.734C9.508,-12.973 8.91,-13.094 8.297,-13.094C7.504,-13.094 6.785,-12.852 6.141,-12.375C5.504,-11.895 4.992,-11.234 4.609,-10.391C4.223,-9.547 4.031,-8.555 4.031,-7.422C4.031,-5.648 4.383,-4.258 5.094,-3.25C5.812,-2.238 6.816,-1.734 8.109,-1.734Z" style="fill:rgb(247,244,239);fill-rule:nonzero;"/>
                </g>
            </g>
        </g>
        <g transform="matrix(1.333333,0,0,1.333333,0,0.000002)">
            <g transform="matrix(1,0,0,1,74.381037,235.129941)">
                <g>
                    <path d="M8.516,0.359C7.191,0.359 5.984,0.051 4.891,-0.562C3.805,-1.188 2.945,-2.07 2.312,-3.219C1.688,-4.363 1.375,-5.766 1.375,-7.422C1.375,-9.023 1.695,-10.406 2.344,-11.562C3,-12.727 3.832,-13.625 4.844,-14.25C5.863,-14.883 6.945,-15.203 8.094,-15.203C9.352,-15.203 10.426,-14.91 11.312,-14.328C12.195,-13.742 12.859,-12.93 13.297,-11.891C13.742,-10.859 13.969,-9.641 13.969,-8.234C13.969,-7.973 13.961,-7.719 13.953,-7.469C13.953,-7.227 13.922,-6.988 13.859,-6.75L3.172,-6.75L3.172,-8.734L11.719,-8.734C11.719,-10.148 11.406,-11.238 10.781,-12C10.164,-12.77 9.273,-13.156 8.109,-13.156C7.441,-13.156 6.781,-12.961 6.125,-12.578C5.477,-12.203 4.945,-11.598 4.531,-10.766C4.113,-9.93 3.906,-8.828 3.906,-7.453C3.906,-6.18 4.125,-5.117 4.562,-4.266C5,-3.41 5.594,-2.766 6.344,-2.328C7.094,-1.891 7.914,-1.672 8.812,-1.672C9.531,-1.672 10.195,-1.77 10.812,-1.969C11.438,-2.176 12.004,-2.457 12.516,-2.812L13.422,-1.156C12.773,-0.707 12.051,-0.344 11.25,-0.062C10.445,0.219 9.535,0.359 8.516,0.359Z" style="fill:rgb(247,244,239);fill-rule:nonzero;"/>
                </g>
            </g>
        </g>
        <g transform="matrix(1.333333,0,0,1.333333,0,0.000002)">
            <g transform="matrix(1,0,0,1,89.510211,235.129941)">
                <g>
                    <path d="M7.562,0.359C5.695,0.359 4.207,-0.312 3.094,-1.656C1.988,-3.008 1.438,-4.922 1.438,-7.391C1.438,-8.992 1.734,-10.379 2.328,-11.547C2.93,-12.723 3.723,-13.625 4.703,-14.25C5.68,-14.883 6.738,-15.203 7.875,-15.203C8.75,-15.203 9.492,-15.051 10.109,-14.75C10.734,-14.457 11.367,-14.035 12.016,-13.484L11.906,-16.016L11.906,-21.734L14.438,-21.734L14.438,0L12.359,0L12.141,-1.734L12.047,-1.734C11.484,-1.172 10.812,-0.68 10.031,-0.266C9.258,0.148 8.438,0.359 7.562,0.359ZM8.109,-1.734C8.805,-1.734 9.457,-1.906 10.062,-2.25C10.676,-2.602 11.289,-3.113 11.906,-3.781L11.906,-11.531C11.289,-12.102 10.688,-12.504 10.094,-12.734C9.508,-12.973 8.91,-13.094 8.297,-13.094C7.504,-13.094 6.785,-12.852 6.141,-12.375C5.504,-11.895 4.992,-11.234 4.609,-10.391C4.223,-9.547 4.031,-8.555 4.031,-7.422C4.031,-5.648 4.383,-4.258 5.094,-3.25C5.812,-2.238 6.816,-1.734 8.109,-1.734Z" style="fill:rgb(247,244,239);fill-rule:nonzero;"/>
                </g>
            </g>
        </g>
        <g transform="matrix(1.333333,0,0,1.333333,0,0.000002)">
            <g transform="matrix(1,0,0,1,112.539498,235.129941)">
                <g>
                    <path d="M9.062,0.359C8.375,0.359 7.66,0.191 6.922,-0.141C6.191,-0.473 5.492,-0.938 4.828,-1.531L4.734,-1.531L4.516,0L2.5,0L2.5,-21.734L5,-21.734L5,-15.812L4.938,-13.125C5.613,-13.707 6.352,-14.195 7.156,-14.594C7.957,-15 8.766,-15.203 9.578,-15.203C10.859,-15.203 11.938,-14.891 12.812,-14.266C13.688,-13.641 14.348,-12.766 14.797,-11.641C15.242,-10.516 15.469,-9.188 15.469,-7.656C15.469,-5.969 15.164,-4.523 14.562,-3.328C13.969,-2.129 13.18,-1.211 12.203,-0.578C11.223,0.047 10.176,0.359 9.062,0.359ZM8.641,-1.734C9.453,-1.734 10.176,-1.969 10.812,-2.438C11.457,-2.906 11.961,-3.582 12.328,-4.469C12.691,-5.352 12.875,-6.406 12.875,-7.625C12.875,-8.707 12.738,-9.66 12.469,-10.484C12.207,-11.305 11.789,-11.945 11.219,-12.406C10.656,-12.863 9.906,-13.094 8.969,-13.094C8.363,-13.094 7.727,-12.922 7.062,-12.578C6.406,-12.242 5.719,-11.742 5,-11.078L5,-3.297C5.656,-2.723 6.301,-2.316 6.938,-2.078C7.582,-1.848 8.148,-1.734 8.641,-1.734Z" style="fill:rgb(247,244,239);fill-rule:nonzero;"/>
                </g>
            </g>
        </g>
        <g transform="matrix(1.333333,0,0,1.333333,0,0.000002)">
            <g transform="matrix(1,0,0,1,129.285258,235.129941)">
                <g>
                    <path d="M2.75,6.375C2.426,6.375 2.113,6.344 1.812,6.281C1.52,6.219 1.25,6.148 1,6.078L1.562,4.125C1.738,4.188 1.914,4.227 2.094,4.25C2.281,4.281 2.457,4.297 2.625,4.297C3.477,4.297 4.172,3.992 4.703,3.391C5.242,2.797 5.672,2.039 5.984,1.125L6.312,0.031L0.359,-14.828L2.953,-14.828L5.984,-6.625C6.223,-5.988 6.461,-5.305 6.703,-4.578C6.953,-3.848 7.191,-3.133 7.422,-2.438L7.531,-2.438C7.758,-3.133 7.977,-3.844 8.188,-4.562C8.406,-5.281 8.602,-5.969 8.781,-6.625L11.438,-14.828L13.891,-14.828L8.297,1.219C7.953,2.195 7.535,3.078 7.047,3.859C6.555,4.641 5.961,5.254 5.266,5.703C4.578,6.148 3.738,6.375 2.75,6.375Z" style="fill:rgb(247,244,239);fill-rule:nonzero;"/>
                </g>
            </g>
        </g>
        <g transform="matrix(1.333333,0,0,1.333333,0,0.000002)">
            <g transform="matrix(1,0,0,1,149.630329,235.129941)">
                <g>
                    <path d="M8.516,0.359C7.191,0.359 5.984,0.051 4.891,-0.562C3.805,-1.188 2.945,-2.07 2.312,-3.219C1.688,-4.363 1.375,-5.766 1.375,-7.422C1.375,-9.023 1.695,-10.406 2.344,-11.562C3,-12.727 3.832,-13.625 4.844,-14.25C5.863,-14.883 6.945,-15.203 8.094,-15.203C9.352,-15.203 10.426,-14.91 11.312,-14.328C12.195,-13.742 12.859,-12.93 13.297,-11.891C13.742,-10.859 13.969,-9.641 13.969,-8.234C13.969,-7.973 13.961,-7.719 13.953,-7.469C13.953,-7.227 13.922,-6.988 13.859,-6.75L3.172,-6.75L3.172,-8.734L11.719,-8.734C11.719,-10.148 11.406,-11.238 10.781,-12C10.164,-12.77 9.273,-13.156 8.109,-13.156C7.441,-13.156 6.781,-12.961 6.125,-12.578C5.477,-12.203 4.945,-11.598 4.531,-10.766C4.113,-9.93 3.906,-8.828 3.906,-7.453C3.906,-6.18 4.125,-5.117 4.562,-4.266C5,-3.41 5.594,-2.766 6.344,-2.328C7.094,-1.891 7.914,-1.672 8.812,-1.672C9.531,-1.672 10.195,-1.77 10.812,-1.969C11.438,-2.176 12.004,-2.457 12.516,-2.812L13.422,-1.156C12.773,-0.707 12.051,-0.344 11.25,-0.062C10.445,0.219 9.535,0.359 8.516,0.359Z" style="fill:rgb(247,244,239);fill-rule:nonzero;"/>
                </g>
            </g>
        </g>
        <g transform="matrix(1.333333,0,0,1.333333,0,0.000002)">
            <g transform="matrix(1,0,0,1,164.545931,235.129941)">
                <g>
                    <path d="M0.422,0L5.281,-7.75L0.797,-14.828L3.516,-14.828L5.5,-11.562C5.719,-11.176 5.953,-10.773 6.203,-10.359C6.461,-9.941 6.711,-9.52 6.953,-9.094L7.078,-9.094C7.305,-9.52 7.531,-9.941 7.75,-10.359C7.977,-10.773 8.203,-11.176 8.422,-11.562L10.219,-14.828L12.844,-14.828L8.359,-7.469L13.188,0L10.469,0L8.297,-3.453C8.035,-3.898 7.766,-4.348 7.484,-4.797C7.211,-5.242 6.945,-5.68 6.688,-6.109L6.562,-6.109C6.301,-5.68 6.047,-5.25 5.797,-4.812C5.555,-4.375 5.312,-3.922 5.062,-3.453L3.047,0L0.422,0Z" style="fill:rgb(247,244,239);fill-rule:nonzero;"/>
                </g>
            </g>
        </g>
        <g transform="matrix(1.333333,0,0,1.333333,0,0.000002)">
            <g transform="matrix(1,0,0,1,178.149984,235.129941)">
                <g>
                    <path d="M2.5,6.25L2.5,-14.828L4.578,-14.828L4.797,-13.125L4.875,-13.125C5.551,-13.688 6.297,-14.172 7.109,-14.578C7.922,-14.992 8.754,-15.203 9.609,-15.203C10.867,-15.203 11.938,-14.891 12.812,-14.266C13.688,-13.641 14.348,-12.766 14.797,-11.641C15.242,-10.516 15.469,-9.176 15.469,-7.625C15.469,-5.957 15.164,-4.523 14.562,-3.328C13.969,-2.129 13.18,-1.211 12.203,-0.578C11.223,0.047 10.176,0.359 9.062,0.359C8.395,0.359 7.711,0.207 7.016,-0.094C6.328,-0.395 5.633,-0.812 4.938,-1.344L5,1.25L5,6.25L2.5,6.25ZM8.641,-1.734C9.453,-1.734 10.176,-1.969 10.812,-2.438C11.457,-2.906 11.961,-3.582 12.328,-4.469C12.691,-5.352 12.875,-6.406 12.875,-7.625C12.875,-8.707 12.738,-9.66 12.469,-10.484C12.207,-11.305 11.789,-11.945 11.219,-12.406C10.656,-12.863 9.906,-13.094 8.969,-13.094C8.363,-13.094 7.734,-12.922 7.078,-12.578C6.43,-12.242 5.738,-11.742 5,-11.078L5,-3.297C5.695,-2.723 6.352,-2.316 6.969,-2.078C7.594,-1.848 8.148,-1.734 8.641,-1.734Z" style="fill:rgb(247,244,239);fill-rule:nonzero;"/>
                </g>
            </g>
        </g>
        <g transform="matrix(1.333333,0,0,1.333333,0,0.000002)">
            <g transform="matrix(1,0,0,1,195.078797,235.129941)">
                <g>
                    <path d="M8.516,0.359C7.191,0.359 5.984,0.051 4.891,-0.562C3.805,-1.188 2.945,-2.07 2.312,-3.219C1.688,-4.363 1.375,-5.766 1.375,-7.422C1.375,-9.023 1.695,-10.406 2.344,-11.562C3,-12.727 3.832,-13.625 4.844,-14.25C5.863,-14.883 6.945,-15.203 8.094,-15.203C9.352,-15.203 10.426,-14.91 11.312,-14.328C12.195,-13.742 12.859,-12.93 13.297,-11.891C13.742,-10.859 13.969,-9.641 13.969,-8.234C13.969,-7.973 13.961,-7.719 13.953,-7.469C13.953,-7.227 13.922,-6.988 13.859,-6.75L3.172,-6.75L3.172,-8.734L11.719,-8.734C11.719,-10.148 11.406,-11.238 10.781,-12C10.164,-12.77 9.273,-13.156 8.109,-13.156C7.441,-13.156 6.781,-12.961 6.125,-12.578C5.477,-12.203 4.945,-11.598 4.531,-10.766C4.113,-9.93 3.906,-8.828 3.906,-7.453C3.906,-6.18 4.125,-5.117 4.562,-4.266C5,-3.41 5.594,-2.766 6.344,-2.328C7.094,-1.891 7.914,-1.672 8.812,-1.672C9.531,-1.672 10.195,-1.77 10.812,-1.969C11.438,-2.176 12.004,-2.457 12.516,-2.812L13.422,-1.156C12.773,-0.707 12.051,-0.344 11.25,-0.062C10.445,0.219 9.535,0.359 8.516,0.359Z" style="fill:rgb(247,244,239);fill-rule:nonzero;"/>
                </g>
            </g>
        </g>
        <g transform="matrix(1.333333,0,0,1.333333,0,0.000002)">
            <g transform="matrix(1,0,0,1,210.207972,235.129941)">
                <g>
                    <path d="M2.5,0L2.5,-14.828L4.578,-14.828L4.797,-12.141L4.875,-12.141C5.363,-13.078 5.973,-13.82 6.703,-14.375C7.441,-14.926 8.238,-15.203 9.094,-15.203C9.414,-15.203 9.695,-15.18 9.938,-15.141C10.188,-15.098 10.438,-15.016 10.688,-14.891L10.125,-12.75C9.906,-12.812 9.695,-12.859 9.5,-12.891C9.312,-12.922 9.066,-12.938 8.766,-12.938C8.129,-12.938 7.469,-12.68 6.781,-12.172C6.102,-11.66 5.508,-10.773 5,-9.516L5,0L2.5,0Z" style="fill:rgb(247,244,239);fill-rule:nonzero;"/>
                </g>
            </g>
        </g>
        <g transform="matrix(1.333333,0,0,1.333333,0,0.000002)">
            <g transform="matrix(1,0,0,1,220.792289,235.129941)">
                <g>
                    <path d="M2.5,0L2.5,-14.828L5,-14.828L5,0L2.5,0ZM3.75,-17.875C3.258,-17.875 2.859,-18.023 2.547,-18.328C2.234,-18.641 2.078,-19.039 2.078,-19.531C2.078,-20.02 2.234,-20.414 2.547,-20.719C2.859,-21.02 3.258,-21.172 3.75,-21.172C4.238,-21.172 4.641,-21.02 4.953,-20.719C5.266,-20.414 5.422,-20.02 5.422,-19.531C5.422,-19.039 5.266,-18.641 4.953,-18.328C4.641,-18.023 4.238,-17.875 3.75,-17.875Z" style="fill:rgb(247,244,239);fill-rule:nonzero;"/>
                </g>
            </g>
        </g>
        <g transform="matrix(1.333333,0,0,1.333333,0,0.000002)">
            <g transform="matrix(1,0,0,1,228.295868,235.129941)">
                <g>
                    <path d="M8.516,0.359C7.191,0.359 5.984,0.051 4.891,-0.562C3.805,-1.188 2.945,-2.07 2.312,-3.219C1.688,-4.363 1.375,-5.766 1.375,-7.422C1.375,-9.023 1.695,-10.406 2.344,-11.562C3,-12.727 3.832,-13.625 4.844,-14.25C5.863,-14.883 6.945,-15.203 8.094,-15.203C9.352,-15.203 10.426,-14.91 11.312,-14.328C12.195,-13.742 12.859,-12.93 13.297,-11.891C13.742,-10.859 13.969,-9.641 13.969,-8.234C13.969,-7.973 13.961,-7.719 13.953,-7.469C13.953,-7.227 13.922,-6.988 13.859,-6.75L3.172,-6.75L3.172,-8.734L11.719,-8.734C11.719,-10.148 11.406,-11.238 10.781,-12C10.164,-12.77 9.273,-13.156 8.109,-13.156C7.441,-13.156 6.781,-12.961 6.125,-12.578C5.477,-12.203 4.945,-11.598 4.531,-10.766C4.113,-9.93 3.906,-8.828 3.906,-7.453C3.906,-6.18 4.125,-5.117 4.562,-4.266C5,-3.41 5.594,-2.766 6.344,-2.328C7.094,-1.891 7.914,-1.672 8.812,-1.672C9.531,-1.672 10.195,-1.77 10.812,-1.969C11.438,-2.176 12.004,-2.457 12.516,-2.812L13.422,-1.156C12.773,-0.707 12.051,-0.344 11.25,-0.062C10.445,0.219 9.535,0.359 8.516,0.359Z" style="fill:rgb(247,244,239);fill-rule:nonzero;"/>
                </g>
            </g>
        </g>
        <g transform="matrix(1.333333,0,0,1.333333,0,0.000002)">
            <g transform="matrix(1,0,0,1,243.425053,235.129941)">
                <g>
                    <path d="M2.5,0L2.5,-14.828L4.578,-14.828L4.797,-12.688L4.875,-12.688C5.594,-13.406 6.348,-14.004 7.141,-14.484C7.93,-14.961 8.836,-15.203 9.859,-15.203C11.422,-15.203 12.562,-14.707 13.281,-13.719C14.008,-12.727 14.375,-11.289 14.375,-9.406L14.375,0L11.875,0L11.875,-9.062C11.875,-10.469 11.656,-11.477 11.219,-12.094C10.781,-12.719 10.062,-13.031 9.062,-13.031C8.312,-13.031 7.633,-12.836 7.031,-12.453C6.438,-12.066 5.758,-11.492 5,-10.734L5,0L2.5,0Z" style="fill:rgb(247,244,239);fill-rule:nonzero;"/>
                </g>
            </g>
        </g>
        <g transform="matrix(1.333333,0,0,1.333333,0,0.000002)">
            <g transform="matrix(1,0,0,1,260.109833,235.129941)">
                <g>
                    <path d="M8.391,0.359C7.066,0.359 5.875,0.055 4.812,-0.547C3.758,-1.16 2.926,-2.047 2.312,-3.203C1.707,-4.359 1.406,-5.754 1.406,-7.391C1.406,-9.055 1.734,-10.469 2.391,-11.625C3.055,-12.781 3.93,-13.664 5.016,-14.281C6.109,-14.895 7.285,-15.203 8.547,-15.203C9.523,-15.203 10.363,-15.035 11.062,-14.703C11.758,-14.379 12.363,-13.961 12.875,-13.453L11.625,-11.906C11.258,-12.27 10.828,-12.555 10.328,-12.766C9.828,-12.984 9.266,-13.094 8.641,-13.094C7.766,-13.094 6.973,-12.852 6.266,-12.375C5.566,-11.895 5.016,-11.227 4.609,-10.375C4.203,-9.52 4,-8.523 4,-7.391C4,-6.266 4.191,-5.273 4.578,-4.422C4.961,-3.566 5.5,-2.898 6.188,-2.422C6.883,-1.941 7.691,-1.703 8.609,-1.703C9.297,-1.703 9.93,-1.832 10.516,-2.094C11.109,-2.363 11.617,-2.703 12.047,-3.109L13.156,-1.594C12.52,-1 11.805,-0.523 11.016,-0.172C10.223,0.18 9.348,0.359 8.391,0.359Z" style="fill:rgb(247,244,239);fill-rule:nonzero;"/>
                </g>
            </g>
        </g>
        <g transform="matrix(1.333333,0,0,1.333333,0,0.000002)">
            <g transform="matrix(1,0,0,1,273.378195,235.129941)">
                <g>
                    <path d="M8.516,0.359C7.191,0.359 5.984,0.051 4.891,-0.562C3.805,-1.188 2.945,-2.07 2.312,-3.219C1.688,-4.363 1.375,-5.766 1.375,-7.422C1.375,-9.023 1.695,-10.406 2.344,-11.562C3,-12.727 3.832,-13.625 4.844,-14.25C5.863,-14.883 6.945,-15.203 8.094,-15.203C9.352,-15.203 10.426,-14.91 11.312,-14.328C12.195,-13.742 12.859,-12.93 13.297,-11.891C13.742,-10.859 13.969,-9.641 13.969,-8.234C13.969,-7.973 13.961,-7.719 13.953,-7.469C13.953,-7.227 13.922,-6.988 13.859,-6.75L3.172,-6.75L3.172,-8.734L11.719,-8.734C11.719,-10.148 11.406,-11.238 10.781,-12C10.164,-12.77 9.273,-13.156 8.109,-13.156C7.441,-13.156 6.781,-12.961 6.125,-12.578C5.477,-12.203 4.945,-11.598 4.531,-10.766C4.113,-9.93 3.906,-8.828 3.906,-7.453C3.906,-6.18 4.125,-5.117 4.562,-4.266C5,-3.41 5.594,-2.766 6.344,-2.328C7.094,-1.891 7.914,-1.672 8.812,-1.672C9.531,-1.672 10.195,-1.77 10.812,-1.969C11.438,-2.176 12.004,-2.457 12.516,-2.812L13.422,-1.156C12.773,-0.707 12.051,-0.344 11.25,-0.062C10.445,0.219 9.535,0.359 8.516,0.359Z" style="fill:rgb(247,244,239);fill-rule:nonzero;"/>
                </g>
            </g>
        </g>
        <g transform="matrix(1.333333,0,0,1.333333,0,0.000002)">
            <g transform="matrix(1,0,0,1,288.507381,235.129941)">
                <g>
                    <path d="M3.812,0.359C3.32,0.359 2.895,0.18 2.531,-0.172C2.164,-0.523 1.984,-0.977 1.984,-1.531C1.984,-2.113 2.164,-2.582 2.531,-2.938C2.895,-3.301 3.32,-3.484 3.812,-3.484C4.32,-3.484 4.75,-3.301 5.094,-2.938C5.438,-2.582 5.609,-2.113 5.609,-1.531C5.609,-0.977 5.438,-0.523 5.094,-0.172C4.75,0.18 4.32,0.359 3.812,0.359Z" style="fill:rgb(247,244,239);fill-rule:nonzero;"/>
                </g>
            </g>
        </g>
        <g transform="matrix(1.333333,0,0,1.333333,0,0.000002)">
            <g transform="matrix(1,0,0,1,302.202932,235.129941)">
                <g>
                    <path d="M2.75,0L2.75,-20.016L7.75,-20.016C9.801,-20.016 11.531,-19.629 12.938,-18.859C14.344,-18.086 15.406,-16.961 16.125,-15.484C16.844,-14.016 17.203,-12.219 17.203,-10.094C17.203,-7.977 16.844,-6.16 16.125,-4.641C15.406,-3.129 14.352,-1.977 12.969,-1.188C11.582,-0.395 9.883,0 7.875,0L2.75,0ZM5.281,-2.078L7.562,-2.078C9.133,-2.078 10.438,-2.395 11.469,-3.031C12.508,-3.676 13.285,-4.586 13.797,-5.766C14.305,-6.941 14.562,-8.383 14.562,-10.094C14.562,-11.77 14.305,-13.195 13.797,-14.375C13.285,-15.551 12.508,-16.438 11.469,-17.031C10.438,-17.633 9.133,-17.938 7.562,-17.938L5.281,-17.938L5.281,-2.078Z" style="fill:rgb(247,244,239);fill-rule:nonzero;"/>
                </g>
            </g>
        </g>
        <g transform="matrix(1.333333,0,0,1.333333,0,0.000002)">
            <g transform="matrix(1,0,0,1,320.96189,235.129941)">
                <g>
                    <path d="M2.5,0L2.5,-14.828L4.578,-14.828L4.797,-12.141L4.875,-12.141C5.363,-13.078 5.973,-13.82 6.703,-14.375C7.441,-14.926 8.238,-15.203 9.094,-15.203C9.414,-15.203 9.695,-15.18 9.938,-15.141C10.188,-15.098 10.438,-15.016 10.688,-14.891L10.125,-12.75C9.906,-12.812 9.695,-12.859 9.5,-12.891C9.312,-12.922 9.066,-12.938 8.766,-12.938C8.129,-12.938 7.469,-12.68 6.781,-12.172C6.102,-11.66 5.508,-10.773 5,-9.516L5,0L2.5,0Z" style="fill:rgb(247,244,239);fill-rule:nonzero;"/>
                </g>
            </g>
        </g>
        <g transform="matrix(1.333333,0,0,1.333333,0,0.000002)">
            <g transform="matrix(1,0,0,1,331.546207,235.129941)">
                <g>
                    <path d="M2.5,0L2.5,-14.828L5,-14.828L5,0L2.5,0ZM3.75,-17.875C3.258,-17.875 2.859,-18.023 2.547,-18.328C2.234,-18.641 2.078,-19.039 2.078,-19.531C2.078,-20.02 2.234,-20.414 2.547,-20.719C2.859,-21.02 3.258,-21.172 3.75,-21.172C4.238,-21.172 4.641,-21.02 4.953,-20.719C5.266,-20.414 5.422,-20.02 5.422,-19.531C5.422,-19.039 5.266,-18.641 4.953,-18.328C4.641,-18.023 4.238,-17.875 3.75,-17.875Z" style="fill:rgb(247,244,239);fill-rule:nonzero;"/>
                </g>
            </g>
        </g>
        <g transform="matrix(1.333333,0,0,1.333333,0,0.000002)">
            <g transform="matrix(1,0,0,1,339.049786,235.129941)">
                <g>
                    <path d="M5.703,0L0.359,-14.828L2.953,-14.828L5.766,-6.406C5.992,-5.695 6.223,-4.969 6.453,-4.219C6.691,-3.477 6.922,-2.754 7.141,-2.047L7.266,-2.047C7.461,-2.754 7.68,-3.477 7.922,-4.219C8.172,-4.969 8.398,-5.695 8.609,-6.406L11.406,-14.828L13.891,-14.828L8.641,0L5.703,0Z" style="fill:rgb(247,244,239);fill-rule:nonzero;"/>
                </g>
            </g>
        </g>
        <g transform="matrix(1.333333,0,0,1.333333,0,0.000002)">
            <g transform="matrix(1,0,0,1,353.172344,235.129941)">
                <g>
                    <path d="M8.516,0.359C7.191,0.359 5.984,0.051 4.891,-0.562C3.805,-1.188 2.945,-2.07 2.312,-3.219C1.688,-4.363 1.375,-5.766 1.375,-7.422C1.375,-9.023 1.695,-10.406 2.344,-11.562C3,-12.727 3.832,-13.625 4.844,-14.25C5.863,-14.883 6.945,-15.203 8.094,-15.203C9.352,-15.203 10.426,-14.91 11.312,-14.328C12.195,-13.742 12.859,-12.93 13.297,-11.891C13.742,-10.859 13.969,-9.641 13.969,-8.234C13.969,-7.973 13.961,-7.719 13.953,-7.469C13.953,-7.227 13.922,-6.988 13.859,-6.75L3.172,-6.75L3.172,-8.734L11.719,-8.734C11.719,-10.148 11.406,-11.238 10.781,-12C10.164,-12.77 9.273,-13.156 8.109,-13.156C7.441,-13.156 6.781,-12.961 6.125,-12.578C5.477,-12.203 4.945,-11.598 4.531,-10.766C4.113,-9.93 3.906,-8.828 3.906,-7.453C3.906,-6.18 4.125,-5.117 4.562,-4.266C5,-3.41 5.594,-2.766 6.344,-2.328C7.094,-1.891 7.914,-1.672 8.812,-1.672C9.531,-1.672 10.195,-1.77 10.812,-1.969C11.438,-2.176 12.004,-2.457 12.516,-2.812L13.422,-1.156C12.773,-0.707 12.051,-0.344 11.25,-0.062C10.445,0.219 9.535,0.359 8.516,0.359Z" style="fill:rgb(247,244,239);fill-rule:nonzero;"/>
                </g>
            </g>
        </g>
        <g transform="matrix(1.333333,0,0,1.333333,0,0.000002)">
            <g transform="matrix(1,0,0,1,368.301529,235.129941)">
                <g>
                    <path d="M2.5,0L2.5,-14.828L4.578,-14.828L4.797,-12.688L4.875,-12.688C5.594,-13.406 6.348,-14.004 7.141,-14.484C7.93,-14.961 8.836,-15.203 9.859,-15.203C11.422,-15.203 12.562,-14.707 13.281,-13.719C14.008,-12.727 14.375,-11.289 14.375,-9.406L14.375,0L11.875,0L11.875,-9.062C11.875,-10.469 11.656,-11.477 11.219,-12.094C10.781,-12.719 10.062,-13.031 9.062,-13.031C8.312,-13.031 7.633,-12.836 7.031,-12.453C6.438,-12.066 5.758,-11.492 5,-10.734L5,0L2.5,0Z" style="fill:rgb(247,244,239);fill-rule:nonzero;"/>
                </g>
            </g>
        </g>
        <g transform="matrix(1.333333,0,0,1.333333,0,0.000002)">
            <g transform="matrix(1,0,0,1,391.086772,235.129941)">
                <g>
                    <path d="M9.062,0.359C8.375,0.359 7.66,0.191 6.922,-0.141C6.191,-0.473 5.492,-0.938 4.828,-1.531L4.734,-1.531L4.516,0L2.5,0L2.5,-21.734L5,-21.734L5,-15.812L4.938,-13.125C5.613,-13.707 6.352,-14.195 7.156,-14.594C7.957,-15 8.766,-15.203 9.578,-15.203C10.859,-15.203 11.938,-14.891 12.812,-14.266C13.688,-13.641 14.348,-12.766 14.797,-11.641C15.242,-10.516 15.469,-9.188 15.469,-7.656C15.469,-5.969 15.164,-4.523 14.562,-3.328C13.969,-2.129 13.18,-1.211 12.203,-0.578C11.223,0.047 10.176,0.359 9.062,0.359ZM8.641,-1.734C9.453,-1.734 10.176,-1.969 10.812,-2.438C11.457,-2.906 11.961,-3.582 12.328,-4.469C12.691,-5.352 12.875,-6.406 12.875,-7.625C12.875,-8.707 12.738,-9.66 12.469,-10.484C12.207,-11.305 11.789,-11.945 11.219,-12.406C10.656,-12.863 9.906,-13.094 8.969,-13.094C8.363,-13.094 7.727,-12.922 7.062,-12.578C6.406,-12.242 5.719,-11.742 5,-11.078L5,-3.297C5.656,-2.723 6.301,-2.316 6.938,-2.078C7.582,-1.848 8.148,-1.734 8.641,-1.734Z" style="fill:rgb(247,244,239);fill-rule:nonzero;"/>
                </g>
            </g>
        </g>
        <g transform="matrix(1.333333,0,0,1.333333,0,0.000002)">
            <g transform="matrix(1,0,0,1,407.832566,235.129941)">
                <g>
                    <path d="M2.75,6.375C2.426,6.375 2.113,6.344 1.812,6.281C1.52,6.219 1.25,6.148 1,6.078L1.562,4.125C1.738,4.188 1.914,4.227 2.094,4.25C2.281,4.281 2.457,4.297 2.625,4.297C3.477,4.297 4.172,3.992 4.703,3.391C5.242,2.797 5.672,2.039 5.984,1.125L6.312,0.031L0.359,-14.828L2.953,-14.828L5.984,-6.625C6.223,-5.988 6.461,-5.305 6.703,-4.578C6.953,-3.848 7.191,-3.133 7.422,-2.438L7.531,-2.438C7.758,-3.133 7.977,-3.844 8.188,-4.562C8.406,-5.281 8.602,-5.969 8.781,-6.625L11.438,-14.828L13.891,-14.828L8.297,1.219C7.953,2.195 7.535,3.078 7.047,3.859C6.555,4.641 5.961,5.254 5.266,5.703C4.578,6.148 3.738,6.375 2.75,6.375Z" style="fill:rgb(247,244,239);fill-rule:nonzero;"/>
                </g>
            </g>
        </g>
        <g transform="matrix(1.333333,0,0,1.333333,0,0.000002)">
            <g transform="matrix(1,0,0,1,428.177614,235.129941)">
                <g>
                    <path d="M8.391,0.359C7.066,0.359 5.875,0.055 4.812,-0.547C3.758,-1.16 2.926,-2.047 2.312,-3.203C1.707,-4.359 1.406,-5.754 1.406,-7.391C1.406,-9.055 1.734,-10.469 2.391,-11.625C3.055,-12.781 3.93,-13.664 5.016,-14.281C6.109,-14.895 7.285,-15.203 8.547,-15.203C9.523,-15.203 10.363,-15.035 11.062,-14.703C11.758,-14.379 12.363,-13.961 12.875,-13.453L11.625,-11.906C11.258,-12.27 10.828,-12.555 10.328,-12.766C9.828,-12.984 9.266,-13.094 8.641,-13.094C7.766,-13.094 6.973,-12.852 6.266,-12.375C5.566,-11.895 5.016,-11.227 4.609,-10.375C4.203,-9.52 4,-8.523 4,-7.391C4,-6.266 4.191,-5.273 4.578,-4.422C4.961,-3.566 5.5,-2.898 6.188,-2.422C6.883,-1.941 7.691,-1.703 8.609,-1.703C9.297,-1.703 9.93,-1.832 10.516,-2.094C11.109,-2.363 11.617,-2.703 12.047,-3.109L13.156,-1.594C12.52,-1 11.805,-0.523 11.016,-0.172C10.223,0.18 9.348,0.359 8.391,0.359Z" style="fill:rgb(247,244,239);fill-rule:nonzero;"/>
                </g>
            </g>
        </g>
        <g transform="matrix(1.333333,0,0,1.333333,0,0.000002)">
            <g transform="matrix(1,0,0,1,441.781609,235.129941)">
                <g>
                    <path d="M5.922,0.359C5.109,0.359 4.367,0.191 3.703,-0.141C3.047,-0.473 2.523,-0.945 2.141,-1.562C1.754,-2.188 1.562,-2.945 1.562,-3.844C1.562,-5.508 2.289,-6.77 3.75,-7.625C5.219,-8.477 7.539,-9.078 10.719,-9.422C10.695,-10.035 10.598,-10.625 10.422,-11.188C10.242,-11.758 9.93,-12.219 9.484,-12.562C9.035,-12.914 8.414,-13.094 7.625,-13.094C6.77,-13.094 5.969,-12.93 5.219,-12.609C4.469,-12.297 3.797,-11.945 3.203,-11.562L2.234,-13.281C2.68,-13.582 3.207,-13.879 3.812,-14.172C4.426,-14.461 5.086,-14.707 5.797,-14.906C6.504,-15.102 7.258,-15.203 8.062,-15.203C9.258,-15.203 10.238,-14.953 11,-14.453C11.758,-13.953 12.316,-13.242 12.672,-12.328C13.035,-11.41 13.219,-10.332 13.219,-9.094L13.219,0L11.141,0L10.922,-1.766L10.828,-1.766C10.117,-1.18 9.359,-0.68 8.547,-0.266C7.734,0.148 6.859,0.359 5.922,0.359ZM6.625,-1.703C7.352,-1.703 8.035,-1.863 8.672,-2.188C9.316,-2.52 10,-3 10.719,-3.625L10.719,-7.625C9.039,-7.426 7.719,-7.164 6.75,-6.844C5.789,-6.531 5.098,-6.141 4.672,-5.672C4.242,-5.203 4.031,-4.645 4.031,-4C4.031,-3.188 4.281,-2.598 4.781,-2.234C5.289,-1.879 5.906,-1.703 6.625,-1.703Z" style="fill:rgb(247,244,239);fill-rule:nonzero;"/>
                </g>
            </g>
        </g>
        <g transform="matrix(1.333333,0,0,1.333333,0,0.000002)">
            <g transform="matrix(1,0,0,1,457.154805,235.129941)">
                <g>
                    <path d="M2.5,0L2.5,-14.828L4.578,-14.828L4.797,-12.141L4.875,-12.141C5.363,-13.078 5.973,-13.82 6.703,-14.375C7.441,-14.926 8.238,-15.203 9.094,-15.203C9.414,-15.203 9.695,-15.18 9.938,-15.141C10.188,-15.098 10.438,-15.016 10.688,-14.891L10.125,-12.75C9.906,-12.812 9.695,-12.859 9.5,-12.891C9.312,-12.922 9.066,-12.938 8.766,-12.938C8.129,-12.938 7.469,-12.68 6.781,-12.172C6.102,-11.66 5.508,-10.773 5,-9.516L5,0L2.5,0Z" style="fill:rgb(247,244,239);fill-rule:nonzero;"/>
                </g>
            </g>
        </g>
        <g transform="matrix(1.333333,0,0,1.333333,0,0.000002)">
            <g transform="matrix(1,0,0,1,467.43403,235.129941)">
                <g>
                    <path d="M8.516,0.359C7.191,0.359 5.984,0.051 4.891,-0.562C3.805,-1.188 2.945,-2.07 2.312,-3.219C1.688,-4.363 1.375,-5.766 1.375,-7.422C1.375,-9.023 1.695,-10.406 2.344,-11.562C3,-12.727 3.832,-13.625 4.844,-14.25C5.863,-14.883 6.945,-15.203 8.094,-15.203C9.352,-15.203 10.426,-14.91 11.312,-14.328C12.195,-13.742 12.859,-12.93 13.297,-11.891C13.742,-10.859 13.969,-9.641 13.969,-8.234C13.969,-7.973 13.961,-7.719 13.953,-7.469C13.953,-7.227 13.922,-6.988 13.859,-6.75L3.172,-6.75L3.172,-8.734L11.719,-8.734C11.719,-10.148 11.406,-11.238 10.781,-12C10.164,-12.77 9.273,-13.156 8.109,-13.156C7.441,-13.156 6.781,-12.961 6.125,-12.578C5.477,-12.203 4.945,-11.598 4.531,-10.766C4.113,-9.93 3.906,-8.828 3.906,-7.453C3.906,-6.18 4.125,-5.117 4.562,-4.266C5,-3.41 5.594,-2.766 6.344,-2.328C7.094,-1.891 7.914,-1.672 8.812,-1.672C9.531,-1.672 10.195,-1.77 10.812,-1.969C11.438,-2.176 12.004,-2.457 12.516,-2.812L13.422,-1.156C12.773,-0.707 12.051,-0.344 11.25,-0.062C10.445,0.219 9.535,0.359 8.516,0.359Z" style="fill:rgb(247,244,239);fill-rule:nonzero;"/>
                </g>
            </g>
        </g>
        <g transform="matrix(1.333333,0,0,1.333333,0,0.000002)">
            <g transform="matrix(1,0,0,1,482.56317,235.129941)">
                <g>
                    <path d="M3.812,0.359C3.32,0.359 2.895,0.18 2.531,-0.172C2.164,-0.523 1.984,-0.977 1.984,-1.531C1.984,-2.113 2.164,-2.582 2.531,-2.938C2.895,-3.301 3.32,-3.484 3.812,-3.484C4.32,-3.484 4.75,-3.301 5.094,-2.938C5.438,-2.582 5.609,-2.113 5.609,-1.531C5.609,-0.977 5.438,-0.523 5.094,-0.172C4.75,0.18 4.32,0.359 3.812,0.359Z" style="fill:rgb(247,244,239);fill-rule:nonzero;"/>
                </g>
            </g>
        </g>
    </g>
</svg>
