<?xml version="1.0" encoding="UTF-8" standalone="no"?>
<!DOCTYPE svg PUBLIC "-//W3C//DTD SVG 1.1//EN" "http://www.w3.org/Graphics/SVG/1.1/DTD/svg11.dtd">
<svg width="100%" height="100%" viewBox="0 0 631 272" version="1.1" xmlns="http://www.w3.org/2000/svg" xmlns:xlink="http://www.w3.org/1999/xlink" xml:space="preserve" xmlns:serif="http://www.serif.com/" style="fill-rule:evenodd;clip-rule:evenodd;">
    <g transform="matrix(1,0,0,1,-21.180112,-50.693239)">
        <g transform="matrix(0.999012,0,0,0.999012,355.403877,254.931521)">
            <path d="M0.002,1.998L278.955,1.998" style="fill:none;fill-rule:nonzero;stroke:rgb(11,74,89);stroke-width:4px;"/>
        </g>
        <g transform="matrix(1.333333,0,0,1.333333,0,0.000007)">
            <clipPath id="_clip1">
                <path d="M252.238,186.973C249.074,186.973 246.512,189.535 246.512,192.695C246.512,195.859 249.074,198.422 252.238,198.422C255.398,198.422 257.965,195.859 257.965,192.695C257.965,189.535 255.398,186.973 252.238,186.973Z"/>
            </clipPath>
            <g clip-path="url(#_clip1)">
                <g transform="matrix(1,0,0,1,246,186)">
                    <g>
                        <g>
                            <g>
                                <clipPath id="_clip2">
                                    <path d="M6.238,0.973C3.074,0.973 0.512,3.535 0.512,6.695C0.512,9.859 3.074,12.422 6.238,12.422C9.398,12.422 11.965,9.859 11.965,6.695C11.965,3.535 9.398,0.973 6.238,0.973Z"/>
                                </clipPath>
                                <g clip-path="url(#_clip2)">
                                    <rect x="0.512" y="0.973" width="11.453" height="11.449" style="fill:rgb(11,74,89);fill-rule:nonzero;"/>
                                </g>
                            </g>
                        </g>
                    </g>
                </g>
            </g>
        </g>
        <g transform="matrix(0.999012,0,0,0.999012,38.546429,254.931521)">
            <path d="M0,1.998L278.958,1.998" style="fill:none;fill-rule:nonzero;stroke:rgb(11,74,89);stroke-width:4px;"/>
        </g>
        <g transform="matrix(1.333333,0,0,1.333333,0,0.000007)">
            <g transform="matrix(1,0,0,1,58.45949,86.473049)">
                <g>
                    <path d="M58,-45.781C57.363,-45.719 56.453,-45.594 55.266,-45.406C54.086,-45.227 53.02,-44.785 52.062,-44.078C51.219,-43.461 50.617,-42.41 50.266,-40.922C49.922,-39.43 49.75,-37.238 49.75,-34.344L49.75,0.266L43.672,0.266L13.484,-37.188L13.484,-14.438C13.484,-11.613 13.672,-9.469 14.047,-8C14.422,-6.531 15.031,-5.457 15.875,-4.781C16.488,-4.281 17.469,-3.836 18.812,-3.453C20.156,-3.066 21.223,-2.801 22.016,-2.656L22.016,0L1.188,0L1.188,-2.656C2.082,-2.727 3.102,-2.895 4.25,-3.156C5.395,-3.414 6.359,-3.82 7.141,-4.375C8.023,-5.031 8.629,-6.023 8.953,-7.359C9.285,-8.691 9.453,-10.926 9.453,-14.062L9.453,-37.016C9.453,-38.148 9.273,-39.223 8.922,-40.234C8.578,-41.242 8.023,-42.113 7.266,-42.844C6.473,-43.625 5.555,-44.234 4.516,-44.672C3.484,-45.117 2.305,-45.469 0.984,-45.719L0.984,-48.453L19.219,-48.453L45.719,-15.672L45.719,-34C45.719,-36.914 45.523,-39.082 45.141,-40.5C44.754,-41.926 44.141,-42.984 43.297,-43.672C42.629,-44.191 41.645,-44.641 40.344,-45.016C39.051,-45.391 38.008,-45.645 37.219,-45.781L37.219,-48.453L58,-48.453L58,-45.781Z" style="fill:rgb(36,51,47);fill-rule:nonzero;"/>
                </g>
            </g>
        </g>
        <g transform="matrix(1.333333,0,0,1.333333,0,0.000007)">
            <g transform="matrix(1,0,0,1,117.15304,86.473049)">
                <g>
                    <path d="M38.688,-8.156C37.883,-6.863 36.922,-5.641 35.797,-4.484C34.672,-3.336 33.391,-2.352 31.953,-1.531C30.43,-0.664 28.891,-0.016 27.328,0.422C25.766,0.867 23.973,1.094 21.953,1.094C18.586,1.094 15.68,0.613 13.234,-0.344C10.785,-1.301 8.766,-2.586 7.172,-4.203C5.578,-5.816 4.383,-7.723 3.594,-9.922C2.812,-12.117 2.422,-14.504 2.422,-17.078C2.422,-19.391 2.848,-21.609 3.703,-23.734C4.555,-25.867 5.77,-27.77 7.344,-29.438C8.883,-31.051 10.832,-32.359 13.188,-33.359C15.551,-34.359 18.188,-34.859 21.094,-34.859C24.281,-34.859 26.898,-34.469 28.953,-33.688C31.004,-32.914 32.703,-31.848 34.047,-30.484C35.336,-29.191 36.281,-27.66 36.875,-25.891C37.469,-24.129 37.766,-22.281 37.766,-20.344L37.766,-18.125L14.688,-18.125C14.688,-13.457 15.582,-9.906 17.375,-7.469C19.176,-5.039 22.035,-3.828 25.953,-3.828C28.086,-3.828 30.008,-4.41 31.719,-5.578C33.426,-6.754 34.883,-8.238 36.094,-10.031L38.688,-8.156ZM25.641,-21.141C25.641,-22.504 25.57,-23.898 25.438,-25.328C25.301,-26.766 25.062,-27.938 24.719,-28.844C24.332,-29.914 23.801,-30.723 23.125,-31.266C22.457,-31.816 21.613,-32.094 20.594,-32.094C18.832,-32.094 17.426,-31.203 16.375,-29.422C15.332,-27.648 14.77,-24.844 14.688,-21L25.641,-21.141Z" style="fill:rgb(36,51,47);fill-rule:nonzero;"/>
                </g>
            </g>
        </g>
        <g transform="matrix(1.333333,0,0,1.333333,0,0.000007)">
            <g transform="matrix(1,0,0,1,157.135675,86.473049)">
                <g>
                    <path d="M40.906,0L19.562,0L19.562,-2.5C20.676,-2.562 21.609,-2.656 22.359,-2.781C23.109,-2.906 23.484,-3.16 23.484,-3.547C23.484,-3.734 23.383,-4.02 23.188,-4.406C23,-4.789 22.758,-5.223 22.469,-5.703C22.031,-6.41 21.281,-7.523 20.219,-9.047C19.164,-10.566 18.172,-11.977 17.234,-13.281C15.922,-11.758 14.816,-10.453 13.922,-9.359C13.035,-8.266 12.102,-7.094 11.125,-5.844C10.789,-5.426 10.551,-5.047 10.406,-4.703C10.27,-4.367 10.203,-4.164 10.203,-4.094C10.203,-3.57 10.57,-3.176 11.312,-2.906C12.051,-2.633 12.938,-2.5 13.969,-2.5L13.969,0L0.109,0L0.109,-2.5C1.953,-2.883 3.422,-3.492 4.516,-4.328C5.617,-5.172 6.367,-5.82 6.766,-6.281C8.422,-8.051 9.82,-9.523 10.969,-10.703C12.125,-11.879 13.672,-13.523 15.609,-15.641C14.305,-17.43 12.734,-19.625 10.891,-22.219C9.047,-24.82 7.508,-26.953 6.281,-28.609C5.664,-29.43 4.914,-30.062 4.031,-30.5C3.145,-30.945 1.992,-31.238 0.578,-31.375L0.578,-33.875L21.438,-33.875L21.438,-31.375C20.688,-31.375 19.945,-31.328 19.219,-31.234C18.488,-31.148 18.125,-30.992 18.125,-30.766C18.125,-30.578 18.18,-30.348 18.297,-30.078C18.41,-29.805 18.562,-29.52 18.75,-29.219C19.176,-28.488 19.852,-27.422 20.781,-26.016C21.719,-24.609 22.723,-23.129 23.797,-21.578C24.816,-22.828 25.676,-23.848 26.375,-24.641C27.07,-25.441 27.961,-26.57 29.047,-28.031C29.461,-28.57 29.719,-28.977 29.812,-29.25C29.914,-29.531 29.969,-29.703 29.969,-29.766C29.969,-30.16 29.723,-30.508 29.234,-30.812C28.754,-31.125 27.797,-31.312 26.359,-31.375L26.359,-33.875L39.953,-33.875L39.953,-31.375C38.828,-31.195 37.738,-30.82 36.688,-30.25C35.645,-29.676 34.555,-28.789 33.422,-27.594C31.648,-25.75 30.359,-24.398 29.547,-23.547C28.742,-22.691 27.406,-21.273 25.531,-19.297C26.582,-17.816 28.098,-15.664 30.078,-12.844C32.055,-10.02 33.766,-7.641 35.203,-5.703C35.816,-4.836 36.504,-4.129 37.266,-3.578C38.023,-3.035 39.238,-2.676 40.906,-2.5L40.906,0Z" style="fill:rgb(36,51,47);fill-rule:nonzero;"/>
                </g>
            </g>
        </g>
        <g transform="matrix(1.333333,0,0,1.333333,0,0.000007)">
            <g transform="matrix(1,0,0,1,198.245057,86.473049)">
                <g>
                    <path d="M27.375,-1.578C25.926,-0.93 24.367,-0.352 22.703,0.156C21.047,0.664 19.02,0.922 16.625,0.922C13.07,0.922 10.438,0.055 8.719,-1.672C7,-3.398 6.141,-5.867 6.141,-9.078L6.141,-30.047L0,-30.047L0,-33.734L6.281,-33.734L6.281,-44.078L17.375,-44.078L17.375,-33.734L26.938,-33.734L26.938,-30.047L17.453,-30.047L17.453,-11.328C17.453,-8.672 17.82,-6.785 18.562,-5.672C19.301,-4.555 20.625,-4 22.531,-4C23.145,-4 24,-4.039 25.094,-4.125C26.188,-4.219 26.945,-4.32 27.375,-4.438L27.375,-1.578Z" style="fill:rgb(36,51,47);fill-rule:nonzero;"/>
                </g>
            </g>
        </g>
        <g transform="matrix(1.333333,0,0,1.333333,0,0.000007)">
            <g transform="matrix(1,0,0,1,243.793159,86.473049)">
                <g>
                    <path d="M80.062,-45.719C79.352,-45.645 78.645,-45.488 77.938,-45.25C77.238,-45.008 76.547,-44.707 75.859,-44.344C74.816,-43.758 74.07,-43.113 73.625,-42.406C73.176,-41.695 72.773,-40.844 72.422,-39.844C71.16,-36.383 69.227,-30.844 66.625,-23.219C64.02,-15.594 61.305,-7.672 58.484,0.547L51.625,0.547L38.812,-35.469L27.281,0.547L20.422,0.547C16.617,-10.516 13.703,-19.031 11.672,-25C9.648,-30.977 7.945,-35.992 6.562,-40.047C6.125,-41.273 5.629,-42.164 5.078,-42.719C4.535,-43.281 3.832,-43.848 2.969,-44.422C2.352,-44.828 1.695,-45.125 1,-45.312C0.312,-45.508 -0.488,-45.664 -1.406,-45.781L-1.406,-48.453L24.453,-48.453L24.453,-45.859C22.922,-45.672 21.781,-45.488 21.031,-45.312C20.281,-45.145 19.688,-44.973 19.25,-44.797C18.844,-44.609 18.594,-44.41 18.5,-44.203C18.414,-44.004 18.375,-43.828 18.375,-43.672C18.375,-43.348 18.41,-43.035 18.484,-42.734C18.566,-42.441 18.656,-42.102 18.75,-41.719C19.289,-39.945 20.391,-36.578 22.047,-31.609C23.711,-26.648 25.766,-20.492 28.203,-13.141L39.234,-48.453L46.469,-48.453L59.266,-12.047C61.16,-17.898 62.672,-22.68 63.797,-26.391C64.922,-30.098 65.867,-33.273 66.641,-35.922C67.098,-37.535 67.461,-38.891 67.734,-39.984C68.004,-41.078 68.141,-42.02 68.141,-42.812C68.141,-43.289 67.914,-43.703 67.469,-44.047C67.031,-44.391 66.438,-44.688 65.688,-44.938C65.051,-45.133 64.223,-45.297 63.203,-45.422C62.191,-45.547 61.312,-45.645 60.562,-45.719L60.562,-48.453L80.062,-48.453L80.062,-45.719Z" style="fill:rgb(36,51,47);fill-rule:nonzero;"/>
                </g>
            </g>
        </g>
        <g transform="matrix(1.333333,0,0,1.333333,0,0.000007)">
            <g transform="matrix(1,0,0,1,322.563396,86.473049)">
                <g>
                    <path d="M41,-0.719C40,-0.281 38.816,0.117 37.453,0.484C36.086,0.848 34.645,1.031 33.125,1.031C30.32,1.031 28.258,0.613 26.938,-0.219C25.613,-1.051 24.711,-2.242 24.234,-3.797L24.031,-3.797C23.258,-3.016 22.516,-2.348 21.797,-1.797C21.078,-1.254 20.312,-0.789 19.5,-0.406C18.426,0.094 17.395,0.461 16.406,0.703C15.414,0.941 14.031,1.062 12.25,1.062C9.613,1.062 7.363,0.281 5.5,-1.281C3.633,-2.844 2.703,-4.91 2.703,-7.484C2.703,-8.961 2.906,-10.219 3.312,-11.25C3.719,-12.281 4.297,-13.195 5.047,-14C5.734,-14.727 6.523,-15.332 7.422,-15.812C8.328,-16.289 9.312,-16.734 10.375,-17.141C12.426,-17.891 14.883,-18.664 17.75,-19.469C20.625,-20.281 22.719,-21.004 24.031,-21.641L24.031,-24.922C24.031,-25.492 23.984,-26.242 23.891,-27.172C23.805,-28.109 23.613,-28.895 23.312,-29.531C23,-30.258 22.5,-30.875 21.812,-31.375C21.133,-31.875 20.238,-32.125 19.125,-32.125C18.113,-32.125 17.273,-31.984 16.609,-31.703C15.941,-31.422 15.398,-31.129 14.984,-30.828C15.055,-30.367 15.25,-29.672 15.562,-28.734C15.883,-27.805 16.047,-26.91 16.047,-26.047C16.047,-25.66 15.941,-25.176 15.734,-24.594C15.535,-24.02 15.242,-23.562 14.859,-23.219C14.328,-22.758 13.738,-22.406 13.094,-22.156C12.445,-21.906 11.453,-21.781 10.109,-21.781C8.191,-21.781 6.742,-22.238 5.766,-23.156C4.785,-24.082 4.297,-25.285 4.297,-26.766C4.297,-28.035 4.801,-29.176 5.812,-30.188C6.832,-31.207 8.07,-32.047 9.531,-32.703C10.957,-33.391 12.602,-33.922 14.469,-34.297C16.344,-34.672 18.078,-34.859 19.672,-34.859C21.879,-34.859 23.906,-34.727 25.75,-34.469C27.594,-34.207 29.254,-33.664 30.734,-32.844C32.141,-32.051 33.258,-30.895 34.094,-29.375C34.926,-27.863 35.344,-25.891 35.344,-23.453C35.344,-20.879 35.289,-17.828 35.188,-14.297C35.082,-10.773 35.031,-8.457 35.031,-7.344C35.031,-6.312 35.18,-5.5 35.484,-4.906C35.797,-4.32 36.27,-3.879 36.906,-3.578C37.289,-3.398 37.898,-3.289 38.734,-3.25C39.566,-3.219 40.32,-3.203 41,-3.203L41,-0.719ZM24.031,-18.5C22.758,-18.07 21.5,-17.578 20.25,-17.016C19,-16.461 17.973,-15.879 17.172,-15.266C16.328,-14.629 15.664,-13.812 15.188,-12.812C14.707,-11.82 14.469,-10.66 14.469,-9.328C14.469,-7.547 14.875,-6.254 15.688,-5.453C16.5,-4.66 17.492,-4.266 18.672,-4.266C19.922,-4.266 20.953,-4.52 21.766,-5.031C22.578,-5.539 23.289,-6.176 23.906,-6.938L24.031,-18.5Z" style="fill:rgb(36,51,47);fill-rule:nonzero;"/>
                </g>
            </g>
        </g>
        <g transform="matrix(1.333333,0,0,1.333333,0,0.000007)">
            <g transform="matrix(1,0,0,1,364.219059,86.473049)">
                <g>
                    <path d="M40.906,-31.375C39.875,-31.219 38.875,-30.832 37.906,-30.219C36.945,-29.602 36.145,-28.645 35.5,-27.344C33.914,-24.02 32.352,-20.664 30.812,-17.281C29.281,-13.906 27.77,-10.641 26.281,-7.484C25.832,-6.523 25.316,-5.289 24.734,-3.781C24.148,-2.281 23.664,-0.914 23.281,0.312L17,0.312C14.383,-5.77 12.148,-10.812 10.297,-14.812C8.441,-18.82 6.477,-23.125 4.406,-27.719C3.926,-28.789 3.18,-29.633 2.172,-30.25C1.16,-30.863 0.129,-31.238 -0.922,-31.375L-0.922,-33.875L20.109,-33.875L20.109,-31.375C19.336,-31.352 18.426,-31.18 17.375,-30.859C16.332,-30.547 15.812,-30.141 15.812,-29.641C15.812,-29.504 15.852,-29.297 15.938,-29.016C16.031,-28.742 16.145,-28.438 16.281,-28.094C17.008,-26.363 18.109,-23.867 19.578,-20.609C21.047,-17.359 22.598,-13.938 24.234,-10.344C25.379,-12.82 26.469,-15.25 27.5,-17.625C28.531,-20.008 29.812,-23.047 31.344,-26.734C31.551,-27.273 31.672,-27.719 31.703,-28.062C31.734,-28.406 31.75,-28.633 31.75,-28.75C31.75,-29.156 31.551,-29.508 31.156,-29.812C30.758,-30.125 30.285,-30.395 29.734,-30.625C29.172,-30.852 28.625,-31.023 28.094,-31.141C27.57,-31.254 27.141,-31.332 26.797,-31.375L26.797,-33.875L40.906,-33.875L40.906,-31.375Z" style="fill:rgb(36,51,47);fill-rule:nonzero;"/>
                </g>
            </g>
        </g>
        <g transform="matrix(1.333333,0,0,1.333333,0,0.000007)">
            <g transform="matrix(1,0,0,1,403.860266,86.473049)">
                <g>
                    <path d="M38.688,-8.156C37.883,-6.863 36.922,-5.641 35.797,-4.484C34.672,-3.336 33.391,-2.352 31.953,-1.531C30.43,-0.664 28.891,-0.016 27.328,0.422C25.766,0.867 23.973,1.094 21.953,1.094C18.586,1.094 15.68,0.613 13.234,-0.344C10.785,-1.301 8.766,-2.586 7.172,-4.203C5.578,-5.816 4.383,-7.723 3.594,-9.922C2.812,-12.117 2.422,-14.504 2.422,-17.078C2.422,-19.391 2.848,-21.609 3.703,-23.734C4.555,-25.867 5.77,-27.77 7.344,-29.438C8.883,-31.051 10.832,-32.359 13.188,-33.359C15.551,-34.359 18.188,-34.859 21.094,-34.859C24.281,-34.859 26.898,-34.469 28.953,-33.688C31.004,-32.914 32.703,-31.848 34.047,-30.484C35.336,-29.191 36.281,-27.66 36.875,-25.891C37.469,-24.129 37.766,-22.281 37.766,-20.344L37.766,-18.125L14.688,-18.125C14.688,-13.457 15.582,-9.906 17.375,-7.469C19.176,-5.039 22.035,-3.828 25.953,-3.828C28.086,-3.828 30.008,-4.41 31.719,-5.578C33.426,-6.754 34.883,-8.238 36.094,-10.031L38.688,-8.156ZM25.641,-21.141C25.641,-22.504 25.57,-23.898 25.438,-25.328C25.301,-26.766 25.062,-27.938 24.719,-28.844C24.332,-29.914 23.801,-30.723 23.125,-31.266C22.457,-31.816 21.613,-32.094 20.594,-32.094C18.832,-32.094 17.426,-31.203 16.375,-29.422C15.332,-27.648 14.77,-24.844 14.688,-21L25.641,-21.141Z" style="fill:rgb(36,51,47);fill-rule:nonzero;"/>
                </g>
            </g>
        </g>
        <g transform="matrix(1.333333,0,0,1.333333,0,0.000007)">
            <g transform="matrix(1,0,0,1,19.638425,154.423379)">
                <g>
                    <path d="M25.781,1.203C22.477,1.203 19.391,0.672 16.516,-0.391C13.641,-1.461 11.133,-3.016 9,-5.047C6.906,-7.023 5.254,-9.477 4.047,-12.406C2.848,-15.344 2.25,-18.562 2.25,-22.062C2.25,-25.551 2.852,-28.781 4.062,-31.75C5.281,-34.719 6.988,-37.289 9.188,-39.469C11.344,-41.602 13.93,-43.258 16.953,-44.438C19.984,-45.613 23.223,-46.203 26.672,-46.203C29.16,-46.203 31.43,-45.898 33.484,-45.297C35.535,-44.691 37.27,-44.008 38.688,-43.25L40.656,-45L43.406,-45L43.688,-28.562L40.906,-28.562C39.32,-33.57 37.414,-37.25 35.188,-39.594C32.969,-41.945 30.266,-43.125 27.078,-43.125C23.109,-43.125 20.086,-41.375 18.016,-37.875C15.941,-34.375 14.906,-29.461 14.906,-23.141C14.906,-19.566 15.258,-16.516 15.969,-13.984C16.676,-11.461 17.598,-9.43 18.734,-7.891C19.961,-6.285 21.41,-5.109 23.078,-4.359C24.754,-3.609 26.602,-3.234 28.625,-3.234C31.594,-3.234 34.234,-4.035 36.547,-5.641C38.859,-7.242 40.969,-9.676 42.875,-12.938L45.594,-11.281C44.688,-9.426 43.648,-7.766 42.484,-6.297C41.328,-4.828 39.988,-3.562 38.469,-2.5C36.789,-1.344 34.941,-0.438 32.922,0.219C30.91,0.875 28.531,1.203 25.781,1.203Z" style="fill:rgb(36,51,47);fill-rule:nonzero;"/>
                </g>
            </g>
        </g>
        <g transform="matrix(1.333333,0,0,1.333333,0,0.000007)">
            <g transform="matrix(1,0,0,1,66.083475,154.423379)">
                <g>
                    <path d="M38.078,-0.672C37.148,-0.266 36.051,0.102 34.781,0.438C33.508,0.781 32.164,0.953 30.75,0.953C28.156,0.953 26.242,0.566 25.016,-0.203C23.785,-0.973 22.953,-2.078 22.516,-3.516L22.328,-3.516C21.609,-2.797 20.914,-2.18 20.25,-1.672C19.582,-1.172 18.867,-0.738 18.109,-0.375C17.109,0.082 16.148,0.422 15.234,0.641C14.316,0.867 13.035,0.984 11.391,0.984C8.93,0.984 6.832,0.258 5.094,-1.188C3.363,-2.633 2.5,-4.551 2.5,-6.938C2.5,-8.312 2.688,-9.477 3.062,-10.438C3.445,-11.406 3.988,-12.258 4.688,-13C5.32,-13.676 6.055,-14.234 6.891,-14.672C7.734,-15.117 8.648,-15.535 9.641,-15.922C11.547,-16.617 13.828,-17.344 16.484,-18.094C19.148,-18.844 21.098,-19.516 22.328,-20.109L22.328,-23.141C22.328,-23.672 22.281,-24.367 22.188,-25.234C22.102,-26.109 21.926,-26.836 21.656,-27.422C21.363,-28.098 20.898,-28.672 20.266,-29.141C19.629,-29.609 18.789,-29.844 17.75,-29.844C16.82,-29.844 16.047,-29.707 15.422,-29.438C14.797,-29.176 14.297,-28.906 13.922,-28.625C13.984,-28.207 14.16,-27.562 14.453,-26.688C14.754,-25.82 14.906,-24.988 14.906,-24.188C14.906,-23.832 14.805,-23.383 14.609,-22.844C14.422,-22.301 14.148,-21.875 13.797,-21.562C13.305,-21.133 12.758,-20.805 12.156,-20.578C11.551,-20.348 10.629,-20.234 9.391,-20.234C7.609,-20.234 6.266,-20.66 5.359,-21.516C4.453,-22.367 4,-23.484 4,-24.859C4,-26.047 4.469,-27.109 5.406,-28.047C6.344,-28.984 7.488,-29.758 8.844,-30.375C10.176,-31.008 11.707,-31.5 13.438,-31.844C15.176,-32.195 16.785,-32.375 18.266,-32.375C20.316,-32.375 22.195,-32.25 23.906,-32C25.613,-31.758 27.156,-31.258 28.531,-30.5C29.844,-29.758 30.883,-28.688 31.656,-27.281C32.426,-25.875 32.812,-24.039 32.812,-21.781C32.812,-19.395 32.766,-16.562 32.672,-13.281C32.578,-10.008 32.531,-7.852 32.531,-6.812C32.531,-5.863 32.672,-5.113 32.953,-4.562C33.242,-4.008 33.688,-3.598 34.281,-3.328C34.633,-3.16 35.195,-3.062 35.969,-3.031C36.738,-3 37.441,-2.984 38.078,-2.984L38.078,-0.672ZM22.328,-17.188C21.141,-16.781 19.961,-16.316 18.797,-15.797C17.641,-15.285 16.691,-14.742 15.953,-14.172C15.172,-13.578 14.555,-12.82 14.109,-11.906C13.66,-10.988 13.438,-9.906 13.438,-8.656C13.438,-7.008 13.812,-5.816 14.562,-5.078C15.32,-4.336 16.25,-3.969 17.344,-3.969C18.508,-3.969 19.469,-4.203 20.219,-4.672C20.969,-5.148 21.629,-5.738 22.203,-6.438L22.328,-17.188Z" style="fill:rgb(36,51,47);fill-rule:nonzero;"/>
                </g>
            </g>
        </g>
        <g transform="matrix(1.333333,0,0,1.333333,0,0.000007)">
            <g transform="matrix(1,0,0,1,104.761264,154.423379)">
                <g>
                    <path d="M43.688,0L24.609,0L24.609,-2.312C25.004,-2.352 25.488,-2.406 26.062,-2.469C26.633,-2.531 27.066,-2.641 27.359,-2.797C27.805,-3.023 28.125,-3.359 28.312,-3.797C28.5,-4.242 28.594,-4.898 28.594,-5.766L28.594,-20.609C28.594,-22.766 28.195,-24.383 27.406,-25.469C26.613,-26.562 25.445,-27.109 23.906,-27.109C23.062,-27.109 22.273,-26.977 21.547,-26.719C20.816,-26.469 20.102,-26.102 19.406,-25.625C18.789,-25.195 18.297,-24.758 17.922,-24.312C17.555,-23.875 17.25,-23.484 17,-23.141L17,-6.125C17,-5.383 17.102,-4.766 17.312,-4.266C17.52,-3.766 17.867,-3.391 18.359,-3.141C18.691,-2.953 19.113,-2.781 19.625,-2.625C20.133,-2.477 20.633,-2.375 21.125,-2.312L21.125,0L1.844,0L1.844,-2.312C2.363,-2.352 2.895,-2.41 3.438,-2.484C3.977,-2.555 4.438,-2.66 4.812,-2.797C5.488,-3.023 5.953,-3.379 6.203,-3.859C6.461,-4.348 6.594,-4.984 6.594,-5.766L6.594,-24.219C6.594,-24.875 6.422,-25.52 6.078,-26.156C5.742,-26.789 5.301,-27.312 4.75,-27.719C4.375,-27.969 3.895,-28.176 3.312,-28.344C2.727,-28.508 2.086,-28.629 1.391,-28.703L1.391,-31.016L16.516,-31.828L17,-31.359L17,-26.766L17.125,-26.766C17.719,-27.285 18.438,-27.914 19.281,-28.656C20.125,-29.406 20.906,-30.008 21.625,-30.469C22.406,-30.977 23.43,-31.41 24.703,-31.766C25.973,-32.129 27.328,-32.312 28.766,-32.312C32.203,-32.312 34.781,-31.332 36.5,-29.375C38.227,-27.414 39.094,-24.82 39.094,-21.594L39.094,-6.062C39.094,-5.281 39.207,-4.656 39.438,-4.188C39.676,-3.719 40.113,-3.348 40.75,-3.078C41.082,-2.93 41.492,-2.781 41.984,-2.625C42.484,-2.477 43.051,-2.375 43.688,-2.312L43.688,0Z" style="fill:rgb(36,51,47);fill-rule:nonzero;"/>
                </g>
            </g>
        </g>
        <g transform="matrix(1.333333,0,0,1.333333,0,0.000007)">
            <g transform="matrix(1,0,0,1,149.557752,154.423379)">
                <g>
                    <path d="M19.938,1.016C17,1.016 14.406,0.586 12.156,-0.266C9.906,-1.117 8.051,-2.285 6.594,-3.766C5.133,-5.273 4.047,-7.051 3.328,-9.094C2.609,-11.145 2.25,-13.379 2.25,-15.797C2.25,-17.992 2.688,-20.082 3.562,-22.062C4.445,-24.051 5.641,-25.797 7.141,-27.297C8.68,-28.836 10.598,-30.066 12.891,-30.984C15.18,-31.91 17.711,-32.375 20.484,-32.375C24.367,-32.375 27.441,-31.641 29.703,-30.172C31.973,-28.703 33.109,-26.719 33.109,-24.219C33.109,-22.695 32.703,-21.473 31.891,-20.547C31.086,-19.617 29.707,-19.156 27.75,-19.156C26.156,-19.156 24.82,-19.535 23.75,-20.297C22.688,-21.055 22.156,-22.051 22.156,-23.281C22.156,-24.312 22.32,-25.332 22.656,-26.344C23,-27.363 23.207,-28.133 23.281,-28.656C23.039,-29.039 22.738,-29.332 22.375,-29.531C22.02,-29.738 21.461,-29.844 20.703,-29.844C19.754,-29.844 18.891,-29.617 18.109,-29.172C17.328,-28.723 16.598,-27.941 15.922,-26.828C15.266,-25.766 14.738,-24.344 14.344,-22.562C13.957,-20.789 13.766,-18.66 13.766,-16.172C13.766,-12.41 14.645,-9.375 16.406,-7.062C18.176,-4.758 20.285,-3.609 22.734,-3.609C25.078,-3.609 26.941,-4.129 28.328,-5.172C29.711,-6.223 30.945,-7.711 32.031,-9.641L34.406,-7.984C33.75,-6.703 32.961,-5.523 32.047,-4.453C31.141,-3.391 30.055,-2.441 28.797,-1.609C27.461,-0.742 26.109,-0.094 24.734,0.344C23.359,0.789 21.758,1.016 19.938,1.016Z" style="fill:rgb(36,51,47);fill-rule:nonzero;"/>
                </g>
            </g>
        </g>
        <g transform="matrix(1.333333,0,0,1.333333,0,0.000007)">
            <g transform="matrix(1,0,0,1,184.050731,154.423379)">
                <g>
                    <path d="M35.922,-7.578C35.18,-6.367 34.285,-5.227 33.234,-4.156C32.191,-3.094 31.004,-2.18 29.672,-1.422C28.254,-0.617 26.82,-0.016 25.375,0.391C23.926,0.805 22.266,1.016 20.391,1.016C17.266,1.016 14.562,0.57 12.281,-0.312C10.008,-1.207 8.133,-2.406 6.656,-3.906C5.176,-5.406 4.07,-7.172 3.344,-9.203C2.613,-11.242 2.25,-13.461 2.25,-15.859C2.25,-18.016 2.645,-20.078 3.438,-22.047C4.227,-24.023 5.352,-25.785 6.812,-27.328C8.25,-28.828 10.062,-30.039 12.25,-30.969C14.438,-31.906 16.883,-32.375 19.594,-32.375C22.551,-32.375 24.977,-32.016 26.875,-31.297C28.781,-30.578 30.359,-29.582 31.609,-28.312C32.816,-27.102 33.691,-25.68 34.234,-24.047C34.785,-22.41 35.062,-20.691 35.062,-18.891L35.062,-16.844L13.641,-16.844C13.641,-12.508 14.473,-9.207 16.141,-6.938C17.805,-4.676 20.457,-3.547 24.094,-3.547C26.082,-3.547 27.867,-4.086 29.453,-5.172C31.035,-6.266 32.391,-7.648 33.516,-9.328L35.922,-7.578ZM23.812,-19.625C23.812,-20.895 23.75,-22.195 23.625,-23.531C23.5,-24.863 23.273,-25.953 22.953,-26.797C22.598,-27.785 22.109,-28.535 21.484,-29.047C20.859,-29.555 20.07,-29.812 19.125,-29.812C17.488,-29.812 16.188,-28.984 15.219,-27.328C14.25,-25.68 13.723,-23.07 13.641,-19.5L23.812,-19.625Z" style="fill:rgb(36,51,47);fill-rule:nonzero;"/>
                </g>
            </g>
        </g>
        <g transform="matrix(1.333333,0,0,1.333333,0,0.000007)">
            <g transform="matrix(1,0,0,1,221.175057,154.423379)">
                <g>
                    <path d="M33.422,-25.656C33.422,-24.039 32.922,-22.625 31.922,-21.406C30.93,-20.195 29.625,-19.594 28,-19.594C26.457,-19.594 25.148,-19.984 24.078,-20.766C23.016,-21.547 22.484,-22.695 22.484,-24.219C22.484,-24.957 22.535,-25.535 22.641,-25.953C22.742,-26.367 22.836,-26.754 22.922,-27.109C21.953,-27.066 20.926,-26.727 19.844,-26.094C18.77,-25.457 17.82,-24.613 17,-23.562L17,-6.156C17,-5.414 17.113,-4.801 17.344,-4.312C17.57,-3.82 17.961,-3.441 18.516,-3.172C18.984,-2.941 19.738,-2.742 20.781,-2.578C21.832,-2.422 22.586,-2.332 23.047,-2.312L23.047,0L1.844,0L1.844,-2.312C2.363,-2.352 2.895,-2.41 3.438,-2.484C3.977,-2.555 4.438,-2.66 4.812,-2.797C5.488,-3.023 5.953,-3.379 6.203,-3.859C6.461,-4.348 6.594,-4.984 6.594,-5.766L6.594,-24.219C6.594,-24.977 6.41,-25.66 6.047,-26.266C5.691,-26.867 5.258,-27.352 4.75,-27.719C4.375,-27.969 3.895,-28.176 3.312,-28.344C2.727,-28.508 2.086,-28.629 1.391,-28.703L1.391,-31.016L16.516,-31.828L17,-31.359L17,-26.766L17.125,-26.766C18.582,-28.453 20.129,-29.773 21.766,-30.734C23.398,-31.703 25.109,-32.188 26.891,-32.188C28.859,-32.188 30.438,-31.578 31.625,-30.359C32.82,-29.141 33.422,-27.57 33.422,-25.656Z" style="fill:rgb(36,51,47);fill-rule:nonzero;"/>
                </g>
            </g>
        </g>
        <g transform="matrix(1.333333,0,0,1.333333,0,0.000007)">
            <g transform="matrix(1,0,0,1,271.42449,154.423379)">
                <g>
                    <path d="M53.844,0L36.594,0C33.613,-4.562 31.133,-8.195 29.156,-10.906C27.176,-13.613 24.719,-16.742 21.781,-20.297L20.047,-20.297L20.047,-6.625C20.047,-5.863 20.188,-5.219 20.469,-4.688C20.75,-4.164 21.289,-3.723 22.094,-3.359C22.5,-3.191 23.129,-3.016 23.984,-2.828C24.836,-2.648 25.57,-2.531 26.188,-2.469L26.188,0L2.188,0L2.188,-2.469C2.801,-2.531 3.609,-2.617 4.609,-2.734C5.617,-2.859 6.332,-3.004 6.75,-3.172C7.551,-3.504 8.086,-3.93 8.359,-4.453C8.641,-4.973 8.781,-5.633 8.781,-6.438L8.781,-38.172C8.781,-38.93 8.66,-39.566 8.422,-40.078C8.191,-40.586 7.633,-41.031 6.75,-41.406C6.07,-41.688 5.273,-41.922 4.359,-42.109C3.441,-42.297 2.719,-42.43 2.188,-42.516L2.188,-45L27.422,-45C33.066,-45 37.352,-44.113 40.281,-42.344C43.207,-40.582 44.672,-37.914 44.672,-34.344C44.672,-31.188 43.766,-28.648 41.953,-26.734C40.148,-24.828 37.398,-23.336 33.703,-22.266C35.141,-20.398 36.812,-18.238 38.719,-15.781C40.633,-13.332 42.629,-10.832 44.703,-8.281C45.359,-7.457 46.25,-6.445 47.375,-5.25C48.508,-4.051 49.516,-3.316 50.391,-3.047C50.867,-2.898 51.484,-2.77 52.234,-2.656C52.984,-2.551 53.52,-2.488 53.844,-2.469L53.844,0ZM32.25,-33.453C32.25,-36.453 31.406,-38.645 29.719,-40.031C28.039,-41.414 25.648,-42.109 22.547,-42.109L20.047,-42.109L20.047,-23.281L22.453,-23.281C25.555,-23.281 27.961,-24.094 29.672,-25.719C31.391,-27.344 32.25,-29.922 32.25,-33.453Z" style="fill:rgb(36,51,47);fill-rule:nonzero;"/>
                </g>
            </g>
        </g>
        <g transform="matrix(1.333333,0,0,1.333333,0,0.000007)">
            <g transform="matrix(1,0,0,1,323.195673,154.423379)">
                <g>
                    <path d="M35.922,-7.578C35.18,-6.367 34.285,-5.227 33.234,-4.156C32.191,-3.094 31.004,-2.18 29.672,-1.422C28.254,-0.617 26.82,-0.016 25.375,0.391C23.926,0.805 22.266,1.016 20.391,1.016C17.266,1.016 14.562,0.57 12.281,-0.312C10.008,-1.207 8.133,-2.406 6.656,-3.906C5.176,-5.406 4.07,-7.172 3.344,-9.203C2.613,-11.242 2.25,-13.461 2.25,-15.859C2.25,-18.016 2.645,-20.078 3.438,-22.047C4.227,-24.023 5.352,-25.785 6.812,-27.328C8.25,-28.828 10.062,-30.039 12.25,-30.969C14.438,-31.906 16.883,-32.375 19.594,-32.375C22.551,-32.375 24.977,-32.016 26.875,-31.297C28.781,-30.578 30.359,-29.582 31.609,-28.312C32.816,-27.102 33.691,-25.68 34.234,-24.047C34.785,-22.41 35.062,-20.691 35.062,-18.891L35.062,-16.844L13.641,-16.844C13.641,-12.508 14.473,-9.207 16.141,-6.938C17.805,-4.676 20.457,-3.547 24.094,-3.547C26.082,-3.547 27.867,-4.086 29.453,-5.172C31.035,-6.266 32.391,-7.648 33.516,-9.328L35.922,-7.578ZM23.812,-19.625C23.812,-20.895 23.75,-22.195 23.625,-23.531C23.5,-24.863 23.273,-25.953 22.953,-26.797C22.598,-27.785 22.109,-28.535 21.484,-29.047C20.859,-29.555 20.07,-29.812 19.125,-29.812C17.488,-29.812 16.188,-28.984 15.219,-27.328C14.25,-25.68 13.723,-23.07 13.641,-19.5L23.812,-19.625Z" style="fill:rgb(36,51,47);fill-rule:nonzero;"/>
                </g>
            </g>
        </g>
        <g transform="matrix(1.333333,0,0,1.333333,0,0.000007)">
            <g transform="matrix(1,0,0,1,360.319999,154.423379)">
                <g>
                    <path d="M43.062,0L23.969,0L23.969,-2.312C24.395,-2.352 24.891,-2.406 25.453,-2.469C26.023,-2.531 26.453,-2.641 26.734,-2.797C27.172,-3.023 27.477,-3.359 27.656,-3.797C27.844,-4.242 27.938,-4.898 27.938,-5.766L27.938,-20.609C27.938,-22.785 27.531,-24.41 26.719,-25.484C25.906,-26.566 24.742,-27.109 23.234,-27.109C22.391,-27.109 21.602,-26.977 20.875,-26.719C20.145,-26.469 19.43,-26.102 18.734,-25.625C18.117,-25.195 17.625,-24.758 17.25,-24.312C16.883,-23.875 16.578,-23.484 16.328,-23.141L16.328,-6.125C16.328,-5.344 16.422,-4.723 16.609,-4.266C16.805,-3.805 17.164,-3.43 17.688,-3.141C18.008,-2.953 18.426,-2.781 18.938,-2.625C19.457,-2.477 19.961,-2.375 20.453,-2.312L20.453,0L1.172,0L1.172,-2.312C1.723,-2.352 2.254,-2.406 2.766,-2.469C3.285,-2.531 3.75,-2.641 4.156,-2.797C4.832,-3.047 5.289,-3.406 5.531,-3.875C5.77,-4.352 5.891,-4.984 5.891,-5.766L5.891,-41.125C5.891,-41.801 5.734,-42.52 5.422,-43.281C5.109,-44.039 4.664,-44.613 4.094,-45C3.664,-45.27 3.051,-45.484 2.25,-45.641C1.445,-45.797 0.727,-45.895 0.094,-45.938L0.094,-48.266L15.859,-49.078L16.328,-48.578L16.328,-26.766L16.453,-26.766C17.254,-27.484 17.977,-28.129 18.625,-28.703C19.27,-29.285 20.055,-29.875 20.984,-30.469C21.766,-30.977 22.785,-31.41 24.047,-31.766C25.305,-32.129 26.664,-32.312 28.125,-32.312C31.551,-32.312 34.125,-31.328 35.844,-29.359C37.57,-27.391 38.438,-24.801 38.438,-21.594L38.438,-6.062C38.438,-5.281 38.551,-4.656 38.781,-4.188C39.008,-3.719 39.441,-3.348 40.078,-3.078C40.461,-2.91 40.883,-2.758 41.344,-2.625C41.812,-2.5 42.383,-2.395 43.062,-2.312L43.062,0Z" style="fill:rgb(36,51,47);fill-rule:nonzero;"/>
                </g>
            </g>
        </g>
        <g transform="matrix(1.333333,0,0,1.333333,0,0.000007)">
            <g transform="matrix(1,0,0,1,404.450699,154.423379)">
                <g>
                    <path d="M38.078,-0.672C37.148,-0.266 36.051,0.102 34.781,0.438C33.508,0.781 32.164,0.953 30.75,0.953C28.156,0.953 26.242,0.566 25.016,-0.203C23.785,-0.973 22.953,-2.078 22.516,-3.516L22.328,-3.516C21.609,-2.797 20.914,-2.18 20.25,-1.672C19.582,-1.172 18.867,-0.738 18.109,-0.375C17.109,0.082 16.148,0.422 15.234,0.641C14.316,0.867 13.035,0.984 11.391,0.984C8.93,0.984 6.832,0.258 5.094,-1.188C3.363,-2.633 2.5,-4.551 2.5,-6.938C2.5,-8.312 2.688,-9.477 3.062,-10.438C3.445,-11.406 3.988,-12.258 4.688,-13C5.32,-13.676 6.055,-14.234 6.891,-14.672C7.734,-15.117 8.648,-15.535 9.641,-15.922C11.547,-16.617 13.828,-17.344 16.484,-18.094C19.148,-18.844 21.098,-19.516 22.328,-20.109L22.328,-23.141C22.328,-23.672 22.281,-24.367 22.188,-25.234C22.102,-26.109 21.926,-26.836 21.656,-27.422C21.363,-28.098 20.898,-28.672 20.266,-29.141C19.629,-29.609 18.789,-29.844 17.75,-29.844C16.82,-29.844 16.047,-29.707 15.422,-29.438C14.797,-29.176 14.297,-28.906 13.922,-28.625C13.984,-28.207 14.16,-27.562 14.453,-26.688C14.754,-25.82 14.906,-24.988 14.906,-24.188C14.906,-23.832 14.805,-23.383 14.609,-22.844C14.422,-22.301 14.148,-21.875 13.797,-21.562C13.305,-21.133 12.758,-20.805 12.156,-20.578C11.551,-20.348 10.629,-20.234 9.391,-20.234C7.609,-20.234 6.266,-20.66 5.359,-21.516C4.453,-22.367 4,-23.484 4,-24.859C4,-26.047 4.469,-27.109 5.406,-28.047C6.344,-28.984 7.488,-29.758 8.844,-30.375C10.176,-31.008 11.707,-31.5 13.438,-31.844C15.176,-32.195 16.785,-32.375 18.266,-32.375C20.316,-32.375 22.195,-32.25 23.906,-32C25.613,-31.758 27.156,-31.258 28.531,-30.5C29.844,-29.758 30.883,-28.688 31.656,-27.281C32.426,-25.875 32.812,-24.039 32.812,-21.781C32.812,-19.395 32.766,-16.562 32.672,-13.281C32.578,-10.008 32.531,-7.852 32.531,-6.812C32.531,-5.863 32.672,-5.113 32.953,-4.562C33.242,-4.008 33.688,-3.598 34.281,-3.328C34.633,-3.16 35.195,-3.062 35.969,-3.031C36.738,-3 37.441,-2.984 38.078,-2.984L38.078,-0.672ZM22.328,-17.188C21.141,-16.781 19.961,-16.316 18.797,-15.797C17.641,-15.285 16.691,-14.742 15.953,-14.172C15.172,-13.578 14.555,-12.82 14.109,-11.906C13.66,-10.988 13.438,-9.906 13.438,-8.656C13.438,-7.008 13.812,-5.816 14.562,-5.078C15.32,-4.336 16.25,-3.969 17.344,-3.969C18.508,-3.969 19.469,-4.203 20.219,-4.672C20.969,-5.148 21.629,-5.738 22.203,-6.438L22.328,-17.188Z" style="fill:rgb(36,51,47);fill-rule:nonzero;"/>
                </g>
            </g>
        </g>
        <g transform="matrix(1.333333,0,0,1.333333,0,0.000007)">
            <g transform="matrix(1,0,0,1,443.128534,154.423379)">
                <g>
                    <path d="M39.672,-15.5C39.672,-10.75 38.098,-6.805 34.953,-3.672C31.816,-0.547 27.836,1.016 23.016,1.016C21.16,1.016 19.562,0.879 18.219,0.609C16.875,0.348 15.738,0.031 14.812,-0.344C13.832,-0.75 13.051,-1.145 12.469,-1.531C11.895,-1.926 11.438,-2.25 11.094,-2.5L6.562,1.609L4.688,0.891C4.789,-0.648 4.879,-2.32 4.953,-4.125C5.035,-5.938 5.078,-8.379 5.078,-11.453L5.078,-41.125C5.078,-41.926 4.91,-42.672 4.578,-43.359C4.254,-44.047 3.816,-44.57 3.266,-44.938C2.859,-45.188 2.27,-45.406 1.5,-45.594C0.727,-45.781 0.016,-45.895 -0.641,-45.938L-0.641,-48.266L15.031,-49.078L15.5,-48.578L15.5,-27.969L15.703,-27.969C17.242,-29.469 18.828,-30.566 20.453,-31.266C22.078,-31.961 23.703,-32.312 25.328,-32.312C29.773,-32.312 33.273,-30.797 35.828,-27.766C38.391,-24.742 39.672,-20.656 39.672,-15.5ZM28.281,-15.125C28.281,-16.727 28.156,-18.273 27.906,-19.766C27.664,-21.254 27.266,-22.57 26.703,-23.719C26.129,-24.852 25.375,-25.766 24.438,-26.453C23.508,-27.141 22.359,-27.484 20.984,-27.484C19.703,-27.484 18.633,-27.27 17.781,-26.844C16.938,-26.426 16.176,-25.805 15.5,-24.984L15.5,-6.531C15.633,-6.102 15.875,-5.547 16.219,-4.859C16.562,-4.18 16.914,-3.648 17.281,-3.266C17.789,-2.711 18.328,-2.289 18.891,-2C19.461,-1.719 20.27,-1.578 21.312,-1.578C23.469,-1.578 25.164,-2.754 26.406,-5.109C27.656,-7.473 28.281,-10.812 28.281,-15.125Z" style="fill:rgb(36,51,47);fill-rule:nonzero;"/>
                </g>
            </g>
        </g>
        <g transform="matrix(1.333333,0,0,1.333333,18.666667,270.666674)">
            <g>
                <g transform="matrix(1,0,0,1,0.291334,32.453831)">
                    <g>
                        <path d="M10.625,0.359C8.852,0.359 7.289,-0.051 5.938,-0.875C4.582,-1.695 3.52,-2.879 2.75,-4.422C1.977,-5.973 1.594,-7.836 1.594,-10.016C1.594,-11.617 1.82,-13.062 2.281,-14.344C2.738,-15.625 3.379,-16.719 4.203,-17.625C5.023,-18.531 5.992,-19.219 7.109,-19.688C8.234,-20.156 9.457,-20.391 10.781,-20.391C12.164,-20.391 13.328,-20.133 14.266,-19.625C15.211,-19.125 15.973,-18.555 16.547,-17.922L15.141,-16.328C14.648,-16.859 14.062,-17.297 13.375,-17.641C12.695,-17.992 11.852,-18.172 10.844,-18.172C9.5,-18.172 8.328,-17.836 7.328,-17.172C6.328,-16.516 5.555,-15.582 5.016,-14.375C4.484,-13.176 4.219,-11.742 4.219,-10.078C4.219,-8.391 4.473,-6.93 4.984,-5.703C5.504,-4.484 6.258,-3.535 7.25,-2.859C8.238,-2.191 9.445,-1.859 10.875,-1.859C11.582,-1.859 12.258,-1.961 12.906,-2.172C13.562,-2.391 14.082,-2.68 14.469,-3.047L14.469,-8.281L10.234,-8.281L10.234,-10.375L16.797,-10.375L16.797,-1.953C16.16,-1.285 15.305,-0.734 14.234,-0.297C13.172,0.141 11.969,0.359 10.625,0.359Z" style="fill:rgb(36,51,47);fill-rule:nonzero;"/>
                    </g>
                </g>
            </g>
            <g>
                <g transform="matrix(1,0,0,1,19.130276,32.453831)">
                    <g>
                        <path d="M6.844,0.359C5.27,0.359 4.125,-0.129 3.406,-1.109C2.688,-2.098 2.328,-3.539 2.328,-5.438L2.328,-14.844L4.828,-14.844L4.828,-5.766C4.828,-4.379 5.047,-3.375 5.484,-2.75C5.922,-2.133 6.629,-1.828 7.609,-1.828C8.359,-1.828 9.031,-2.023 9.625,-2.422C10.227,-2.816 10.891,-3.445 11.609,-4.312L11.609,-14.844L14.109,-14.844L14.109,0L12.031,0L11.812,-2.328L11.719,-2.328C11.051,-1.504 10.32,-0.848 9.531,-0.359C8.75,0.117 7.852,0.359 6.844,0.359Z" style="fill:rgb(36,51,47);fill-rule:nonzero;"/>
                    </g>
                </g>
            </g>
            <g>
                <g transform="matrix(1,0,0,1,35.740317,32.453831)">
                    <g>
                        <path d="M2.5,0L2.5,-14.844L5,-14.844L5,0L2.5,0ZM3.75,-17.891C3.258,-17.891 2.859,-18.039 2.547,-18.344C2.234,-18.656 2.078,-19.055 2.078,-19.547C2.078,-20.023 2.234,-20.414 2.547,-20.719C2.859,-21.031 3.258,-21.188 3.75,-21.188C4.238,-21.188 4.641,-21.031 4.953,-20.719C5.266,-20.414 5.422,-20.023 5.422,-19.547C5.422,-19.055 5.266,-18.656 4.953,-18.344C4.641,-18.039 4.238,-17.891 3.75,-17.891Z" style="fill:rgb(36,51,47);fill-rule:nonzero;"/>
                    </g>
                </g>
            </g>
            <g>
                <g transform="matrix(1,0,0,1,43.251463,32.453831)">
                    <g>
                        <path d="M7.578,0.359C5.703,0.359 4.207,-0.312 3.094,-1.656C1.988,-3.008 1.438,-4.922 1.438,-7.391C1.438,-8.992 1.734,-10.379 2.328,-11.547C2.93,-12.723 3.723,-13.625 4.703,-14.25C5.68,-14.883 6.738,-15.203 7.875,-15.203C8.75,-15.203 9.492,-15.051 10.109,-14.75C10.734,-14.457 11.375,-14.039 12.031,-13.5L11.906,-16.031L11.906,-21.734L14.438,-21.734L14.438,0L12.359,0L12.156,-1.734L12.062,-1.734C11.488,-1.172 10.816,-0.68 10.047,-0.266C9.273,0.148 8.453,0.359 7.578,0.359ZM8.125,-1.734C8.812,-1.734 9.457,-1.906 10.062,-2.25C10.676,-2.602 11.289,-3.113 11.906,-3.781L11.906,-11.547C11.289,-12.109 10.688,-12.504 10.094,-12.734C9.508,-12.973 8.91,-13.094 8.297,-13.094C7.504,-13.094 6.785,-12.852 6.141,-12.375C5.504,-11.895 4.992,-11.234 4.609,-10.391C4.223,-9.547 4.031,-8.555 4.031,-7.422C4.031,-5.648 4.383,-4.258 5.094,-3.25C5.812,-2.238 6.82,-1.734 8.125,-1.734Z" style="fill:rgb(36,51,47);fill-rule:nonzero;"/>
                    </g>
                </g>
            </g>
            <g>
                <g transform="matrix(1,0,0,1,60.19736,32.453831)">
                    <g>
                        <path d="M8.516,0.359C7.191,0.359 5.984,0.051 4.891,-0.562C3.805,-1.188 2.945,-2.07 2.312,-3.219C1.688,-4.375 1.375,-5.773 1.375,-7.422C1.375,-9.023 1.695,-10.406 2.344,-11.562C3,-12.727 3.832,-13.625 4.844,-14.25C5.863,-14.883 6.945,-15.203 8.094,-15.203C9.352,-15.203 10.426,-14.91 11.312,-14.328C12.195,-13.754 12.863,-12.945 13.312,-11.906C13.758,-10.863 13.984,-9.645 13.984,-8.25C13.984,-7.977 13.977,-7.719 13.969,-7.469C13.957,-7.227 13.922,-6.988 13.859,-6.75L3.172,-6.75L3.172,-8.734L11.719,-8.734C11.719,-10.16 11.406,-11.254 10.781,-12.016C10.164,-12.773 9.281,-13.156 8.125,-13.156C7.445,-13.156 6.781,-12.969 6.125,-12.594C5.477,-12.219 4.945,-11.613 4.531,-10.781C4.113,-9.945 3.906,-8.836 3.906,-7.453C3.906,-6.191 4.125,-5.129 4.562,-4.266C5,-3.41 5.594,-2.766 6.344,-2.328C7.102,-1.891 7.93,-1.672 8.828,-1.672C9.535,-1.672 10.195,-1.773 10.812,-1.984C11.438,-2.191 12.004,-2.469 12.516,-2.812L13.438,-1.156C12.781,-0.707 12.051,-0.344 11.25,-0.062C10.445,0.219 9.535,0.359 8.516,0.359Z" style="fill:rgb(36,51,47);fill-rule:nonzero;"/>
                    </g>
                </g>
            </g>
            <g>
                <g transform="matrix(1,0,0,1,75.341805,32.453831)">
                    <g>
                        <path d="M7.578,0.359C5.703,0.359 4.207,-0.312 3.094,-1.656C1.988,-3.008 1.438,-4.922 1.438,-7.391C1.438,-8.992 1.734,-10.379 2.328,-11.547C2.93,-12.723 3.723,-13.625 4.703,-14.25C5.68,-14.883 6.738,-15.203 7.875,-15.203C8.75,-15.203 9.492,-15.051 10.109,-14.75C10.734,-14.457 11.375,-14.039 12.031,-13.5L11.906,-16.031L11.906,-21.734L14.438,-21.734L14.438,0L12.359,0L12.156,-1.734L12.062,-1.734C11.488,-1.172 10.816,-0.68 10.047,-0.266C9.273,0.148 8.453,0.359 7.578,0.359ZM8.125,-1.734C8.812,-1.734 9.457,-1.906 10.062,-2.25C10.676,-2.602 11.289,-3.113 11.906,-3.781L11.906,-11.547C11.289,-12.109 10.688,-12.504 10.094,-12.734C9.508,-12.973 8.91,-13.094 8.297,-13.094C7.504,-13.094 6.785,-12.852 6.141,-12.375C5.504,-11.895 4.992,-11.234 4.609,-10.391C4.223,-9.547 4.031,-8.555 4.031,-7.422C4.031,-5.648 4.383,-4.258 5.094,-3.25C5.812,-2.238 6.82,-1.734 8.125,-1.734Z" style="fill:rgb(36,51,47);fill-rule:nonzero;"/>
                    </g>
                </g>
            </g>
            <g>
                <g transform="matrix(1,0,0,1,98.394328,32.453831)">
                    <g>
                        <path d="M9.062,0.359C8.375,0.359 7.66,0.191 6.922,-0.141C6.191,-0.473 5.492,-0.938 4.828,-1.531L4.734,-1.531L4.516,0L2.5,0L2.5,-21.734L5,-21.734L5,-15.812L4.953,-13.125C5.617,-13.719 6.352,-14.211 7.156,-14.609C7.957,-15.004 8.77,-15.203 9.594,-15.203C10.875,-15.203 11.953,-14.891 12.828,-14.266C13.703,-13.648 14.363,-12.773 14.812,-11.641C15.258,-10.516 15.484,-9.188 15.484,-7.656C15.484,-5.969 15.18,-4.523 14.578,-3.328C13.973,-2.129 13.18,-1.211 12.203,-0.578C11.234,0.047 10.188,0.359 9.062,0.359ZM8.641,-1.734C9.453,-1.734 10.176,-1.969 10.812,-2.438C11.457,-2.906 11.961,-3.582 12.328,-4.469C12.703,-5.352 12.891,-6.406 12.891,-7.625C12.891,-8.707 12.754,-9.66 12.484,-10.484C12.223,-11.305 11.805,-11.945 11.234,-12.406C10.66,-12.863 9.906,-13.094 8.969,-13.094C8.363,-13.094 7.727,-12.926 7.062,-12.594C6.406,-12.258 5.719,-11.754 5,-11.078L5,-3.297C5.656,-2.723 6.301,-2.316 6.938,-2.078C7.582,-1.848 8.148,-1.734 8.641,-1.734Z" style="fill:rgb(36,51,47);fill-rule:nonzero;"/>
                    </g>
                </g>
            </g>
            <g>
                <g transform="matrix(1,0,0,1,115.156996,32.453831)">
                    <g>
                        <path d="M2.75,6.375C2.426,6.375 2.113,6.344 1.812,6.281C1.52,6.227 1.25,6.16 1,6.078L1.562,4.125C1.738,4.188 1.914,4.234 2.094,4.266C2.281,4.297 2.457,4.312 2.625,4.312C3.477,4.312 4.176,4.008 4.719,3.406C5.258,2.801 5.68,2.039 5.984,1.125L6.312,0.031L0.359,-14.844L2.969,-14.844L5.984,-6.625C6.223,-5.988 6.461,-5.305 6.703,-4.578C6.953,-3.848 7.191,-3.133 7.422,-2.438L7.547,-2.438C7.766,-3.133 7.977,-3.844 8.188,-4.562C8.406,-5.281 8.609,-5.969 8.797,-6.625L11.453,-14.844L13.891,-14.844L8.297,1.219C7.953,2.195 7.535,3.078 7.047,3.859C6.555,4.641 5.969,5.254 5.281,5.703C4.594,6.148 3.75,6.375 2.75,6.375Z" style="fill:rgb(36,51,47);fill-rule:nonzero;"/>
                    </g>
                </g>
            </g>
            <g>
                <g transform="matrix(1,0,0,1,135.52261,32.453831)">
                    <g>
                        <path d="M8.516,0.359C7.191,0.359 5.984,0.051 4.891,-0.562C3.805,-1.188 2.945,-2.07 2.312,-3.219C1.688,-4.375 1.375,-5.773 1.375,-7.422C1.375,-9.023 1.695,-10.406 2.344,-11.562C3,-12.727 3.832,-13.625 4.844,-14.25C5.863,-14.883 6.945,-15.203 8.094,-15.203C9.352,-15.203 10.426,-14.91 11.312,-14.328C12.195,-13.754 12.863,-12.945 13.312,-11.906C13.758,-10.863 13.984,-9.645 13.984,-8.25C13.984,-7.977 13.977,-7.719 13.969,-7.469C13.957,-7.227 13.922,-6.988 13.859,-6.75L3.172,-6.75L3.172,-8.734L11.719,-8.734C11.719,-10.16 11.406,-11.254 10.781,-12.016C10.164,-12.773 9.281,-13.156 8.125,-13.156C7.445,-13.156 6.781,-12.969 6.125,-12.594C5.477,-12.219 4.945,-11.613 4.531,-10.781C4.113,-9.945 3.906,-8.836 3.906,-7.453C3.906,-6.191 4.125,-5.129 4.562,-4.266C5,-3.41 5.594,-2.766 6.344,-2.328C7.102,-1.891 7.93,-1.672 8.828,-1.672C9.535,-1.672 10.195,-1.773 10.812,-1.984C11.438,-2.191 12.004,-2.469 12.516,-2.812L13.438,-1.156C12.781,-0.707 12.051,-0.344 11.25,-0.062C10.445,0.219 9.535,0.359 8.516,0.359Z" style="fill:rgb(36,51,47);fill-rule:nonzero;"/>
                    </g>
                </g>
            </g>
            <g>
                <g transform="matrix(1,0,0,1,150.453309,32.453831)">
                    <g>
                        <path d="M0.422,0L5.281,-7.75L0.797,-14.844L3.516,-14.844L5.5,-11.578C5.719,-11.18 5.953,-10.773 6.203,-10.359C6.461,-9.941 6.719,-9.52 6.969,-9.094L7.078,-9.094C7.305,-9.52 7.531,-9.941 7.75,-10.359C7.977,-10.773 8.203,-11.18 8.422,-11.578L10.234,-14.844L12.859,-14.844L8.359,-7.484L13.188,0L10.469,0L8.297,-3.453C8.035,-3.898 7.766,-4.348 7.484,-4.797C7.211,-5.242 6.945,-5.68 6.688,-6.109L6.562,-6.109C6.301,-5.68 6.047,-5.25 5.797,-4.812C5.555,-4.375 5.312,-3.922 5.062,-3.453L3.047,0L0.422,0Z" style="fill:rgb(36,51,47);fill-rule:nonzero;"/>
                    </g>
                </g>
            </g>
            <g>
                <g transform="matrix(1,0,0,1,164.071082,32.453831)">
                    <g>
                        <path d="M2.5,6.266L2.5,-14.844L4.578,-14.844L4.797,-13.125L4.891,-13.125C5.555,-13.695 6.297,-14.188 7.109,-14.594C7.922,-15 8.758,-15.203 9.625,-15.203C10.883,-15.203 11.953,-14.891 12.828,-14.266C13.703,-13.648 14.363,-12.773 14.812,-11.641C15.258,-10.516 15.484,-9.176 15.484,-7.625C15.484,-5.957 15.18,-4.523 14.578,-3.328C13.973,-2.129 13.18,-1.211 12.203,-0.578C11.234,0.047 10.188,0.359 9.062,0.359C8.395,0.359 7.711,0.207 7.016,-0.094C6.328,-0.395 5.641,-0.812 4.953,-1.344L5,1.25L5,6.266L2.5,6.266ZM8.641,-1.734C9.453,-1.734 10.176,-1.969 10.812,-2.438C11.457,-2.906 11.961,-3.582 12.328,-4.469C12.703,-5.352 12.891,-6.406 12.891,-7.625C12.891,-8.707 12.754,-9.66 12.484,-10.484C12.223,-11.305 11.805,-11.945 11.234,-12.406C10.66,-12.863 9.906,-13.094 8.969,-13.094C8.363,-13.094 7.734,-12.926 7.078,-12.594C6.43,-12.258 5.738,-11.754 5,-11.078L5,-3.297C5.695,-2.723 6.352,-2.316 6.969,-2.078C7.594,-1.848 8.148,-1.734 8.641,-1.734Z" style="fill:rgb(36,51,47);fill-rule:nonzero;"/>
                    </g>
                </g>
            </g>
            <g>
                <g transform="matrix(1,0,0,1,181.016978,32.453831)">
                    <g>
                        <path d="M8.516,0.359C7.191,0.359 5.984,0.051 4.891,-0.562C3.805,-1.188 2.945,-2.07 2.312,-3.219C1.688,-4.375 1.375,-5.773 1.375,-7.422C1.375,-9.023 1.695,-10.406 2.344,-11.562C3,-12.727 3.832,-13.625 4.844,-14.25C5.863,-14.883 6.945,-15.203 8.094,-15.203C9.352,-15.203 10.426,-14.91 11.312,-14.328C12.195,-13.754 12.863,-12.945 13.312,-11.906C13.758,-10.863 13.984,-9.645 13.984,-8.25C13.984,-7.977 13.977,-7.719 13.969,-7.469C13.957,-7.227 13.922,-6.988 13.859,-6.75L3.172,-6.75L3.172,-8.734L11.719,-8.734C11.719,-10.16 11.406,-11.254 10.781,-12.016C10.164,-12.773 9.281,-13.156 8.125,-13.156C7.445,-13.156 6.781,-12.969 6.125,-12.594C5.477,-12.219 4.945,-11.613 4.531,-10.781C4.113,-9.945 3.906,-8.836 3.906,-7.453C3.906,-6.191 4.125,-5.129 4.562,-4.266C5,-3.41 5.594,-2.766 6.344,-2.328C7.102,-1.891 7.93,-1.672 8.828,-1.672C9.535,-1.672 10.195,-1.773 10.812,-1.984C11.438,-2.191 12.004,-2.469 12.516,-2.812L13.438,-1.156C12.781,-0.707 12.051,-0.344 11.25,-0.062C10.445,0.219 9.535,0.359 8.516,0.359Z" style="fill:rgb(36,51,47);fill-rule:nonzero;"/>
                    </g>
                </g>
            </g>
            <g>
                <g transform="matrix(1,0,0,1,196.161424,32.453831)">
                    <g>
                        <path d="M2.5,0L2.5,-14.844L4.578,-14.844L4.797,-12.156L4.891,-12.156C5.379,-13.094 5.988,-13.832 6.719,-14.375C7.445,-14.926 8.238,-15.203 9.094,-15.203C9.426,-15.203 9.711,-15.18 9.953,-15.141C10.191,-15.098 10.438,-15.02 10.688,-14.906L10.141,-12.766C9.91,-12.828 9.695,-12.867 9.5,-12.891C9.312,-12.922 9.066,-12.938 8.766,-12.938C8.129,-12.938 7.469,-12.68 6.781,-12.172C6.102,-11.672 5.508,-10.789 5,-9.531L5,0L2.5,0Z" style="fill:rgb(36,51,47);fill-rule:nonzero;"/>
                    </g>
                </g>
            </g>
            <g>
                <g transform="matrix(1,0,0,1,206.756432,32.453831)">
                    <g>
                        <path d="M2.5,0L2.5,-14.844L5,-14.844L5,0L2.5,0ZM3.75,-17.891C3.258,-17.891 2.859,-18.039 2.547,-18.344C2.234,-18.656 2.078,-19.055 2.078,-19.547C2.078,-20.023 2.234,-20.414 2.547,-20.719C2.859,-21.031 3.258,-21.188 3.75,-21.188C4.238,-21.188 4.641,-21.031 4.953,-20.719C5.266,-20.414 5.422,-20.023 5.422,-19.547C5.422,-19.055 5.266,-18.656 4.953,-18.344C4.641,-18.039 4.238,-17.891 3.75,-17.891Z" style="fill:rgb(36,51,47);fill-rule:nonzero;"/>
                    </g>
                </g>
            </g>
            <g>
                <g transform="matrix(1,0,0,1,214.267578,32.453831)">
                    <g>
                        <path d="M8.516,0.359C7.191,0.359 5.984,0.051 4.891,-0.562C3.805,-1.188 2.945,-2.07 2.312,-3.219C1.688,-4.375 1.375,-5.773 1.375,-7.422C1.375,-9.023 1.695,-10.406 2.344,-11.562C3,-12.727 3.832,-13.625 4.844,-14.25C5.863,-14.883 6.945,-15.203 8.094,-15.203C9.352,-15.203 10.426,-14.91 11.312,-14.328C12.195,-13.754 12.863,-12.945 13.312,-11.906C13.758,-10.863 13.984,-9.645 13.984,-8.25C13.984,-7.977 13.977,-7.719 13.969,-7.469C13.957,-7.227 13.922,-6.988 13.859,-6.75L3.172,-6.75L3.172,-8.734L11.719,-8.734C11.719,-10.16 11.406,-11.254 10.781,-12.016C10.164,-12.773 9.281,-13.156 8.125,-13.156C7.445,-13.156 6.781,-12.969 6.125,-12.594C5.477,-12.219 4.945,-11.613 4.531,-10.781C4.113,-9.945 3.906,-8.836 3.906,-7.453C3.906,-6.191 4.125,-5.129 4.562,-4.266C5,-3.41 5.594,-2.766 6.344,-2.328C7.102,-1.891 7.93,-1.672 8.828,-1.672C9.535,-1.672 10.195,-1.773 10.812,-1.984C11.438,-2.191 12.004,-2.469 12.516,-2.812L13.438,-1.156C12.781,-0.707 12.051,-0.344 11.25,-0.062C10.445,0.219 9.535,0.359 8.516,0.359Z" style="fill:rgb(36,51,47);fill-rule:nonzero;"/>
                    </g>
                </g>
            </g>
            <g>
                <g transform="matrix(1,0,0,1,229.412023,32.453831)">
                    <g>
                        <path d="M2.5,0L2.5,-14.844L4.578,-14.844L4.797,-12.703L4.891,-12.703C5.598,-13.41 6.348,-14.004 7.141,-14.484C7.93,-14.961 8.836,-15.203 9.859,-15.203C11.43,-15.203 12.578,-14.707 13.297,-13.719C14.016,-12.738 14.375,-11.301 14.375,-9.406L14.375,0L11.875,0L11.875,-9.062C11.875,-10.469 11.656,-11.477 11.219,-12.094C10.781,-12.719 10.062,-13.031 9.062,-13.031C8.312,-13.031 7.633,-12.836 7.031,-12.453C6.438,-12.066 5.758,-11.5 5,-10.75L5,0L2.5,0Z" style="fill:rgb(36,51,47);fill-rule:nonzero;"/>
                    </g>
                </g>
            </g>
            <g>
                <g transform="matrix(1,0,0,1,246.113657,32.453831)">
                    <g>
                        <path d="M8.391,0.359C7.066,0.359 5.875,0.055 4.812,-0.547C3.758,-1.16 2.926,-2.047 2.312,-3.203C1.707,-4.367 1.406,-5.766 1.406,-7.391C1.406,-9.055 1.734,-10.469 2.391,-11.625C3.055,-12.789 3.93,-13.676 5.016,-14.281C6.109,-14.895 7.285,-15.203 8.547,-15.203C9.523,-15.203 10.363,-15.039 11.062,-14.719C11.77,-14.395 12.379,-13.977 12.891,-13.469L11.625,-11.906C11.258,-12.27 10.828,-12.555 10.328,-12.766C9.836,-12.984 9.273,-13.094 8.641,-13.094C7.766,-13.094 6.973,-12.852 6.266,-12.375C5.566,-11.895 5.016,-11.227 4.609,-10.375C4.203,-9.52 4,-8.523 4,-7.391C4,-6.266 4.191,-5.273 4.578,-4.422C4.961,-3.566 5.5,-2.898 6.188,-2.422C6.883,-1.941 7.691,-1.703 8.609,-1.703C9.297,-1.703 9.938,-1.832 10.531,-2.094C11.125,-2.363 11.633,-2.703 12.062,-3.109L13.156,-1.594C12.531,-1 11.816,-0.523 11.016,-0.172C10.223,0.18 9.348,0.359 8.391,0.359Z" style="fill:rgb(36,51,47);fill-rule:nonzero;"/>
                    </g>
                </g>
            </g>
            <g>
                <g transform="matrix(1,0,0,1,259.395509,32.453831)">
                    <g>
                        <path d="M8.516,0.359C7.191,0.359 5.984,0.051 4.891,-0.562C3.805,-1.188 2.945,-2.07 2.312,-3.219C1.688,-4.375 1.375,-5.773 1.375,-7.422C1.375,-9.023 1.695,-10.406 2.344,-11.562C3,-12.727 3.832,-13.625 4.844,-14.25C5.863,-14.883 6.945,-15.203 8.094,-15.203C9.352,-15.203 10.426,-14.91 11.312,-14.328C12.195,-13.754 12.863,-12.945 13.312,-11.906C13.758,-10.863 13.984,-9.645 13.984,-8.25C13.984,-7.977 13.977,-7.719 13.969,-7.469C13.957,-7.227 13.922,-6.988 13.859,-6.75L3.172,-6.75L3.172,-8.734L11.719,-8.734C11.719,-10.16 11.406,-11.254 10.781,-12.016C10.164,-12.773 9.281,-13.156 8.125,-13.156C7.445,-13.156 6.781,-12.969 6.125,-12.594C5.477,-12.219 4.945,-11.613 4.531,-10.781C4.113,-9.945 3.906,-8.836 3.906,-7.453C3.906,-6.191 4.125,-5.129 4.562,-4.266C5,-3.41 5.594,-2.766 6.344,-2.328C7.102,-1.891 7.93,-1.672 8.828,-1.672C9.535,-1.672 10.195,-1.773 10.812,-1.984C11.438,-2.191 12.004,-2.469 12.516,-2.812L13.438,-1.156C12.781,-0.707 12.051,-0.344 11.25,-0.062C10.445,0.219 9.535,0.359 8.516,0.359Z" style="fill:rgb(36,51,47);fill-rule:nonzero;"/>
                    </g>
                </g>
            </g>
            <g>
                <g transform="matrix(1,0,0,1,274.539954,32.453831)">
                    <g>
                        <path d="M3.812,0.359C3.32,0.359 2.895,0.18 2.531,-0.172C2.164,-0.523 1.984,-0.977 1.984,-1.531C1.984,-2.113 2.164,-2.582 2.531,-2.938C2.895,-3.301 3.32,-3.484 3.812,-3.484C4.32,-3.484 4.75,-3.301 5.094,-2.938C5.445,-2.582 5.625,-2.113 5.625,-1.531C5.625,-0.977 5.445,-0.523 5.094,-0.172C4.75,0.18 4.32,0.359 3.812,0.359Z" style="fill:rgb(36,51,47);fill-rule:nonzero;"/>
                    </g>
                </g>
            </g>
            <g>
                <g transform="matrix(1,0,0,1,288.249341,32.453831)">
                    <g>
                        <path d="M2.75,0L2.75,-20.031L7.75,-20.031C9.812,-20.031 11.539,-19.641 12.938,-18.859C14.344,-18.086 15.406,-16.961 16.125,-15.484C16.852,-14.016 17.219,-12.223 17.219,-10.109C17.219,-7.992 16.852,-6.176 16.125,-4.656C15.406,-3.133 14.352,-1.977 12.969,-1.188C11.594,-0.395 9.895,0 7.875,0L2.75,0ZM5.281,-2.078L7.578,-2.078C9.141,-2.078 10.438,-2.395 11.469,-3.031C12.508,-3.676 13.285,-4.586 13.797,-5.766C14.305,-6.953 14.562,-8.398 14.562,-10.109C14.562,-11.773 14.305,-13.195 13.797,-14.375C13.285,-15.562 12.508,-16.453 11.469,-17.047C10.438,-17.648 9.141,-17.953 7.578,-17.953L5.281,-17.953L5.281,-2.078Z" style="fill:rgb(36,51,47);fill-rule:nonzero;"/>
                    </g>
                </g>
            </g>
            <g>
                <g transform="matrix(1,0,0,1,307.027228,32.453831)">
                    <g>
                        <path d="M2.5,0L2.5,-14.844L4.578,-14.844L4.797,-12.156L4.891,-12.156C5.379,-13.094 5.988,-13.832 6.719,-14.375C7.445,-14.926 8.238,-15.203 9.094,-15.203C9.426,-15.203 9.711,-15.18 9.953,-15.141C10.191,-15.098 10.438,-15.02 10.688,-14.906L10.141,-12.766C9.91,-12.828 9.695,-12.867 9.5,-12.891C9.312,-12.922 9.066,-12.938 8.766,-12.938C8.129,-12.938 7.469,-12.68 6.781,-12.172C6.102,-11.672 5.508,-10.789 5,-9.531L5,0L2.5,0Z" style="fill:rgb(36,51,47);fill-rule:nonzero;"/>
                    </g>
                </g>
            </g>
            <g>
                <g transform="matrix(1,0,0,1,317.622236,32.453831)">
                    <g>
                        <path d="M2.5,0L2.5,-14.844L5,-14.844L5,0L2.5,0ZM3.75,-17.891C3.258,-17.891 2.859,-18.039 2.547,-18.344C2.234,-18.656 2.078,-19.055 2.078,-19.547C2.078,-20.023 2.234,-20.414 2.547,-20.719C2.859,-21.031 3.258,-21.188 3.75,-21.188C4.238,-21.188 4.641,-21.031 4.953,-20.719C5.266,-20.414 5.422,-20.023 5.422,-19.547C5.422,-19.055 5.266,-18.656 4.953,-18.344C4.641,-18.039 4.238,-17.891 3.75,-17.891Z" style="fill:rgb(36,51,47);fill-rule:nonzero;"/>
                    </g>
                </g>
            </g>
            <g>
                <g transform="matrix(1,0,0,1,325.133382,32.453831)">
                    <g>
                        <path d="M5.703,0L0.359,-14.844L2.969,-14.844L5.766,-6.406C5.992,-5.695 6.223,-4.969 6.453,-4.219C6.691,-3.477 6.922,-2.754 7.141,-2.047L7.266,-2.047C7.473,-2.754 7.695,-3.477 7.938,-4.219C8.176,-4.969 8.398,-5.695 8.609,-6.406L11.422,-14.844L13.891,-14.844L8.641,0L5.703,0Z" style="fill:rgb(36,51,47);fill-rule:nonzero;"/>
                    </g>
                </g>
            </g>
            <g>
                <g transform="matrix(1,0,0,1,339.270218,32.453831)">
                    <g>
                        <path d="M8.516,0.359C7.191,0.359 5.984,0.051 4.891,-0.562C3.805,-1.188 2.945,-2.07 2.312,-3.219C1.688,-4.375 1.375,-5.773 1.375,-7.422C1.375,-9.023 1.695,-10.406 2.344,-11.562C3,-12.727 3.832,-13.625 4.844,-14.25C5.863,-14.883 6.945,-15.203 8.094,-15.203C9.352,-15.203 10.426,-14.91 11.312,-14.328C12.195,-13.754 12.863,-12.945 13.312,-11.906C13.758,-10.863 13.984,-9.645 13.984,-8.25C13.984,-7.977 13.977,-7.719 13.969,-7.469C13.957,-7.227 13.922,-6.988 13.859,-6.75L3.172,-6.75L3.172,-8.734L11.719,-8.734C11.719,-10.16 11.406,-11.254 10.781,-12.016C10.164,-12.773 9.281,-13.156 8.125,-13.156C7.445,-13.156 6.781,-12.969 6.125,-12.594C5.477,-12.219 4.945,-11.613 4.531,-10.781C4.113,-9.945 3.906,-8.836 3.906,-7.453C3.906,-6.191 4.125,-5.129 4.562,-4.266C5,-3.41 5.594,-2.766 6.344,-2.328C7.102,-1.891 7.93,-1.672 8.828,-1.672C9.535,-1.672 10.195,-1.773 10.812,-1.984C11.438,-2.191 12.004,-2.469 12.516,-2.812L13.438,-1.156C12.781,-0.707 12.051,-0.344 11.25,-0.062C10.445,0.219 9.535,0.359 8.516,0.359Z" style="fill:rgb(36,51,47);fill-rule:nonzero;"/>
                    </g>
                </g>
            </g>
            <g>
                <g transform="matrix(1,0,0,1,354.414663,32.453831)">
                    <g>
                        <path d="M2.5,0L2.5,-14.844L4.578,-14.844L4.797,-12.703L4.891,-12.703C5.598,-13.41 6.348,-14.004 7.141,-14.484C7.93,-14.961 8.836,-15.203 9.859,-15.203C11.43,-15.203 12.578,-14.707 13.297,-13.719C14.016,-12.738 14.375,-11.301 14.375,-9.406L14.375,0L11.875,0L11.875,-9.062C11.875,-10.469 11.656,-11.477 11.219,-12.094C10.781,-12.719 10.062,-13.031 9.062,-13.031C8.312,-13.031 7.633,-12.836 7.031,-12.453C6.438,-12.066 5.758,-11.5 5,-10.75L5,0L2.5,0Z" style="fill:rgb(36,51,47);fill-rule:nonzero;"/>
                    </g>
                </g>
            </g>
            <g>
                <g transform="matrix(1,0,0,1,377.222901,32.453831)">
                    <g>
                        <path d="M9.062,0.359C8.375,0.359 7.66,0.191 6.922,-0.141C6.191,-0.473 5.492,-0.938 4.828,-1.531L4.734,-1.531L4.516,0L2.5,0L2.5,-21.734L5,-21.734L5,-15.812L4.953,-13.125C5.617,-13.719 6.352,-14.211 7.156,-14.609C7.957,-15.004 8.77,-15.203 9.594,-15.203C10.875,-15.203 11.953,-14.891 12.828,-14.266C13.703,-13.648 14.363,-12.773 14.812,-11.641C15.258,-10.516 15.484,-9.188 15.484,-7.656C15.484,-5.969 15.18,-4.523 14.578,-3.328C13.973,-2.129 13.18,-1.211 12.203,-0.578C11.234,0.047 10.188,0.359 9.062,0.359ZM8.641,-1.734C9.453,-1.734 10.176,-1.969 10.812,-2.438C11.457,-2.906 11.961,-3.582 12.328,-4.469C12.703,-5.352 12.891,-6.406 12.891,-7.625C12.891,-8.707 12.754,-9.66 12.484,-10.484C12.223,-11.305 11.805,-11.945 11.234,-12.406C10.66,-12.863 9.906,-13.094 8.969,-13.094C8.363,-13.094 7.727,-12.926 7.062,-12.594C6.406,-12.258 5.719,-11.754 5,-11.078L5,-3.297C5.656,-2.723 6.301,-2.316 6.938,-2.078C7.582,-1.848 8.148,-1.734 8.641,-1.734Z" style="fill:rgb(36,51,47);fill-rule:nonzero;"/>
                    </g>
                </g>
            </g>
            <g>
                <g transform="matrix(1,0,0,1,393.985569,32.453831)">
                    <g>
                        <path d="M2.75,6.375C2.426,6.375 2.113,6.344 1.812,6.281C1.52,6.227 1.25,6.16 1,6.078L1.562,4.125C1.738,4.188 1.914,4.234 2.094,4.266C2.281,4.297 2.457,4.312 2.625,4.312C3.477,4.312 4.176,4.008 4.719,3.406C5.258,2.801 5.68,2.039 5.984,1.125L6.312,0.031L0.359,-14.844L2.969,-14.844L5.984,-6.625C6.223,-5.988 6.461,-5.305 6.703,-4.578C6.953,-3.848 7.191,-3.133 7.422,-2.438L7.547,-2.438C7.766,-3.133 7.977,-3.844 8.188,-4.562C8.406,-5.281 8.609,-5.969 8.797,-6.625L11.453,-14.844L13.891,-14.844L8.297,1.219C7.953,2.195 7.535,3.078 7.047,3.859C6.555,4.641 5.969,5.254 5.281,5.703C4.594,6.148 3.75,6.375 2.75,6.375Z" style="fill:rgb(36,51,47);fill-rule:nonzero;"/>
                    </g>
                </g>
            </g>
            <g>
                <g transform="matrix(1,0,0,1,414.351227,32.453831)">
                    <g>
                        <path d="M8.391,0.359C7.066,0.359 5.875,0.055 4.812,-0.547C3.758,-1.16 2.926,-2.047 2.312,-3.203C1.707,-4.367 1.406,-5.766 1.406,-7.391C1.406,-9.055 1.734,-10.469 2.391,-11.625C3.055,-12.789 3.93,-13.676 5.016,-14.281C6.109,-14.895 7.285,-15.203 8.547,-15.203C9.523,-15.203 10.363,-15.039 11.062,-14.719C11.77,-14.395 12.379,-13.977 12.891,-13.469L11.625,-11.906C11.258,-12.27 10.828,-12.555 10.328,-12.766C9.836,-12.984 9.273,-13.094 8.641,-13.094C7.766,-13.094 6.973,-12.852 6.266,-12.375C5.566,-11.895 5.016,-11.227 4.609,-10.375C4.203,-9.52 4,-8.523 4,-7.391C4,-6.266 4.191,-5.273 4.578,-4.422C4.961,-3.566 5.5,-2.898 6.188,-2.422C6.883,-1.941 7.691,-1.703 8.609,-1.703C9.297,-1.703 9.938,-1.832 10.531,-2.094C11.125,-2.363 11.633,-2.703 12.062,-3.109L13.156,-1.594C12.531,-1 11.816,-0.523 11.016,-0.172C10.223,0.18 9.348,0.359 8.391,0.359Z" style="fill:rgb(36,51,47);fill-rule:nonzero;"/>
                    </g>
                </g>
            </g>
            <g>
                <g transform="matrix(1,0,0,1,427.968934,32.453831)">
                    <g>
                        <path d="M5.922,0.359C5.109,0.359 4.367,0.191 3.703,-0.141C3.047,-0.473 2.523,-0.945 2.141,-1.562C1.754,-2.188 1.562,-2.945 1.562,-3.844C1.562,-5.508 2.289,-6.77 3.75,-7.625C5.219,-8.488 7.539,-9.094 10.719,-9.438C10.695,-10.039 10.598,-10.629 10.422,-11.203C10.254,-11.773 9.945,-12.234 9.5,-12.578C9.051,-12.922 8.426,-13.094 7.625,-13.094C6.77,-13.094 5.969,-12.938 5.219,-12.625C4.469,-12.312 3.797,-11.961 3.203,-11.578L2.234,-13.281C2.68,-13.582 3.207,-13.879 3.812,-14.172C4.426,-14.473 5.086,-14.719 5.797,-14.906C6.516,-15.102 7.27,-15.203 8.062,-15.203C9.258,-15.203 10.238,-14.953 11,-14.453C11.77,-13.953 12.332,-13.242 12.688,-12.328C13.039,-11.41 13.219,-10.332 13.219,-9.094L13.219,0L11.141,0L10.938,-1.766L10.844,-1.766C10.125,-1.18 9.359,-0.68 8.547,-0.266C7.734,0.148 6.859,0.359 5.922,0.359ZM6.625,-1.703C7.352,-1.703 8.035,-1.863 8.672,-2.188C9.316,-2.52 10,-3.004 10.719,-3.641L10.719,-7.625C9.051,-7.426 7.734,-7.164 6.766,-6.844C5.797,-6.531 5.098,-6.141 4.672,-5.672C4.242,-5.211 4.031,-4.656 4.031,-4C4.031,-3.188 4.285,-2.598 4.797,-2.234C5.305,-1.879 5.914,-1.703 6.625,-1.703Z" style="fill:rgb(36,51,47);fill-rule:nonzero;"/>
                    </g>
                </g>
            </g>
            <g>
                <g transform="matrix(1,0,0,1,443.357685,32.453831)">
                    <g>
                        <path d="M2.5,0L2.5,-14.844L4.578,-14.844L4.797,-12.156L4.891,-12.156C5.379,-13.094 5.988,-13.832 6.719,-14.375C7.445,-14.926 8.238,-15.203 9.094,-15.203C9.426,-15.203 9.711,-15.18 9.953,-15.141C10.191,-15.098 10.438,-15.02 10.688,-14.906L10.141,-12.766C9.91,-12.828 9.695,-12.867 9.5,-12.891C9.312,-12.922 9.066,-12.938 8.766,-12.938C8.129,-12.938 7.469,-12.68 6.781,-12.172C6.102,-11.672 5.508,-10.789 5,-9.531L5,0L2.5,0Z" style="fill:rgb(36,51,47);fill-rule:nonzero;"/>
                    </g>
                </g>
            </g>
            <g>
                <g transform="matrix(1,0,0,1,453.647289,32.453831)">
                    <g>
                        <path d="M8.516,0.359C7.191,0.359 5.984,0.051 4.891,-0.562C3.805,-1.188 2.945,-2.07 2.312,-3.219C1.688,-4.375 1.375,-5.773 1.375,-7.422C1.375,-9.023 1.695,-10.406 2.344,-11.562C3,-12.727 3.832,-13.625 4.844,-14.25C5.863,-14.883 6.945,-15.203 8.094,-15.203C9.352,-15.203 10.426,-14.91 11.312,-14.328C12.195,-13.754 12.863,-12.945 13.312,-11.906C13.758,-10.863 13.984,-9.645 13.984,-8.25C13.984,-7.977 13.977,-7.719 13.969,-7.469C13.957,-7.227 13.922,-6.988 13.859,-6.75L3.172,-6.75L3.172,-8.734L11.719,-8.734C11.719,-10.16 11.406,-11.254 10.781,-12.016C10.164,-12.773 9.281,-13.156 8.125,-13.156C7.445,-13.156 6.781,-12.969 6.125,-12.594C5.477,-12.219 4.945,-11.613 4.531,-10.781C4.113,-9.945 3.906,-8.836 3.906,-7.453C3.906,-6.191 4.125,-5.129 4.562,-4.266C5,-3.41 5.594,-2.766 6.344,-2.328C7.102,-1.891 7.93,-1.672 8.828,-1.672C9.535,-1.672 10.195,-1.773 10.812,-1.984C11.438,-2.191 12.004,-2.469 12.516,-2.812L13.438,-1.156C12.781,-0.707 12.051,-0.344 11.25,-0.062C10.445,0.219 9.535,0.359 8.516,0.359Z" style="fill:rgb(36,51,47);fill-rule:nonzero;"/>
                    </g>
                </g>
            </g>
            <g>
                <g transform="matrix(1,0,0,1,468.791734,32.453831)">
                    <g>
                        <path d="M3.812,0.359C3.32,0.359 2.895,0.18 2.531,-0.172C2.164,-0.523 1.984,-0.977 1.984,-1.531C1.984,-2.113 2.164,-2.582 2.531,-2.938C2.895,-3.301 3.32,-3.484 3.812,-3.484C4.32,-3.484 4.75,-3.301 5.094,-2.938C5.445,-2.582 5.625,-2.113 5.625,-1.531C5.625,-0.977 5.445,-0.523 5.094,-0.172C4.75,0.18 4.32,0.359 3.812,0.359Z" style="fill:rgb(36,51,47);fill-rule:nonzero;"/>
                    </g>
                </g>
            </g>
        </g>
    </g>
</svg>
