<svg xmlns="http://www.w3.org/2000/svg" xmlns:xlink="http://www.w3.org/1999/xlink" width="673" zoomAndPan="magnify" viewBox="0 0 504.75 191.249993" height="255" preserveAspectRatio="xMidYMid meet" version="1.0"><defs><g/></defs><g fill="#24332f" fill-opacity="1"><g transform="translate(59.025915, 86.220462)"><g><path d="M 57.84375 -45.65625 C 57.207031 -45.582031 56.296875 -45.453125 55.109375 -45.265625 C 53.929688 -45.085938 52.867188 -44.648438 51.921875 -43.953125 C 51.078125 -43.335938 50.476562 -42.285156 50.125 -40.796875 C 49.769531 -39.304688 49.59375 -37.125 49.59375 -34.25 L 49.59375 0.265625 L 43.546875 0.265625 L 13.453125 -37.078125 L 13.453125 -14.40625 C 13.453125 -11.582031 13.632812 -9.4375 14 -7.96875 C 14.375 -6.507812 14.984375 -5.441406 15.828125 -4.765625 C 16.441406 -4.265625 17.414062 -3.820312 18.75 -3.4375 C 20.09375 -3.050781 21.160156 -2.789062 21.953125 -2.65625 L 21.953125 0 L 1.1875 0 L 1.1875 -2.65625 C 2.070312 -2.71875 3.085938 -2.878906 4.234375 -3.140625 C 5.378906 -3.410156 6.335938 -3.816406 7.109375 -4.359375 C 7.992188 -5.015625 8.601562 -6.003906 8.9375 -7.328125 C 9.269531 -8.660156 9.4375 -10.894531 9.4375 -14.03125 L 9.4375 -36.90625 C 9.4375 -38.039062 9.257812 -39.113281 8.90625 -40.125 C 8.550781 -41.132812 8 -42 7.25 -42.71875 C 6.457031 -43.488281 5.546875 -44.09375 4.515625 -44.53125 C 3.484375 -44.976562 2.304688 -45.328125 0.984375 -45.578125 L 0.984375 -48.3125 L 19.171875 -48.3125 L 45.578125 -15.625 L 45.578125 -33.90625 C 45.578125 -36.8125 45.382812 -38.972656 45 -40.390625 C 44.613281 -41.804688 44.003906 -42.859375 43.171875 -43.546875 C 42.503906 -44.066406 41.523438 -44.515625 40.234375 -44.890625 C 38.941406 -45.265625 37.898438 -45.519531 37.109375 -45.65625 L 37.109375 -48.3125 L 57.84375 -48.3125 Z M 57.84375 -45.65625 "/></g></g></g><g fill="#24332f" fill-opacity="1"><g transform="translate(117.548022, 86.220462)"><g><path d="M 38.5625 -8.140625 C 37.769531 -6.847656 36.8125 -5.625 35.6875 -4.46875 C 34.570312 -3.320312 33.296875 -2.34375 31.859375 -1.53125 C 30.335938 -0.664062 28.800781 -0.0117188 27.25 0.421875 C 25.695312 0.867188 23.910156 1.09375 21.890625 1.09375 C 18.523438 1.09375 15.625 0.617188 13.1875 -0.328125 C 10.75 -1.285156 8.738281 -2.570312 7.15625 -4.1875 C 5.5625 -5.800781 4.375 -7.703125 3.59375 -9.890625 C 2.8125 -12.078125 2.421875 -14.453125 2.421875 -17.015625 C 2.421875 -19.335938 2.84375 -21.554688 3.6875 -23.671875 C 4.539062 -25.796875 5.75 -27.6875 7.3125 -29.34375 C 8.863281 -30.957031 10.8125 -32.257812 13.15625 -33.25 C 15.507812 -34.25 18.132812 -34.75 21.03125 -34.75 C 24.207031 -34.75 26.816406 -34.363281 28.859375 -33.59375 C 30.910156 -32.820312 32.601562 -31.757812 33.9375 -30.40625 C 35.226562 -29.101562 36.171875 -27.570312 36.765625 -25.8125 C 37.359375 -24.0625 37.65625 -22.222656 37.65625 -20.296875 L 37.65625 -18.078125 L 14.640625 -18.078125 C 14.640625 -13.421875 15.535156 -9.878906 17.328125 -7.453125 C 19.117188 -5.023438 21.96875 -3.8125 25.875 -3.8125 C 28.007812 -3.8125 29.925781 -4.394531 31.625 -5.5625 C 33.320312 -6.726562 34.773438 -8.210938 35.984375 -10.015625 Z M 25.5625 -21.078125 C 25.5625 -22.429688 25.492188 -23.820312 25.359375 -25.25 C 25.222656 -26.6875 24.984375 -27.859375 24.640625 -28.765625 C 24.253906 -29.828125 23.726562 -30.628906 23.0625 -31.171875 C 22.394531 -31.722656 21.550781 -32 20.53125 -32 C 18.78125 -32 17.382812 -31.113281 16.34375 -29.34375 C 15.300781 -27.570312 14.734375 -24.769531 14.640625 -20.9375 Z M 25.5625 -21.078125 "/></g></g></g><g fill="#24332f" fill-opacity="1"><g transform="translate(157.413868, 86.220462)"><g><path d="M 40.78125 0 L 19.5 0 L 19.5 -2.484375 C 20.613281 -2.554688 21.546875 -2.65625 22.296875 -2.78125 C 23.046875 -2.90625 23.421875 -3.160156 23.421875 -3.546875 C 23.421875 -3.722656 23.320312 -4.003906 23.125 -4.390625 C 22.9375 -4.773438 22.695312 -5.207031 22.40625 -5.6875 C 21.96875 -6.382812 21.222656 -7.492188 20.171875 -9.015625 C 19.117188 -10.535156 18.125 -11.945312 17.1875 -13.25 C 15.875 -11.726562 14.773438 -10.421875 13.890625 -9.328125 C 13.003906 -8.234375 12.070312 -7.066406 11.09375 -5.828125 C 10.757812 -5.410156 10.519531 -5.03125 10.375 -4.6875 C 10.238281 -4.351562 10.171875 -4.148438 10.171875 -4.078125 C 10.171875 -3.554688 10.539062 -3.160156 11.28125 -2.890625 C 12.019531 -2.617188 12.898438 -2.484375 13.921875 -2.484375 L 13.921875 0 L 0.109375 0 L 0.109375 -2.484375 C 1.941406 -2.867188 3.40625 -3.476562 4.5 -4.3125 C 5.601562 -5.15625 6.347656 -5.804688 6.734375 -6.265625 C 8.390625 -8.035156 9.789062 -9.503906 10.9375 -10.671875 C 12.082031 -11.835938 13.625 -13.476562 15.5625 -15.59375 C 14.257812 -17.382812 12.691406 -19.570312 10.859375 -22.15625 C 9.023438 -24.75 7.492188 -26.875 6.265625 -28.53125 C 5.648438 -29.34375 4.898438 -29.96875 4.015625 -30.40625 C 3.128906 -30.851562 1.984375 -31.144531 0.578125 -31.28125 L 0.578125 -33.765625 L 21.375 -33.765625 L 21.375 -31.28125 C 20.625 -31.28125 19.882812 -31.234375 19.15625 -31.140625 C 18.4375 -31.054688 18.078125 -30.898438 18.078125 -30.671875 C 18.078125 -30.492188 18.132812 -30.265625 18.25 -29.984375 C 18.363281 -29.710938 18.507812 -29.429688 18.6875 -29.140625 C 19.125 -28.410156 19.804688 -27.34375 20.734375 -25.9375 C 21.660156 -24.53125 22.660156 -23.054688 23.734375 -21.515625 C 24.753906 -22.765625 25.609375 -23.785156 26.296875 -24.578125 C 26.992188 -25.367188 27.882812 -26.492188 28.96875 -27.953125 C 29.375 -28.492188 29.628906 -28.898438 29.734375 -29.171875 C 29.835938 -29.441406 29.890625 -29.613281 29.890625 -29.6875 C 29.890625 -30.070312 29.644531 -30.414062 29.15625 -30.71875 C 28.664062 -31.03125 27.707031 -31.21875 26.28125 -31.28125 L 26.28125 -33.765625 L 39.828125 -33.765625 L 39.828125 -31.28125 C 38.710938 -31.101562 37.632812 -30.726562 36.59375 -30.15625 C 35.550781 -29.59375 34.460938 -28.707031 33.328125 -27.5 C 31.554688 -25.664062 30.265625 -24.320312 29.453125 -23.46875 C 28.648438 -22.625 27.320312 -21.210938 25.46875 -19.234375 C 26.507812 -17.753906 28.015625 -15.609375 29.984375 -12.796875 C 31.960938 -9.984375 33.664062 -7.613281 35.09375 -5.6875 C 35.707031 -4.820312 36.394531 -4.113281 37.15625 -3.5625 C 37.914062 -3.019531 39.125 -2.660156 40.78125 -2.484375 Z M 40.78125 0 "/></g></g></g><g fill="#24332f" fill-opacity="1"><g transform="translate(198.40317, 86.220462)"><g><path d="M 27.296875 -1.5625 C 25.847656 -0.925781 24.296875 -0.351562 22.640625 0.15625 C 20.984375 0.664062 18.960938 0.921875 16.578125 0.921875 C 13.035156 0.921875 10.40625 0.0585938 8.6875 -1.65625 C 6.976562 -3.382812 6.125 -5.851562 6.125 -9.0625 L 6.125 -29.953125 L 0 -29.953125 L 0 -33.640625 L 6.265625 -33.640625 L 6.265625 -43.953125 L 17.328125 -43.953125 L 17.328125 -33.640625 L 26.859375 -33.640625 L 26.859375 -29.953125 L 17.390625 -29.953125 L 17.390625 -11.296875 C 17.390625 -8.640625 17.757812 -6.753906 18.5 -5.640625 C 19.238281 -4.535156 20.5625 -3.984375 22.46875 -3.984375 C 23.082031 -3.984375 23.929688 -4.023438 25.015625 -4.109375 C 26.109375 -4.203125 26.867188 -4.304688 27.296875 -4.421875 Z M 27.296875 -1.5625 "/></g></g></g><g fill="#24332f" fill-opacity="1"><g transform="translate(226.115206, 86.220462)"><g/></g></g><g fill="#24332f" fill-opacity="1"><g transform="translate(243.818227, 86.220462)"><g><path d="M 79.828125 -45.578125 C 79.128906 -45.515625 78.425781 -45.363281 77.71875 -45.125 C 77.007812 -44.882812 76.316406 -44.582031 75.640625 -44.21875 C 74.597656 -43.625 73.851562 -42.972656 73.40625 -42.265625 C 72.96875 -41.566406 72.566406 -40.722656 72.203125 -39.734375 C 70.953125 -36.273438 69.023438 -30.742188 66.421875 -23.140625 C 63.828125 -15.546875 61.125 -7.648438 58.3125 0.546875 L 51.46875 0.546875 L 38.703125 -35.375 L 27.203125 0.546875 L 20.359375 0.546875 C 16.566406 -10.484375 13.660156 -18.976562 11.640625 -24.9375 C 9.617188 -30.894531 7.914062 -35.894531 6.53125 -39.9375 C 6.101562 -41.15625 5.613281 -42.039062 5.0625 -42.59375 C 4.519531 -43.15625 3.820312 -43.722656 2.96875 -44.296875 C 2.351562 -44.703125 1.695312 -45 1 -45.1875 C 0.3125 -45.382812 -0.484375 -45.539062 -1.390625 -45.65625 L -1.390625 -48.3125 L 24.375 -48.3125 L 24.375 -45.71875 C 22.851562 -45.539062 21.71875 -45.363281 20.96875 -45.1875 C 20.21875 -45.019531 19.628906 -44.84375 19.203125 -44.65625 C 18.796875 -44.476562 18.546875 -44.285156 18.453125 -44.078125 C 18.359375 -43.878906 18.3125 -43.703125 18.3125 -43.546875 C 18.3125 -43.222656 18.347656 -42.910156 18.421875 -42.609375 C 18.503906 -42.316406 18.59375 -41.976562 18.6875 -41.59375 C 19.226562 -39.820312 20.328125 -36.460938 21.984375 -31.515625 C 23.640625 -26.578125 25.6875 -20.441406 28.125 -13.109375 L 39.109375 -48.3125 L 46.328125 -48.3125 L 59.09375 -12.015625 C 60.976562 -17.847656 62.484375 -22.613281 63.609375 -26.3125 C 64.734375 -30.007812 65.679688 -33.175781 66.453125 -35.8125 C 66.898438 -37.425781 67.257812 -38.773438 67.53125 -39.859375 C 67.8125 -40.953125 67.953125 -41.894531 67.953125 -42.6875 C 67.953125 -43.164062 67.726562 -43.570312 67.28125 -43.90625 C 66.84375 -44.25 66.25 -44.546875 65.5 -44.796875 C 64.863281 -45.003906 64.039062 -45.171875 63.03125 -45.296875 C 62.019531 -45.421875 61.140625 -45.515625 60.390625 -45.578125 L 60.390625 -48.3125 L 79.828125 -48.3125 Z M 79.828125 -45.578125 "/></g></g></g><g fill="#24332f" fill-opacity="1"><g transform="translate(322.358376, 86.220462)"><g><path d="M 40.890625 -0.71875 C 39.890625 -0.28125 38.707031 0.113281 37.34375 0.46875 C 35.976562 0.832031 34.535156 1.015625 33.015625 1.015625 C 30.222656 1.015625 28.171875 0.601562 26.859375 -0.21875 C 25.546875 -1.050781 24.648438 -2.238281 24.171875 -3.78125 L 23.96875 -3.78125 C 23.195312 -3.007812 22.453125 -2.347656 21.734375 -1.796875 C 21.015625 -1.253906 20.25 -0.789062 19.4375 -0.40625 C 18.375 0.0898438 17.347656 0.460938 16.359375 0.703125 C 15.367188 0.941406 13.988281 1.0625 12.21875 1.0625 C 9.582031 1.0625 7.332031 0.285156 5.46875 -1.265625 C 3.613281 -2.828125 2.6875 -4.890625 2.6875 -7.453125 C 2.6875 -8.929688 2.890625 -10.1875 3.296875 -11.21875 C 3.710938 -12.25 4.289062 -13.160156 5.03125 -13.953125 C 5.71875 -14.679688 6.507812 -15.28125 7.40625 -15.75 C 8.300781 -16.226562 9.28125 -16.675781 10.34375 -17.09375 C 12.382812 -17.84375 14.832031 -18.617188 17.6875 -19.421875 C 20.550781 -20.222656 22.644531 -20.941406 23.96875 -21.578125 L 23.96875 -24.84375 C 23.96875 -25.414062 23.921875 -26.164062 23.828125 -27.09375 C 23.734375 -28.03125 23.539062 -28.816406 23.25 -29.453125 C 22.9375 -30.171875 22.4375 -30.78125 21.75 -31.28125 C 21.070312 -31.78125 20.175781 -32.03125 19.0625 -32.03125 C 18.0625 -32.03125 17.226562 -31.890625 16.5625 -31.609375 C 15.894531 -31.328125 15.351562 -31.035156 14.9375 -30.734375 C 15.007812 -30.285156 15.203125 -29.59375 15.515625 -28.65625 C 15.835938 -27.726562 16 -26.832031 16 -25.96875 C 16 -25.582031 15.894531 -25.097656 15.6875 -24.515625 C 15.488281 -23.941406 15.195312 -23.488281 14.8125 -23.15625 C 14.289062 -22.695312 13.703125 -22.34375 13.046875 -22.09375 C 12.398438 -21.84375 11.410156 -21.71875 10.078125 -21.71875 C 8.171875 -21.71875 6.726562 -22.175781 5.75 -23.09375 C 4.78125 -24.007812 4.296875 -25.207031 4.296875 -26.6875 C 4.296875 -27.957031 4.796875 -29.097656 5.796875 -30.109375 C 6.804688 -31.117188 8.039062 -31.953125 9.5 -32.609375 C 10.925781 -33.296875 12.566406 -33.820312 14.421875 -34.1875 C 16.285156 -34.5625 18.015625 -34.75 19.609375 -34.75 C 21.804688 -34.75 23.820312 -34.617188 25.65625 -34.359375 C 27.5 -34.097656 29.160156 -33.5625 30.640625 -32.75 C 32.046875 -31.957031 33.160156 -30.804688 33.984375 -29.296875 C 34.816406 -27.785156 35.234375 -25.816406 35.234375 -23.390625 C 35.234375 -20.828125 35.179688 -17.785156 35.078125 -14.265625 C 34.972656 -10.742188 34.921875 -8.425781 34.921875 -7.3125 C 34.921875 -6.289062 35.070312 -5.484375 35.375 -4.890625 C 35.6875 -4.304688 36.160156 -3.867188 36.796875 -3.578125 C 37.179688 -3.390625 37.785156 -3.28125 38.609375 -3.25 C 39.441406 -3.21875 40.203125 -3.203125 40.890625 -3.203125 Z M 23.96875 -18.453125 C 22.695312 -18.015625 21.4375 -17.519531 20.1875 -16.96875 C 18.9375 -16.414062 17.914062 -15.832031 17.125 -15.21875 C 16.28125 -14.582031 15.617188 -13.769531 15.140625 -12.78125 C 14.671875 -11.789062 14.4375 -10.628906 14.4375 -9.296875 C 14.4375 -7.523438 14.835938 -6.238281 15.640625 -5.4375 C 16.441406 -4.644531 17.4375 -4.25 18.625 -4.25 C 19.875 -4.25 20.898438 -4.503906 21.703125 -5.015625 C 22.503906 -5.523438 23.210938 -6.15625 23.828125 -6.90625 Z M 23.96875 -18.453125 "/></g></g></g><g fill="#24332f" fill-opacity="1"><g transform="translate(363.892363, 86.220462)"><g><path d="M 40.78125 -31.28125 C 39.757812 -31.125 38.765625 -30.738281 37.796875 -30.125 C 36.835938 -29.507812 36.039062 -28.554688 35.40625 -27.265625 C 33.8125 -23.953125 32.25 -20.609375 30.71875 -17.234375 C 29.1875 -13.867188 27.6875 -10.609375 26.21875 -7.453125 C 25.757812 -6.503906 25.238281 -5.28125 24.65625 -3.78125 C 24.082031 -2.28125 23.601562 -0.914062 23.21875 0.3125 L 16.953125 0.3125 C 14.335938 -5.75 12.101562 -10.773438 10.25 -14.765625 C 8.40625 -18.765625 6.453125 -23.054688 4.390625 -27.640625 C 3.910156 -28.710938 3.164062 -29.550781 2.15625 -30.15625 C 1.144531 -30.769531 0.117188 -31.144531 -0.921875 -31.28125 L -0.921875 -33.765625 L 20.046875 -33.765625 L 20.046875 -31.28125 C 19.273438 -31.257812 18.367188 -31.085938 17.328125 -30.765625 C 16.285156 -30.453125 15.765625 -30.046875 15.765625 -29.546875 C 15.765625 -29.410156 15.804688 -29.207031 15.890625 -28.9375 C 15.984375 -28.664062 16.097656 -28.359375 16.234375 -28.015625 C 16.960938 -26.285156 18.054688 -23.796875 19.515625 -20.546875 C 20.984375 -17.304688 22.535156 -13.894531 24.171875 -10.3125 C 25.304688 -12.789062 26.390625 -15.210938 27.421875 -17.578125 C 28.453125 -19.953125 29.726562 -22.976562 31.25 -26.65625 C 31.457031 -27.195312 31.578125 -27.640625 31.609375 -27.984375 C 31.640625 -28.328125 31.65625 -28.550781 31.65625 -28.65625 C 31.65625 -29.070312 31.457031 -29.429688 31.0625 -29.734375 C 30.664062 -30.046875 30.195312 -30.3125 29.65625 -30.53125 C 29.082031 -30.757812 28.535156 -30.929688 28.015625 -31.046875 C 27.492188 -31.160156 27.0625 -31.238281 26.71875 -31.28125 L 26.71875 -33.765625 L 40.78125 -33.765625 Z M 40.78125 -31.28125 "/></g></g></g><g fill="#24332f" fill-opacity="1"><g transform="translate(403.417779, 86.220462)"><g><path d="M 38.5625 -8.140625 C 37.769531 -6.847656 36.8125 -5.625 35.6875 -4.46875 C 34.570312 -3.320312 33.296875 -2.34375 31.859375 -1.53125 C 30.335938 -0.664062 28.800781 -0.0117188 27.25 0.421875 C 25.695312 0.867188 23.910156 1.09375 21.890625 1.09375 C 18.523438 1.09375 15.625 0.617188 13.1875 -0.328125 C 10.75 -1.285156 8.738281 -2.570312 7.15625 -4.1875 C 5.5625 -5.800781 4.375 -7.703125 3.59375 -9.890625 C 2.8125 -12.078125 2.421875 -14.453125 2.421875 -17.015625 C 2.421875 -19.335938 2.84375 -21.554688 3.6875 -23.671875 C 4.539062 -25.796875 5.75 -27.6875 7.3125 -29.34375 C 8.863281 -30.957031 10.8125 -32.257812 13.15625 -33.25 C 15.507812 -34.25 18.132812 -34.75 21.03125 -34.75 C 24.207031 -34.75 26.816406 -34.363281 28.859375 -33.59375 C 30.910156 -32.820312 32.601562 -31.757812 33.9375 -30.40625 C 35.226562 -29.101562 36.171875 -27.570312 36.765625 -25.8125 C 37.359375 -24.0625 37.65625 -22.222656 37.65625 -20.296875 L 37.65625 -18.078125 L 14.640625 -18.078125 C 14.640625 -13.421875 15.535156 -9.878906 17.328125 -7.453125 C 19.117188 -5.023438 21.96875 -3.8125 25.875 -3.8125 C 28.007812 -3.8125 29.925781 -4.394531 31.625 -5.5625 C 33.320312 -6.726562 34.773438 -8.210938 35.984375 -10.015625 Z M 25.5625 -21.078125 C 25.5625 -22.429688 25.492188 -23.820312 25.359375 -25.25 C 25.222656 -26.6875 24.984375 -27.859375 24.640625 -28.765625 C 24.253906 -29.828125 23.726562 -30.628906 23.0625 -31.171875 C 22.394531 -31.722656 21.550781 -32 20.53125 -32 C 18.78125 -32 17.382812 -31.113281 16.34375 -29.34375 C 15.300781 -27.570312 14.734375 -24.769531 14.640625 -20.9375 Z M 25.5625 -21.078125 "/></g></g></g><g fill="#24332f" fill-opacity="1"><g transform="translate(20.318246, 153.97231)"><g><path d="M 25.703125 1.203125 C 22.410156 1.203125 19.332031 0.667969 16.46875 -0.390625 C 13.601562 -1.453125 11.109375 -3 8.984375 -5.03125 C 6.890625 -7.007812 5.242188 -9.457031 4.046875 -12.375 C 2.847656 -15.289062 2.25 -18.5 2.25 -22 C 2.25 -25.476562 2.851562 -28.695312 4.0625 -31.65625 C 5.269531 -34.613281 6.972656 -37.179688 9.171875 -39.359375 C 11.316406 -41.484375 13.894531 -43.128906 16.90625 -44.296875 C 19.925781 -45.460938 23.148438 -46.046875 26.578125 -46.046875 C 29.066406 -46.046875 31.332031 -45.742188 33.375 -45.140625 C 35.414062 -44.546875 37.144531 -43.867188 38.5625 -43.109375 L 40.515625 -44.859375 L 43.265625 -44.859375 L 43.5625 -28.484375 L 40.78125 -28.484375 C 39.195312 -33.472656 37.296875 -37.132812 35.078125 -39.46875 C 32.867188 -41.8125 30.175781 -42.984375 27 -42.984375 C 23.03125 -42.984375 20.015625 -41.238281 17.953125 -37.75 C 15.890625 -34.269531 14.859375 -29.378906 14.859375 -23.078125 C 14.859375 -19.515625 15.207031 -16.472656 15.90625 -13.953125 C 16.613281 -11.429688 17.539062 -9.40625 18.6875 -7.875 C 19.90625 -6.269531 21.347656 -5.09375 23.015625 -4.34375 C 24.679688 -3.59375 26.523438 -3.21875 28.546875 -3.21875 C 31.492188 -3.21875 34.117188 -4.019531 36.421875 -5.625 C 38.734375 -7.226562 40.835938 -9.648438 42.734375 -12.890625 L 45.453125 -11.25 C 44.546875 -9.394531 43.507812 -7.734375 42.34375 -6.265625 C 41.1875 -4.804688 39.851562 -3.550781 38.34375 -2.5 C 36.675781 -1.34375 34.835938 -0.433594 32.828125 0.21875 C 30.816406 0.875 28.441406 1.203125 25.703125 1.203125 Z M 25.703125 1.203125 "/></g></g></g><g fill="#24332f" fill-opacity="1"><g transform="translate(66.62763, 153.97231)"><g><path d="M 37.96875 -0.65625 C 37.039062 -0.257812 35.941406 0.101562 34.671875 0.4375 C 33.410156 0.78125 32.070312 0.953125 30.65625 0.953125 C 28.0625 0.953125 26.15625 0.566406 24.9375 -0.203125 C 23.71875 -0.972656 22.882812 -2.078125 22.4375 -3.515625 L 22.25 -3.515625 C 21.53125 -2.796875 20.835938 -2.179688 20.171875 -1.671875 C 19.515625 -1.171875 18.804688 -0.738281 18.046875 -0.375 C 17.054688 0.0820312 16.101562 0.421875 15.1875 0.640625 C 14.269531 0.867188 12.988281 0.984375 11.34375 0.984375 C 8.90625 0.984375 6.820312 0.261719 5.09375 -1.171875 C 3.363281 -2.617188 2.5 -4.535156 2.5 -6.921875 C 2.5 -8.296875 2.6875 -9.460938 3.0625 -10.421875 C 3.445312 -11.378906 3.984375 -12.222656 4.671875 -12.953125 C 5.304688 -13.628906 6.039062 -14.1875 6.875 -14.625 C 7.707031 -15.070312 8.617188 -15.488281 9.609375 -15.875 C 11.503906 -16.5625 13.78125 -17.28125 16.4375 -18.03125 C 19.09375 -18.78125 21.03125 -19.453125 22.25 -20.046875 L 22.25 -23.078125 C 22.25 -23.597656 22.207031 -24.289062 22.125 -25.15625 C 22.039062 -26.019531 21.863281 -26.75 21.59375 -27.34375 C 21.289062 -28.019531 20.820312 -28.585938 20.1875 -29.046875 C 19.5625 -29.515625 18.734375 -29.75 17.703125 -29.75 C 16.773438 -29.75 16 -29.613281 15.375 -29.34375 C 14.75 -29.082031 14.25 -28.816406 13.875 -28.546875 C 13.9375 -28.117188 14.113281 -27.472656 14.40625 -26.609375 C 14.707031 -25.742188 14.859375 -24.914062 14.859375 -24.125 C 14.859375 -23.757812 14.757812 -23.304688 14.5625 -22.765625 C 14.375 -22.234375 14.101562 -21.8125 13.75 -21.5 C 13.257812 -21.070312 12.710938 -20.742188 12.109375 -20.515625 C 11.515625 -20.285156 10.597656 -20.171875 9.359375 -20.171875 C 7.585938 -20.171875 6.25 -20.597656 5.34375 -21.453125 C 4.4375 -22.304688 3.984375 -23.414062 3.984375 -24.78125 C 3.984375 -25.957031 4.453125 -27.015625 5.390625 -27.953125 C 6.328125 -28.890625 7.46875 -29.664062 8.8125 -30.28125 C 10.144531 -30.914062 11.675781 -31.40625 13.40625 -31.75 C 15.132812 -32.09375 16.734375 -32.265625 18.203125 -32.265625 C 20.242188 -32.265625 22.117188 -32.144531 23.828125 -31.90625 C 25.535156 -31.664062 27.078125 -31.164062 28.453125 -30.40625 C 29.753906 -29.664062 30.789062 -28.59375 31.5625 -27.1875 C 32.332031 -25.789062 32.71875 -23.96875 32.71875 -21.71875 C 32.71875 -19.332031 32.671875 -16.503906 32.578125 -13.234375 C 32.484375 -9.972656 32.4375 -7.828125 32.4375 -6.796875 C 32.4375 -5.847656 32.578125 -5.097656 32.859375 -4.546875 C 33.140625 -4.003906 33.578125 -3.59375 34.171875 -3.3125 C 34.523438 -3.144531 35.085938 -3.046875 35.859375 -3.015625 C 36.628906 -2.984375 37.332031 -2.96875 37.96875 -2.96875 Z M 22.25 -17.125 C 21.070312 -16.726562 19.898438 -16.269531 18.734375 -15.75 C 17.578125 -15.238281 16.632812 -14.695312 15.90625 -14.125 C 15.125 -13.539062 14.507812 -12.789062 14.0625 -11.875 C 13.625 -10.957031 13.40625 -9.875 13.40625 -8.625 C 13.40625 -6.976562 13.773438 -5.785156 14.515625 -5.046875 C 15.265625 -4.316406 16.191406 -3.953125 17.296875 -3.953125 C 18.453125 -3.953125 19.398438 -4.1875 20.140625 -4.65625 C 20.890625 -5.132812 21.550781 -5.722656 22.125 -6.421875 Z M 22.25 -17.125 "/></g></g></g><g fill="#24332f" fill-opacity="1"><g transform="translate(105.192442, 153.97231)"><g><path d="M 43.5625 0 L 24.53125 0 L 24.53125 -2.3125 C 24.925781 -2.351562 25.40625 -2.40625 25.96875 -2.46875 C 26.539062 -2.53125 26.976562 -2.632812 27.28125 -2.78125 C 27.71875 -3.007812 28.03125 -3.34375 28.21875 -3.78125 C 28.414062 -4.226562 28.515625 -4.882812 28.515625 -5.75 L 28.515625 -20.546875 C 28.515625 -22.691406 28.117188 -24.304688 27.328125 -25.390625 C 26.535156 -26.484375 25.367188 -27.03125 23.828125 -27.03125 C 22.984375 -27.03125 22.195312 -26.898438 21.46875 -26.640625 C 20.75 -26.390625 20.039062 -26.023438 19.34375 -25.546875 C 18.726562 -25.117188 18.238281 -24.679688 17.875 -24.234375 C 17.507812 -23.796875 17.195312 -23.410156 16.9375 -23.078125 L 16.9375 -6.09375 C 16.9375 -5.363281 17.039062 -4.75 17.25 -4.25 C 17.46875 -3.757812 17.816406 -3.382812 18.296875 -3.125 C 18.640625 -2.9375 19.0625 -2.769531 19.5625 -2.625 C 20.070312 -2.476562 20.566406 -2.375 21.046875 -2.3125 L 21.046875 0 L 1.828125 0 L 1.828125 -2.3125 C 2.359375 -2.351562 2.890625 -2.410156 3.421875 -2.484375 C 3.960938 -2.554688 4.421875 -2.65625 4.796875 -2.78125 C 5.472656 -3.007812 5.9375 -3.363281 6.1875 -3.84375 C 6.445312 -4.332031 6.578125 -4.96875 6.578125 -5.75 L 6.578125 -24.15625 C 6.578125 -24.800781 6.40625 -25.441406 6.0625 -26.078125 C 5.726562 -26.710938 5.285156 -27.226562 4.734375 -27.625 C 4.359375 -27.875 3.878906 -28.082031 3.296875 -28.25 C 2.722656 -28.425781 2.085938 -28.546875 1.390625 -28.609375 L 1.390625 -30.90625 L 16.46875 -31.734375 L 16.9375 -31.265625 L 16.9375 -26.671875 L 17.0625 -26.671875 C 17.65625 -27.203125 18.375 -27.835938 19.21875 -28.578125 C 20.0625 -29.316406 20.84375 -29.914062 21.5625 -30.375 C 22.34375 -30.882812 23.363281 -31.316406 24.625 -31.671875 C 25.882812 -32.023438 27.234375 -32.203125 28.671875 -32.203125 C 32.109375 -32.203125 34.679688 -31.226562 36.390625 -29.28125 C 38.109375 -27.332031 38.96875 -24.75 38.96875 -21.53125 L 38.96875 -6.03125 C 38.96875 -5.257812 39.082031 -4.640625 39.3125 -4.171875 C 39.550781 -3.710938 39.984375 -3.34375 40.609375 -3.0625 C 40.953125 -2.914062 41.367188 -2.769531 41.859375 -2.625 C 42.359375 -2.476562 42.925781 -2.375 43.5625 -2.3125 Z M 43.5625 0 "/></g></g></g><g fill="#24332f" fill-opacity="1"><g transform="translate(149.85808, 153.97231)"><g><path d="M 19.875 1.015625 C 16.945312 1.015625 14.359375 0.585938 12.109375 -0.265625 C 9.867188 -1.117188 8.023438 -2.285156 6.578125 -3.765625 C 5.117188 -5.253906 4.03125 -7.019531 3.3125 -9.0625 C 2.601562 -11.113281 2.25 -13.335938 2.25 -15.734375 C 2.25 -17.929688 2.6875 -20.019531 3.5625 -22 C 4.4375 -23.976562 5.617188 -25.71875 7.109375 -27.21875 C 8.648438 -28.75 10.5625 -29.972656 12.84375 -30.890625 C 15.132812 -31.804688 17.660156 -32.265625 20.421875 -32.265625 C 24.296875 -32.265625 27.359375 -31.53125 29.609375 -30.0625 C 31.867188 -28.601562 33 -26.632812 33 -24.15625 C 33 -22.632812 32.597656 -21.410156 31.796875 -20.484375 C 30.992188 -19.554688 29.613281 -19.09375 27.65625 -19.09375 C 26.070312 -19.09375 24.75 -19.472656 23.6875 -20.234375 C 22.625 -20.992188 22.09375 -21.984375 22.09375 -23.203125 C 22.09375 -24.234375 22.257812 -25.253906 22.59375 -26.265625 C 22.9375 -27.273438 23.140625 -28.046875 23.203125 -28.578125 C 22.972656 -28.953125 22.675781 -29.238281 22.3125 -29.4375 C 21.957031 -29.644531 21.398438 -29.75 20.640625 -29.75 C 19.691406 -29.75 18.828125 -29.523438 18.046875 -29.078125 C 17.265625 -28.640625 16.539062 -27.859375 15.875 -26.734375 C 15.21875 -25.679688 14.691406 -24.269531 14.296875 -22.5 C 13.910156 -20.726562 13.71875 -18.601562 13.71875 -16.125 C 13.71875 -12.375 14.597656 -9.347656 16.359375 -7.046875 C 18.117188 -4.753906 20.21875 -3.609375 22.65625 -3.609375 C 25 -3.609375 26.859375 -4.128906 28.234375 -5.171875 C 29.617188 -6.210938 30.847656 -7.691406 31.921875 -9.609375 L 34.296875 -7.96875 C 33.640625 -6.675781 32.859375 -5.5 31.953125 -4.4375 C 31.046875 -3.375 29.960938 -2.429688 28.703125 -1.609375 C 27.367188 -0.742188 26.015625 -0.0898438 24.640625 0.34375 C 23.273438 0.789062 21.6875 1.015625 19.875 1.015625 Z M 19.875 1.015625 "/></g></g></g><g fill="#24332f" fill-opacity="1"><g transform="translate(184.250306, 153.97231)"><g><path d="M 35.8125 -7.546875 C 35.070312 -6.347656 34.179688 -5.21875 33.140625 -4.15625 C 32.097656 -3.09375 30.910156 -2.179688 29.578125 -1.421875 C 28.171875 -0.617188 26.742188 -0.0117188 25.296875 0.390625 C 23.859375 0.804688 22.203125 1.015625 20.328125 1.015625 C 17.203125 1.015625 14.503906 0.570312 12.234375 -0.3125 C 9.972656 -1.195312 8.109375 -2.390625 6.640625 -3.890625 C 5.160156 -5.378906 4.054688 -7.140625 3.328125 -9.171875 C 2.609375 -11.210938 2.25 -13.421875 2.25 -15.796875 C 2.25 -17.953125 2.640625 -20.015625 3.421875 -21.984375 C 4.210938 -23.953125 5.335938 -25.707031 6.796875 -27.25 C 8.222656 -28.738281 10.023438 -29.945312 12.203125 -30.875 C 14.390625 -31.800781 16.832031 -32.265625 19.53125 -32.265625 C 22.476562 -32.265625 24.898438 -31.90625 26.796875 -31.1875 C 28.703125 -30.476562 30.273438 -29.488281 31.515625 -28.21875 C 32.710938 -27.019531 33.582031 -25.601562 34.125 -23.96875 C 34.675781 -22.34375 34.953125 -20.632812 34.953125 -18.84375 L 34.953125 -16.78125 L 13.59375 -16.78125 C 13.59375 -12.457031 14.421875 -9.171875 16.078125 -6.921875 C 17.742188 -4.671875 20.390625 -3.546875 24.015625 -3.546875 C 26.003906 -3.546875 27.785156 -4.085938 29.359375 -5.171875 C 30.941406 -6.253906 32.289062 -7.628906 33.40625 -9.296875 Z M 23.734375 -19.5625 C 23.734375 -20.832031 23.671875 -22.128906 23.546875 -23.453125 C 23.421875 -24.773438 23.203125 -25.859375 22.890625 -26.703125 C 22.523438 -27.691406 22.03125 -28.441406 21.40625 -28.953125 C 20.789062 -29.460938 20.007812 -29.71875 19.0625 -29.71875 C 17.4375 -29.71875 16.140625 -28.894531 15.171875 -27.25 C 14.203125 -25.601562 13.675781 -23 13.59375 -19.4375 Z M 23.734375 -19.5625 "/></g></g></g><g fill="#24332f" fill-opacity="1"><g transform="translate(221.266191, 153.97231)"><g><path d="M 33.3125 -25.578125 C 33.3125 -23.972656 32.816406 -22.5625 31.828125 -21.34375 C 30.835938 -20.132812 29.53125 -19.53125 27.90625 -19.53125 C 26.375 -19.53125 25.070312 -19.921875 24 -20.703125 C 22.9375 -21.484375 22.40625 -22.632812 22.40625 -24.15625 C 22.40625 -24.882812 22.457031 -25.453125 22.5625 -25.859375 C 22.675781 -26.273438 22.773438 -26.664062 22.859375 -27.03125 C 21.890625 -26.988281 20.863281 -26.648438 19.78125 -26.015625 C 18.707031 -25.378906 17.757812 -24.535156 16.9375 -23.484375 L 16.9375 -6.125 C 16.9375 -5.394531 17.050781 -4.785156 17.28125 -4.296875 C 17.519531 -3.816406 17.910156 -3.4375 18.453125 -3.15625 C 18.921875 -2.925781 19.675781 -2.734375 20.71875 -2.578125 C 21.757812 -2.421875 22.515625 -2.332031 22.984375 -2.3125 L 22.984375 0 L 1.828125 0 L 1.828125 -2.3125 C 2.359375 -2.351562 2.890625 -2.410156 3.421875 -2.484375 C 3.960938 -2.554688 4.421875 -2.65625 4.796875 -2.78125 C 5.472656 -3.007812 5.9375 -3.363281 6.1875 -3.84375 C 6.445312 -4.332031 6.578125 -4.96875 6.578125 -5.75 L 6.578125 -24.15625 C 6.578125 -24.90625 6.394531 -25.582031 6.03125 -26.1875 C 5.675781 -26.789062 5.242188 -27.269531 4.734375 -27.625 C 4.359375 -27.875 3.878906 -28.082031 3.296875 -28.25 C 2.722656 -28.425781 2.085938 -28.546875 1.390625 -28.609375 L 1.390625 -30.90625 L 16.46875 -31.734375 L 16.9375 -31.265625 L 16.9375 -26.671875 L 17.0625 -26.671875 C 18.519531 -28.359375 20.066406 -29.679688 21.703125 -30.640625 C 23.335938 -31.597656 25.035156 -32.078125 26.796875 -32.078125 C 28.765625 -32.078125 30.34375 -31.472656 31.53125 -30.265625 C 32.71875 -29.054688 33.3125 -27.492188 33.3125 -25.578125 Z M 33.3125 -25.578125 "/></g></g></g><g fill="#24332f" fill-opacity="1"><g transform="translate(254.931387, 153.97231)"><g/></g></g><g fill="#24332f" fill-opacity="1"><g transform="translate(271.368847, 153.97231)"><g><path d="M 53.671875 0 L 36.46875 0 C 33.5 -4.550781 31.03125 -8.175781 29.0625 -10.875 C 27.09375 -13.570312 24.644531 -16.691406 21.71875 -20.234375 L 19.984375 -20.234375 L 19.984375 -6.609375 C 19.984375 -5.847656 20.125 -5.203125 20.40625 -4.671875 C 20.6875 -4.148438 21.226562 -3.707031 22.03125 -3.34375 C 22.425781 -3.175781 23.050781 -3.003906 23.90625 -2.828125 C 24.757812 -2.648438 25.492188 -2.53125 26.109375 -2.46875 L 26.109375 0 L 2.1875 0 L 2.1875 -2.46875 C 2.789062 -2.53125 3.59375 -2.617188 4.59375 -2.734375 C 5.59375 -2.847656 6.304688 -2.988281 6.734375 -3.15625 C 7.535156 -3.5 8.070312 -3.925781 8.34375 -4.4375 C 8.613281 -4.957031 8.75 -5.617188 8.75 -6.421875 L 8.75 -38.0625 C 8.75 -38.8125 8.632812 -39.441406 8.40625 -39.953125 C 8.175781 -40.460938 7.617188 -40.90625 6.734375 -41.28125 C 6.054688 -41.550781 5.257812 -41.78125 4.34375 -41.96875 C 3.425781 -42.164062 2.707031 -42.304688 2.1875 -42.390625 L 2.1875 -44.859375 L 27.34375 -44.859375 C 32.96875 -44.859375 37.238281 -43.976562 40.15625 -42.21875 C 43.070312 -40.457031 44.53125 -37.796875 44.53125 -34.234375 C 44.53125 -31.085938 43.628906 -28.5625 41.828125 -26.65625 C 40.023438 -24.75 37.28125 -23.257812 33.59375 -22.1875 C 35.03125 -20.332031 36.703125 -18.179688 38.609375 -15.734375 C 40.515625 -13.296875 42.5 -10.800781 44.5625 -8.25 C 45.21875 -7.425781 46.109375 -6.421875 47.234375 -5.234375 C 48.367188 -4.046875 49.363281 -3.3125 50.21875 -3.03125 C 50.707031 -2.882812 51.328125 -2.757812 52.078125 -2.65625 C 52.828125 -2.550781 53.359375 -2.488281 53.671875 -2.46875 Z M 32.140625 -33.34375 C 32.140625 -36.332031 31.300781 -38.515625 29.625 -39.890625 C 27.957031 -41.273438 25.570312 -41.96875 22.46875 -41.96875 L 19.984375 -41.96875 L 19.984375 -23.203125 L 22.375 -23.203125 C 25.476562 -23.203125 27.878906 -24.007812 29.578125 -25.625 C 31.285156 -27.25 32.140625 -29.820312 32.140625 -33.34375 Z M 32.140625 -33.34375 "/></g></g></g><g fill="#24332f" fill-opacity="1"><g transform="translate(322.988807, 153.97231)"><g><path d="M 35.8125 -7.546875 C 35.070312 -6.347656 34.179688 -5.21875 33.140625 -4.15625 C 32.097656 -3.09375 30.910156 -2.179688 29.578125 -1.421875 C 28.171875 -0.617188 26.742188 -0.0117188 25.296875 0.390625 C 23.859375 0.804688 22.203125 1.015625 20.328125 1.015625 C 17.203125 1.015625 14.503906 0.570312 12.234375 -0.3125 C 9.972656 -1.195312 8.109375 -2.390625 6.640625 -3.890625 C 5.160156 -5.378906 4.054688 -7.140625 3.328125 -9.171875 C 2.609375 -11.210938 2.25 -13.421875 2.25 -15.796875 C 2.25 -17.953125 2.640625 -20.015625 3.421875 -21.984375 C 4.210938 -23.953125 5.335938 -25.707031 6.796875 -27.25 C 8.222656 -28.738281 10.023438 -29.945312 12.203125 -30.875 C 14.390625 -31.800781 16.832031 -32.265625 19.53125 -32.265625 C 22.476562 -32.265625 24.898438 -31.90625 26.796875 -31.1875 C 28.703125 -30.476562 30.273438 -29.488281 31.515625 -28.21875 C 32.710938 -27.019531 33.582031 -25.601562 34.125 -23.96875 C 34.675781 -22.34375 34.953125 -20.632812 34.953125 -18.84375 L 34.953125 -16.78125 L 13.59375 -16.78125 C 13.59375 -12.457031 14.421875 -9.171875 16.078125 -6.921875 C 17.742188 -4.671875 20.390625 -3.546875 24.015625 -3.546875 C 26.003906 -3.546875 27.785156 -4.085938 29.359375 -5.171875 C 30.941406 -6.253906 32.289062 -7.628906 33.40625 -9.296875 Z M 23.734375 -19.5625 C 23.734375 -20.832031 23.671875 -22.128906 23.546875 -23.453125 C 23.421875 -24.773438 23.203125 -25.859375 22.890625 -26.703125 C 22.523438 -27.691406 22.03125 -28.441406 21.40625 -28.953125 C 20.789062 -29.460938 20.007812 -29.71875 19.0625 -29.71875 C 17.4375 -29.71875 16.140625 -28.894531 15.171875 -27.25 C 14.203125 -25.601562 13.675781 -23 13.59375 -19.4375 Z M 23.734375 -19.5625 "/></g></g></g><g fill="#24332f" fill-opacity="1"><g transform="translate(360.004693, 153.97231)"><g><path d="M 42.921875 0 L 23.890625 0 L 23.890625 -2.3125 C 24.316406 -2.351562 24.8125 -2.40625 25.375 -2.46875 C 25.945312 -2.53125 26.367188 -2.632812 26.640625 -2.78125 C 27.085938 -3.007812 27.398438 -3.34375 27.578125 -3.78125 C 27.753906 -4.226562 27.84375 -4.882812 27.84375 -5.75 L 27.84375 -20.546875 C 27.84375 -22.710938 27.4375 -24.332031 26.625 -25.40625 C 25.8125 -26.488281 24.660156 -27.03125 23.171875 -27.03125 C 22.328125 -27.03125 21.539062 -26.898438 20.8125 -26.640625 C 20.082031 -26.390625 19.375 -26.023438 18.6875 -25.546875 C 18.070312 -25.117188 17.578125 -24.679688 17.203125 -24.234375 C 16.835938 -23.796875 16.53125 -23.410156 16.28125 -23.078125 L 16.28125 -6.09375 C 16.28125 -5.320312 16.375 -4.707031 16.5625 -4.25 C 16.75 -3.800781 17.109375 -3.425781 17.640625 -3.125 C 17.953125 -2.9375 18.363281 -2.769531 18.875 -2.625 C 19.394531 -2.476562 19.898438 -2.375 20.390625 -2.3125 L 20.390625 0 L 1.171875 0 L 1.171875 -2.3125 C 1.710938 -2.351562 2.242188 -2.40625 2.765625 -2.46875 C 3.285156 -2.53125 3.742188 -2.632812 4.140625 -2.78125 C 4.816406 -3.03125 5.273438 -3.390625 5.515625 -3.859375 C 5.753906 -4.335938 5.875 -4.96875 5.875 -5.75 L 5.875 -41 C 5.875 -41.664062 5.71875 -42.378906 5.40625 -43.140625 C 5.09375 -43.898438 4.648438 -44.472656 4.078125 -44.859375 C 3.660156 -45.128906 3.050781 -45.34375 2.25 -45.5 C 1.445312 -45.65625 0.726562 -45.753906 0.09375 -45.796875 L 0.09375 -48.109375 L 15.796875 -48.9375 L 16.28125 -48.421875 L 16.28125 -26.671875 L 16.40625 -26.671875 C 17.207031 -27.390625 17.925781 -28.035156 18.5625 -28.609375 C 19.207031 -29.191406 19.992188 -29.78125 20.921875 -30.375 C 21.703125 -30.882812 22.71875 -31.316406 23.96875 -31.671875 C 25.226562 -32.023438 26.582031 -32.203125 28.03125 -32.203125 C 31.445312 -32.203125 34.015625 -31.222656 35.734375 -29.265625 C 37.453125 -27.304688 38.3125 -24.726562 38.3125 -21.53125 L 38.3125 -6.03125 C 38.3125 -5.257812 38.425781 -4.640625 38.65625 -4.171875 C 38.882812 -3.710938 39.316406 -3.34375 39.953125 -3.0625 C 40.328125 -2.894531 40.742188 -2.75 41.203125 -2.625 C 41.671875 -2.5 42.242188 -2.394531 42.921875 -2.3125 Z M 42.921875 0 "/></g></g></g><g fill="#24332f" fill-opacity="1"><g transform="translate(404.006487, 153.97231)"><g><path d="M 37.96875 -0.65625 C 37.039062 -0.257812 35.941406 0.101562 34.671875 0.4375 C 33.410156 0.78125 32.070312 0.953125 30.65625 0.953125 C 28.0625 0.953125 26.15625 0.566406 24.9375 -0.203125 C 23.71875 -0.972656 22.882812 -2.078125 22.4375 -3.515625 L 22.25 -3.515625 C 21.53125 -2.796875 20.835938 -2.179688 20.171875 -1.671875 C 19.515625 -1.171875 18.804688 -0.738281 18.046875 -0.375 C 17.054688 0.0820312 16.101562 0.421875 15.1875 0.640625 C 14.269531 0.867188 12.988281 0.984375 11.34375 0.984375 C 8.90625 0.984375 6.820312 0.261719 5.09375 -1.171875 C 3.363281 -2.617188 2.5 -4.535156 2.5 -6.921875 C 2.5 -8.296875 2.6875 -9.460938 3.0625 -10.421875 C 3.445312 -11.378906 3.984375 -12.222656 4.671875 -12.953125 C 5.304688 -13.628906 6.039062 -14.1875 6.875 -14.625 C 7.707031 -15.070312 8.617188 -15.488281 9.609375 -15.875 C 11.503906 -16.5625 13.78125 -17.28125 16.4375 -18.03125 C 19.09375 -18.78125 21.03125 -19.453125 22.25 -20.046875 L 22.25 -23.078125 C 22.25 -23.597656 22.207031 -24.289062 22.125 -25.15625 C 22.039062 -26.019531 21.863281 -26.75 21.59375 -27.34375 C 21.289062 -28.019531 20.820312 -28.585938 20.1875 -29.046875 C 19.5625 -29.515625 18.734375 -29.75 17.703125 -29.75 C 16.773438 -29.75 16 -29.613281 15.375 -29.34375 C 14.75 -29.082031 14.25 -28.816406 13.875 -28.546875 C 13.9375 -28.117188 14.113281 -27.472656 14.40625 -26.609375 C 14.707031 -25.742188 14.859375 -24.914062 14.859375 -24.125 C 14.859375 -23.757812 14.757812 -23.304688 14.5625 -22.765625 C 14.375 -22.234375 14.101562 -21.8125 13.75 -21.5 C 13.257812 -21.070312 12.710938 -20.742188 12.109375 -20.515625 C 11.515625 -20.285156 10.597656 -20.171875 9.359375 -20.171875 C 7.585938 -20.171875 6.25 -20.597656 5.34375 -21.453125 C 4.4375 -22.304688 3.984375 -23.414062 3.984375 -24.78125 C 3.984375 -25.957031 4.453125 -27.015625 5.390625 -27.953125 C 6.328125 -28.890625 7.46875 -29.664062 8.8125 -30.28125 C 10.144531 -30.914062 11.675781 -31.40625 13.40625 -31.75 C 15.132812 -32.09375 16.734375 -32.265625 18.203125 -32.265625 C 20.242188 -32.265625 22.117188 -32.144531 23.828125 -31.90625 C 25.535156 -31.664062 27.078125 -31.164062 28.453125 -30.40625 C 29.753906 -29.664062 30.789062 -28.59375 31.5625 -27.1875 C 32.332031 -25.789062 32.71875 -23.96875 32.71875 -21.71875 C 32.71875 -19.332031 32.671875 -16.503906 32.578125 -13.234375 C 32.484375 -9.972656 32.4375 -7.828125 32.4375 -6.796875 C 32.4375 -5.847656 32.578125 -5.097656 32.859375 -4.546875 C 33.140625 -4.003906 33.578125 -3.59375 34.171875 -3.3125 C 34.523438 -3.144531 35.085938 -3.046875 35.859375 -3.015625 C 36.628906 -2.984375 37.332031 -2.96875 37.96875 -2.96875 Z M 22.25 -17.125 C 21.070312 -16.726562 19.898438 -16.269531 18.734375 -15.75 C 17.578125 -15.238281 16.632812 -14.695312 15.90625 -14.125 C 15.125 -13.539062 14.507812 -12.789062 14.0625 -11.875 C 13.625 -10.957031 13.40625 -9.875 13.40625 -8.625 C 13.40625 -6.976562 13.773438 -5.785156 14.515625 -5.046875 C 15.265625 -4.316406 16.191406 -3.953125 17.296875 -3.953125 C 18.453125 -3.953125 19.398438 -4.1875 20.140625 -4.65625 C 20.890625 -5.132812 21.550781 -5.722656 22.125 -6.421875 Z M 22.25 -17.125 "/></g></g></g><g fill="#24332f" fill-opacity="1"><g transform="translate(442.571345, 153.97231)"><g><path d="M 39.546875 -15.453125 C 39.546875 -10.710938 37.976562 -6.78125 34.84375 -3.65625 C 31.71875 -0.539062 27.753906 1.015625 22.953125 1.015625 C 21.097656 1.015625 19.5 0.878906 18.15625 0.609375 C 16.820312 0.347656 15.691406 0.0273438 14.765625 -0.34375 C 13.796875 -0.75 13.019531 -1.144531 12.4375 -1.53125 C 11.851562 -1.925781 11.394531 -2.25 11.0625 -2.5 L 6.546875 1.609375 L 4.671875 0.890625 C 4.785156 -0.648438 4.878906 -2.320312 4.953125 -4.125 C 5.023438 -5.925781 5.0625 -8.351562 5.0625 -11.40625 L 5.0625 -41 C 5.0625 -41.800781 4.894531 -42.539062 4.5625 -43.21875 C 4.238281 -43.90625 3.800781 -44.429688 3.25 -44.796875 C 2.851562 -45.046875 2.269531 -45.265625 1.5 -45.453125 C 0.726562 -45.640625 0.0195312 -45.753906 -0.625 -45.796875 L -0.625 -48.109375 L 14.984375 -48.9375 L 15.453125 -48.421875 L 15.453125 -27.875 L 15.640625 -27.875 C 17.179688 -29.375 18.765625 -30.46875 20.390625 -31.15625 C 22.015625 -31.851562 23.632812 -32.203125 25.25 -32.203125 C 29.675781 -32.203125 33.164062 -30.695312 35.71875 -27.6875 C 38.269531 -24.675781 39.546875 -20.597656 39.546875 -15.453125 Z M 28.1875 -15.078125 C 28.1875 -16.679688 28.066406 -18.222656 27.828125 -19.703125 C 27.585938 -21.191406 27.179688 -22.503906 26.609375 -23.640625 C 26.046875 -24.773438 25.300781 -25.6875 24.375 -26.375 C 23.445312 -27.0625 22.296875 -27.40625 20.921875 -27.40625 C 19.640625 -27.40625 18.578125 -27.191406 17.734375 -26.765625 C 16.890625 -26.347656 16.128906 -25.726562 15.453125 -24.90625 L 15.453125 -6.515625 C 15.578125 -6.085938 15.8125 -5.53125 16.15625 -4.84375 C 16.507812 -4.164062 16.867188 -3.632812 17.234375 -3.25 C 17.734375 -2.707031 18.265625 -2.289062 18.828125 -2 C 19.398438 -1.71875 20.203125 -1.578125 21.234375 -1.578125 C 23.390625 -1.578125 25.085938 -2.75 26.328125 -5.09375 C 27.566406 -7.445312 28.1875 -10.773438 28.1875 -15.078125 Z M 28.1875 -15.078125 "/></g></g></g></svg>