<svg xmlns="http://www.w3.org/2000/svg" xmlns:xlink="http://www.w3.org/1999/xlink" width="673" zoomAndPan="magnify" viewBox="0 0 504.75 253.499997" height="338" preserveAspectRatio="xMidYMid meet" version="1.0"><defs><g/><clipPath id="6994bbe534"><path d="M 246.515625 186.789062 L 257.957031 186.789062 L 257.957031 198.230469 L 246.515625 198.230469 Z M 246.515625 186.789062 " clip-rule="nonzero"/></clipPath><clipPath id="777d472aa2"><path d="M 252.238281 186.789062 C 249.078125 186.789062 246.515625 189.347656 246.515625 192.507812 C 246.515625 195.667969 249.078125 198.230469 252.238281 198.230469 C 255.398438 198.230469 257.957031 195.667969 257.957031 192.507812 C 257.957031 189.347656 255.398438 186.789062 252.238281 186.789062 Z M 252.238281 186.789062 " clip-rule="nonzero"/></clipPath><clipPath id="3a3cc1e5b4"><path d="M 0.515625 0.789062 L 11.957031 0.789062 L 11.957031 12.230469 L 0.515625 12.230469 Z M 0.515625 0.789062 " clip-rule="nonzero"/></clipPath><clipPath id="5f2b39c850"><path d="M 6.238281 0.789062 C 3.078125 0.789062 0.515625 3.347656 0.515625 6.507812 C 0.515625 9.667969 3.078125 12.230469 6.238281 12.230469 C 9.398438 12.230469 11.957031 9.667969 11.957031 6.507812 C 11.957031 3.347656 9.398438 0.789062 6.238281 0.789062 Z M 6.238281 0.789062 " clip-rule="nonzero"/></clipPath><clipPath id="f23d0f1b3a"><rect x="0" width="12" y="0" height="13"/></clipPath></defs><path stroke-linecap="butt" transform="matrix(0.748524, 0, 0, 0.748524, 266.538995, 191.011012)" fill="none" stroke-linejoin="miter" d="M 0.0000900936 1.99967 L 278.955479 1.99967 " stroke="#c9a79c" stroke-width="4" stroke-opacity="1" stroke-miterlimit="4"/><g clip-path="url(#6994bbe534)"><g clip-path="url(#777d472aa2)"><g transform="matrix(1, 0, 0, 1, 246, 186)"><g clip-path="url(#f23d0f1b3a)"><g clip-path="url(#3a3cc1e5b4)"><g clip-path="url(#5f2b39c850)"><path fill="#c9a79c" d="M 0.515625 0.789062 L 11.957031 0.789062 L 11.957031 12.230469 L 0.515625 12.230469 Z M 0.515625 0.789062 " fill-opacity="1" fill-rule="nonzero"/></g></g></g></g></g></g><path stroke-linecap="butt" transform="matrix(0.748524, 0, 0, 0.748524, 29.129109, 191.011012)" fill="none" stroke-linejoin="miter" d="M -0.000270791 1.99967 L 278.955119 1.99967 " stroke="#c9a79c" stroke-width="4" stroke-opacity="1" stroke-miterlimit="4"/><g fill="#f7f4ef" fill-opacity="1"><g transform="translate(58.649781, 86.388193)"><g><path d="M 57.953125 -45.75 C 57.316406 -45.675781 56.40625 -45.546875 55.21875 -45.359375 C 54.039062 -45.179688 52.972656 -44.738281 52.015625 -44.03125 C 51.171875 -43.414062 50.570312 -42.363281 50.21875 -40.875 C 49.875 -39.382812 49.703125 -37.195312 49.703125 -34.3125 L 49.703125 0.265625 L 43.625 0.265625 L 13.46875 -37.140625 L 13.46875 -14.421875 C 13.46875 -11.609375 13.65625 -9.46875 14.03125 -8 C 14.40625 -6.53125 15.015625 -5.457031 15.859375 -4.78125 C 16.472656 -4.28125 17.453125 -3.832031 18.796875 -3.4375 C 20.140625 -3.050781 21.207031 -2.789062 22 -2.65625 L 22 0 L 1.1875 0 L 1.1875 -2.65625 C 2.082031 -2.726562 3.101562 -2.894531 4.25 -3.15625 C 5.394531 -3.414062 6.351562 -3.816406 7.125 -4.359375 C 8.007812 -5.023438 8.617188 -6.019531 8.953125 -7.34375 C 9.285156 -8.675781 9.453125 -10.910156 9.453125 -14.046875 L 9.453125 -36.96875 C 9.453125 -38.113281 9.273438 -39.191406 8.921875 -40.203125 C 8.566406 -41.210938 8.015625 -42.082031 7.265625 -42.8125 C 6.472656 -43.582031 5.554688 -44.1875 4.515625 -44.625 C 3.484375 -45.070312 2.304688 -45.421875 0.984375 -45.671875 L 0.984375 -48.40625 L 19.203125 -48.40625 L 45.671875 -15.65625 L 45.671875 -33.96875 C 45.671875 -36.882812 45.476562 -39.050781 45.09375 -40.46875 C 44.707031 -41.894531 44.09375 -42.945312 43.25 -43.625 C 42.59375 -44.144531 41.613281 -44.59375 40.3125 -44.96875 C 39.019531 -45.34375 37.976562 -45.601562 37.1875 -45.75 L 37.1875 -48.40625 L 57.953125 -48.40625 Z M 57.953125 -45.75 "/></g></g></g><g fill="#f7f4ef" fill-opacity="1"><g transform="translate(117.285736, 86.388193)"><g><path d="M 38.640625 -8.15625 C 37.847656 -6.851562 36.890625 -5.628906 35.765625 -4.484375 C 34.640625 -3.335938 33.359375 -2.351562 31.921875 -1.53125 C 30.398438 -0.664062 28.859375 -0.015625 27.296875 0.421875 C 25.742188 0.867188 23.957031 1.09375 21.9375 1.09375 C 18.570312 1.09375 15.664062 0.613281 13.21875 -0.34375 C 10.769531 -1.300781 8.75 -2.585938 7.15625 -4.203125 C 5.570312 -5.816406 4.382812 -7.71875 3.59375 -9.90625 C 2.8125 -12.101562 2.421875 -14.488281 2.421875 -17.0625 C 2.421875 -19.375 2.847656 -21.59375 3.703125 -23.71875 C 4.554688 -25.84375 5.765625 -27.738281 7.328125 -29.40625 C 8.878906 -31.019531 10.832031 -32.328125 13.1875 -33.328125 C 15.539062 -34.328125 18.171875 -34.828125 21.078125 -34.828125 C 24.265625 -34.828125 26.878906 -34.4375 28.921875 -33.65625 C 30.972656 -32.882812 32.671875 -31.820312 34.015625 -30.46875 C 35.304688 -29.164062 36.25 -27.632812 36.84375 -25.875 C 37.4375 -24.113281 37.734375 -22.265625 37.734375 -20.328125 L 37.734375 -18.109375 L 14.671875 -18.109375 C 14.671875 -13.453125 15.566406 -9.90625 17.359375 -7.46875 C 19.160156 -5.039062 22.015625 -3.828125 25.921875 -3.828125 C 28.054688 -3.828125 29.976562 -4.410156 31.6875 -5.578125 C 33.394531 -6.742188 34.851562 -8.226562 36.0625 -10.03125 Z M 25.625 -21.109375 C 25.625 -22.472656 25.550781 -23.867188 25.40625 -25.296875 C 25.269531 -26.734375 25.035156 -27.910156 24.703125 -28.828125 C 24.304688 -29.890625 23.773438 -30.691406 23.109375 -31.234375 C 22.441406 -31.785156 21.59375 -32.0625 20.5625 -32.0625 C 18.8125 -32.0625 17.410156 -31.175781 16.359375 -29.40625 C 15.316406 -27.632812 14.753906 -24.828125 14.671875 -20.984375 Z M 25.625 -21.109375 "/></g></g></g><g fill="#f7f4ef" fill-opacity="1"><g transform="translate(157.229136, 86.388193)"><g><path d="M 40.859375 0 L 19.546875 0 L 19.546875 -2.484375 C 20.660156 -2.554688 21.59375 -2.65625 22.34375 -2.78125 C 23.09375 -2.90625 23.46875 -3.160156 23.46875 -3.546875 C 23.46875 -3.734375 23.367188 -4.019531 23.171875 -4.40625 C 22.984375 -4.789062 22.738281 -5.222656 22.4375 -5.703125 C 22.007812 -6.398438 21.265625 -7.507812 20.203125 -9.03125 C 19.148438 -10.5625 18.15625 -11.972656 17.21875 -13.265625 C 15.90625 -11.742188 14.804688 -10.4375 13.921875 -9.34375 C 13.035156 -8.25 12.101562 -7.078125 11.125 -5.828125 C 10.78125 -5.421875 10.539062 -5.046875 10.40625 -4.703125 C 10.269531 -4.367188 10.203125 -4.164062 10.203125 -4.09375 C 10.203125 -3.570312 10.570312 -3.171875 11.3125 -2.890625 C 12.050781 -2.617188 12.929688 -2.484375 13.953125 -2.484375 L 13.953125 0 L 0.109375 0 L 0.109375 -2.484375 C 1.941406 -2.867188 3.410156 -3.484375 4.515625 -4.328125 C 5.617188 -5.171875 6.363281 -5.820312 6.75 -6.28125 C 8.414062 -8.050781 9.820312 -9.519531 10.96875 -10.6875 C 12.113281 -11.863281 13.65625 -13.507812 15.59375 -15.625 C 14.289062 -17.414062 12.71875 -19.609375 10.875 -22.203125 C 9.039062 -24.796875 7.507812 -26.921875 6.28125 -28.578125 C 5.664062 -29.398438 4.910156 -30.03125 4.015625 -30.46875 C 3.128906 -30.914062 1.984375 -31.207031 0.578125 -31.34375 L 0.578125 -33.84375 L 21.421875 -33.84375 L 21.421875 -31.34375 C 20.671875 -31.34375 19.929688 -31.296875 19.203125 -31.203125 C 18.472656 -31.117188 18.109375 -30.960938 18.109375 -30.734375 C 18.109375 -30.554688 18.164062 -30.328125 18.28125 -30.046875 C 18.394531 -29.773438 18.546875 -29.492188 18.734375 -29.203125 C 19.160156 -28.472656 19.835938 -27.398438 20.765625 -25.984375 C 21.703125 -24.578125 22.707031 -23.101562 23.78125 -21.5625 C 24.800781 -22.8125 25.65625 -23.832031 26.34375 -24.625 C 27.039062 -25.425781 27.9375 -26.550781 29.03125 -28 C 29.4375 -28.550781 29.691406 -28.960938 29.796875 -29.234375 C 29.898438 -29.503906 29.953125 -29.675781 29.953125 -29.75 C 29.953125 -30.132812 29.707031 -30.476562 29.21875 -30.78125 C 28.726562 -31.09375 27.765625 -31.28125 26.328125 -31.34375 L 26.328125 -33.84375 L 39.90625 -33.84375 L 39.90625 -31.34375 C 38.789062 -31.164062 37.707031 -30.789062 36.65625 -30.21875 C 35.613281 -29.65625 34.523438 -28.769531 33.390625 -27.5625 C 31.617188 -25.71875 30.328125 -24.367188 29.515625 -23.515625 C 28.710938 -22.660156 27.378906 -21.242188 25.515625 -19.265625 C 26.554688 -17.796875 28.066406 -15.648438 30.046875 -12.828125 C 32.023438 -10.003906 33.734375 -7.628906 35.171875 -5.703125 C 35.785156 -4.835938 36.472656 -4.128906 37.234375 -3.578125 C 37.992188 -3.035156 39.203125 -2.671875 40.859375 -2.484375 Z M 40.859375 0 "/></g></g></g><g fill="#f7f4ef" fill-opacity="1"><g transform="translate(198.298177, 86.388193)"><g><path d="M 27.359375 -1.5625 C 25.898438 -0.925781 24.335938 -0.351562 22.671875 0.15625 C 21.015625 0.664062 18.992188 0.921875 16.609375 0.921875 C 13.066406 0.921875 10.4375 0.0546875 8.71875 -1.671875 C 7 -3.398438 6.140625 -5.867188 6.140625 -9.078125 L 6.140625 -30.015625 L 0 -30.015625 L 0 -33.703125 L 6.28125 -33.703125 L 6.28125 -44.03125 L 17.359375 -44.03125 L 17.359375 -33.703125 L 26.90625 -33.703125 L 26.90625 -30.015625 L 17.4375 -30.015625 L 17.4375 -11.328125 C 17.4375 -8.660156 17.800781 -6.769531 18.53125 -5.65625 C 19.269531 -4.539062 20.597656 -3.984375 22.515625 -3.984375 C 23.128906 -3.984375 23.976562 -4.03125 25.0625 -4.125 C 26.15625 -4.21875 26.921875 -4.320312 27.359375 -4.4375 Z M 27.359375 -1.5625 "/></g></g></g><g fill="#f7f4ef" fill-opacity="1"><g transform="translate(226.064124, 86.388193)"><g/></g></g><g fill="#f7f4ef" fill-opacity="1"><g transform="translate(243.801583, 86.388193)"><g><path d="M 79.984375 -45.671875 C 79.285156 -45.609375 78.582031 -45.457031 77.875 -45.21875 C 77.164062 -44.976562 76.472656 -44.675781 75.796875 -44.3125 C 74.742188 -43.71875 73.992188 -43.066406 73.546875 -42.359375 C 73.109375 -41.660156 72.707031 -40.8125 72.34375 -39.8125 C 71.09375 -36.351562 69.164062 -30.8125 66.5625 -23.1875 C 63.957031 -15.570312 61.25 -7.660156 58.4375 0.546875 L 51.578125 0.546875 L 38.78125 -35.4375 L 27.25 0.546875 L 20.390625 0.546875 C 16.597656 -10.503906 13.6875 -19.015625 11.65625 -24.984375 C 9.632812 -30.953125 7.929688 -35.960938 6.546875 -40.015625 C 6.117188 -41.242188 5.628906 -42.132812 5.078125 -42.6875 C 4.535156 -43.25 3.832031 -43.8125 2.96875 -44.375 C 2.351562 -44.789062 1.695312 -45.09375 1 -45.28125 C 0.3125 -45.476562 -0.488281 -45.632812 -1.40625 -45.75 L -1.40625 -48.40625 L 24.421875 -48.40625 L 24.421875 -45.8125 C 22.898438 -45.625 21.765625 -45.445312 21.015625 -45.28125 C 20.265625 -45.113281 19.671875 -44.9375 19.234375 -44.75 C 18.828125 -44.570312 18.578125 -44.378906 18.484375 -44.171875 C 18.398438 -43.960938 18.359375 -43.78125 18.359375 -43.625 C 18.359375 -43.3125 18.394531 -43.003906 18.46875 -42.703125 C 18.550781 -42.410156 18.640625 -42.070312 18.734375 -41.6875 C 19.273438 -39.90625 20.375 -36.535156 22.03125 -31.578125 C 23.695312 -26.628906 25.742188 -20.476562 28.171875 -13.125 L 39.1875 -48.40625 L 46.421875 -48.40625 L 59.21875 -12.046875 C 61.101562 -17.890625 62.609375 -22.660156 63.734375 -26.359375 C 64.859375 -30.066406 65.804688 -33.242188 66.578125 -35.890625 C 67.035156 -37.503906 67.398438 -38.851562 67.671875 -39.9375 C 67.941406 -41.03125 68.078125 -41.976562 68.078125 -42.78125 C 68.078125 -43.25 67.851562 -43.65625 67.40625 -44 C 66.96875 -44.34375 66.375 -44.640625 65.625 -44.890625 C 64.988281 -45.097656 64.164062 -45.265625 63.15625 -45.390625 C 62.144531 -45.515625 61.265625 -45.609375 60.515625 -45.671875 L 60.515625 -48.40625 L 79.984375 -48.40625 Z M 79.984375 -45.671875 "/></g></g></g><g fill="#f7f4ef" fill-opacity="1"><g transform="translate(322.494522, 86.388193)"><g><path d="M 40.96875 -0.71875 C 39.96875 -0.28125 38.785156 0.113281 37.421875 0.46875 C 36.054688 0.832031 34.613281 1.015625 33.09375 1.015625 C 30.289062 1.015625 28.226562 0.601562 26.90625 -0.21875 C 25.59375 -1.050781 24.695312 -2.238281 24.21875 -3.78125 L 24.015625 -3.78125 C 23.242188 -3.007812 22.5 -2.347656 21.78125 -1.796875 C 21.0625 -1.253906 20.296875 -0.789062 19.484375 -0.40625 C 18.410156 0.09375 17.378906 0.460938 16.390625 0.703125 C 15.398438 0.941406 14.019531 1.0625 12.25 1.0625 C 9.601562 1.0625 7.347656 0.285156 5.484375 -1.265625 C 3.617188 -2.828125 2.6875 -4.894531 2.6875 -7.46875 C 2.6875 -8.945312 2.890625 -10.203125 3.296875 -11.234375 C 3.710938 -12.273438 4.296875 -13.191406 5.046875 -13.984375 C 5.734375 -14.710938 6.523438 -15.316406 7.421875 -15.796875 C 8.316406 -16.273438 9.300781 -16.71875 10.375 -17.125 C 12.414062 -17.875 14.867188 -18.648438 17.734375 -19.453125 C 20.597656 -20.265625 22.691406 -20.988281 24.015625 -21.625 L 24.015625 -24.90625 C 24.015625 -25.46875 23.96875 -26.210938 23.875 -27.140625 C 23.78125 -28.078125 23.585938 -28.863281 23.296875 -29.5 C 22.972656 -30.226562 22.472656 -30.84375 21.796875 -31.34375 C 21.117188 -31.84375 20.222656 -32.09375 19.109375 -32.09375 C 18.097656 -32.09375 17.257812 -31.953125 16.59375 -31.671875 C 15.925781 -31.390625 15.382812 -31.097656 14.96875 -30.796875 C 15.039062 -30.347656 15.234375 -29.65625 15.546875 -28.71875 C 15.867188 -27.789062 16.03125 -26.894531 16.03125 -26.03125 C 16.03125 -25.644531 15.925781 -25.160156 15.71875 -24.578125 C 15.519531 -23.992188 15.226562 -23.535156 14.84375 -23.203125 C 14.3125 -22.742188 13.722656 -22.390625 13.078125 -22.140625 C 12.429688 -21.890625 11.4375 -21.765625 10.09375 -21.765625 C 8.1875 -21.765625 6.742188 -22.222656 5.765625 -23.140625 C 4.785156 -24.066406 4.296875 -25.269531 4.296875 -26.75 C 4.296875 -28.019531 4.800781 -29.160156 5.8125 -30.171875 C 6.820312 -31.179688 8.054688 -32.015625 9.515625 -32.671875 C 10.953125 -33.359375 12.601562 -33.890625 14.46875 -34.265625 C 16.332031 -34.640625 18.054688 -34.828125 19.640625 -34.828125 C 21.847656 -34.828125 23.875 -34.695312 25.71875 -34.4375 C 27.5625 -34.175781 29.222656 -33.632812 30.703125 -32.8125 C 32.109375 -32.019531 33.226562 -30.863281 34.0625 -29.34375 C 34.894531 -27.832031 35.3125 -25.863281 35.3125 -23.4375 C 35.3125 -20.863281 35.257812 -17.8125 35.15625 -14.28125 C 35.050781 -10.757812 35 -8.441406 35 -7.328125 C 35 -6.304688 35.148438 -5.5 35.453125 -4.90625 C 35.765625 -4.320312 36.238281 -3.878906 36.875 -3.578125 C 37.257812 -3.398438 37.863281 -3.289062 38.6875 -3.25 C 39.519531 -3.21875 40.28125 -3.203125 40.96875 -3.203125 Z M 24.015625 -18.484375 C 22.742188 -18.054688 21.484375 -17.5625 20.234375 -17 C 18.984375 -16.445312 17.957031 -15.863281 17.15625 -15.25 C 16.3125 -14.613281 15.648438 -13.800781 15.171875 -12.8125 C 14.703125 -11.820312 14.46875 -10.65625 14.46875 -9.3125 C 14.46875 -7.539062 14.867188 -6.253906 15.671875 -5.453125 C 16.484375 -4.660156 17.476562 -4.265625 18.65625 -4.265625 C 19.90625 -4.265625 20.929688 -4.519531 21.734375 -5.03125 C 22.546875 -5.539062 23.257812 -6.171875 23.875 -6.921875 Z M 24.015625 -18.484375 "/></g></g></g><g fill="#f7f4ef" fill-opacity="1"><g transform="translate(364.109308, 86.388193)"><g><path d="M 40.859375 -31.34375 C 39.835938 -31.1875 38.84375 -30.800781 37.875 -30.1875 C 36.914062 -29.570312 36.113281 -28.617188 35.46875 -27.328125 C 33.882812 -24.003906 32.320312 -20.65625 30.78125 -17.28125 C 29.25 -13.90625 27.742188 -10.632812 26.265625 -7.46875 C 25.804688 -6.507812 25.285156 -5.28125 24.703125 -3.78125 C 24.128906 -2.28125 23.648438 -0.914062 23.265625 0.3125 L 16.984375 0.3125 C 14.367188 -5.757812 12.132812 -10.796875 10.28125 -14.796875 C 8.425781 -18.804688 6.46875 -23.109375 4.40625 -27.703125 C 3.925781 -28.765625 3.175781 -29.601562 2.15625 -30.21875 C 1.144531 -30.832031 0.117188 -31.207031 -0.921875 -31.34375 L -0.921875 -33.84375 L 20.09375 -33.84375 L 20.09375 -31.34375 C 19.320312 -31.320312 18.410156 -31.148438 17.359375 -30.828125 C 16.316406 -30.515625 15.796875 -30.109375 15.796875 -29.609375 C 15.796875 -29.472656 15.835938 -29.265625 15.921875 -28.984375 C 16.015625 -28.710938 16.128906 -28.410156 16.265625 -28.078125 C 16.992188 -26.347656 18.09375 -23.851562 19.5625 -20.59375 C 21.03125 -17.34375 22.582031 -13.921875 24.21875 -10.328125 C 25.351562 -12.804688 26.4375 -15.234375 27.46875 -17.609375 C 28.507812 -19.992188 29.789062 -23.023438 31.3125 -26.703125 C 31.519531 -27.253906 31.640625 -27.695312 31.671875 -28.03125 C 31.703125 -28.375 31.71875 -28.601562 31.71875 -28.71875 C 31.71875 -29.125 31.519531 -29.476562 31.125 -29.78125 C 30.726562 -30.09375 30.253906 -30.363281 29.703125 -30.59375 C 29.140625 -30.820312 28.59375 -30.992188 28.0625 -31.109375 C 27.539062 -31.222656 27.113281 -31.300781 26.78125 -31.34375 L 26.78125 -33.84375 L 40.859375 -33.84375 Z M 40.859375 -31.34375 "/></g></g></g><g fill="#f7f4ef" fill-opacity="1"><g transform="translate(403.711615, 86.388193)"><g><path d="M 38.640625 -8.15625 C 37.847656 -6.851562 36.890625 -5.628906 35.765625 -4.484375 C 34.640625 -3.335938 33.359375 -2.351562 31.921875 -1.53125 C 30.398438 -0.664062 28.859375 -0.015625 27.296875 0.421875 C 25.742188 0.867188 23.957031 1.09375 21.9375 1.09375 C 18.570312 1.09375 15.664062 0.613281 13.21875 -0.34375 C 10.769531 -1.300781 8.75 -2.585938 7.15625 -4.203125 C 5.570312 -5.816406 4.382812 -7.71875 3.59375 -9.90625 C 2.8125 -12.101562 2.421875 -14.488281 2.421875 -17.0625 C 2.421875 -19.375 2.847656 -21.59375 3.703125 -23.71875 C 4.554688 -25.84375 5.765625 -27.738281 7.328125 -29.40625 C 8.878906 -31.019531 10.832031 -32.328125 13.1875 -33.328125 C 15.539062 -34.328125 18.171875 -34.828125 21.078125 -34.828125 C 24.265625 -34.828125 26.878906 -34.4375 28.921875 -33.65625 C 30.972656 -32.882812 32.671875 -31.820312 34.015625 -30.46875 C 35.304688 -29.164062 36.25 -27.632812 36.84375 -25.875 C 37.4375 -24.113281 37.734375 -22.265625 37.734375 -20.328125 L 37.734375 -18.109375 L 14.671875 -18.109375 C 14.671875 -13.453125 15.566406 -9.90625 17.359375 -7.46875 C 19.160156 -5.039062 22.015625 -3.828125 25.921875 -3.828125 C 28.054688 -3.828125 29.976562 -4.410156 31.6875 -5.578125 C 33.394531 -6.742188 34.851562 -8.226562 36.0625 -10.03125 Z M 25.625 -21.109375 C 25.625 -22.472656 25.550781 -23.867188 25.40625 -25.296875 C 25.269531 -26.734375 25.035156 -27.910156 24.703125 -28.828125 C 24.304688 -29.890625 23.773438 -30.691406 23.109375 -31.234375 C 22.441406 -31.785156 21.59375 -32.0625 20.5625 -32.0625 C 18.8125 -32.0625 17.410156 -31.175781 16.359375 -29.40625 C 15.316406 -27.632812 14.753906 -24.828125 14.671875 -20.984375 Z M 25.625 -21.109375 "/></g></g></g><g fill="#f7f4ef" fill-opacity="1"><g transform="translate(19.866809, 154.271843)"><g><path d="M 25.75 1.203125 C 22.457031 1.203125 19.375 0.671875 16.5 -0.390625 C 13.625 -1.460938 11.125 -3.007812 9 -5.03125 C 6.90625 -7.019531 5.253906 -9.472656 4.046875 -12.390625 C 2.847656 -15.316406 2.25 -18.535156 2.25 -22.046875 C 2.25 -25.523438 2.851562 -28.75 4.0625 -31.71875 C 5.28125 -34.6875 6.988281 -37.253906 9.1875 -39.421875 C 11.34375 -41.554688 13.925781 -43.207031 16.9375 -44.375 C 19.957031 -45.550781 23.191406 -46.140625 26.640625 -46.140625 C 29.128906 -46.140625 31.394531 -45.835938 33.4375 -45.234375 C 35.488281 -44.640625 37.222656 -43.960938 38.640625 -43.203125 L 40.59375 -44.9375 L 43.359375 -44.9375 L 43.640625 -28.53125 L 40.859375 -28.53125 C 39.273438 -33.539062 37.375 -37.21875 35.15625 -39.5625 C 32.9375 -41.90625 30.234375 -43.078125 27.046875 -43.078125 C 23.078125 -43.078125 20.054688 -41.328125 17.984375 -37.828125 C 15.921875 -34.335938 14.890625 -29.4375 14.890625 -23.125 C 14.890625 -19.550781 15.238281 -16.503906 15.9375 -13.984375 C 16.644531 -11.460938 17.570312 -9.429688 18.71875 -7.890625 C 19.9375 -6.285156 21.378906 -5.109375 23.046875 -4.359375 C 24.722656 -3.609375 26.570312 -3.234375 28.59375 -3.234375 C 31.550781 -3.234375 34.1875 -4.035156 36.5 -5.640625 C 38.8125 -7.242188 40.914062 -9.671875 42.8125 -12.921875 L 45.546875 -11.28125 C 44.628906 -9.414062 43.59375 -7.75 42.4375 -6.28125 C 41.28125 -4.8125 39.941406 -3.550781 38.421875 -2.5 C 36.742188 -1.34375 34.894531 -0.4375 32.875 0.21875 C 30.863281 0.875 28.488281 1.203125 25.75 1.203125 Z M 25.75 1.203125 "/></g></g></g><g fill="#f7f4ef" fill-opacity="1"><g transform="translate(66.266283, 154.271843)"><g><path d="M 38.03125 -0.671875 C 37.101562 -0.265625 36.003906 0.101562 34.734375 0.4375 C 33.472656 0.78125 32.132812 0.953125 30.71875 0.953125 C 28.125 0.953125 26.210938 0.566406 24.984375 -0.203125 C 23.765625 -0.972656 22.929688 -2.078125 22.484375 -3.515625 L 22.296875 -3.515625 C 21.578125 -2.796875 20.882812 -2.179688 20.21875 -1.671875 C 19.550781 -1.171875 18.835938 -0.738281 18.078125 -0.375 C 17.085938 0.0820312 16.132812 0.421875 15.21875 0.640625 C 14.300781 0.867188 13.019531 0.984375 11.375 0.984375 C 8.925781 0.984375 6.832031 0.257812 5.09375 -1.1875 C 3.363281 -2.632812 2.5 -4.550781 2.5 -6.9375 C 2.5 -8.3125 2.6875 -9.476562 3.0625 -10.4375 C 3.445312 -11.394531 3.988281 -12.242188 4.6875 -12.984375 C 5.320312 -13.660156 6.054688 -14.21875 6.890625 -14.65625 C 7.722656 -15.101562 8.632812 -15.515625 9.625 -15.890625 C 11.53125 -16.585938 13.8125 -17.3125 16.46875 -18.0625 C 19.125 -18.8125 21.066406 -19.484375 22.296875 -20.078125 L 22.296875 -23.125 C 22.296875 -23.644531 22.253906 -24.335938 22.171875 -25.203125 C 22.085938 -26.066406 21.90625 -26.796875 21.625 -27.390625 C 21.332031 -28.066406 20.867188 -28.632812 20.234375 -29.09375 C 19.597656 -29.5625 18.765625 -29.796875 17.734375 -29.796875 C 16.804688 -29.796875 16.03125 -29.664062 15.40625 -29.40625 C 14.78125 -29.144531 14.28125 -28.875 13.90625 -28.59375 C 13.96875 -28.175781 14.144531 -27.535156 14.4375 -26.671875 C 14.738281 -25.804688 14.890625 -24.96875 14.890625 -24.15625 C 14.890625 -23.800781 14.789062 -23.351562 14.59375 -22.8125 C 14.40625 -22.28125 14.132812 -21.851562 13.78125 -21.53125 C 13.289062 -21.113281 12.742188 -20.785156 12.140625 -20.546875 C 11.546875 -20.316406 10.625 -20.203125 9.375 -20.203125 C 7.601562 -20.203125 6.257812 -20.628906 5.34375 -21.484375 C 4.4375 -22.335938 3.984375 -23.453125 3.984375 -24.828125 C 3.984375 -26.015625 4.453125 -27.078125 5.390625 -28.015625 C 6.335938 -28.953125 7.484375 -29.726562 8.828125 -30.34375 C 10.160156 -30.976562 11.691406 -31.46875 13.421875 -31.8125 C 15.160156 -32.15625 16.765625 -32.328125 18.234375 -32.328125 C 20.285156 -32.328125 22.164062 -32.207031 23.875 -31.96875 C 25.582031 -31.726562 27.125 -31.226562 28.5 -30.46875 C 29.8125 -29.726562 30.851562 -28.65625 31.625 -27.25 C 32.394531 -25.84375 32.78125 -24.007812 32.78125 -21.75 C 32.78125 -19.363281 32.734375 -16.535156 32.640625 -13.265625 C 32.546875 -9.992188 32.5 -7.84375 32.5 -6.8125 C 32.5 -5.863281 32.640625 -5.113281 32.921875 -4.5625 C 33.203125 -4.007812 33.640625 -3.597656 34.234375 -3.328125 C 34.585938 -3.160156 35.148438 -3.0625 35.921875 -3.03125 C 36.691406 -3 37.394531 -2.984375 38.03125 -2.984375 Z M 22.296875 -17.171875 C 21.109375 -16.765625 19.929688 -16.300781 18.765625 -15.78125 C 17.609375 -15.269531 16.664062 -14.726562 15.9375 -14.15625 C 15.15625 -13.5625 14.539062 -12.804688 14.09375 -11.890625 C 13.644531 -10.972656 13.421875 -9.890625 13.421875 -8.640625 C 13.421875 -6.992188 13.796875 -5.800781 14.546875 -5.0625 C 15.296875 -4.320312 16.222656 -3.953125 17.328125 -3.953125 C 18.484375 -3.953125 19.4375 -4.191406 20.1875 -4.671875 C 20.9375 -5.148438 21.597656 -5.734375 22.171875 -6.421875 Z M 22.296875 -17.171875 "/></g></g></g><g fill="#f7f4ef" fill-opacity="1"><g transform="translate(104.906117, 154.271843)"><g><path d="M 43.640625 0 L 24.578125 0 L 24.578125 -2.3125 C 24.972656 -2.351562 25.457031 -2.40625 26.03125 -2.46875 C 26.601562 -2.53125 27.035156 -2.632812 27.328125 -2.78125 C 27.773438 -3.019531 28.09375 -3.359375 28.28125 -3.796875 C 28.46875 -4.242188 28.5625 -4.898438 28.5625 -5.765625 L 28.5625 -20.578125 C 28.5625 -22.734375 28.164062 -24.351562 27.375 -25.4375 C 26.582031 -26.53125 25.414062 -27.078125 23.875 -27.078125 C 23.03125 -27.078125 22.242188 -26.945312 21.515625 -26.6875 C 20.785156 -26.4375 20.070312 -26.070312 19.375 -25.59375 C 18.769531 -25.164062 18.28125 -24.726562 17.90625 -24.28125 C 17.539062 -23.84375 17.226562 -23.457031 16.96875 -23.125 L 16.96875 -6.109375 C 16.96875 -5.367188 17.070312 -4.75 17.28125 -4.25 C 17.5 -3.757812 17.851562 -3.390625 18.34375 -3.140625 C 18.675781 -2.941406 19.09375 -2.769531 19.59375 -2.625 C 20.101562 -2.476562 20.601562 -2.375 21.09375 -2.3125 L 21.09375 0 L 1.84375 0 L 1.84375 -2.3125 C 2.363281 -2.351562 2.894531 -2.410156 3.4375 -2.484375 C 3.976562 -2.554688 4.4375 -2.65625 4.8125 -2.78125 C 5.488281 -3.019531 5.953125 -3.378906 6.203125 -3.859375 C 6.460938 -4.347656 6.59375 -4.984375 6.59375 -5.765625 L 6.59375 -24.203125 C 6.59375 -24.847656 6.421875 -25.488281 6.078125 -26.125 C 5.742188 -26.757812 5.300781 -27.273438 4.75 -27.671875 C 4.375 -27.929688 3.894531 -28.144531 3.3125 -28.3125 C 2.726562 -28.476562 2.085938 -28.59375 1.390625 -28.65625 L 1.390625 -30.96875 L 16.5 -31.796875 L 16.96875 -31.328125 L 16.96875 -26.734375 L 17.109375 -26.734375 C 17.691406 -27.253906 18.40625 -27.882812 19.25 -28.625 C 20.09375 -29.363281 20.875 -29.96875 21.59375 -30.4375 C 22.375 -30.9375 23.398438 -31.363281 24.671875 -31.71875 C 25.941406 -32.082031 27.289062 -32.265625 28.71875 -32.265625 C 32.164062 -32.265625 34.75 -31.285156 36.46875 -29.328125 C 38.1875 -27.378906 39.046875 -24.789062 39.046875 -21.5625 L 39.046875 -6.046875 C 39.046875 -5.265625 39.160156 -4.640625 39.390625 -4.171875 C 39.628906 -3.710938 40.066406 -3.347656 40.703125 -3.078125 C 41.035156 -2.921875 41.445312 -2.769531 41.9375 -2.625 C 42.4375 -2.476562 43.003906 -2.375 43.640625 -2.3125 Z M 43.640625 0 "/></g></g></g><g fill="#f7f4ef" fill-opacity="1"><g transform="translate(149.658647, 154.271843)"><g><path d="M 19.921875 1.015625 C 16.984375 1.015625 14.390625 0.585938 12.140625 -0.265625 C 9.890625 -1.117188 8.039062 -2.285156 6.59375 -3.765625 C 5.132812 -5.265625 4.046875 -7.035156 3.328125 -9.078125 C 2.609375 -11.128906 2.25 -13.359375 2.25 -15.765625 C 2.25 -17.960938 2.6875 -20.050781 3.5625 -22.03125 C 4.4375 -24.019531 5.625 -25.765625 7.125 -27.265625 C 8.664062 -28.804688 10.582031 -30.035156 12.875 -30.953125 C 15.164062 -31.867188 17.691406 -32.328125 20.453125 -32.328125 C 24.335938 -32.328125 27.410156 -31.59375 29.671875 -30.125 C 31.929688 -28.664062 33.0625 -26.691406 33.0625 -24.203125 C 33.0625 -22.679688 32.660156 -21.453125 31.859375 -20.515625 C 31.054688 -19.585938 29.671875 -19.125 27.703125 -19.125 C 26.117188 -19.125 24.796875 -19.503906 23.734375 -20.265625 C 22.671875 -21.023438 22.140625 -22.019531 22.140625 -23.25 C 22.140625 -24.28125 22.304688 -25.300781 22.640625 -26.3125 C 22.984375 -27.332031 23.1875 -28.101562 23.25 -28.625 C 23.007812 -29.007812 22.710938 -29.300781 22.359375 -29.5 C 22.003906 -29.695312 21.445312 -29.796875 20.6875 -29.796875 C 19.726562 -29.796875 18.859375 -29.570312 18.078125 -29.125 C 17.296875 -28.6875 16.566406 -27.910156 15.890625 -26.796875 C 15.242188 -25.734375 14.722656 -24.316406 14.328125 -22.546875 C 13.941406 -20.773438 13.75 -18.644531 13.75 -16.15625 C 13.75 -12.394531 14.628906 -9.363281 16.390625 -7.0625 C 18.148438 -4.757812 20.253906 -3.609375 22.703125 -3.609375 C 25.046875 -3.609375 26.910156 -4.128906 28.296875 -5.171875 C 29.679688 -6.222656 30.910156 -7.707031 31.984375 -9.625 L 34.359375 -7.984375 C 33.703125 -6.691406 32.921875 -5.507812 32.015625 -4.4375 C 31.109375 -3.375 30.019531 -2.429688 28.75 -1.609375 C 27.425781 -0.742188 26.078125 -0.09375 24.703125 0.34375 C 23.328125 0.789062 21.734375 1.015625 19.921875 1.015625 Z M 19.921875 1.015625 "/></g></g></g><g fill="#f7f4ef" fill-opacity="1"><g transform="translate(184.117778, 154.271843)"><g><path d="M 35.875 -7.5625 C 35.132812 -6.363281 34.242188 -5.226562 33.203125 -4.15625 C 32.160156 -3.09375 30.972656 -2.179688 29.640625 -1.421875 C 28.222656 -0.617188 26.789062 -0.015625 25.34375 0.390625 C 23.90625 0.804688 22.242188 1.015625 20.359375 1.015625 C 17.234375 1.015625 14.535156 0.570312 12.265625 -0.3125 C 10.003906 -1.195312 8.132812 -2.390625 6.65625 -3.890625 C 5.175781 -5.390625 4.070312 -7.15625 3.34375 -9.1875 C 2.613281 -11.226562 2.25 -13.441406 2.25 -15.828125 C 2.25 -17.984375 2.644531 -20.046875 3.4375 -22.015625 C 4.226562 -23.992188 5.351562 -25.753906 6.8125 -27.296875 C 8.25 -28.796875 10.054688 -30.007812 12.234375 -30.9375 C 14.421875 -31.863281 16.867188 -32.328125 19.578125 -32.328125 C 22.523438 -32.328125 24.945312 -31.96875 26.84375 -31.25 C 28.75 -30.539062 30.328125 -29.550781 31.578125 -28.28125 C 32.773438 -27.070312 33.648438 -25.648438 34.203125 -24.015625 C 34.753906 -22.378906 35.03125 -20.664062 35.03125 -18.875 L 35.03125 -16.8125 L 13.625 -16.8125 C 13.625 -12.488281 14.457031 -9.195312 16.125 -6.9375 C 17.789062 -4.675781 20.4375 -3.546875 24.0625 -3.546875 C 26.050781 -3.546875 27.835938 -4.085938 29.421875 -5.171875 C 31.003906 -6.265625 32.351562 -7.644531 33.46875 -9.3125 Z M 23.78125 -19.609375 C 23.78125 -20.867188 23.71875 -22.164062 23.59375 -23.5 C 23.46875 -24.832031 23.242188 -25.921875 22.921875 -26.765625 C 22.566406 -27.753906 22.078125 -28.5 21.453125 -29 C 20.828125 -29.507812 20.039062 -29.765625 19.09375 -29.765625 C 17.46875 -29.765625 16.171875 -28.941406 15.203125 -27.296875 C 14.234375 -25.648438 13.707031 -23.046875 13.625 -19.484375 Z M 23.78125 -19.609375 "/></g></g></g><g fill="#f7f4ef" fill-opacity="1"><g transform="translate(221.205673, 154.271843)"><g><path d="M 33.375 -25.625 C 33.375 -24.019531 32.878906 -22.609375 31.890625 -21.390625 C 30.898438 -20.179688 29.59375 -19.578125 27.96875 -19.578125 C 26.425781 -19.578125 25.117188 -19.96875 24.046875 -20.75 C 22.984375 -21.53125 22.453125 -22.679688 22.453125 -24.203125 C 22.453125 -24.929688 22.503906 -25.503906 22.609375 -25.921875 C 22.710938 -26.335938 22.804688 -26.722656 22.890625 -27.078125 C 21.921875 -27.035156 20.894531 -26.695312 19.8125 -26.0625 C 18.738281 -25.425781 17.789062 -24.582031 16.96875 -23.53125 L 16.96875 -6.140625 C 16.96875 -5.398438 17.082031 -4.785156 17.3125 -4.296875 C 17.550781 -3.816406 17.945312 -3.441406 18.5 -3.171875 C 18.957031 -2.929688 19.707031 -2.734375 20.75 -2.578125 C 21.800781 -2.421875 22.5625 -2.332031 23.03125 -2.3125 L 23.03125 0 L 1.84375 0 L 1.84375 -2.3125 C 2.363281 -2.351562 2.894531 -2.410156 3.4375 -2.484375 C 3.976562 -2.554688 4.4375 -2.65625 4.8125 -2.78125 C 5.488281 -3.019531 5.953125 -3.378906 6.203125 -3.859375 C 6.460938 -4.347656 6.59375 -4.984375 6.59375 -5.765625 L 6.59375 -24.203125 C 6.59375 -24.953125 6.410156 -25.628906 6.046875 -26.234375 C 5.691406 -26.835938 5.257812 -27.316406 4.75 -27.671875 C 4.375 -27.929688 3.894531 -28.144531 3.3125 -28.3125 C 2.726562 -28.476562 2.085938 -28.59375 1.390625 -28.65625 L 1.390625 -30.96875 L 16.5 -31.796875 L 16.96875 -31.328125 L 16.96875 -26.734375 L 17.109375 -26.734375 C 18.554688 -28.421875 20.097656 -29.742188 21.734375 -30.703125 C 23.378906 -31.660156 25.085938 -32.140625 26.859375 -32.140625 C 28.816406 -32.140625 30.390625 -31.53125 31.578125 -30.3125 C 32.773438 -29.101562 33.375 -27.539062 33.375 -25.625 Z M 33.375 -25.625 "/></g></g></g><g fill="#f7f4ef" fill-opacity="1"><g transform="translate(254.93636, 154.271843)"><g/></g></g><g fill="#f7f4ef" fill-opacity="1"><g transform="translate(271.405797, 154.271843)"><g><path d="M 53.78125 0 L 36.546875 0 C 33.566406 -4.5625 31.085938 -8.191406 29.109375 -10.890625 C 27.140625 -13.597656 24.6875 -16.722656 21.75 -20.265625 L 20.015625 -20.265625 L 20.015625 -6.625 C 20.015625 -5.863281 20.15625 -5.21875 20.4375 -4.6875 C 20.726562 -4.15625 21.273438 -3.710938 22.078125 -3.359375 C 22.472656 -3.191406 23.097656 -3.015625 23.953125 -2.828125 C 24.804688 -2.648438 25.539062 -2.53125 26.15625 -2.46875 L 26.15625 0 L 2.1875 0 L 2.1875 -2.46875 C 2.800781 -2.53125 3.609375 -2.617188 4.609375 -2.734375 C 5.609375 -2.847656 6.320312 -2.992188 6.75 -3.171875 C 7.550781 -3.503906 8.085938 -3.925781 8.359375 -4.4375 C 8.628906 -4.957031 8.765625 -5.617188 8.765625 -6.421875 L 8.765625 -38.125 C 8.765625 -38.882812 8.648438 -39.519531 8.421875 -40.03125 C 8.191406 -40.539062 7.632812 -40.984375 6.75 -41.359375 C 6.070312 -41.628906 5.273438 -41.859375 4.359375 -42.046875 C 3.441406 -42.242188 2.71875 -42.382812 2.1875 -42.46875 L 2.1875 -44.9375 L 27.390625 -44.9375 C 33.023438 -44.9375 37.304688 -44.054688 40.234375 -42.296875 C 43.160156 -40.535156 44.625 -37.867188 44.625 -34.296875 C 44.625 -31.148438 43.71875 -28.617188 41.90625 -26.703125 C 40.101562 -24.796875 37.359375 -23.304688 33.671875 -22.234375 C 35.097656 -20.367188 36.765625 -18.210938 38.671875 -15.765625 C 40.585938 -13.316406 42.582031 -10.816406 44.65625 -8.265625 C 45.3125 -7.441406 46.203125 -6.429688 47.328125 -5.234375 C 48.460938 -4.046875 49.460938 -3.316406 50.328125 -3.046875 C 50.804688 -2.890625 51.421875 -2.757812 52.171875 -2.65625 C 52.921875 -2.550781 53.457031 -2.488281 53.78125 -2.46875 Z M 32.203125 -33.40625 C 32.203125 -36.40625 31.363281 -38.597656 29.6875 -39.984375 C 28.007812 -41.367188 25.617188 -42.0625 22.515625 -42.0625 L 20.015625 -42.0625 L 20.015625 -23.25 L 22.421875 -23.25 C 25.523438 -23.25 27.929688 -24.0625 29.640625 -25.6875 C 31.347656 -27.3125 32.203125 -29.882812 32.203125 -33.40625 Z M 32.203125 -33.40625 "/></g></g></g><g fill="#f7f4ef" fill-opacity="1"><g transform="translate(323.126177, 154.271843)"><g><path d="M 35.875 -7.5625 C 35.132812 -6.363281 34.242188 -5.226562 33.203125 -4.15625 C 32.160156 -3.09375 30.972656 -2.179688 29.640625 -1.421875 C 28.222656 -0.617188 26.789062 -0.015625 25.34375 0.390625 C 23.90625 0.804688 22.242188 1.015625 20.359375 1.015625 C 17.234375 1.015625 14.535156 0.570312 12.265625 -0.3125 C 10.003906 -1.195312 8.132812 -2.390625 6.65625 -3.890625 C 5.175781 -5.390625 4.070312 -7.15625 3.34375 -9.1875 C 2.613281 -11.226562 2.25 -13.441406 2.25 -15.828125 C 2.25 -17.984375 2.644531 -20.046875 3.4375 -22.015625 C 4.226562 -23.992188 5.351562 -25.753906 6.8125 -27.296875 C 8.25 -28.796875 10.054688 -30.007812 12.234375 -30.9375 C 14.421875 -31.863281 16.867188 -32.328125 19.578125 -32.328125 C 22.523438 -32.328125 24.945312 -31.96875 26.84375 -31.25 C 28.75 -30.539062 30.328125 -29.550781 31.578125 -28.28125 C 32.773438 -27.070312 33.648438 -25.648438 34.203125 -24.015625 C 34.753906 -22.378906 35.03125 -20.664062 35.03125 -18.875 L 35.03125 -16.8125 L 13.625 -16.8125 C 13.625 -12.488281 14.457031 -9.195312 16.125 -6.9375 C 17.789062 -4.675781 20.4375 -3.546875 24.0625 -3.546875 C 26.050781 -3.546875 27.835938 -4.085938 29.421875 -5.171875 C 31.003906 -6.265625 32.351562 -7.644531 33.46875 -9.3125 Z M 23.78125 -19.609375 C 23.78125 -20.867188 23.71875 -22.164062 23.59375 -23.5 C 23.46875 -24.832031 23.242188 -25.921875 22.921875 -26.765625 C 22.566406 -27.753906 22.078125 -28.5 21.453125 -29 C 20.828125 -29.507812 20.039062 -29.765625 19.09375 -29.765625 C 17.46875 -29.765625 16.171875 -28.941406 15.203125 -27.296875 C 14.234375 -25.648438 13.707031 -23.046875 13.625 -19.484375 Z M 23.78125 -19.609375 "/></g></g></g><g fill="#f7f4ef" fill-opacity="1"><g transform="translate(360.214072, 154.271843)"><g><path d="M 43 0 L 23.9375 0 L 23.9375 -2.3125 C 24.363281 -2.351562 24.859375 -2.40625 25.421875 -2.46875 C 25.992188 -2.53125 26.421875 -2.632812 26.703125 -2.78125 C 27.140625 -3.019531 27.445312 -3.359375 27.625 -3.796875 C 27.8125 -4.242188 27.90625 -4.898438 27.90625 -5.765625 L 27.90625 -20.578125 C 27.90625 -22.753906 27.5 -24.378906 26.6875 -25.453125 C 25.875 -26.535156 24.71875 -27.078125 23.21875 -27.078125 C 22.375 -27.078125 21.585938 -26.945312 20.859375 -26.6875 C 20.128906 -26.4375 19.414062 -26.070312 18.71875 -25.59375 C 18.101562 -25.164062 17.609375 -24.726562 17.234375 -24.28125 C 16.867188 -23.84375 16.5625 -23.457031 16.3125 -23.125 L 16.3125 -6.109375 C 16.3125 -5.328125 16.40625 -4.707031 16.59375 -4.25 C 16.78125 -3.800781 17.140625 -3.429688 17.671875 -3.140625 C 17.984375 -2.941406 18.398438 -2.769531 18.921875 -2.625 C 19.441406 -2.476562 19.941406 -2.375 20.421875 -2.3125 L 20.421875 0 L 1.171875 0 L 1.171875 -2.3125 C 1.722656 -2.351562 2.253906 -2.40625 2.765625 -2.46875 C 3.285156 -2.53125 3.75 -2.632812 4.15625 -2.78125 C 4.820312 -3.039062 5.273438 -3.40625 5.515625 -3.875 C 5.765625 -4.351562 5.890625 -4.984375 5.890625 -5.765625 L 5.890625 -41.078125 C 5.890625 -41.753906 5.726562 -42.472656 5.40625 -43.234375 C 5.09375 -43.992188 4.648438 -44.5625 4.078125 -44.9375 C 3.660156 -45.207031 3.050781 -45.421875 2.25 -45.578125 C 1.445312 -45.742188 0.726562 -45.847656 0.09375 -45.890625 L 0.09375 -48.203125 L 15.828125 -49.03125 L 16.3125 -48.515625 L 16.3125 -26.734375 L 16.4375 -26.734375 C 17.238281 -27.453125 17.960938 -28.097656 18.609375 -28.671875 C 19.253906 -29.253906 20.039062 -29.84375 20.96875 -30.4375 C 21.75 -30.9375 22.765625 -31.363281 24.015625 -31.71875 C 25.273438 -32.082031 26.632812 -32.265625 28.09375 -32.265625 C 31.507812 -32.265625 34.078125 -31.28125 35.796875 -29.3125 C 37.523438 -27.351562 38.390625 -24.769531 38.390625 -21.5625 L 38.390625 -6.046875 C 38.390625 -5.265625 38.503906 -4.640625 38.734375 -4.171875 C 38.960938 -3.710938 39.394531 -3.347656 40.03125 -3.078125 C 40.40625 -2.898438 40.828125 -2.75 41.296875 -2.625 C 41.765625 -2.5 42.332031 -2.394531 43 -2.3125 Z M 43 0 "/></g></g></g><g fill="#f7f4ef" fill-opacity="1"><g transform="translate(404.301467, 154.271843)"><g><path d="M 38.03125 -0.671875 C 37.101562 -0.265625 36.003906 0.101562 34.734375 0.4375 C 33.472656 0.78125 32.132812 0.953125 30.71875 0.953125 C 28.125 0.953125 26.210938 0.566406 24.984375 -0.203125 C 23.765625 -0.972656 22.929688 -2.078125 22.484375 -3.515625 L 22.296875 -3.515625 C 21.578125 -2.796875 20.882812 -2.179688 20.21875 -1.671875 C 19.550781 -1.171875 18.835938 -0.738281 18.078125 -0.375 C 17.085938 0.0820312 16.132812 0.421875 15.21875 0.640625 C 14.300781 0.867188 13.019531 0.984375 11.375 0.984375 C 8.925781 0.984375 6.832031 0.257812 5.09375 -1.1875 C 3.363281 -2.632812 2.5 -4.550781 2.5 -6.9375 C 2.5 -8.3125 2.6875 -9.476562 3.0625 -10.4375 C 3.445312 -11.394531 3.988281 -12.242188 4.6875 -12.984375 C 5.320312 -13.660156 6.054688 -14.21875 6.890625 -14.65625 C 7.722656 -15.101562 8.632812 -15.515625 9.625 -15.890625 C 11.53125 -16.585938 13.8125 -17.3125 16.46875 -18.0625 C 19.125 -18.8125 21.066406 -19.484375 22.296875 -20.078125 L 22.296875 -23.125 C 22.296875 -23.644531 22.253906 -24.335938 22.171875 -25.203125 C 22.085938 -26.066406 21.90625 -26.796875 21.625 -27.390625 C 21.332031 -28.066406 20.867188 -28.632812 20.234375 -29.09375 C 19.597656 -29.5625 18.765625 -29.796875 17.734375 -29.796875 C 16.804688 -29.796875 16.03125 -29.664062 15.40625 -29.40625 C 14.78125 -29.144531 14.28125 -28.875 13.90625 -28.59375 C 13.96875 -28.175781 14.144531 -27.535156 14.4375 -26.671875 C 14.738281 -25.804688 14.890625 -24.96875 14.890625 -24.15625 C 14.890625 -23.800781 14.789062 -23.351562 14.59375 -22.8125 C 14.40625 -22.28125 14.132812 -21.851562 13.78125 -21.53125 C 13.289062 -21.113281 12.742188 -20.785156 12.140625 -20.546875 C 11.546875 -20.316406 10.625 -20.203125 9.375 -20.203125 C 7.601562 -20.203125 6.257812 -20.628906 5.34375 -21.484375 C 4.4375 -22.335938 3.984375 -23.453125 3.984375 -24.828125 C 3.984375 -26.015625 4.453125 -27.078125 5.390625 -28.015625 C 6.335938 -28.953125 7.484375 -29.726562 8.828125 -30.34375 C 10.160156 -30.976562 11.691406 -31.46875 13.421875 -31.8125 C 15.160156 -32.15625 16.765625 -32.328125 18.234375 -32.328125 C 20.285156 -32.328125 22.164062 -32.207031 23.875 -31.96875 C 25.582031 -31.726562 27.125 -31.226562 28.5 -30.46875 C 29.8125 -29.726562 30.851562 -28.65625 31.625 -27.25 C 32.394531 -25.84375 32.78125 -24.007812 32.78125 -21.75 C 32.78125 -19.363281 32.734375 -16.535156 32.640625 -13.265625 C 32.546875 -9.992188 32.5 -7.84375 32.5 -6.8125 C 32.5 -5.863281 32.640625 -5.113281 32.921875 -4.5625 C 33.203125 -4.007812 33.640625 -3.597656 34.234375 -3.328125 C 34.585938 -3.160156 35.148438 -3.0625 35.921875 -3.03125 C 36.691406 -3 37.394531 -2.984375 38.03125 -2.984375 Z M 22.296875 -17.171875 C 21.109375 -16.765625 19.929688 -16.300781 18.765625 -15.78125 C 17.609375 -15.269531 16.664062 -14.726562 15.9375 -14.15625 C 15.15625 -13.5625 14.539062 -12.804688 14.09375 -11.890625 C 13.644531 -10.972656 13.421875 -9.890625 13.421875 -8.640625 C 13.421875 -6.992188 13.796875 -5.800781 14.546875 -5.0625 C 15.296875 -4.320312 16.222656 -3.953125 17.328125 -3.953125 C 18.484375 -3.953125 19.4375 -4.191406 20.1875 -4.671875 C 20.9375 -5.148438 21.597656 -5.734375 22.171875 -6.421875 Z M 22.296875 -17.171875 "/></g></g></g><g fill="#f7f4ef" fill-opacity="1"><g transform="translate(442.941347, 154.271843)"><g><path d="M 39.625 -15.484375 C 39.625 -10.734375 38.054688 -6.796875 34.921875 -3.671875 C 31.785156 -0.546875 27.804688 1.015625 22.984375 1.015625 C 21.128906 1.015625 19.53125 0.878906 18.1875 0.609375 C 16.851562 0.347656 15.722656 0.03125 14.796875 -0.34375 C 13.816406 -0.75 13.035156 -1.144531 12.453125 -1.53125 C 11.878906 -1.925781 11.421875 -2.25 11.078125 -2.5 L 6.5625 1.609375 L 4.6875 0.890625 C 4.789062 -0.648438 4.878906 -2.320312 4.953125 -4.125 C 5.023438 -5.9375 5.0625 -8.375 5.0625 -11.4375 L 5.0625 -41.078125 C 5.0625 -41.878906 4.894531 -42.625 4.5625 -43.3125 C 4.238281 -44 3.804688 -44.519531 3.265625 -44.875 C 2.859375 -45.125 2.269531 -45.34375 1.5 -45.53125 C 0.726562 -45.726562 0.015625 -45.847656 -0.640625 -45.890625 L -0.640625 -48.203125 L 15.015625 -49.03125 L 15.484375 -48.515625 L 15.484375 -27.9375 L 15.671875 -27.9375 C 17.210938 -29.4375 18.796875 -30.53125 20.421875 -31.21875 C 22.046875 -31.914062 23.671875 -32.265625 25.296875 -32.265625 C 29.734375 -32.265625 33.226562 -30.753906 35.78125 -27.734375 C 38.34375 -24.722656 39.625 -20.640625 39.625 -15.484375 Z M 28.25 -15.109375 C 28.25 -16.710938 28.125 -18.257812 27.875 -19.75 C 27.632812 -21.238281 27.234375 -22.550781 26.671875 -23.6875 C 26.097656 -24.832031 25.347656 -25.742188 24.421875 -26.421875 C 23.492188 -27.109375 22.34375 -27.453125 20.96875 -27.453125 C 19.675781 -27.453125 18.609375 -27.238281 17.765625 -26.8125 C 16.921875 -26.394531 16.160156 -25.773438 15.484375 -24.953125 L 15.484375 -6.53125 C 15.609375 -6.101562 15.84375 -5.546875 16.1875 -4.859375 C 16.539062 -4.171875 16.898438 -3.640625 17.265625 -3.265625 C 17.765625 -2.710938 18.300781 -2.289062 18.875 -2 C 19.445312 -1.71875 20.25 -1.578125 21.28125 -1.578125 C 23.4375 -1.578125 25.132812 -2.753906 26.375 -5.109375 C 27.625 -7.460938 28.25 -10.796875 28.25 -15.109375 Z M 28.25 -15.109375 "/></g></g></g><g fill="#f7f4ef" fill-opacity="1"><g transform="translate(14.535414, 235.129941)"><g><path d="M 10.625 0.359375 C 8.851562 0.359375 7.289062 -0.0507812 5.9375 -0.875 C 4.582031 -1.695312 3.519531 -2.878906 2.75 -4.421875 C 1.976562 -5.972656 1.59375 -7.835938 1.59375 -10.015625 C 1.59375 -11.617188 1.816406 -13.0625 2.265625 -14.34375 C 2.722656 -15.625 3.363281 -16.71875 4.1875 -17.625 C 5.019531 -18.53125 5.992188 -19.21875 7.109375 -19.6875 C 8.222656 -20.15625 9.441406 -20.390625 10.765625 -20.390625 C 12.148438 -20.390625 13.316406 -20.132812 14.265625 -19.625 C 15.210938 -19.113281 15.972656 -18.539062 16.546875 -17.90625 L 15.140625 -16.328125 C 14.648438 -16.859375 14.0625 -17.296875 13.375 -17.640625 C 12.695312 -17.984375 11.847656 -18.15625 10.828125 -18.15625 C 9.484375 -18.15625 8.3125 -17.820312 7.3125 -17.15625 C 6.320312 -16.5 5.554688 -15.570312 5.015625 -14.375 C 4.484375 -13.175781 4.21875 -11.738281 4.21875 -10.0625 C 4.21875 -8.375 4.472656 -6.921875 4.984375 -5.703125 C 5.503906 -4.484375 6.257812 -3.535156 7.25 -2.859375 C 8.238281 -2.191406 9.441406 -1.859375 10.859375 -1.859375 C 11.578125 -1.859375 12.257812 -1.960938 12.90625 -2.171875 C 13.5625 -2.390625 14.082031 -2.679688 14.46875 -3.046875 L 14.46875 -8.265625 L 10.21875 -8.265625 L 10.21875 -10.375 L 16.78125 -10.375 L 16.78125 -1.953125 C 16.15625 -1.285156 15.304688 -0.734375 14.234375 -0.296875 C 13.171875 0.140625 11.96875 0.359375 10.625 0.359375 Z M 10.625 0.359375 "/></g></g></g><g fill="#f7f4ef" fill-opacity="1"><g transform="translate(33.355363, 235.129941)"><g><path d="M 6.828125 0.359375 C 5.265625 0.359375 4.117188 -0.128906 3.390625 -1.109375 C 2.671875 -2.097656 2.3125 -3.539062 2.3125 -5.4375 L 2.3125 -14.828125 L 4.828125 -14.828125 L 4.828125 -5.765625 C 4.828125 -4.378906 5.046875 -3.375 5.484375 -2.75 C 5.921875 -2.132812 6.625 -1.828125 7.59375 -1.828125 C 8.351562 -1.828125 9.03125 -2.023438 9.625 -2.421875 C 10.226562 -2.816406 10.882812 -3.441406 11.59375 -4.296875 L 11.59375 -14.828125 L 14.09375 -14.828125 L 14.09375 0 L 12.015625 0 L 11.8125 -2.3125 L 11.71875 -2.3125 C 11.050781 -1.5 10.320312 -0.847656 9.53125 -0.359375 C 8.75 0.117188 7.847656 0.359375 6.828125 0.359375 Z M 6.828125 0.359375 "/></g></g></g><g fill="#f7f4ef" fill-opacity="1"><g transform="translate(49.948645, 235.129941)"><g><path d="M 2.5 0 L 2.5 -14.828125 L 5 -14.828125 L 5 0 Z M 3.75 -17.875 C 3.257812 -17.875 2.859375 -18.023438 2.546875 -18.328125 C 2.234375 -18.640625 2.078125 -19.039062 2.078125 -19.53125 C 2.078125 -20.019531 2.234375 -20.414062 2.546875 -20.71875 C 2.859375 -21.019531 3.257812 -21.171875 3.75 -21.171875 C 4.238281 -21.171875 4.640625 -21.019531 4.953125 -20.71875 C 5.265625 -20.414062 5.421875 -20.019531 5.421875 -19.53125 C 5.421875 -19.039062 5.265625 -18.640625 4.953125 -18.328125 C 4.640625 -18.023438 4.238281 -17.875 3.75 -17.875 Z M 3.75 -17.875 "/></g></g></g><g fill="#f7f4ef" fill-opacity="1"><g transform="translate(57.452224, 235.129941)"><g><path d="M 7.5625 0.359375 C 5.695312 0.359375 4.207031 -0.3125 3.09375 -1.65625 C 1.988281 -3.007812 1.4375 -4.921875 1.4375 -7.390625 C 1.4375 -8.992188 1.734375 -10.378906 2.328125 -11.546875 C 2.929688 -12.722656 3.722656 -13.625 4.703125 -14.25 C 5.679688 -14.882812 6.738281 -15.203125 7.875 -15.203125 C 8.75 -15.203125 9.492188 -15.050781 10.109375 -14.75 C 10.734375 -14.457031 11.367188 -14.035156 12.015625 -13.484375 L 11.90625 -16.015625 L 11.90625 -21.734375 L 14.4375 -21.734375 L 14.4375 0 L 12.359375 0 L 12.140625 -1.734375 L 12.046875 -1.734375 C 11.484375 -1.171875 10.8125 -0.679688 10.03125 -0.265625 C 9.257812 0.148438 8.4375 0.359375 7.5625 0.359375 Z M 8.109375 -1.734375 C 8.804688 -1.734375 9.457031 -1.90625 10.0625 -2.25 C 10.675781 -2.601562 11.289062 -3.113281 11.90625 -3.78125 L 11.90625 -11.53125 C 11.289062 -12.101562 10.6875 -12.503906 10.09375 -12.734375 C 9.507812 -12.972656 8.910156 -13.09375 8.296875 -13.09375 C 7.503906 -13.09375 6.785156 -12.851562 6.140625 -12.375 C 5.503906 -11.894531 4.992188 -11.234375 4.609375 -10.390625 C 4.222656 -9.546875 4.03125 -8.554688 4.03125 -7.421875 C 4.03125 -5.648438 4.382812 -4.257812 5.09375 -3.25 C 5.8125 -2.238281 6.816406 -1.734375 8.109375 -1.734375 Z M 8.109375 -1.734375 "/></g></g></g><g fill="#f7f4ef" fill-opacity="1"><g transform="translate(74.381037, 235.129941)"><g><path d="M 8.515625 0.359375 C 7.191406 0.359375 5.984375 0.0507812 4.890625 -0.5625 C 3.804688 -1.1875 2.945312 -2.070312 2.3125 -3.21875 C 1.6875 -4.363281 1.375 -5.765625 1.375 -7.421875 C 1.375 -9.023438 1.695312 -10.40625 2.34375 -11.5625 C 3 -12.726562 3.832031 -13.625 4.84375 -14.25 C 5.863281 -14.882812 6.945312 -15.203125 8.09375 -15.203125 C 9.351562 -15.203125 10.425781 -14.910156 11.3125 -14.328125 C 12.195312 -13.742188 12.859375 -12.929688 13.296875 -11.890625 C 13.742188 -10.859375 13.96875 -9.640625 13.96875 -8.234375 C 13.96875 -7.972656 13.960938 -7.71875 13.953125 -7.46875 C 13.953125 -7.226562 13.921875 -6.988281 13.859375 -6.75 L 3.171875 -6.75 L 3.171875 -8.734375 L 11.71875 -8.734375 C 11.71875 -10.148438 11.40625 -11.238281 10.78125 -12 C 10.164062 -12.769531 9.273438 -13.15625 8.109375 -13.15625 C 7.441406 -13.15625 6.78125 -12.960938 6.125 -12.578125 C 5.476562 -12.203125 4.945312 -11.597656 4.53125 -10.765625 C 4.113281 -9.929688 3.90625 -8.828125 3.90625 -7.453125 C 3.90625 -6.179688 4.125 -5.117188 4.5625 -4.265625 C 5 -3.410156 5.59375 -2.765625 6.34375 -2.328125 C 7.09375 -1.890625 7.914062 -1.671875 8.8125 -1.671875 C 9.53125 -1.671875 10.195312 -1.769531 10.8125 -1.96875 C 11.4375 -2.175781 12.003906 -2.457031 12.515625 -2.8125 L 13.421875 -1.15625 C 12.773438 -0.707031 12.050781 -0.34375 11.25 -0.0625 C 10.445312 0.21875 9.535156 0.359375 8.515625 0.359375 Z M 8.515625 0.359375 "/></g></g></g><g fill="#f7f4ef" fill-opacity="1"><g transform="translate(89.510211, 235.129941)"><g><path d="M 7.5625 0.359375 C 5.695312 0.359375 4.207031 -0.3125 3.09375 -1.65625 C 1.988281 -3.007812 1.4375 -4.921875 1.4375 -7.390625 C 1.4375 -8.992188 1.734375 -10.378906 2.328125 -11.546875 C 2.929688 -12.722656 3.722656 -13.625 4.703125 -14.25 C 5.679688 -14.882812 6.738281 -15.203125 7.875 -15.203125 C 8.75 -15.203125 9.492188 -15.050781 10.109375 -14.75 C 10.734375 -14.457031 11.367188 -14.035156 12.015625 -13.484375 L 11.90625 -16.015625 L 11.90625 -21.734375 L 14.4375 -21.734375 L 14.4375 0 L 12.359375 0 L 12.140625 -1.734375 L 12.046875 -1.734375 C 11.484375 -1.171875 10.8125 -0.679688 10.03125 -0.265625 C 9.257812 0.148438 8.4375 0.359375 7.5625 0.359375 Z M 8.109375 -1.734375 C 8.804688 -1.734375 9.457031 -1.90625 10.0625 -2.25 C 10.675781 -2.601562 11.289062 -3.113281 11.90625 -3.78125 L 11.90625 -11.53125 C 11.289062 -12.101562 10.6875 -12.503906 10.09375 -12.734375 C 9.507812 -12.972656 8.910156 -13.09375 8.296875 -13.09375 C 7.503906 -13.09375 6.785156 -12.851562 6.140625 -12.375 C 5.503906 -11.894531 4.992188 -11.234375 4.609375 -10.390625 C 4.222656 -9.546875 4.03125 -8.554688 4.03125 -7.421875 C 4.03125 -5.648438 4.382812 -4.257812 5.09375 -3.25 C 5.8125 -2.238281 6.816406 -1.734375 8.109375 -1.734375 Z M 8.109375 -1.734375 "/></g></g></g><g fill="#f7f4ef" fill-opacity="1"><g transform="translate(106.439024, 235.129941)"><g/></g></g><g fill="#f7f4ef" fill-opacity="1"><g transform="translate(112.539498, 235.129941)"><g><path d="M 9.0625 0.359375 C 8.375 0.359375 7.660156 0.191406 6.921875 -0.140625 C 6.191406 -0.472656 5.492188 -0.9375 4.828125 -1.53125 L 4.734375 -1.53125 L 4.515625 0 L 2.5 0 L 2.5 -21.734375 L 5 -21.734375 L 5 -15.8125 L 4.9375 -13.125 C 5.613281 -13.707031 6.351562 -14.195312 7.15625 -14.59375 C 7.957031 -15 8.765625 -15.203125 9.578125 -15.203125 C 10.859375 -15.203125 11.9375 -14.890625 12.8125 -14.265625 C 13.6875 -13.640625 14.347656 -12.765625 14.796875 -11.640625 C 15.242188 -10.515625 15.46875 -9.1875 15.46875 -7.65625 C 15.46875 -5.96875 15.164062 -4.523438 14.5625 -3.328125 C 13.96875 -2.128906 13.179688 -1.210938 12.203125 -0.578125 C 11.222656 0.046875 10.175781 0.359375 9.0625 0.359375 Z M 8.640625 -1.734375 C 9.453125 -1.734375 10.175781 -1.96875 10.8125 -2.4375 C 11.457031 -2.90625 11.960938 -3.582031 12.328125 -4.46875 C 12.691406 -5.351562 12.875 -6.40625 12.875 -7.625 C 12.875 -8.707031 12.738281 -9.660156 12.46875 -10.484375 C 12.207031 -11.304688 11.789062 -11.945312 11.21875 -12.40625 C 10.65625 -12.863281 9.90625 -13.09375 8.96875 -13.09375 C 8.363281 -13.09375 7.726562 -12.921875 7.0625 -12.578125 C 6.40625 -12.242188 5.71875 -11.742188 5 -11.078125 L 5 -3.296875 C 5.65625 -2.722656 6.300781 -2.316406 6.9375 -2.078125 C 7.582031 -1.847656 8.148438 -1.734375 8.640625 -1.734375 Z M 8.640625 -1.734375 "/></g></g></g><g fill="#f7f4ef" fill-opacity="1"><g transform="translate(129.285258, 235.129941)"><g><path d="M 2.75 6.375 C 2.425781 6.375 2.113281 6.34375 1.8125 6.28125 C 1.519531 6.21875 1.25 6.148438 1 6.078125 L 1.5625 4.125 C 1.738281 4.1875 1.914062 4.226562 2.09375 4.25 C 2.28125 4.28125 2.457031 4.296875 2.625 4.296875 C 3.476562 4.296875 4.171875 3.992188 4.703125 3.390625 C 5.242188 2.796875 5.671875 2.039062 5.984375 1.125 L 6.3125 0.03125 L 0.359375 -14.828125 L 2.953125 -14.828125 L 5.984375 -6.625 C 6.222656 -5.988281 6.460938 -5.304688 6.703125 -4.578125 C 6.953125 -3.847656 7.191406 -3.132812 7.421875 -2.4375 L 7.53125 -2.4375 C 7.757812 -3.132812 7.976562 -3.84375 8.1875 -4.5625 C 8.40625 -5.28125 8.601562 -5.96875 8.78125 -6.625 L 11.4375 -14.828125 L 13.890625 -14.828125 L 8.296875 1.21875 C 7.953125 2.195312 7.535156 3.078125 7.046875 3.859375 C 6.554688 4.640625 5.960938 5.253906 5.265625 5.703125 C 4.578125 6.148438 3.738281 6.375 2.75 6.375 Z M 2.75 6.375 "/></g></g></g><g fill="#f7f4ef" fill-opacity="1"><g transform="translate(143.529854, 235.129941)"><g/></g></g><g fill="#f7f4ef" fill-opacity="1"><g transform="translate(149.630329, 235.129941)"><g><path d="M 8.515625 0.359375 C 7.191406 0.359375 5.984375 0.0507812 4.890625 -0.5625 C 3.804688 -1.1875 2.945312 -2.070312 2.3125 -3.21875 C 1.6875 -4.363281 1.375 -5.765625 1.375 -7.421875 C 1.375 -9.023438 1.695312 -10.40625 2.34375 -11.5625 C 3 -12.726562 3.832031 -13.625 4.84375 -14.25 C 5.863281 -14.882812 6.945312 -15.203125 8.09375 -15.203125 C 9.351562 -15.203125 10.425781 -14.910156 11.3125 -14.328125 C 12.195312 -13.742188 12.859375 -12.929688 13.296875 -11.890625 C 13.742188 -10.859375 13.96875 -9.640625 13.96875 -8.234375 C 13.96875 -7.972656 13.960938 -7.71875 13.953125 -7.46875 C 13.953125 -7.226562 13.921875 -6.988281 13.859375 -6.75 L 3.171875 -6.75 L 3.171875 -8.734375 L 11.71875 -8.734375 C 11.71875 -10.148438 11.40625 -11.238281 10.78125 -12 C 10.164062 -12.769531 9.273438 -13.15625 8.109375 -13.15625 C 7.441406 -13.15625 6.78125 -12.960938 6.125 -12.578125 C 5.476562 -12.203125 4.945312 -11.597656 4.53125 -10.765625 C 4.113281 -9.929688 3.90625 -8.828125 3.90625 -7.453125 C 3.90625 -6.179688 4.125 -5.117188 4.5625 -4.265625 C 5 -3.410156 5.59375 -2.765625 6.34375 -2.328125 C 7.09375 -1.890625 7.914062 -1.671875 8.8125 -1.671875 C 9.53125 -1.671875 10.195312 -1.769531 10.8125 -1.96875 C 11.4375 -2.175781 12.003906 -2.457031 12.515625 -2.8125 L 13.421875 -1.15625 C 12.773438 -0.707031 12.050781 -0.34375 11.25 -0.0625 C 10.445312 0.21875 9.535156 0.359375 8.515625 0.359375 Z M 8.515625 0.359375 "/></g></g></g><g fill="#f7f4ef" fill-opacity="1"><g transform="translate(164.545931, 235.129941)"><g><path d="M 0.421875 0 L 5.28125 -7.75 L 0.796875 -14.828125 L 3.515625 -14.828125 L 5.5 -11.5625 C 5.71875 -11.175781 5.953125 -10.773438 6.203125 -10.359375 C 6.460938 -9.941406 6.710938 -9.519531 6.953125 -9.09375 L 7.078125 -9.09375 C 7.304688 -9.519531 7.53125 -9.941406 7.75 -10.359375 C 7.976562 -10.773438 8.203125 -11.175781 8.421875 -11.5625 L 10.21875 -14.828125 L 12.84375 -14.828125 L 8.359375 -7.46875 L 13.1875 0 L 10.46875 0 L 8.296875 -3.453125 C 8.035156 -3.898438 7.765625 -4.347656 7.484375 -4.796875 C 7.210938 -5.242188 6.945312 -5.679688 6.6875 -6.109375 L 6.5625 -6.109375 C 6.300781 -5.679688 6.046875 -5.25 5.796875 -4.8125 C 5.554688 -4.375 5.3125 -3.921875 5.0625 -3.453125 L 3.046875 0 Z M 0.421875 0 "/></g></g></g><g fill="#f7f4ef" fill-opacity="1"><g transform="translate(178.149984, 235.129941)"><g><path d="M 2.5 6.25 L 2.5 -14.828125 L 4.578125 -14.828125 L 4.796875 -13.125 L 4.875 -13.125 C 5.550781 -13.6875 6.296875 -14.171875 7.109375 -14.578125 C 7.921875 -14.992188 8.753906 -15.203125 9.609375 -15.203125 C 10.867188 -15.203125 11.9375 -14.890625 12.8125 -14.265625 C 13.6875 -13.640625 14.347656 -12.765625 14.796875 -11.640625 C 15.242188 -10.515625 15.46875 -9.175781 15.46875 -7.625 C 15.46875 -5.957031 15.164062 -4.523438 14.5625 -3.328125 C 13.96875 -2.128906 13.179688 -1.210938 12.203125 -0.578125 C 11.222656 0.046875 10.175781 0.359375 9.0625 0.359375 C 8.394531 0.359375 7.710938 0.207031 7.015625 -0.09375 C 6.328125 -0.394531 5.632812 -0.8125 4.9375 -1.34375 L 5 1.25 L 5 6.25 Z M 8.640625 -1.734375 C 9.453125 -1.734375 10.175781 -1.96875 10.8125 -2.4375 C 11.457031 -2.90625 11.960938 -3.582031 12.328125 -4.46875 C 12.691406 -5.351562 12.875 -6.40625 12.875 -7.625 C 12.875 -8.707031 12.738281 -9.660156 12.46875 -10.484375 C 12.207031 -11.304688 11.789062 -11.945312 11.21875 -12.40625 C 10.65625 -12.863281 9.90625 -13.09375 8.96875 -13.09375 C 8.363281 -13.09375 7.734375 -12.921875 7.078125 -12.578125 C 6.429688 -12.242188 5.738281 -11.742188 5 -11.078125 L 5 -3.296875 C 5.695312 -2.722656 6.351562 -2.316406 6.96875 -2.078125 C 7.59375 -1.847656 8.148438 -1.734375 8.640625 -1.734375 Z M 8.640625 -1.734375 "/></g></g></g><g fill="#f7f4ef" fill-opacity="1"><g transform="translate(195.078797, 235.129941)"><g><path d="M 8.515625 0.359375 C 7.191406 0.359375 5.984375 0.0507812 4.890625 -0.5625 C 3.804688 -1.1875 2.945312 -2.070312 2.3125 -3.21875 C 1.6875 -4.363281 1.375 -5.765625 1.375 -7.421875 C 1.375 -9.023438 1.695312 -10.40625 2.34375 -11.5625 C 3 -12.726562 3.832031 -13.625 4.84375 -14.25 C 5.863281 -14.882812 6.945312 -15.203125 8.09375 -15.203125 C 9.351562 -15.203125 10.425781 -14.910156 11.3125 -14.328125 C 12.195312 -13.742188 12.859375 -12.929688 13.296875 -11.890625 C 13.742188 -10.859375 13.96875 -9.640625 13.96875 -8.234375 C 13.96875 -7.972656 13.960938 -7.71875 13.953125 -7.46875 C 13.953125 -7.226562 13.921875 -6.988281 13.859375 -6.75 L 3.171875 -6.75 L 3.171875 -8.734375 L 11.71875 -8.734375 C 11.71875 -10.148438 11.40625 -11.238281 10.78125 -12 C 10.164062 -12.769531 9.273438 -13.15625 8.109375 -13.15625 C 7.441406 -13.15625 6.78125 -12.960938 6.125 -12.578125 C 5.476562 -12.203125 4.945312 -11.597656 4.53125 -10.765625 C 4.113281 -9.929688 3.90625 -8.828125 3.90625 -7.453125 C 3.90625 -6.179688 4.125 -5.117188 4.5625 -4.265625 C 5 -3.410156 5.59375 -2.765625 6.34375 -2.328125 C 7.09375 -1.890625 7.914062 -1.671875 8.8125 -1.671875 C 9.53125 -1.671875 10.195312 -1.769531 10.8125 -1.96875 C 11.4375 -2.175781 12.003906 -2.457031 12.515625 -2.8125 L 13.421875 -1.15625 C 12.773438 -0.707031 12.050781 -0.34375 11.25 -0.0625 C 10.445312 0.21875 9.535156 0.359375 8.515625 0.359375 Z M 8.515625 0.359375 "/></g></g></g><g fill="#f7f4ef" fill-opacity="1"><g transform="translate(210.207972, 235.129941)"><g><path d="M 2.5 0 L 2.5 -14.828125 L 4.578125 -14.828125 L 4.796875 -12.140625 L 4.875 -12.140625 C 5.363281 -13.078125 5.972656 -13.820312 6.703125 -14.375 C 7.441406 -14.925781 8.238281 -15.203125 9.09375 -15.203125 C 9.414062 -15.203125 9.695312 -15.179688 9.9375 -15.140625 C 10.1875 -15.097656 10.4375 -15.015625 10.6875 -14.890625 L 10.125 -12.75 C 9.90625 -12.8125 9.695312 -12.859375 9.5 -12.890625 C 9.3125 -12.921875 9.066406 -12.9375 8.765625 -12.9375 C 8.128906 -12.9375 7.46875 -12.679688 6.78125 -12.171875 C 6.101562 -11.660156 5.507812 -10.773438 5 -9.515625 L 5 0 Z M 2.5 0 "/></g></g></g><g fill="#f7f4ef" fill-opacity="1"><g transform="translate(220.792289, 235.129941)"><g><path d="M 2.5 0 L 2.5 -14.828125 L 5 -14.828125 L 5 0 Z M 3.75 -17.875 C 3.257812 -17.875 2.859375 -18.023438 2.546875 -18.328125 C 2.234375 -18.640625 2.078125 -19.039062 2.078125 -19.53125 C 2.078125 -20.019531 2.234375 -20.414062 2.546875 -20.71875 C 2.859375 -21.019531 3.257812 -21.171875 3.75 -21.171875 C 4.238281 -21.171875 4.640625 -21.019531 4.953125 -20.71875 C 5.265625 -20.414062 5.421875 -20.019531 5.421875 -19.53125 C 5.421875 -19.039062 5.265625 -18.640625 4.953125 -18.328125 C 4.640625 -18.023438 4.238281 -17.875 3.75 -17.875 Z M 3.75 -17.875 "/></g></g></g><g fill="#f7f4ef" fill-opacity="1"><g transform="translate(228.295868, 235.129941)"><g><path d="M 8.515625 0.359375 C 7.191406 0.359375 5.984375 0.0507812 4.890625 -0.5625 C 3.804688 -1.1875 2.945312 -2.070312 2.3125 -3.21875 C 1.6875 -4.363281 1.375 -5.765625 1.375 -7.421875 C 1.375 -9.023438 1.695312 -10.40625 2.34375 -11.5625 C 3 -12.726562 3.832031 -13.625 4.84375 -14.25 C 5.863281 -14.882812 6.945312 -15.203125 8.09375 -15.203125 C 9.351562 -15.203125 10.425781 -14.910156 11.3125 -14.328125 C 12.195312 -13.742188 12.859375 -12.929688 13.296875 -11.890625 C 13.742188 -10.859375 13.96875 -9.640625 13.96875 -8.234375 C 13.96875 -7.972656 13.960938 -7.71875 13.953125 -7.46875 C 13.953125 -7.226562 13.921875 -6.988281 13.859375 -6.75 L 3.171875 -6.75 L 3.171875 -8.734375 L 11.71875 -8.734375 C 11.71875 -10.148438 11.40625 -11.238281 10.78125 -12 C 10.164062 -12.769531 9.273438 -13.15625 8.109375 -13.15625 C 7.441406 -13.15625 6.78125 -12.960938 6.125 -12.578125 C 5.476562 -12.203125 4.945312 -11.597656 4.53125 -10.765625 C 4.113281 -9.929688 3.90625 -8.828125 3.90625 -7.453125 C 3.90625 -6.179688 4.125 -5.117188 4.5625 -4.265625 C 5 -3.410156 5.59375 -2.765625 6.34375 -2.328125 C 7.09375 -1.890625 7.914062 -1.671875 8.8125 -1.671875 C 9.53125 -1.671875 10.195312 -1.769531 10.8125 -1.96875 C 11.4375 -2.175781 12.003906 -2.457031 12.515625 -2.8125 L 13.421875 -1.15625 C 12.773438 -0.707031 12.050781 -0.34375 11.25 -0.0625 C 10.445312 0.21875 9.535156 0.359375 8.515625 0.359375 Z M 8.515625 0.359375 "/></g></g></g><g fill="#f7f4ef" fill-opacity="1"><g transform="translate(243.425053, 235.129941)"><g><path d="M 2.5 0 L 2.5 -14.828125 L 4.578125 -14.828125 L 4.796875 -12.6875 L 4.875 -12.6875 C 5.59375 -13.40625 6.347656 -14.003906 7.140625 -14.484375 C 7.929688 -14.960938 8.835938 -15.203125 9.859375 -15.203125 C 11.421875 -15.203125 12.5625 -14.707031 13.28125 -13.71875 C 14.007812 -12.726562 14.375 -11.289062 14.375 -9.40625 L 14.375 0 L 11.875 0 L 11.875 -9.0625 C 11.875 -10.46875 11.65625 -11.476562 11.21875 -12.09375 C 10.78125 -12.71875 10.0625 -13.03125 9.0625 -13.03125 C 8.3125 -13.03125 7.632812 -12.835938 7.03125 -12.453125 C 6.4375 -12.066406 5.757812 -11.492188 5 -10.734375 L 5 0 Z M 2.5 0 "/></g></g></g><g fill="#f7f4ef" fill-opacity="1"><g transform="translate(260.109833, 235.129941)"><g><path d="M 8.390625 0.359375 C 7.066406 0.359375 5.875 0.0546875 4.8125 -0.546875 C 3.757812 -1.160156 2.925781 -2.046875 2.3125 -3.203125 C 1.707031 -4.359375 1.40625 -5.753906 1.40625 -7.390625 C 1.40625 -9.054688 1.734375 -10.46875 2.390625 -11.625 C 3.054688 -12.78125 3.929688 -13.664062 5.015625 -14.28125 C 6.109375 -14.894531 7.285156 -15.203125 8.546875 -15.203125 C 9.523438 -15.203125 10.363281 -15.035156 11.0625 -14.703125 C 11.757812 -14.378906 12.363281 -13.960938 12.875 -13.453125 L 11.625 -11.90625 C 11.257812 -12.269531 10.828125 -12.554688 10.328125 -12.765625 C 9.828125 -12.984375 9.265625 -13.09375 8.640625 -13.09375 C 7.765625 -13.09375 6.972656 -12.851562 6.265625 -12.375 C 5.566406 -11.894531 5.015625 -11.226562 4.609375 -10.375 C 4.203125 -9.519531 4 -8.523438 4 -7.390625 C 4 -6.265625 4.191406 -5.273438 4.578125 -4.421875 C 4.960938 -3.566406 5.5 -2.898438 6.1875 -2.421875 C 6.882812 -1.941406 7.691406 -1.703125 8.609375 -1.703125 C 9.296875 -1.703125 9.929688 -1.832031 10.515625 -2.09375 C 11.109375 -2.363281 11.617188 -2.703125 12.046875 -3.109375 L 13.15625 -1.59375 C 12.519531 -1 11.804688 -0.523438 11.015625 -0.171875 C 10.222656 0.179688 9.347656 0.359375 8.390625 0.359375 Z M 8.390625 0.359375 "/></g></g></g><g fill="#f7f4ef" fill-opacity="1"><g transform="translate(273.378195, 235.129941)"><g><path d="M 8.515625 0.359375 C 7.191406 0.359375 5.984375 0.0507812 4.890625 -0.5625 C 3.804688 -1.1875 2.945312 -2.070312 2.3125 -3.21875 C 1.6875 -4.363281 1.375 -5.765625 1.375 -7.421875 C 1.375 -9.023438 1.695312 -10.40625 2.34375 -11.5625 C 3 -12.726562 3.832031 -13.625 4.84375 -14.25 C 5.863281 -14.882812 6.945312 -15.203125 8.09375 -15.203125 C 9.351562 -15.203125 10.425781 -14.910156 11.3125 -14.328125 C 12.195312 -13.742188 12.859375 -12.929688 13.296875 -11.890625 C 13.742188 -10.859375 13.96875 -9.640625 13.96875 -8.234375 C 13.96875 -7.972656 13.960938 -7.71875 13.953125 -7.46875 C 13.953125 -7.226562 13.921875 -6.988281 13.859375 -6.75 L 3.171875 -6.75 L 3.171875 -8.734375 L 11.71875 -8.734375 C 11.71875 -10.148438 11.40625 -11.238281 10.78125 -12 C 10.164062 -12.769531 9.273438 -13.15625 8.109375 -13.15625 C 7.441406 -13.15625 6.78125 -12.960938 6.125 -12.578125 C 5.476562 -12.203125 4.945312 -11.597656 4.53125 -10.765625 C 4.113281 -9.929688 3.90625 -8.828125 3.90625 -7.453125 C 3.90625 -6.179688 4.125 -5.117188 4.5625 -4.265625 C 5 -3.410156 5.59375 -2.765625 6.34375 -2.328125 C 7.09375 -1.890625 7.914062 -1.671875 8.8125 -1.671875 C 9.53125 -1.671875 10.195312 -1.769531 10.8125 -1.96875 C 11.4375 -2.175781 12.003906 -2.457031 12.515625 -2.8125 L 13.421875 -1.15625 C 12.773438 -0.707031 12.050781 -0.34375 11.25 -0.0625 C 10.445312 0.21875 9.535156 0.359375 8.515625 0.359375 Z M 8.515625 0.359375 "/></g></g></g><g fill="#f7f4ef" fill-opacity="1"><g transform="translate(288.507381, 235.129941)"><g><path d="M 3.8125 0.359375 C 3.320312 0.359375 2.894531 0.179688 2.53125 -0.171875 C 2.164062 -0.523438 1.984375 -0.976562 1.984375 -1.53125 C 1.984375 -2.113281 2.164062 -2.582031 2.53125 -2.9375 C 2.894531 -3.300781 3.320312 -3.484375 3.8125 -3.484375 C 4.320312 -3.484375 4.75 -3.300781 5.09375 -2.9375 C 5.4375 -2.582031 5.609375 -2.113281 5.609375 -1.53125 C 5.609375 -0.976562 5.4375 -0.523438 5.09375 -0.171875 C 4.75 0.179688 4.320312 0.359375 3.8125 0.359375 Z M 3.8125 0.359375 "/></g></g></g><g fill="#f7f4ef" fill-opacity="1"><g transform="translate(296.102469, 235.129941)"><g/></g></g><g fill="#f7f4ef" fill-opacity="1"><g transform="translate(302.202932, 235.129941)"><g><path d="M 2.75 0 L 2.75 -20.015625 L 7.75 -20.015625 C 9.800781 -20.015625 11.53125 -19.628906 12.9375 -18.859375 C 14.34375 -18.085938 15.40625 -16.960938 16.125 -15.484375 C 16.84375 -14.015625 17.203125 -12.21875 17.203125 -10.09375 C 17.203125 -7.976562 16.84375 -6.160156 16.125 -4.640625 C 15.40625 -3.128906 14.351562 -1.976562 12.96875 -1.1875 C 11.582031 -0.394531 9.882812 0 7.875 0 Z M 5.28125 -2.078125 L 7.5625 -2.078125 C 9.132812 -2.078125 10.4375 -2.394531 11.46875 -3.03125 C 12.507812 -3.675781 13.285156 -4.585938 13.796875 -5.765625 C 14.304688 -6.941406 14.5625 -8.382812 14.5625 -10.09375 C 14.5625 -11.769531 14.304688 -13.195312 13.796875 -14.375 C 13.285156 -15.550781 12.507812 -16.4375 11.46875 -17.03125 C 10.4375 -17.632812 9.132812 -17.9375 7.5625 -17.9375 L 5.28125 -17.9375 Z M 5.28125 -2.078125 "/></g></g></g><g fill="#f7f4ef" fill-opacity="1"><g transform="translate(320.96189, 235.129941)"><g><path d="M 2.5 0 L 2.5 -14.828125 L 4.578125 -14.828125 L 4.796875 -12.140625 L 4.875 -12.140625 C 5.363281 -13.078125 5.972656 -13.820312 6.703125 -14.375 C 7.441406 -14.925781 8.238281 -15.203125 9.09375 -15.203125 C 9.414062 -15.203125 9.695312 -15.179688 9.9375 -15.140625 C 10.1875 -15.097656 10.4375 -15.015625 10.6875 -14.890625 L 10.125 -12.75 C 9.90625 -12.8125 9.695312 -12.859375 9.5 -12.890625 C 9.3125 -12.921875 9.066406 -12.9375 8.765625 -12.9375 C 8.128906 -12.9375 7.46875 -12.679688 6.78125 -12.171875 C 6.101562 -11.660156 5.507812 -10.773438 5 -9.515625 L 5 0 Z M 2.5 0 "/></g></g></g><g fill="#f7f4ef" fill-opacity="1"><g transform="translate(331.546207, 235.129941)"><g><path d="M 2.5 0 L 2.5 -14.828125 L 5 -14.828125 L 5 0 Z M 3.75 -17.875 C 3.257812 -17.875 2.859375 -18.023438 2.546875 -18.328125 C 2.234375 -18.640625 2.078125 -19.039062 2.078125 -19.53125 C 2.078125 -20.019531 2.234375 -20.414062 2.546875 -20.71875 C 2.859375 -21.019531 3.257812 -21.171875 3.75 -21.171875 C 4.238281 -21.171875 4.640625 -21.019531 4.953125 -20.71875 C 5.265625 -20.414062 5.421875 -20.019531 5.421875 -19.53125 C 5.421875 -19.039062 5.265625 -18.640625 4.953125 -18.328125 C 4.640625 -18.023438 4.238281 -17.875 3.75 -17.875 Z M 3.75 -17.875 "/></g></g></g><g fill="#f7f4ef" fill-opacity="1"><g transform="translate(339.049786, 235.129941)"><g><path d="M 5.703125 0 L 0.359375 -14.828125 L 2.953125 -14.828125 L 5.765625 -6.40625 C 5.992188 -5.695312 6.222656 -4.96875 6.453125 -4.21875 C 6.691406 -3.476562 6.921875 -2.753906 7.140625 -2.046875 L 7.265625 -2.046875 C 7.460938 -2.753906 7.679688 -3.476562 7.921875 -4.21875 C 8.171875 -4.96875 8.398438 -5.695312 8.609375 -6.40625 L 11.40625 -14.828125 L 13.890625 -14.828125 L 8.640625 0 Z M 5.703125 0 "/></g></g></g><g fill="#f7f4ef" fill-opacity="1"><g transform="translate(353.172344, 235.129941)"><g><path d="M 8.515625 0.359375 C 7.191406 0.359375 5.984375 0.0507812 4.890625 -0.5625 C 3.804688 -1.1875 2.945312 -2.070312 2.3125 -3.21875 C 1.6875 -4.363281 1.375 -5.765625 1.375 -7.421875 C 1.375 -9.023438 1.695312 -10.40625 2.34375 -11.5625 C 3 -12.726562 3.832031 -13.625 4.84375 -14.25 C 5.863281 -14.882812 6.945312 -15.203125 8.09375 -15.203125 C 9.351562 -15.203125 10.425781 -14.910156 11.3125 -14.328125 C 12.195312 -13.742188 12.859375 -12.929688 13.296875 -11.890625 C 13.742188 -10.859375 13.96875 -9.640625 13.96875 -8.234375 C 13.96875 -7.972656 13.960938 -7.71875 13.953125 -7.46875 C 13.953125 -7.226562 13.921875 -6.988281 13.859375 -6.75 L 3.171875 -6.75 L 3.171875 -8.734375 L 11.71875 -8.734375 C 11.71875 -10.148438 11.40625 -11.238281 10.78125 -12 C 10.164062 -12.769531 9.273438 -13.15625 8.109375 -13.15625 C 7.441406 -13.15625 6.78125 -12.960938 6.125 -12.578125 C 5.476562 -12.203125 4.945312 -11.597656 4.53125 -10.765625 C 4.113281 -9.929688 3.90625 -8.828125 3.90625 -7.453125 C 3.90625 -6.179688 4.125 -5.117188 4.5625 -4.265625 C 5 -3.410156 5.59375 -2.765625 6.34375 -2.328125 C 7.09375 -1.890625 7.914062 -1.671875 8.8125 -1.671875 C 9.53125 -1.671875 10.195312 -1.769531 10.8125 -1.96875 C 11.4375 -2.175781 12.003906 -2.457031 12.515625 -2.8125 L 13.421875 -1.15625 C 12.773438 -0.707031 12.050781 -0.34375 11.25 -0.0625 C 10.445312 0.21875 9.535156 0.359375 8.515625 0.359375 Z M 8.515625 0.359375 "/></g></g></g><g fill="#f7f4ef" fill-opacity="1"><g transform="translate(368.301529, 235.129941)"><g><path d="M 2.5 0 L 2.5 -14.828125 L 4.578125 -14.828125 L 4.796875 -12.6875 L 4.875 -12.6875 C 5.59375 -13.40625 6.347656 -14.003906 7.140625 -14.484375 C 7.929688 -14.960938 8.835938 -15.203125 9.859375 -15.203125 C 11.421875 -15.203125 12.5625 -14.707031 13.28125 -13.71875 C 14.007812 -12.726562 14.375 -11.289062 14.375 -9.40625 L 14.375 0 L 11.875 0 L 11.875 -9.0625 C 11.875 -10.46875 11.65625 -11.476562 11.21875 -12.09375 C 10.78125 -12.71875 10.0625 -13.03125 9.0625 -13.03125 C 8.3125 -13.03125 7.632812 -12.835938 7.03125 -12.453125 C 6.4375 -12.066406 5.757812 -11.492188 5 -10.734375 L 5 0 Z M 2.5 0 "/></g></g></g><g fill="#f7f4ef" fill-opacity="1"><g transform="translate(384.986309, 235.129941)"><g/></g></g><g fill="#f7f4ef" fill-opacity="1"><g transform="translate(391.086772, 235.129941)"><g><path d="M 9.0625 0.359375 C 8.375 0.359375 7.660156 0.191406 6.921875 -0.140625 C 6.191406 -0.472656 5.492188 -0.9375 4.828125 -1.53125 L 4.734375 -1.53125 L 4.515625 0 L 2.5 0 L 2.5 -21.734375 L 5 -21.734375 L 5 -15.8125 L 4.9375 -13.125 C 5.613281 -13.707031 6.351562 -14.195312 7.15625 -14.59375 C 7.957031 -15 8.765625 -15.203125 9.578125 -15.203125 C 10.859375 -15.203125 11.9375 -14.890625 12.8125 -14.265625 C 13.6875 -13.640625 14.347656 -12.765625 14.796875 -11.640625 C 15.242188 -10.515625 15.46875 -9.1875 15.46875 -7.65625 C 15.46875 -5.96875 15.164062 -4.523438 14.5625 -3.328125 C 13.96875 -2.128906 13.179688 -1.210938 12.203125 -0.578125 C 11.222656 0.046875 10.175781 0.359375 9.0625 0.359375 Z M 8.640625 -1.734375 C 9.453125 -1.734375 10.175781 -1.96875 10.8125 -2.4375 C 11.457031 -2.90625 11.960938 -3.582031 12.328125 -4.46875 C 12.691406 -5.351562 12.875 -6.40625 12.875 -7.625 C 12.875 -8.707031 12.738281 -9.660156 12.46875 -10.484375 C 12.207031 -11.304688 11.789062 -11.945312 11.21875 -12.40625 C 10.65625 -12.863281 9.90625 -13.09375 8.96875 -13.09375 C 8.363281 -13.09375 7.726562 -12.921875 7.0625 -12.578125 C 6.40625 -12.242188 5.71875 -11.742188 5 -11.078125 L 5 -3.296875 C 5.65625 -2.722656 6.300781 -2.316406 6.9375 -2.078125 C 7.582031 -1.847656 8.148438 -1.734375 8.640625 -1.734375 Z M 8.640625 -1.734375 "/></g></g></g><g fill="#f7f4ef" fill-opacity="1"><g transform="translate(407.832566, 235.129941)"><g><path d="M 2.75 6.375 C 2.425781 6.375 2.113281 6.34375 1.8125 6.28125 C 1.519531 6.21875 1.25 6.148438 1 6.078125 L 1.5625 4.125 C 1.738281 4.1875 1.914062 4.226562 2.09375 4.25 C 2.28125 4.28125 2.457031 4.296875 2.625 4.296875 C 3.476562 4.296875 4.171875 3.992188 4.703125 3.390625 C 5.242188 2.796875 5.671875 2.039062 5.984375 1.125 L 6.3125 0.03125 L 0.359375 -14.828125 L 2.953125 -14.828125 L 5.984375 -6.625 C 6.222656 -5.988281 6.460938 -5.304688 6.703125 -4.578125 C 6.953125 -3.847656 7.191406 -3.132812 7.421875 -2.4375 L 7.53125 -2.4375 C 7.757812 -3.132812 7.976562 -3.84375 8.1875 -4.5625 C 8.40625 -5.28125 8.601562 -5.96875 8.78125 -6.625 L 11.4375 -14.828125 L 13.890625 -14.828125 L 8.296875 1.21875 C 7.953125 2.195312 7.535156 3.078125 7.046875 3.859375 C 6.554688 4.640625 5.960938 5.253906 5.265625 5.703125 C 4.578125 6.148438 3.738281 6.375 2.75 6.375 Z M 2.75 6.375 "/></g></g></g><g fill="#f7f4ef" fill-opacity="1"><g transform="translate(422.077128, 235.129941)"><g/></g></g><g fill="#f7f4ef" fill-opacity="1"><g transform="translate(428.177614, 235.129941)"><g><path d="M 8.390625 0.359375 C 7.066406 0.359375 5.875 0.0546875 4.8125 -0.546875 C 3.757812 -1.160156 2.925781 -2.046875 2.3125 -3.203125 C 1.707031 -4.359375 1.40625 -5.753906 1.40625 -7.390625 C 1.40625 -9.054688 1.734375 -10.46875 2.390625 -11.625 C 3.054688 -12.78125 3.929688 -13.664062 5.015625 -14.28125 C 6.109375 -14.894531 7.285156 -15.203125 8.546875 -15.203125 C 9.523438 -15.203125 10.363281 -15.035156 11.0625 -14.703125 C 11.757812 -14.378906 12.363281 -13.960938 12.875 -13.453125 L 11.625 -11.90625 C 11.257812 -12.269531 10.828125 -12.554688 10.328125 -12.765625 C 9.828125 -12.984375 9.265625 -13.09375 8.640625 -13.09375 C 7.765625 -13.09375 6.972656 -12.851562 6.265625 -12.375 C 5.566406 -11.894531 5.015625 -11.226562 4.609375 -10.375 C 4.203125 -9.519531 4 -8.523438 4 -7.390625 C 4 -6.265625 4.191406 -5.273438 4.578125 -4.421875 C 4.960938 -3.566406 5.5 -2.898438 6.1875 -2.421875 C 6.882812 -1.941406 7.691406 -1.703125 8.609375 -1.703125 C 9.296875 -1.703125 9.929688 -1.832031 10.515625 -2.09375 C 11.109375 -2.363281 11.617188 -2.703125 12.046875 -3.109375 L 13.15625 -1.59375 C 12.519531 -1 11.804688 -0.523438 11.015625 -0.171875 C 10.222656 0.179688 9.347656 0.359375 8.390625 0.359375 Z M 8.390625 0.359375 "/></g></g></g><g fill="#f7f4ef" fill-opacity="1"><g transform="translate(441.781609, 235.129941)"><g><path d="M 5.921875 0.359375 C 5.109375 0.359375 4.367188 0.191406 3.703125 -0.140625 C 3.046875 -0.472656 2.523438 -0.945312 2.140625 -1.5625 C 1.753906 -2.1875 1.5625 -2.945312 1.5625 -3.84375 C 1.5625 -5.507812 2.289062 -6.769531 3.75 -7.625 C 5.21875 -8.476562 7.539062 -9.078125 10.71875 -9.421875 C 10.695312 -10.035156 10.597656 -10.625 10.421875 -11.1875 C 10.242188 -11.757812 9.929688 -12.21875 9.484375 -12.5625 C 9.035156 -12.914062 8.414062 -13.09375 7.625 -13.09375 C 6.769531 -13.09375 5.96875 -12.929688 5.21875 -12.609375 C 4.46875 -12.296875 3.796875 -11.945312 3.203125 -11.5625 L 2.234375 -13.28125 C 2.679688 -13.582031 3.207031 -13.878906 3.8125 -14.171875 C 4.425781 -14.460938 5.085938 -14.707031 5.796875 -14.90625 C 6.503906 -15.101562 7.257812 -15.203125 8.0625 -15.203125 C 9.257812 -15.203125 10.238281 -14.953125 11 -14.453125 C 11.757812 -13.953125 12.316406 -13.242188 12.671875 -12.328125 C 13.035156 -11.410156 13.21875 -10.332031 13.21875 -9.09375 L 13.21875 0 L 11.140625 0 L 10.921875 -1.765625 L 10.828125 -1.765625 C 10.117188 -1.179688 9.359375 -0.679688 8.546875 -0.265625 C 7.734375 0.148438 6.859375 0.359375 5.921875 0.359375 Z M 6.625 -1.703125 C 7.351562 -1.703125 8.035156 -1.863281 8.671875 -2.1875 C 9.316406 -2.519531 10 -3 10.71875 -3.625 L 10.71875 -7.625 C 9.039062 -7.425781 7.71875 -7.164062 6.75 -6.84375 C 5.789062 -6.53125 5.097656 -6.140625 4.671875 -5.671875 C 4.242188 -5.203125 4.03125 -4.644531 4.03125 -4 C 4.03125 -3.1875 4.28125 -2.597656 4.78125 -2.234375 C 5.289062 -1.878906 5.90625 -1.703125 6.625 -1.703125 Z M 6.625 -1.703125 "/></g></g></g><g fill="#f7f4ef" fill-opacity="1"><g transform="translate(457.154805, 235.129941)"><g><path d="M 2.5 0 L 2.5 -14.828125 L 4.578125 -14.828125 L 4.796875 -12.140625 L 4.875 -12.140625 C 5.363281 -13.078125 5.972656 -13.820312 6.703125 -14.375 C 7.441406 -14.925781 8.238281 -15.203125 9.09375 -15.203125 C 9.414062 -15.203125 9.695312 -15.179688 9.9375 -15.140625 C 10.1875 -15.097656 10.4375 -15.015625 10.6875 -14.890625 L 10.125 -12.75 C 9.90625 -12.8125 9.695312 -12.859375 9.5 -12.890625 C 9.3125 -12.921875 9.066406 -12.9375 8.765625 -12.9375 C 8.128906 -12.9375 7.46875 -12.679688 6.78125 -12.171875 C 6.101562 -11.660156 5.507812 -10.773438 5 -9.515625 L 5 0 Z M 2.5 0 "/></g></g></g><g fill="#f7f4ef" fill-opacity="1"><g transform="translate(467.43403, 235.129941)"><g><path d="M 8.515625 0.359375 C 7.191406 0.359375 5.984375 0.0507812 4.890625 -0.5625 C 3.804688 -1.1875 2.945312 -2.070312 2.3125 -3.21875 C 1.6875 -4.363281 1.375 -5.765625 1.375 -7.421875 C 1.375 -9.023438 1.695312 -10.40625 2.34375 -11.5625 C 3 -12.726562 3.832031 -13.625 4.84375 -14.25 C 5.863281 -14.882812 6.945312 -15.203125 8.09375 -15.203125 C 9.351562 -15.203125 10.425781 -14.910156 11.3125 -14.328125 C 12.195312 -13.742188 12.859375 -12.929688 13.296875 -11.890625 C 13.742188 -10.859375 13.96875 -9.640625 13.96875 -8.234375 C 13.96875 -7.972656 13.960938 -7.71875 13.953125 -7.46875 C 13.953125 -7.226562 13.921875 -6.988281 13.859375 -6.75 L 3.171875 -6.75 L 3.171875 -8.734375 L 11.71875 -8.734375 C 11.71875 -10.148438 11.40625 -11.238281 10.78125 -12 C 10.164062 -12.769531 9.273438 -13.15625 8.109375 -13.15625 C 7.441406 -13.15625 6.78125 -12.960938 6.125 -12.578125 C 5.476562 -12.203125 4.945312 -11.597656 4.53125 -10.765625 C 4.113281 -9.929688 3.90625 -8.828125 3.90625 -7.453125 C 3.90625 -6.179688 4.125 -5.117188 4.5625 -4.265625 C 5 -3.410156 5.59375 -2.765625 6.34375 -2.328125 C 7.09375 -1.890625 7.914062 -1.671875 8.8125 -1.671875 C 9.53125 -1.671875 10.195312 -1.769531 10.8125 -1.96875 C 11.4375 -2.175781 12.003906 -2.457031 12.515625 -2.8125 L 13.421875 -1.15625 C 12.773438 -0.707031 12.050781 -0.34375 11.25 -0.0625 C 10.445312 0.21875 9.535156 0.359375 8.515625 0.359375 Z M 8.515625 0.359375 "/></g></g></g><g fill="#f7f4ef" fill-opacity="1"><g transform="translate(482.56317, 235.129941)"><g><path d="M 3.8125 0.359375 C 3.320312 0.359375 2.894531 0.179688 2.53125 -0.171875 C 2.164062 -0.523438 1.984375 -0.976562 1.984375 -1.53125 C 1.984375 -2.113281 2.164062 -2.582031 2.53125 -2.9375 C 2.894531 -3.300781 3.320312 -3.484375 3.8125 -3.484375 C 4.320312 -3.484375 4.75 -3.300781 5.09375 -2.9375 C 5.4375 -2.582031 5.609375 -2.113281 5.609375 -1.53125 C 5.609375 -0.976562 5.4375 -0.523438 5.09375 -0.171875 C 4.75 0.179688 4.320312 0.359375 3.8125 0.359375 Z M 3.8125 0.359375 "/></g></g></g></svg>