<?xml version="1.0" encoding="UTF-8" standalone="no"?>
<!DOCTYPE svg PUBLIC "-//W3C//DTD SVG 1.1//EN" "http://www.w3.org/Graphics/SVG/1.1/DTD/svg11.dtd">
<svg width="100%" height="100%" viewBox="0 0 1711 1663" version="1.1" xmlns="http://www.w3.org/2000/svg" xmlns:xlink="http://www.w3.org/1999/xlink" xml:space="preserve" xmlns:serif="http://www.serif.com/" style="fill-rule:evenodd;clip-rule:evenodd;stroke-linejoin:round;stroke-miterlimit:2;">
    <g transform="matrix(1,0,0,1,-27,-29.470255)">
        <g transform="matrix(6.013222,0.003522,-0.003422,5.842149,-334.110036,-1094.865257)">
            <path d="M83.355,292.249C73.876,298.194 73.951,298.157 65.514,305.527C60.482,309.922 69.686,284.891 72.967,277.694C123.479,166.914 272.607,163.926 323.985,274.273C330.224,287.672 335.167,307.513 333.329,309.349C332.422,310.256 310.209,322.248 284.497,322.094C223.075,321.725 182.849,263.866 110.423,281.188C96.347,284.555 85.368,291.057 83.355,292.249Z" style="fill:rgb(234,197,175);"/>
        </g>
        <g transform="matrix(5.993032,0.00351,-0.003497,5.969614,-324.33184,-1135.67984)">
            <path d="M335.903,327.497C335.857,329.843 335.358,355.489 331.5,356.502C330.871,356.667 330.219,356.736 329.585,356.88C324.036,358.141 323.591,361.73 320.438,359.581C301.977,346.996 289.633,376.297 255.676,394.869C252.814,396.435 250.634,398.132 251.086,394.465C254.166,369.443 223.795,376.91 215.492,376.81C172.753,376.295 153.801,352.079 109.488,367.469C87.512,375.101 73.601,391.448 71.364,390.694C70.343,390.35 58.173,361.141 59.485,332.499C60.006,321.122 60.884,319.293 62.634,317.644C132.408,251.892 205.038,311.805 240.457,324.63C296.807,345.035 333.165,316.176 335.13,318.749C335.548,319.297 335.369,319.272 335.903,327.497Z" style="fill:rgb(141,187,190);"/>
        </g>
        <g transform="matrix(6.01019,0.00352,-0.003457,5.901179,-324.792707,-1111.452111)">
            <path d="M202.463,410.038C198.986,410.153 189.705,408.077 165.775,419.984C159.837,422.939 160.277,423.891 160.694,424.218C163.509,426.426 169.948,414.318 193.438,417.994C238.963,425.119 248.584,422.236 289.648,401.774C319.727,386.786 326.764,404.303 319.445,410.437C308.017,420.015 307.722,419.592 297.188,430.192C221.254,506.597 112.886,472.202 75.794,400.346C73.115,395.155 97.791,380.783 101.693,378.944C147.049,357.574 173.787,384.736 211.497,383.395C226.713,382.854 248.181,376.036 245.029,395.409C242.943,408.233 217.935,408.818 202.463,410.038Z" style="fill:rgb(3,79,94);"/>
        </g>
        <g transform="matrix(6.045503,0.003541,-0.003522,6.013633,-336.143195,-1153.147258)">
            <path d="M323.439,399.636C313.381,386.357 296.486,399.131 301.891,392.735C314.503,377.807 326.152,357.25 339.603,363.278C340.447,363.656 346.255,367.174 341.151,375.299C332.664,388.808 325.739,398.213 324.316,400.147L323.439,399.636Z" style="fill:rgb(3,79,94);"/>
        </g>
        <g transform="matrix(6.045503,0.003541,-0.003522,6.013633,-336.143195,-1153.147258)">
            <path d="M311.5,364.053C319.069,364.768 319.089,367.827 317.527,369.524C307.774,380.127 298.715,395.035 294.307,397.056C265.941,410.058 266.144,410.545 263.513,411.197C258.236,412.505 263.949,409.54 268.249,406.223C293.96,386.392 295.153,365.439 311.5,364.053Z" style="fill:rgb(3,79,94);"/>
        </g>
        <g transform="matrix(6.045503,0.003541,-0.003522,6.013633,-336.143195,-1153.147258)">
            <path d="M266.674,397.739C270.624,394.666 275.306,391.63 285.589,381.594C302.947,364.653 281.458,394.519 257.196,412.087C254.238,414.229 228.075,418.489 232.816,414.937C235.711,412.768 239.354,417.224 266.674,397.739Z" style="fill:rgb(3,79,94);"/>
        </g>
    </g>
</svg>
